M48
; DRILL file {KiCad (6.0.6)} date Fri Jul 22 23:00:58 2022
; FORMAT={-:-/ absolute / metric / decimal}
; #@! TF.CreationDate,2022-07-22T23:00:58-04:00
; #@! TF.GenerationSoftware,Kicad,Pcbnew,(6.0.6)
; #@! TF.FileFunction,Plated,1,4,PTH
FMAT,2
METRIC
; #@! TA.AperFunction,Plated,PTH,ViaDrill
T1C0.400
; #@! TA.AperFunction,Plated,PTH,ComponentDrill
T2C0.800
; #@! TA.AperFunction,Plated,PTH,ComponentDrill
T3C1.000
; #@! TA.AperFunction,Plated,PTH,ComponentDrill
T4C1.100
; #@! TA.AperFunction,Plated,PTH,ComponentDrill
T5C1.300
; #@! TA.AperFunction,Plated,PTH,ComponentDrill
T6C1.520
%
G90
G05
T1
X80.856Y-73.6
X82.081Y-72.0
X85.631Y-68.45
X87.981Y-64.05
X93.031Y-56.175
X93.206Y-72.125
X94.731Y-70.6
X96.881Y-84.65
X98.281Y-82.5
X100.881Y-74.25
X101.656Y-55.0
X101.656Y-59.3
X102.556Y-75.3
X104.981Y-71.675
X105.081Y-68.05
X107.581Y-84.575
X107.731Y-71.675
X108.131Y-65.925
X108.731Y-73.0
X108.831Y-84.525
X110.131Y-85.249
X110.231Y-73.95
X113.756Y-75.3
X114.531Y-84.5
X115.781Y-83.7
X116.731Y-70.6
X117.256Y-68.778
X117.306Y-80.125
X118.781Y-71.575
X118.856Y-84.5
X119.006Y-67.2
X119.081Y-55.5
X120.131Y-82.575
X120.206Y-73.1
X121.281Y-71.475
X121.631Y-82.15
X121.656Y-73.975
X122.756Y-81.1
X122.831Y-64.5
X122.956Y-62.75
X123.056Y-75.05
X123.706Y-57.4
X124.731Y-77.768
X125.528Y-65.75
X125.681Y-76.586
X126.106Y-77.55
X127.131Y-72.325
X127.256Y-70.875
X127.256Y-70.875
X127.456Y-64.2
X127.856Y-78.546
X128.231Y-68.775
X128.431Y-79.65
X129.481Y-62.15
X129.755Y-71.286
X130.281Y-73.275
X130.281Y-82.928
X131.281Y-82.15
X131.406Y-72.075
X131.706Y-68.775
X132.206Y-80.875
X132.381Y-85.3
X132.731Y-64.9
X133.506Y-82.425
X133.706Y-76.775
X134.356Y-84.478
X134.431Y-79.35
X134.531Y-55.5
X135.581Y-63.8
X135.631Y-77.975
X135.731Y-75.996
X136.169Y-67.379
X137.506Y-75.8
X137.806Y-67.65
X141.146Y-71.51
X142.806Y-69.724
X143.281Y-80.375
X143.931Y-71.525
X149.256Y-66.502
X149.656Y-79.55
X150.061Y-83.695
X150.806Y-57.0
X150.981Y-78.7
X153.281Y-66.625
X155.306Y-100.675
X155.481Y-76.625
X157.431Y-69.725
X158.831Y-83.75
X158.906Y-56.675
X159.456Y-85.95
X159.881Y-55.025
X159.931Y-57.975
X161.994Y-81.062
X164.206Y-84.375
X165.031Y-77.825
X165.081Y-81.35
X165.881Y-84.35
X169.356Y-96.675
X169.431Y-87.225
X169.631Y-67.825
X172.056Y-69.35
X173.181Y-72.425
X174.491Y-75.29
X176.481Y-80.425
X176.531Y-77.725
X177.056Y-65.825
X179.556Y-67.675
X180.156Y-68.475
X180.556Y-60.275
X180.556Y-61.275
X180.556Y-62.275
X180.556Y-67.675
X181.156Y-68.475
X181.556Y-60.275
X181.556Y-61.275
X181.556Y-62.275
X181.556Y-67.675
X182.156Y-68.475
X182.556Y-60.275
X182.556Y-61.275
X182.556Y-62.275
X182.556Y-67.675
X182.958Y-57.987
X183.156Y-68.475
X183.556Y-60.275
X183.556Y-61.275
X183.556Y-62.275
X183.556Y-67.675
X183.558Y-57.187
X184.158Y-57.987
X184.556Y-60.275
X184.556Y-61.275
X184.556Y-62.275
X184.558Y-57.187
X185.158Y-57.987
X185.556Y-60.275
X185.556Y-61.275
X185.556Y-62.275
X185.558Y-57.187
X186.158Y-57.987
X188.686Y-53.393
X188.718Y-54.393
X189.686Y-53.393
X189.686Y-54.393
X190.686Y-53.393
X190.686Y-54.393
X191.686Y-53.393
X191.686Y-54.393
X191.831Y-85.825
X199.556Y-91.775
X200.756Y-90.475
X205.231Y-87.45
X211.781Y-87.525
T2
X127.781Y-60.1
X132.661Y-60.1
X153.166Y-56.6
X153.166Y-64.22
X155.706Y-56.6
X155.706Y-64.22
X162.691Y-56.925
X162.691Y-64.545
X165.231Y-56.925
X165.231Y-64.545
T3
X78.206Y-75.825
X78.206Y-79.5
X80.746Y-75.825
X80.746Y-79.5
X83.286Y-75.825
X83.286Y-79.5
X85.826Y-75.825
X85.826Y-79.5
X88.366Y-79.5
X90.906Y-79.5
X93.446Y-79.5
X95.986Y-79.5
X98.526Y-79.5
T4
X199.076Y-97.95
X201.616Y-97.95
X204.156Y-97.95
X204.366Y-90.105
X206.906Y-90.105
X209.446Y-90.105
T5
X84.721Y-90.38
X84.721Y-102.58
X90.721Y-88.38
X96.721Y-90.38
X96.721Y-102.58
X102.501Y-90.38
X102.501Y-102.58
X108.501Y-88.38
X114.501Y-90.38
X114.501Y-102.58
X120.281Y-90.38
X120.281Y-102.58
X126.281Y-88.38
X132.281Y-90.38
X132.281Y-102.58
X138.061Y-90.38
X138.061Y-102.58
X144.061Y-88.38
X150.061Y-90.38
X150.061Y-102.58
T6
X84.996Y-51.425
X85.551Y-110.475
X90.076Y-51.425
X90.631Y-110.475
X95.156Y-51.425
X95.711Y-110.475
X101.776Y-51.35
X103.401Y-110.425
X106.856Y-51.35
X108.481Y-110.425
X112.921Y-51.25
X113.561Y-110.425
X118.001Y-51.25
X121.101Y-110.475
X123.081Y-51.25
X126.181Y-110.475
X131.261Y-110.475
X134.671Y-50.975
X138.876Y-110.425
X139.751Y-50.975
X143.956Y-110.425
X144.831Y-50.975
X149.036Y-110.425
X150.976Y-50.85
X156.056Y-50.85
X156.166Y-110.425
X161.246Y-110.425
X162.966Y-50.9
X167.466Y-110.475
X168.046Y-50.9
X172.546Y-110.475
X178.941Y-110.475
X184.021Y-110.475
X190.291Y-110.425
X195.371Y-110.425
X201.776Y-110.475
X206.856Y-110.475
X211.936Y-110.475
X213.276Y-53.885
X213.276Y-58.965
T0
M30
