%TF.GenerationSoftware,KiCad,Pcbnew,(6.0.6)*%
%TF.CreationDate,2022-07-22T23:00:37-04:00*%
%TF.ProjectId,Proyecto,50726f79-6563-4746-9f2e-6b696361645f,rev?*%
%TF.SameCoordinates,Original*%
%TF.FileFunction,Soldermask,Top*%
%TF.FilePolarity,Negative*%
%FSLAX46Y46*%
G04 Gerber Fmt 4.6, Leading zero omitted, Abs format (unit mm)*
G04 Created by KiCad (PCBNEW (6.0.6)) date 2022-07-22 23:00:37*
%MOMM*%
%LPD*%
G01*
G04 APERTURE LIST*
G04 Aperture macros list*
%AMRoundRect*
0 Rectangle with rounded corners*
0 $1 Rounding radius*
0 $2 $3 $4 $5 $6 $7 $8 $9 X,Y pos of 4 corners*
0 Add a 4 corners polygon primitive as box body*
4,1,4,$2,$3,$4,$5,$6,$7,$8,$9,$2,$3,0*
0 Add four circle primitives for the rounded corners*
1,1,$1+$1,$2,$3*
1,1,$1+$1,$4,$5*
1,1,$1+$1,$6,$7*
1,1,$1+$1,$8,$9*
0 Add four rect primitives between the rounded corners*
20,1,$1+$1,$2,$3,$4,$5,0*
20,1,$1+$1,$4,$5,$6,$7,0*
20,1,$1+$1,$6,$7,$8,$9,0*
20,1,$1+$1,$8,$9,$2,$3,0*%
G04 Aperture macros list end*
%ADD10R,3.000000X3.000000*%
%ADD11C,3.000000*%
%ADD12R,1.905000X2.000000*%
%ADD13O,1.905000X2.000000*%
%ADD14RoundRect,0.100000X0.130000X0.100000X-0.130000X0.100000X-0.130000X-0.100000X0.130000X-0.100000X0*%
%ADD15R,1.700000X1.700000*%
%ADD16O,1.700000X1.700000*%
%ADD17RoundRect,0.150000X0.825000X0.150000X-0.825000X0.150000X-0.825000X-0.150000X0.825000X-0.150000X0*%
%ADD18RoundRect,0.150000X-0.150000X0.825000X-0.150000X-0.825000X0.150000X-0.825000X0.150000X0.825000X0*%
%ADD19R,1.120000X2.440000*%
%ADD20RoundRect,0.100000X-0.130000X-0.100000X0.130000X-0.100000X0.130000X0.100000X-0.130000X0.100000X0*%
%ADD21RoundRect,0.225000X0.250000X-0.225000X0.250000X0.225000X-0.250000X0.225000X-0.250000X-0.225000X0*%
%ADD22RoundRect,0.150000X-0.150000X0.512500X-0.150000X-0.512500X0.150000X-0.512500X0.150000X0.512500X0*%
%ADD23RoundRect,0.100000X-0.100000X0.130000X-0.100000X-0.130000X0.100000X-0.130000X0.100000X0.130000X0*%
%ADD24C,2.200000*%
%ADD25RoundRect,0.200000X-0.200000X-0.275000X0.200000X-0.275000X0.200000X0.275000X-0.200000X0.275000X0*%
%ADD26RoundRect,0.218750X0.218750X0.381250X-0.218750X0.381250X-0.218750X-0.381250X0.218750X-0.381250X0*%
%ADD27R,2.350000X5.100000*%
%ADD28RoundRect,0.250000X-0.475000X0.250000X-0.475000X-0.250000X0.475000X-0.250000X0.475000X0.250000X0*%
%ADD29RoundRect,0.200000X0.200000X0.275000X-0.200000X0.275000X-0.200000X-0.275000X0.200000X-0.275000X0*%
%ADD30RoundRect,0.125000X-0.625000X-0.125000X0.625000X-0.125000X0.625000X0.125000X-0.625000X0.125000X0*%
%ADD31RoundRect,0.125000X-0.125000X-0.625000X0.125000X-0.625000X0.125000X0.625000X-0.125000X0.625000X0*%
%ADD32C,1.500000*%
%ADD33RoundRect,0.100000X0.100000X-0.130000X0.100000X0.130000X-0.100000X0.130000X-0.100000X-0.130000X0*%
%ADD34RoundRect,0.250000X0.475000X-0.250000X0.475000X0.250000X-0.475000X0.250000X-0.475000X-0.250000X0*%
%ADD35R,1.600000X1.600000*%
%ADD36O,1.600000X1.600000*%
%ADD37RoundRect,0.200000X-0.275000X0.200000X-0.275000X-0.200000X0.275000X-0.200000X0.275000X0.200000X0*%
%ADD38RoundRect,0.225000X-0.250000X0.225000X-0.250000X-0.225000X0.250000X-0.225000X0.250000X0.225000X0*%
%ADD39RoundRect,0.250000X-0.250000X-0.475000X0.250000X-0.475000X0.250000X0.475000X-0.250000X0.475000X0*%
%ADD40RoundRect,0.150000X-0.825000X-0.150000X0.825000X-0.150000X0.825000X0.150000X-0.825000X0.150000X0*%
G04 APERTURE END LIST*
D10*
%TO.C,J3*%
X201776382Y-110475000D03*
D11*
X206856382Y-110475000D03*
X211936382Y-110475000D03*
%TD*%
D12*
%TO.C,Q1*%
X204156382Y-97950000D03*
D13*
X201616382Y-97950000D03*
X199076382Y-97950000D03*
%TD*%
D10*
%TO.C,J4*%
X138876382Y-110425000D03*
D11*
X143956382Y-110425000D03*
X149036382Y-110425000D03*
%TD*%
D14*
%TO.C,R11*%
X124926382Y-65750000D03*
X124286382Y-65750000D03*
%TD*%
D15*
%TO.C,J13*%
X78206382Y-75825000D03*
D16*
X80746382Y-75825000D03*
X83286382Y-75825000D03*
X85826382Y-75825000D03*
%TD*%
D17*
%TO.C,U7*%
X93006382Y-62030000D03*
X93006382Y-60760000D03*
X93006382Y-59490000D03*
X93006382Y-58220000D03*
X88056382Y-58220000D03*
X88056382Y-59490000D03*
X88056382Y-60760000D03*
X88056382Y-62030000D03*
%TD*%
D18*
%TO.C,U1*%
X111401382Y-77400000D03*
X110131382Y-77400000D03*
X108861382Y-77400000D03*
X107591382Y-77400000D03*
X106321382Y-77400000D03*
X105051382Y-77400000D03*
X103781382Y-77400000D03*
X102511382Y-77400000D03*
X102511382Y-82350000D03*
X103781382Y-82350000D03*
X105051382Y-82350000D03*
X106321382Y-82350000D03*
X107591382Y-82350000D03*
X108861382Y-82350000D03*
X110131382Y-82350000D03*
X111401382Y-82350000D03*
%TD*%
D19*
%TO.C,SW1*%
X155271382Y-97060000D03*
X157811382Y-97060000D03*
X160351382Y-97060000D03*
X162891382Y-97060000D03*
X162891382Y-88450000D03*
X160351382Y-88450000D03*
X157811382Y-88450000D03*
X155271382Y-88450000D03*
%TD*%
D20*
%TO.C,R16*%
X202336382Y-94325000D03*
X202976382Y-94325000D03*
%TD*%
D10*
%TO.C,J5*%
X123081382Y-51250000D03*
D11*
X118001382Y-51250000D03*
X112921382Y-51250000D03*
%TD*%
D21*
%TO.C,C6*%
X121081382Y-68750000D03*
X121081382Y-67200000D03*
%TD*%
D20*
%TO.C,R14*%
X207711382Y-87550000D03*
X208351382Y-87550000D03*
%TD*%
D14*
%TO.C,R12*%
X167051382Y-81150000D03*
X166411382Y-81150000D03*
%TD*%
%TO.C,R10*%
X128126382Y-77500000D03*
X127486382Y-77500000D03*
%TD*%
D22*
%TO.C,U3*%
X193816382Y-55787500D03*
X192866382Y-55787500D03*
X191916382Y-55787500D03*
X191916382Y-58062500D03*
X192866382Y-58062500D03*
X193816382Y-58062500D03*
%TD*%
D10*
%TO.C,J15*%
X156166382Y-110425000D03*
D11*
X161246382Y-110425000D03*
%TD*%
D10*
%TO.C,J2*%
X85551382Y-110475000D03*
D11*
X90631382Y-110475000D03*
X95711382Y-110475000D03*
%TD*%
D10*
%TO.C,J9*%
X95156382Y-51425000D03*
D11*
X90076382Y-51425000D03*
X84996382Y-51425000D03*
%TD*%
D23*
%TO.C,C15*%
X133631382Y-78030000D03*
X133631382Y-78670000D03*
%TD*%
D24*
%TO.C,HOLE3*%
X221531382Y-113575000D03*
%TD*%
D25*
%TO.C,R6*%
X158206382Y-59225000D03*
X159856382Y-59225000D03*
%TD*%
D26*
%TO.C,L2*%
X138858882Y-71085000D03*
X136733882Y-71085000D03*
%TD*%
D14*
%TO.C,C8*%
X134201382Y-63800000D03*
X133561382Y-63800000D03*
%TD*%
D10*
%TO.C,J7*%
X103401382Y-110425000D03*
D11*
X108481382Y-110425000D03*
X113561382Y-110425000D03*
%TD*%
D12*
%TO.C,Q2*%
X209446382Y-90105000D03*
D13*
X206906382Y-90105000D03*
X204366382Y-90105000D03*
%TD*%
D11*
%TO.C,K2*%
X144061382Y-88380000D03*
X150061382Y-102580000D03*
X138061382Y-102580000D03*
X138061382Y-90380000D03*
X150061382Y-90380000D03*
%TD*%
D27*
%TO.C,L1*%
X192491382Y-63410000D03*
X188341382Y-63410000D03*
%TD*%
D11*
%TO.C,K3*%
X126281382Y-88380000D03*
X132281382Y-102580000D03*
X120281382Y-102580000D03*
X120281382Y-90380000D03*
X132281382Y-90380000D03*
%TD*%
D10*
%TO.C,J16*%
X168046382Y-50900000D03*
D11*
X162966382Y-50900000D03*
%TD*%
%TO.C,K4*%
X108501382Y-88380000D03*
X114501382Y-102580000D03*
X102501382Y-102580000D03*
X102501382Y-90380000D03*
X114501382Y-90380000D03*
%TD*%
D24*
%TO.C,HOLE3*%
X78021382Y-113575000D03*
%TD*%
%TO.C,HOLE3*%
X221531382Y-48170000D03*
%TD*%
D10*
%TO.C,J17*%
X156056382Y-50850000D03*
D11*
X150976382Y-50850000D03*
%TD*%
D20*
%TO.C,R8*%
X130086382Y-64850000D03*
X130726382Y-64850000D03*
%TD*%
D28*
%TO.C,C5*%
X180756382Y-64475000D03*
X180756382Y-66375000D03*
%TD*%
%TO.C,C4*%
X183356382Y-64465000D03*
X183356382Y-66365000D03*
%TD*%
D10*
%TO.C,J14*%
X167466382Y-110475000D03*
D11*
X172546382Y-110475000D03*
%TD*%
D18*
%TO.C,U6*%
X108161382Y-57950000D03*
X106891382Y-57950000D03*
X105621382Y-57950000D03*
X104351382Y-57950000D03*
X104351382Y-62900000D03*
X105621382Y-62900000D03*
X106891382Y-62900000D03*
X108161382Y-62900000D03*
%TD*%
D23*
%TO.C,C10*%
X137996382Y-69015000D03*
X137996382Y-69655000D03*
%TD*%
D29*
%TO.C,R4*%
X157356382Y-67250000D03*
X155706382Y-67250000D03*
%TD*%
D24*
%TO.C,HOLE3*%
X78021382Y-48170000D03*
%TD*%
D10*
%TO.C,J11*%
X190291382Y-110425000D03*
D11*
X195371382Y-110425000D03*
%TD*%
D23*
%TO.C,C11*%
X136596382Y-69040000D03*
X136596382Y-69680000D03*
%TD*%
D30*
%TO.C,IC1*%
X125356382Y-68525000D03*
X125356382Y-69325000D03*
X125356382Y-70125000D03*
X125356382Y-70925000D03*
X125356382Y-71725000D03*
X125356382Y-72525000D03*
X125356382Y-73325000D03*
X125356382Y-74125000D03*
D31*
X126731382Y-75500000D03*
X127531382Y-75500000D03*
X128331382Y-75500000D03*
X129131382Y-75500000D03*
X129931382Y-75500000D03*
X130731382Y-75500000D03*
X131531382Y-75500000D03*
X132331382Y-75500000D03*
D30*
X133706382Y-74125000D03*
X133706382Y-73325000D03*
X133706382Y-72525000D03*
X133706382Y-71725000D03*
X133706382Y-70925000D03*
X133706382Y-70125000D03*
X133706382Y-69325000D03*
X133706382Y-68525000D03*
D31*
X132331382Y-67150000D03*
X131531382Y-67150000D03*
X130731382Y-67150000D03*
X129931382Y-67150000D03*
X129131382Y-67150000D03*
X128331382Y-67150000D03*
X127531382Y-67150000D03*
X126731382Y-67150000D03*
%TD*%
D14*
%TO.C,R20*%
X98251382Y-56825000D03*
X97611382Y-56825000D03*
%TD*%
D15*
%TO.C,J1*%
X78206382Y-79500000D03*
D16*
X80746382Y-79500000D03*
X83286382Y-79500000D03*
X85826382Y-79500000D03*
X88366382Y-79500000D03*
X90906382Y-79500000D03*
X93446382Y-79500000D03*
X95986382Y-79500000D03*
X98526382Y-79500000D03*
%TD*%
D20*
%TO.C,C13*%
X194386382Y-84000000D03*
X195026382Y-84000000D03*
%TD*%
D32*
%TO.C,Y1*%
X127781382Y-60100000D03*
X132661382Y-60100000D03*
%TD*%
D14*
%TO.C,R13*%
X167001382Y-82300000D03*
X166361382Y-82300000D03*
%TD*%
D11*
%TO.C,K1*%
X90721382Y-88380000D03*
X96721382Y-102580000D03*
X84721382Y-102580000D03*
X84721382Y-90380000D03*
X96721382Y-90380000D03*
%TD*%
D33*
%TO.C,C3*%
X195750382Y-58614000D03*
X195750382Y-57974000D03*
%TD*%
D34*
%TO.C,RV2*%
X141071382Y-70285000D03*
X141071382Y-68385000D03*
%TD*%
D18*
%TO.C,U8*%
X178301382Y-89450000D03*
X177031382Y-89450000D03*
X175761382Y-89450000D03*
X174491382Y-89450000D03*
X173221382Y-89450000D03*
X171951382Y-89450000D03*
X170681382Y-89450000D03*
X169411382Y-89450000D03*
X169411382Y-94400000D03*
X170681382Y-94400000D03*
X171951382Y-94400000D03*
X173221382Y-94400000D03*
X174491382Y-94400000D03*
X175761382Y-94400000D03*
X177031382Y-94400000D03*
X178301382Y-94400000D03*
%TD*%
D20*
%TO.C,R18*%
X209381382Y-87550000D03*
X210021382Y-87550000D03*
%TD*%
D35*
%TO.C,U4*%
X165231382Y-56925000D03*
D36*
X162691382Y-56925000D03*
X162691382Y-64545000D03*
X165231382Y-64545000D03*
%TD*%
D37*
%TO.C,R1*%
X110206382Y-58000000D03*
X110206382Y-59650000D03*
%TD*%
D10*
%TO.C,J18*%
X106856382Y-51350000D03*
D11*
X101776382Y-51350000D03*
%TD*%
D29*
%TO.C,R3*%
X166756382Y-67800000D03*
X165106382Y-67800000D03*
%TD*%
D28*
%TO.C,C1*%
X185082382Y-53631000D03*
X185082382Y-55531000D03*
%TD*%
D10*
%TO.C,J8*%
X213276382Y-58965000D03*
D11*
X213276382Y-53885000D03*
%TD*%
D38*
%TO.C,C7*%
X122906382Y-70425000D03*
X122906382Y-71975000D03*
%TD*%
D10*
%TO.C,J10*%
X144831382Y-50975000D03*
D11*
X139751382Y-50975000D03*
X134671382Y-50975000D03*
%TD*%
D25*
%TO.C,R5*%
X167356382Y-56775000D03*
X169006382Y-56775000D03*
%TD*%
D20*
%TO.C,R19*%
X204211382Y-95725000D03*
X204851382Y-95725000D03*
%TD*%
D25*
%TO.C,R2*%
X84231382Y-62800000D03*
X85881382Y-62800000D03*
%TD*%
D23*
%TO.C,C9*%
X129456382Y-63255000D03*
X129456382Y-63895000D03*
%TD*%
D14*
%TO.C,R9*%
X167076382Y-79575000D03*
X166436382Y-79575000D03*
%TD*%
D39*
%TO.C,C12*%
X193881382Y-85600000D03*
X195781382Y-85600000D03*
%TD*%
D20*
%TO.C,R15*%
X207731382Y-86275000D03*
X208371382Y-86275000D03*
%TD*%
D25*
%TO.C,R7*%
X93031382Y-65025000D03*
X94681382Y-65025000D03*
%TD*%
D10*
%TO.C,J6*%
X121101382Y-110475000D03*
D11*
X126181382Y-110475000D03*
X131261382Y-110475000D03*
%TD*%
D35*
%TO.C,U5*%
X155706382Y-56600000D03*
D36*
X153166382Y-56600000D03*
X153166382Y-64220000D03*
X155706382Y-64220000D03*
%TD*%
D21*
%TO.C,C2*%
X123031382Y-68000000D03*
X123031382Y-66450000D03*
%TD*%
D20*
%TO.C,R17*%
X202261382Y-95725000D03*
X202901382Y-95725000D03*
%TD*%
D10*
%TO.C,J12*%
X178941382Y-110475000D03*
D11*
X184021382Y-110475000D03*
%TD*%
D40*
%TO.C,U2*%
X192281382Y-87970000D03*
X192281382Y-89240000D03*
X192281382Y-90510000D03*
X192281382Y-91780000D03*
X197231382Y-91780000D03*
X197231382Y-90510000D03*
X197231382Y-89240000D03*
X197231382Y-87970000D03*
%TD*%
D20*
%TO.C,C14*%
X135736382Y-74725000D03*
X136376382Y-74725000D03*
%TD*%
M02*
