%TF.GenerationSoftware,KiCad,Pcbnew,(6.0.6)*%
%TF.CreationDate,2022-07-22T23:00:37-04:00*%
%TF.ProjectId,Proyecto,50726f79-6563-4746-9f2e-6b696361645f,rev?*%
%TF.SameCoordinates,Original*%
%TF.FileFunction,Copper,L1,Top*%
%TF.FilePolarity,Positive*%
%FSLAX46Y46*%
G04 Gerber Fmt 4.6, Leading zero omitted, Abs format (unit mm)*
G04 Created by KiCad (PCBNEW (6.0.6)) date 2022-07-22 23:00:37*
%MOMM*%
%LPD*%
G01*
G04 APERTURE LIST*
G04 Aperture macros list*
%AMRoundRect*
0 Rectangle with rounded corners*
0 $1 Rounding radius*
0 $2 $3 $4 $5 $6 $7 $8 $9 X,Y pos of 4 corners*
0 Add a 4 corners polygon primitive as box body*
4,1,4,$2,$3,$4,$5,$6,$7,$8,$9,$2,$3,0*
0 Add four circle primitives for the rounded corners*
1,1,$1+$1,$2,$3*
1,1,$1+$1,$4,$5*
1,1,$1+$1,$6,$7*
1,1,$1+$1,$8,$9*
0 Add four rect primitives between the rounded corners*
20,1,$1+$1,$2,$3,$4,$5,0*
20,1,$1+$1,$4,$5,$6,$7,0*
20,1,$1+$1,$6,$7,$8,$9,0*
20,1,$1+$1,$8,$9,$2,$3,0*%
G04 Aperture macros list end*
%TA.AperFunction,NonConductor*%
%ADD10C,0.200000*%
%TD*%
%TA.AperFunction,ComponentPad*%
%ADD11R,3.000000X3.000000*%
%TD*%
%TA.AperFunction,ComponentPad*%
%ADD12C,3.000000*%
%TD*%
%TA.AperFunction,ComponentPad*%
%ADD13R,1.905000X2.000000*%
%TD*%
%TA.AperFunction,ComponentPad*%
%ADD14O,1.905000X2.000000*%
%TD*%
%TA.AperFunction,SMDPad,CuDef*%
%ADD15RoundRect,0.100000X0.130000X0.100000X-0.130000X0.100000X-0.130000X-0.100000X0.130000X-0.100000X0*%
%TD*%
%TA.AperFunction,ComponentPad*%
%ADD16R,1.700000X1.700000*%
%TD*%
%TA.AperFunction,ComponentPad*%
%ADD17O,1.700000X1.700000*%
%TD*%
%TA.AperFunction,SMDPad,CuDef*%
%ADD18RoundRect,0.150000X0.825000X0.150000X-0.825000X0.150000X-0.825000X-0.150000X0.825000X-0.150000X0*%
%TD*%
%TA.AperFunction,SMDPad,CuDef*%
%ADD19RoundRect,0.150000X-0.150000X0.825000X-0.150000X-0.825000X0.150000X-0.825000X0.150000X0.825000X0*%
%TD*%
%TA.AperFunction,SMDPad,CuDef*%
%ADD20R,1.120000X2.440000*%
%TD*%
%TA.AperFunction,SMDPad,CuDef*%
%ADD21RoundRect,0.100000X-0.130000X-0.100000X0.130000X-0.100000X0.130000X0.100000X-0.130000X0.100000X0*%
%TD*%
%TA.AperFunction,SMDPad,CuDef*%
%ADD22RoundRect,0.225000X0.250000X-0.225000X0.250000X0.225000X-0.250000X0.225000X-0.250000X-0.225000X0*%
%TD*%
%TA.AperFunction,SMDPad,CuDef*%
%ADD23RoundRect,0.150000X-0.150000X0.512500X-0.150000X-0.512500X0.150000X-0.512500X0.150000X0.512500X0*%
%TD*%
%TA.AperFunction,SMDPad,CuDef*%
%ADD24RoundRect,0.100000X-0.100000X0.130000X-0.100000X-0.130000X0.100000X-0.130000X0.100000X0.130000X0*%
%TD*%
%TA.AperFunction,SMDPad,CuDef*%
%ADD25RoundRect,0.200000X-0.200000X-0.275000X0.200000X-0.275000X0.200000X0.275000X-0.200000X0.275000X0*%
%TD*%
%TA.AperFunction,SMDPad,CuDef*%
%ADD26RoundRect,0.218750X0.218750X0.381250X-0.218750X0.381250X-0.218750X-0.381250X0.218750X-0.381250X0*%
%TD*%
%TA.AperFunction,SMDPad,CuDef*%
%ADD27R,2.350000X5.100000*%
%TD*%
%TA.AperFunction,SMDPad,CuDef*%
%ADD28RoundRect,0.250000X-0.475000X0.250000X-0.475000X-0.250000X0.475000X-0.250000X0.475000X0.250000X0*%
%TD*%
%TA.AperFunction,SMDPad,CuDef*%
%ADD29RoundRect,0.200000X0.200000X0.275000X-0.200000X0.275000X-0.200000X-0.275000X0.200000X-0.275000X0*%
%TD*%
%TA.AperFunction,SMDPad,CuDef*%
%ADD30RoundRect,0.125000X-0.625000X-0.125000X0.625000X-0.125000X0.625000X0.125000X-0.625000X0.125000X0*%
%TD*%
%TA.AperFunction,SMDPad,CuDef*%
%ADD31RoundRect,0.125000X-0.125000X-0.625000X0.125000X-0.625000X0.125000X0.625000X-0.125000X0.625000X0*%
%TD*%
%TA.AperFunction,ComponentPad*%
%ADD32C,1.500000*%
%TD*%
%TA.AperFunction,SMDPad,CuDef*%
%ADD33RoundRect,0.100000X0.100000X-0.130000X0.100000X0.130000X-0.100000X0.130000X-0.100000X-0.130000X0*%
%TD*%
%TA.AperFunction,SMDPad,CuDef*%
%ADD34RoundRect,0.250000X0.475000X-0.250000X0.475000X0.250000X-0.475000X0.250000X-0.475000X-0.250000X0*%
%TD*%
%TA.AperFunction,ComponentPad*%
%ADD35R,1.600000X1.600000*%
%TD*%
%TA.AperFunction,ComponentPad*%
%ADD36O,1.600000X1.600000*%
%TD*%
%TA.AperFunction,SMDPad,CuDef*%
%ADD37RoundRect,0.200000X-0.275000X0.200000X-0.275000X-0.200000X0.275000X-0.200000X0.275000X0.200000X0*%
%TD*%
%TA.AperFunction,SMDPad,CuDef*%
%ADD38RoundRect,0.225000X-0.250000X0.225000X-0.250000X-0.225000X0.250000X-0.225000X0.250000X0.225000X0*%
%TD*%
%TA.AperFunction,SMDPad,CuDef*%
%ADD39RoundRect,0.250000X-0.250000X-0.475000X0.250000X-0.475000X0.250000X0.475000X-0.250000X0.475000X0*%
%TD*%
%TA.AperFunction,SMDPad,CuDef*%
%ADD40RoundRect,0.150000X-0.825000X-0.150000X0.825000X-0.150000X0.825000X0.150000X-0.825000X0.150000X0*%
%TD*%
%TA.AperFunction,ViaPad*%
%ADD41C,0.800000*%
%TD*%
%TA.AperFunction,Conductor*%
%ADD42C,0.250000*%
%TD*%
%TA.AperFunction,Conductor*%
%ADD43C,1.016000*%
%TD*%
%TA.AperFunction,Conductor*%
%ADD44C,0.889000*%
%TD*%
%TA.AperFunction,Conductor*%
%ADD45C,0.254000*%
%TD*%
%TA.AperFunction,Conductor*%
%ADD46C,0.635000*%
%TD*%
G04 APERTURE END LIST*
D10*
X74776382Y-44995000D02*
X224776382Y-44995000D01*
X224776382Y-44995000D02*
X224776382Y-116995000D01*
X224776382Y-116995000D02*
X74776382Y-116995000D01*
X74776382Y-116995000D02*
X74776382Y-44995000D01*
D11*
%TO.P,J3,1,Pin_1*%
%TO.N,Net-(J3-Pad1)*%
X201776382Y-110475000D03*
D12*
%TO.P,J3,2,Pin_2*%
%TO.N,Net-(J3-Pad2)*%
X206856382Y-110475000D03*
%TO.P,J3,3,Pin_3*%
%TO.N,GND*%
X211936382Y-110475000D03*
%TD*%
D13*
%TO.P,Q1,1,G*%
%TO.N,Net-(Q1-Pad1)*%
X204156382Y-97950000D03*
D14*
%TO.P,Q1,2,D*%
%TO.N,Net-(J3-Pad1)*%
X201616382Y-97950000D03*
%TO.P,Q1,3,S*%
%TO.N,GND*%
X199076382Y-97950000D03*
%TD*%
D11*
%TO.P,J4,1,Pin_1*%
%TO.N,Net-(J4-Pad1)*%
X138876382Y-110425000D03*
D12*
%TO.P,J4,2,Pin_2*%
%TO.N,Net-(J4-Pad2)*%
X143956382Y-110425000D03*
%TO.P,J4,3,Pin_3*%
%TO.N,Net-(J4-Pad3)*%
X149036382Y-110425000D03*
%TD*%
D15*
%TO.P,R11,1*%
%TO.N,Reset_pin*%
X124926382Y-65750000D03*
%TO.P,R11,2*%
%TO.N,+5V*%
X124286382Y-65750000D03*
%TD*%
D16*
%TO.P,J13,1,Pin_1*%
%TO.N,+5V*%
X78206382Y-75825000D03*
D17*
%TO.P,J13,2,Pin_2*%
%TO.N,GND*%
X80746382Y-75825000D03*
%TO.P,J13,3,Pin_3*%
%TO.N,SDA*%
X83286382Y-75825000D03*
%TO.P,J13,4,Pin_4*%
%TO.N,SCL*%
X85826382Y-75825000D03*
%TD*%
D18*
%TO.P,U7,1*%
%TO.N,Net-(R7-Pad1)*%
X93006382Y-62030000D03*
%TO.P,U7,2,-*%
X93006382Y-60760000D03*
%TO.P,U7,3,+*%
%TO.N,Net-(J18-Pad1)*%
X93006382Y-59490000D03*
%TO.P,U7,4,V-*%
%TO.N,GND*%
X93006382Y-58220000D03*
%TO.P,U7,5,+*%
%TO.N,Net-(J9-Pad3)*%
X88056382Y-58220000D03*
%TO.P,U7,6,-*%
%TO.N,Net-(R2-Pad1)*%
X88056382Y-59490000D03*
%TO.P,U7,7*%
X88056382Y-60760000D03*
%TO.P,U7,8,V+*%
%TO.N,+5V*%
X88056382Y-62030000D03*
%TD*%
D19*
%TO.P,U1,1,I1*%
%TO.N,Rele1*%
X111401382Y-77400000D03*
%TO.P,U1,2,I2*%
%TO.N,Rele2*%
X110131382Y-77400000D03*
%TO.P,U1,3,I3*%
%TO.N,Rele3*%
X108861382Y-77400000D03*
%TO.P,U1,4,I4*%
%TO.N,Rele4*%
X107591382Y-77400000D03*
%TO.P,U1,5,I5*%
%TO.N,unconnected-(U1-Pad5)*%
X106321382Y-77400000D03*
%TO.P,U1,6,I6*%
%TO.N,unconnected-(U1-Pad6)*%
X105051382Y-77400000D03*
%TO.P,U1,7,I7*%
%TO.N,unconnected-(U1-Pad7)*%
X103781382Y-77400000D03*
%TO.P,U1,8,GND*%
%TO.N,GND*%
X102511382Y-77400000D03*
%TO.P,U1,9,COM*%
%TO.N,+12V*%
X102511382Y-82350000D03*
%TO.P,U1,10,O7*%
%TO.N,unconnected-(U1-Pad10)*%
X103781382Y-82350000D03*
%TO.P,U1,11,O6*%
%TO.N,unconnected-(U1-Pad11)*%
X105051382Y-82350000D03*
%TO.P,U1,12,O5*%
%TO.N,unconnected-(U1-Pad12)*%
X106321382Y-82350000D03*
%TO.P,U1,13,O4*%
%TO.N,Net-(K1-PadA2)*%
X107591382Y-82350000D03*
%TO.P,U1,14,O3*%
%TO.N,Net-(K4-PadA2)*%
X108861382Y-82350000D03*
%TO.P,U1,15,O2*%
%TO.N,Net-(K3-PadA2)*%
X110131382Y-82350000D03*
%TO.P,U1,16,O1*%
%TO.N,Net-(K2-PadA2)*%
X111401382Y-82350000D03*
%TD*%
D20*
%TO.P,SW1,1*%
%TO.N,GND*%
X155271382Y-97060000D03*
%TO.P,SW1,2*%
X157811382Y-97060000D03*
%TO.P,SW1,3*%
X160351382Y-97060000D03*
%TO.P,SW1,4*%
X162891382Y-97060000D03*
%TO.P,SW1,5*%
%TO.N,unconnected-(SW1-Pad5)*%
X162891382Y-88450000D03*
%TO.P,SW1,6*%
%TO.N,Digital_1*%
X160351382Y-88450000D03*
%TO.P,SW1,7*%
%TO.N,Digital*%
X157811382Y-88450000D03*
%TO.P,SW1,8*%
%TO.N,ADC*%
X155271382Y-88450000D03*
%TD*%
D21*
%TO.P,R16,1*%
%TO.N,Net-(U2-Pad7)*%
X202336382Y-94325000D03*
%TO.P,R16,2*%
%TO.N,Net-(Q1-Pad1)*%
X202976382Y-94325000D03*
%TD*%
D11*
%TO.P,J5,1,Pin_1*%
%TO.N,GND*%
X123081382Y-51250000D03*
D12*
%TO.P,J5,2,Pin_2*%
%TO.N,+5V*%
X118001382Y-51250000D03*
%TO.P,J5,3,Pin_3*%
%TO.N,Net-(J5-Pad3)*%
X112921382Y-51250000D03*
%TD*%
D22*
%TO.P,C6,1*%
%TO.N,PH*%
X121081382Y-68750000D03*
%TO.P,C6,2*%
%TO.N,GND*%
X121081382Y-67200000D03*
%TD*%
D21*
%TO.P,R14,1*%
%TO.N,Net-(U2-Pad5)*%
X207711382Y-87550000D03*
%TO.P,R14,2*%
%TO.N,Net-(Q2-Pad1)*%
X208351382Y-87550000D03*
%TD*%
D15*
%TO.P,R12,1*%
%TO.N,+5V*%
X167051382Y-81150000D03*
%TO.P,R12,2*%
%TO.N,Digital*%
X166411382Y-81150000D03*
%TD*%
%TO.P,R10,1*%
%TO.N,BKGD_PIN*%
X128126382Y-77500000D03*
%TO.P,R10,2*%
%TO.N,+5V*%
X127486382Y-77500000D03*
%TD*%
D23*
%TO.P,U3,1,FB*%
%TO.N,+5V*%
X193816382Y-55787500D03*
%TO.P,U3,2,EN*%
%TO.N,+12V*%
X192866382Y-55787500D03*
%TO.P,U3,3,IN*%
X191916382Y-55787500D03*
%TO.P,U3,4,GND*%
%TO.N,GND*%
X191916382Y-58062500D03*
%TO.P,U3,5,SW*%
%TO.N,/SW*%
X192866382Y-58062500D03*
%TO.P,U3,6,BST*%
%TO.N,Net-(C3-Pad2)*%
X193816382Y-58062500D03*
%TD*%
D11*
%TO.P,J15,1,Pin_1*%
%TO.N,Net-(J15-Pad1)*%
X156166382Y-110425000D03*
D12*
%TO.P,J15,2,Pin_2*%
%TO.N,+12V*%
X161246382Y-110425000D03*
%TD*%
D11*
%TO.P,J2,1,Pin_1*%
%TO.N,Net-(J2-Pad1)*%
X85551382Y-110475000D03*
D12*
%TO.P,J2,2,Pin_2*%
%TO.N,Net-(J2-Pad2)*%
X90631382Y-110475000D03*
%TO.P,J2,3,Pin_3*%
%TO.N,Net-(J2-Pad3)*%
X95711382Y-110475000D03*
%TD*%
D11*
%TO.P,J9,1,Pin_1*%
%TO.N,GND*%
X95156382Y-51425000D03*
D12*
%TO.P,J9,2,Pin_2*%
%TO.N,+5V*%
X90076382Y-51425000D03*
%TO.P,J9,3,Pin_3*%
%TO.N,Net-(J9-Pad3)*%
X84996382Y-51425000D03*
%TD*%
D24*
%TO.P,C15,1*%
%TO.N,Nivel_alto*%
X133631382Y-78030000D03*
%TO.P,C15,2*%
%TO.N,GND*%
X133631382Y-78670000D03*
%TD*%
D25*
%TO.P,R6,1*%
%TO.N,Net-(R6-Pad1)*%
X158206382Y-59225000D03*
%TO.P,R6,2*%
%TO.N,Net-(J17-Pad1)*%
X159856382Y-59225000D03*
%TD*%
D26*
%TO.P,L2,1,1*%
%TO.N,+5V*%
X138858882Y-71085000D03*
%TO.P,L2,2,2*%
%TO.N,Net-(C11-Pad2)*%
X136733882Y-71085000D03*
%TD*%
D15*
%TO.P,C8,1*%
%TO.N,GND*%
X134201382Y-63800000D03*
%TO.P,C8,2*%
%TO.N,Net-(C8-Pad2)*%
X133561382Y-63800000D03*
%TD*%
D11*
%TO.P,J7,1,Pin_1*%
%TO.N,Net-(J7-Pad1)*%
X103401382Y-110425000D03*
D12*
%TO.P,J7,2,Pin_2*%
%TO.N,Net-(J7-Pad2)*%
X108481382Y-110425000D03*
%TO.P,J7,3,Pin_3*%
%TO.N,Net-(J7-Pad3)*%
X113561382Y-110425000D03*
%TD*%
D13*
%TO.P,Q2,1,G*%
%TO.N,Net-(Q2-Pad1)*%
X209446382Y-90105000D03*
D14*
%TO.P,Q2,2,D*%
%TO.N,Net-(J3-Pad2)*%
X206906382Y-90105000D03*
%TO.P,Q2,3,S*%
%TO.N,GND*%
X204366382Y-90105000D03*
%TD*%
D12*
%TO.P,K2,11*%
%TO.N,Net-(J4-Pad2)*%
X144061382Y-88380000D03*
%TO.P,K2,12*%
%TO.N,Net-(J4-Pad3)*%
X150061382Y-102580000D03*
%TO.P,K2,14*%
%TO.N,Net-(J4-Pad1)*%
X138061382Y-102580000D03*
%TO.P,K2,A1*%
%TO.N,+12V*%
X138061382Y-90380000D03*
%TO.P,K2,A2*%
%TO.N,Net-(K2-PadA2)*%
X150061382Y-90380000D03*
%TD*%
D27*
%TO.P,L1,1,1*%
%TO.N,/SW*%
X192491382Y-63410000D03*
%TO.P,L1,2,2*%
%TO.N,+5V*%
X188341382Y-63410000D03*
%TD*%
D12*
%TO.P,K3,11*%
%TO.N,Net-(J6-Pad2)*%
X126281382Y-88380000D03*
%TO.P,K3,12*%
%TO.N,Net-(J6-Pad3)*%
X132281382Y-102580000D03*
%TO.P,K3,14*%
%TO.N,Net-(J6-Pad1)*%
X120281382Y-102580000D03*
%TO.P,K3,A1*%
%TO.N,+12V*%
X120281382Y-90380000D03*
%TO.P,K3,A2*%
%TO.N,Net-(K3-PadA2)*%
X132281382Y-90380000D03*
%TD*%
D11*
%TO.P,J16,1,Pin_1*%
%TO.N,Net-(J16-Pad1)*%
X168046382Y-50900000D03*
D12*
%TO.P,J16,2,Pin_2*%
%TO.N,+5V*%
X162966382Y-50900000D03*
%TD*%
%TO.P,K4,11*%
%TO.N,Net-(J7-Pad2)*%
X108501382Y-88380000D03*
%TO.P,K4,12*%
%TO.N,Net-(J7-Pad3)*%
X114501382Y-102580000D03*
%TO.P,K4,14*%
%TO.N,Net-(J7-Pad1)*%
X102501382Y-102580000D03*
%TO.P,K4,A1*%
%TO.N,+12V*%
X102501382Y-90380000D03*
%TO.P,K4,A2*%
%TO.N,Net-(K4-PadA2)*%
X114501382Y-90380000D03*
%TD*%
D11*
%TO.P,J17,1,Pin_1*%
%TO.N,Net-(J17-Pad1)*%
X156056382Y-50850000D03*
D12*
%TO.P,J17,2,Pin_2*%
%TO.N,+5V*%
X150976382Y-50850000D03*
%TD*%
D21*
%TO.P,R8,1*%
%TO.N,Net-(C9-Pad2)*%
X130086382Y-64850000D03*
%TO.P,R8,2*%
%TO.N,Net-(C8-Pad2)*%
X130726382Y-64850000D03*
%TD*%
D28*
%TO.P,C5,1*%
%TO.N,+5V*%
X180756382Y-64475000D03*
%TO.P,C5,2*%
%TO.N,GND*%
X180756382Y-66375000D03*
%TD*%
%TO.P,C4,1*%
%TO.N,+5V*%
X183356382Y-64465000D03*
%TO.P,C4,2*%
%TO.N,GND*%
X183356382Y-66365000D03*
%TD*%
D11*
%TO.P,J14,1,Pin_1*%
%TO.N,Net-(J14-Pad1)*%
X167466382Y-110475000D03*
D12*
%TO.P,J14,2,Pin_2*%
%TO.N,+12V*%
X172546382Y-110475000D03*
%TD*%
D19*
%TO.P,U6,1*%
%TO.N,Net-(R1-Pad1)*%
X108161382Y-57950000D03*
%TO.P,U6,2,-*%
X106891382Y-57950000D03*
%TO.P,U6,3,+*%
%TO.N,Net-(J5-Pad3)*%
X105621382Y-57950000D03*
%TO.P,U6,4,V-*%
%TO.N,GND*%
X104351382Y-57950000D03*
%TO.P,U6,5,+*%
%TO.N,unconnected-(U6-Pad5)*%
X104351382Y-62900000D03*
%TO.P,U6,6,-*%
%TO.N,unconnected-(U6-Pad6)*%
X105621382Y-62900000D03*
%TO.P,U6,7*%
%TO.N,unconnected-(U6-Pad7)*%
X106891382Y-62900000D03*
%TO.P,U6,8,V+*%
%TO.N,+5V*%
X108161382Y-62900000D03*
%TD*%
D24*
%TO.P,C10,1*%
%TO.N,GND*%
X137996382Y-69015000D03*
%TO.P,C10,2*%
%TO.N,+5V*%
X137996382Y-69655000D03*
%TD*%
D29*
%TO.P,R4,1*%
%TO.N,+5V*%
X157356382Y-67250000D03*
%TO.P,R4,2*%
%TO.N,Nivel_alto*%
X155706382Y-67250000D03*
%TD*%
D11*
%TO.P,J11,1,Pin_1*%
%TO.N,Net-(J11-Pad1)*%
X190291382Y-110425000D03*
D12*
%TO.P,J11,2,Pin_2*%
%TO.N,+12V*%
X195371382Y-110425000D03*
%TD*%
D24*
%TO.P,C11,1*%
%TO.N,GND*%
X136596382Y-69040000D03*
%TO.P,C11,2*%
%TO.N,Net-(C11-Pad2)*%
X136596382Y-69680000D03*
%TD*%
D30*
%TO.P,IC1,1,PTC2*%
%TO.N,TDS*%
X125356382Y-68525000D03*
%TO.P,IC1,2,PTC3*%
%TO.N,PH*%
X125356382Y-69325000D03*
%TO.P,IC1,3,PTC4*%
%TO.N,ldr*%
X125356382Y-70125000D03*
%TO.P,IC1,4,PTC5*%
%TO.N,DHt11*%
X125356382Y-70925000D03*
%TO.P,IC1,5,PTC6*%
%TO.N,Digital_1*%
X125356382Y-71725000D03*
%TO.P,IC1,6,VSS*%
%TO.N,GND*%
X125356382Y-72525000D03*
%TO.P,IC1,7,VDD*%
%TO.N,+5V*%
X125356382Y-73325000D03*
%TO.P,IC1,8,PTA0*%
%TO.N,TX*%
X125356382Y-74125000D03*
D31*
%TO.P,IC1,9,PTA1*%
%TO.N,RX*%
X126731382Y-75500000D03*
%TO.P,IC1,10,PTA2*%
%TO.N,SDA*%
X127531382Y-75500000D03*
%TO.P,IC1,11,PTA3*%
%TO.N,SCL*%
X128331382Y-75500000D03*
%TO.P,IC1,12,PTF1/~{RESET}*%
%TO.N,BKGD_PIN*%
X129131382Y-75500000D03*
%TO.P,IC1,13,PTA4*%
%TO.N,Rele4*%
X129931382Y-75500000D03*
%TO.P,IC1,14,PTA5*%
%TO.N,Rele3*%
X130731382Y-75500000D03*
%TO.P,IC1,15,PTA6*%
%TO.N,Rele2*%
X131531382Y-75500000D03*
%TO.P,IC1,16,PTA7*%
%TO.N,Rele1*%
X132331382Y-75500000D03*
D30*
%TO.P,IC1,17,PTB0*%
%TO.N,Nivel_alto*%
X133706382Y-74125000D03*
%TO.P,IC1,18,PTB1*%
%TO.N,Nivel_bajo*%
X133706382Y-73325000D03*
%TO.P,IC1,19,PTB2*%
%TO.N,Digital*%
X133706382Y-72525000D03*
%TO.P,IC1,20,PTB3*%
%TO.N,ADC*%
X133706382Y-71725000D03*
%TO.P,IC1,21,VDDA/VREFH*%
%TO.N,Net-(C11-Pad2)*%
X133706382Y-70925000D03*
%TO.P,IC1,22,VSSA/VREFL*%
%TO.N,GND*%
X133706382Y-70125000D03*
%TO.P,IC1,23,PTB4*%
%TO.N,Aux2*%
X133706382Y-69325000D03*
%TO.P,IC1,24,PTB5*%
%TO.N,Aux1*%
X133706382Y-68525000D03*
D31*
%TO.P,IC1,25,PTB6*%
%TO.N,Bomba2*%
X132331382Y-67150000D03*
%TO.P,IC1,26,PTB7*%
%TO.N,Bomba1*%
X131531382Y-67150000D03*
%TO.P,IC1,27,PTE5/XTAL*%
%TO.N,Net-(C8-Pad2)*%
X130731382Y-67150000D03*
%TO.P,IC1,28,PTE6/EXTAL*%
%TO.N,Net-(C9-Pad2)*%
X129931382Y-67150000D03*
%TO.P,IC1,29,VSS*%
%TO.N,GND*%
X129131382Y-67150000D03*
%TO.P,IC1,30,PTF0/BKGD/MS*%
%TO.N,Reset_pin*%
X128331382Y-67150000D03*
%TO.P,IC1,31,PTC0*%
%TO.N,luz b*%
X127531382Y-67150000D03*
%TO.P,IC1,32,PTC1*%
%TO.N,luz a*%
X126731382Y-67150000D03*
%TD*%
D15*
%TO.P,R20,1*%
%TO.N,Net-(J18-Pad1)*%
X98251382Y-56825000D03*
%TO.P,R20,2*%
%TO.N,GND*%
X97611382Y-56825000D03*
%TD*%
D16*
%TO.P,J1,1,Pin_1*%
%TO.N,+5V*%
X78206382Y-79500000D03*
D17*
%TO.P,J1,2,Pin_2*%
%TO.N,GND*%
X80746382Y-79500000D03*
%TO.P,J1,3,Pin_3*%
%TO.N,SDA*%
X83286382Y-79500000D03*
%TO.P,J1,4,Pin_4*%
%TO.N,SCL*%
X85826382Y-79500000D03*
%TO.P,J1,5,Pin_5*%
%TO.N,RX*%
X88366382Y-79500000D03*
%TO.P,J1,6,Pin_6*%
%TO.N,TX*%
X90906382Y-79500000D03*
%TO.P,J1,7,Pin_7*%
%TO.N,Reset_pin*%
X93446382Y-79500000D03*
%TO.P,J1,8,Pin_8*%
%TO.N,BKGD_PIN*%
X95986382Y-79500000D03*
%TO.P,J1,9,Pin_9*%
%TO.N,GND*%
X98526382Y-79500000D03*
%TD*%
D21*
%TO.P,C13,1*%
%TO.N,+12V*%
X194386382Y-84000000D03*
%TO.P,C13,2*%
%TO.N,GND*%
X195026382Y-84000000D03*
%TD*%
D32*
%TO.P,Y1,1,1*%
%TO.N,Net-(C9-Pad2)*%
X127781382Y-60100000D03*
%TO.P,Y1,2,2*%
%TO.N,Net-(C8-Pad2)*%
X132661382Y-60100000D03*
%TD*%
D15*
%TO.P,R13,1*%
%TO.N,+5V*%
X167001382Y-82300000D03*
%TO.P,R13,2*%
%TO.N,Digital_1*%
X166361382Y-82300000D03*
%TD*%
D12*
%TO.P,K1,11*%
%TO.N,Net-(J2-Pad2)*%
X90721382Y-88380000D03*
%TO.P,K1,12*%
%TO.N,Net-(J2-Pad3)*%
X96721382Y-102580000D03*
%TO.P,K1,14*%
%TO.N,Net-(J2-Pad1)*%
X84721382Y-102580000D03*
%TO.P,K1,A1*%
%TO.N,+12V*%
X84721382Y-90380000D03*
%TO.P,K1,A2*%
%TO.N,Net-(K1-PadA2)*%
X96721382Y-90380000D03*
%TD*%
D33*
%TO.P,C3,1*%
%TO.N,/SW*%
X195750382Y-58614000D03*
%TO.P,C3,2*%
%TO.N,Net-(C3-Pad2)*%
X195750382Y-57974000D03*
%TD*%
D34*
%TO.P,RV2,1*%
%TO.N,+5V*%
X141071382Y-70285000D03*
%TO.P,RV2,2*%
%TO.N,GND*%
X141071382Y-68385000D03*
%TD*%
D19*
%TO.P,U8,1,I1*%
%TO.N,Bomba1*%
X178301382Y-89450000D03*
%TO.P,U8,2,I2*%
X177031382Y-89450000D03*
%TO.P,U8,3,I3*%
%TO.N,Bomba2*%
X175761382Y-89450000D03*
%TO.P,U8,4,I4*%
X174491382Y-89450000D03*
%TO.P,U8,5,I5*%
%TO.N,Aux1*%
X173221382Y-89450000D03*
%TO.P,U8,6,I6*%
%TO.N,Aux2*%
X171951382Y-89450000D03*
%TO.P,U8,7,I7*%
%TO.N,unconnected-(U8-Pad7)*%
X170681382Y-89450000D03*
%TO.P,U8,8,GND*%
%TO.N,GND*%
X169411382Y-89450000D03*
%TO.P,U8,9,COM*%
%TO.N,+12V*%
X169411382Y-94400000D03*
%TO.P,U8,10,O7*%
%TO.N,unconnected-(U8-Pad10)*%
X170681382Y-94400000D03*
%TO.P,U8,11,O6*%
%TO.N,Net-(J15-Pad1)*%
X171951382Y-94400000D03*
%TO.P,U8,12,O5*%
%TO.N,Net-(J14-Pad1)*%
X173221382Y-94400000D03*
%TO.P,U8,13,O4*%
%TO.N,Net-(J12-Pad1)*%
X174491382Y-94400000D03*
%TO.P,U8,14,O3*%
X175761382Y-94400000D03*
%TO.P,U8,15,O2*%
%TO.N,Net-(J11-Pad1)*%
X177031382Y-94400000D03*
%TO.P,U8,16,O1*%
X178301382Y-94400000D03*
%TD*%
D21*
%TO.P,R18,1*%
%TO.N,Net-(Q2-Pad1)*%
X209381382Y-87550000D03*
%TO.P,R18,2*%
%TO.N,GND*%
X210021382Y-87550000D03*
%TD*%
D35*
%TO.P,U4,1*%
%TO.N,Net-(R5-Pad1)*%
X165231382Y-56925000D03*
D36*
%TO.P,U4,2*%
%TO.N,GND*%
X162691382Y-56925000D03*
%TO.P,U4,3*%
X162691382Y-64545000D03*
%TO.P,U4,4*%
%TO.N,Nivel_bajo*%
X165231382Y-64545000D03*
%TD*%
D37*
%TO.P,R1,1*%
%TO.N,Net-(R1-Pad1)*%
X110206382Y-58000000D03*
%TO.P,R1,2*%
%TO.N,TDS*%
X110206382Y-59650000D03*
%TD*%
D11*
%TO.P,J18,1,Pin_1*%
%TO.N,Net-(J18-Pad1)*%
X106856382Y-51350000D03*
D12*
%TO.P,J18,2,Pin_2*%
%TO.N,+5V*%
X101776382Y-51350000D03*
%TD*%
D29*
%TO.P,R3,1*%
%TO.N,+5V*%
X166756382Y-67800000D03*
%TO.P,R3,2*%
%TO.N,Nivel_bajo*%
X165106382Y-67800000D03*
%TD*%
D28*
%TO.P,C1,1*%
%TO.N,+12V*%
X185082382Y-53631000D03*
%TO.P,C1,2*%
%TO.N,GND*%
X185082382Y-55531000D03*
%TD*%
D11*
%TO.P,J8,1,Pin_1*%
%TO.N,+12V*%
X213276382Y-58965000D03*
D12*
%TO.P,J8,2,Pin_2*%
%TO.N,GND*%
X213276382Y-53885000D03*
%TD*%
D38*
%TO.P,C7,1*%
%TO.N,ldr*%
X122906382Y-70425000D03*
%TO.P,C7,2*%
%TO.N,GND*%
X122906382Y-71975000D03*
%TD*%
D11*
%TO.P,J10,1,Pin_1*%
%TO.N,GND*%
X144831382Y-50975000D03*
D12*
%TO.P,J10,2,Pin_2*%
%TO.N,+5V*%
X139751382Y-50975000D03*
%TO.P,J10,3,Pin_3*%
%TO.N,DHt11*%
X134671382Y-50975000D03*
%TD*%
D25*
%TO.P,R5,1*%
%TO.N,Net-(R5-Pad1)*%
X167356382Y-56775000D03*
%TO.P,R5,2*%
%TO.N,Net-(J16-Pad1)*%
X169006382Y-56775000D03*
%TD*%
D21*
%TO.P,R19,1*%
%TO.N,Net-(Q1-Pad1)*%
X204211382Y-95725000D03*
%TO.P,R19,2*%
%TO.N,GND*%
X204851382Y-95725000D03*
%TD*%
D25*
%TO.P,R2,1*%
%TO.N,Net-(R2-Pad1)*%
X84231382Y-62800000D03*
%TO.P,R2,2*%
%TO.N,PH*%
X85881382Y-62800000D03*
%TD*%
D24*
%TO.P,C9,1*%
%TO.N,GND*%
X129456382Y-63255000D03*
%TO.P,C9,2*%
%TO.N,Net-(C9-Pad2)*%
X129456382Y-63895000D03*
%TD*%
D15*
%TO.P,R9,1*%
%TO.N,+5V*%
X167076382Y-79575000D03*
%TO.P,R9,2*%
%TO.N,ADC*%
X166436382Y-79575000D03*
%TD*%
D39*
%TO.P,C12,1*%
%TO.N,+12V*%
X193881382Y-85600000D03*
%TO.P,C12,2*%
%TO.N,GND*%
X195781382Y-85600000D03*
%TD*%
D21*
%TO.P,R15,1*%
%TO.N,Net-(U2-Pad5)*%
X207731382Y-86275000D03*
%TO.P,R15,2*%
%TO.N,Net-(Q2-Pad1)*%
X208371382Y-86275000D03*
%TD*%
D25*
%TO.P,R7,1*%
%TO.N,Net-(R7-Pad1)*%
X93031382Y-65025000D03*
%TO.P,R7,2*%
%TO.N,ldr*%
X94681382Y-65025000D03*
%TD*%
D11*
%TO.P,J6,1,Pin_1*%
%TO.N,Net-(J6-Pad1)*%
X121101382Y-110475000D03*
D12*
%TO.P,J6,2,Pin_2*%
%TO.N,Net-(J6-Pad2)*%
X126181382Y-110475000D03*
%TO.P,J6,3,Pin_3*%
%TO.N,Net-(J6-Pad3)*%
X131261382Y-110475000D03*
%TD*%
D35*
%TO.P,U5,1*%
%TO.N,Net-(R6-Pad1)*%
X155706382Y-56600000D03*
D36*
%TO.P,U5,2*%
%TO.N,GND*%
X153166382Y-56600000D03*
%TO.P,U5,3*%
X153166382Y-64220000D03*
%TO.P,U5,4*%
%TO.N,Nivel_alto*%
X155706382Y-64220000D03*
%TD*%
D22*
%TO.P,C2,1*%
%TO.N,TDS*%
X123031382Y-68000000D03*
%TO.P,C2,2*%
%TO.N,GND*%
X123031382Y-66450000D03*
%TD*%
D21*
%TO.P,R17,1*%
%TO.N,Net-(U2-Pad7)*%
X202261382Y-95725000D03*
%TO.P,R17,2*%
%TO.N,Net-(Q1-Pad1)*%
X202901382Y-95725000D03*
%TD*%
D11*
%TO.P,J12,1,Pin_1*%
%TO.N,Net-(J12-Pad1)*%
X178941382Y-110475000D03*
D12*
%TO.P,J12,2,Pin_2*%
%TO.N,+12V*%
X184021382Y-110475000D03*
%TD*%
D40*
%TO.P,U2,1,NC*%
%TO.N,unconnected-(U2-Pad1)*%
X192281382Y-87970000D03*
%TO.P,U2,2,IN_A*%
%TO.N,luz a*%
X192281382Y-89240000D03*
%TO.P,U2,3,GND*%
%TO.N,GND*%
X192281382Y-90510000D03*
%TO.P,U2,4,IN_B*%
%TO.N,luz b*%
X192281382Y-91780000D03*
%TO.P,U2,5,OUT_B*%
%TO.N,Net-(U2-Pad5)*%
X197231382Y-91780000D03*
%TO.P,U2,6,V+*%
%TO.N,+12V*%
X197231382Y-90510000D03*
%TO.P,U2,7,OUT_A*%
%TO.N,Net-(U2-Pad7)*%
X197231382Y-89240000D03*
%TO.P,U2,8,NC*%
%TO.N,unconnected-(U2-Pad8)*%
X197231382Y-87970000D03*
%TD*%
D21*
%TO.P,C14,1*%
%TO.N,Nivel_bajo*%
X135736382Y-74725000D03*
%TO.P,C14,2*%
%TO.N,GND*%
X136376382Y-74725000D03*
%TD*%
D41*
%TO.N,+12V*%
X191686382Y-54393000D03*
X191831382Y-85825000D03*
X169356382Y-96675000D03*
X191686373Y-53393011D03*
X200756382Y-90475000D03*
X188686373Y-53393011D03*
X190686373Y-53393011D03*
X190686373Y-54393011D03*
X188718373Y-54393011D03*
X189686373Y-54393011D03*
X189686373Y-53393011D03*
%TO.N,GND*%
X155306382Y-100675000D03*
X133506382Y-82425000D03*
X185158382Y-57987000D03*
X181556382Y-67675000D03*
X121281382Y-71475000D03*
X183556382Y-67675000D03*
X181156382Y-68475000D03*
X180156382Y-68475000D03*
X182556382Y-67675000D03*
X135731382Y-75996500D03*
X182156382Y-68475000D03*
X129481382Y-62150000D03*
X122831382Y-64500000D03*
X182958382Y-57987000D03*
X80856382Y-73600000D03*
X131706382Y-68775000D03*
X184558382Y-57187000D03*
X180556382Y-67675000D03*
X183558382Y-57187000D03*
X135581382Y-63800000D03*
X184158382Y-57987000D03*
X211781382Y-87525000D03*
X185558382Y-57187000D03*
X169431382Y-87225000D03*
X93031382Y-56175000D03*
X183156382Y-68475000D03*
X153281382Y-66625000D03*
X102556382Y-75300000D03*
X158906382Y-56675000D03*
X137806382Y-67650000D03*
X98281382Y-82500000D03*
X186158382Y-57987000D03*
X179556382Y-67675000D03*
%TO.N,+5V*%
X184556382Y-62275000D03*
X169631382Y-67825000D03*
X108131382Y-65925000D03*
X181556382Y-60275000D03*
X185556382Y-60275000D03*
X129755330Y-71286010D03*
X126106382Y-77550000D03*
X87981382Y-64050000D03*
X183556382Y-62275000D03*
X185556382Y-62275000D03*
X182556382Y-60275000D03*
X180556382Y-61275000D03*
X183556382Y-60275000D03*
X181556382Y-62275000D03*
X185556382Y-61275000D03*
X180556382Y-60275000D03*
X181556382Y-61275000D03*
X184556382Y-60275000D03*
X182556382Y-61275000D03*
X157431382Y-69725000D03*
X183556382Y-61275000D03*
X180556382Y-62275000D03*
X182556382Y-62275000D03*
X184556382Y-61275000D03*
X141146382Y-71510000D03*
X82081382Y-72000000D03*
X122956382Y-62750000D03*
%TO.N,PH*%
X85631382Y-68450000D03*
X117256382Y-68778500D03*
%TO.N,ldr*%
X116731382Y-70600000D03*
X94731382Y-70600000D03*
%TO.N,Nivel_bajo*%
X135631382Y-77975000D03*
X165031382Y-77825000D03*
%TO.N,Nivel_alto*%
X133706382Y-76775000D03*
X155481382Y-76625000D03*
%TO.N,Digital*%
X159456382Y-85950000D03*
X158831382Y-83750000D03*
X161994365Y-81062017D03*
X165081382Y-81350000D03*
%TO.N,Digital_1*%
X127131382Y-72325000D03*
X143281382Y-80375000D03*
X165881382Y-84350000D03*
X164206382Y-84375000D03*
X137506382Y-75800000D03*
%TO.N,TX*%
X124731382Y-77768000D03*
%TO.N,RX*%
X125681146Y-76586132D03*
%TO.N,SDA*%
X100881382Y-74250000D03*
X117306382Y-80125000D03*
X131406382Y-72075000D03*
%TO.N,SCL*%
X130281382Y-73275000D03*
%TO.N,BKGD_PIN*%
X127856382Y-78546500D03*
%TO.N,Rele1*%
X122756382Y-81100000D03*
X123056382Y-75050000D03*
X132206382Y-80875000D03*
X113756382Y-75300500D03*
%TO.N,Rele2*%
X121656382Y-73975000D03*
X131281382Y-82150000D03*
X110231382Y-73950000D03*
X121631382Y-82150000D03*
%TO.N,Rele3*%
X108731382Y-73000000D03*
X120206382Y-73100000D03*
X120131382Y-82575000D03*
X130281382Y-82928500D03*
%TO.N,Rele4*%
X134431382Y-79350000D03*
X118781382Y-71575000D03*
X128431382Y-79650000D03*
X134356382Y-84478500D03*
X107731382Y-71675000D03*
X118856382Y-84500000D03*
%TO.N,Aux2*%
X172056382Y-69350000D03*
X136169365Y-67378500D03*
%TO.N,Aux1*%
X173181382Y-72425000D03*
X142806382Y-69724500D03*
%TO.N,Bomba2*%
X143931382Y-71525000D03*
X174491382Y-75290000D03*
%TO.N,Bomba1*%
X177056382Y-65825000D03*
X132731382Y-64900000D03*
%TO.N,Reset_pin*%
X93206382Y-72125000D03*
X105081382Y-68050000D03*
X128231382Y-68775000D03*
X125527882Y-65750000D03*
X104981382Y-71675000D03*
%TO.N,luz a*%
X176531382Y-77725000D03*
X150806382Y-57000000D03*
X123706382Y-57400000D03*
X150981382Y-78700000D03*
%TO.N,luz b*%
X127456382Y-64200000D03*
X149256382Y-66502500D03*
X176480882Y-80424517D03*
X149656382Y-79550000D03*
%TO.N,DHt11*%
X127256382Y-70875000D03*
X134531382Y-55500000D03*
X119006382Y-67200000D03*
X119081382Y-55500000D03*
X127256382Y-70875000D03*
%TO.N,Net-(J17-Pad1)*%
X159931382Y-57975000D03*
X159881382Y-55025000D03*
%TO.N,Net-(J18-Pad1)*%
X101656382Y-59300000D03*
X101656382Y-55000000D03*
%TO.N,Net-(K1-PadA2)*%
X96881382Y-84650000D03*
X107581382Y-84575000D03*
%TO.N,Net-(K2-PadA2)*%
X115781382Y-83700000D03*
X150061382Y-83695000D03*
%TO.N,Net-(K3-PadA2)*%
X132381382Y-85300000D03*
X110131382Y-85249500D03*
%TO.N,Net-(K4-PadA2)*%
X114531382Y-84500000D03*
X108831382Y-84525000D03*
%TO.N,Net-(U2-Pad5)*%
X199556382Y-91775000D03*
X205231382Y-87450000D03*
%TD*%
D42*
%TO.N,+12V*%
X102786382Y-90095000D02*
X102501382Y-90380000D01*
X102501382Y-89730000D02*
X102786382Y-89445000D01*
X102511382Y-82350000D02*
X102501382Y-82360000D01*
X169356382Y-96575000D02*
X169356382Y-96675000D01*
X102511382Y-84090000D02*
X102786382Y-84365000D01*
D43*
X102786382Y-89445000D02*
X102786382Y-84365000D01*
D42*
X197231382Y-90510000D02*
X200721382Y-90510000D01*
X193881382Y-84505000D02*
X194386382Y-84000000D01*
X185082382Y-53631000D02*
X188130382Y-53631000D01*
X102511382Y-82350000D02*
X102511382Y-84090000D01*
X102501382Y-90380000D02*
X102501382Y-89730000D01*
X193881382Y-85600000D02*
X193881382Y-84505000D01*
X191831382Y-85825000D02*
X193656382Y-85825000D01*
X200721382Y-90510000D02*
X200756382Y-90475000D01*
D43*
X169411369Y-94400007D02*
X169411369Y-96519992D01*
D42*
X169411382Y-96520000D02*
X169356382Y-96575000D01*
X193656382Y-85825000D02*
X193881382Y-85600000D01*
%TO.N,GND*%
X136621382Y-69015000D02*
X136596382Y-69040000D01*
X130712500Y-69393882D02*
X131087500Y-69393882D01*
X133761382Y-70180000D02*
X133706382Y-70125000D01*
X195026382Y-84000000D02*
X195026382Y-84845000D01*
X121781382Y-71975000D02*
X121281382Y-71475000D01*
X123456382Y-72525000D02*
X125356382Y-72525000D01*
X204366382Y-90105000D02*
X204366382Y-85560000D01*
X153166382Y-66510000D02*
X153281382Y-66625000D01*
X211756382Y-87550000D02*
X211781382Y-87525000D01*
X130637500Y-69318882D02*
X130712500Y-69393882D01*
X129131382Y-67150000D02*
X129131382Y-67812764D01*
X192281382Y-90510000D02*
X192734501Y-90510000D01*
X160351382Y-97060000D02*
X157811382Y-97060000D01*
X141071382Y-68385000D02*
X140441382Y-69015000D01*
X204851382Y-90590000D02*
X204366382Y-90105000D01*
X122906382Y-71975000D02*
X123456382Y-72525000D01*
X195856382Y-85525000D02*
X195781382Y-85600000D01*
X102511382Y-77400000D02*
X102511382Y-75345000D01*
D44*
X191686382Y-58062513D02*
X190529895Y-58062513D01*
D42*
X122906382Y-71975000D02*
X121781382Y-71975000D01*
X195781382Y-87463119D02*
X195781382Y-85600000D01*
X80746382Y-79500000D02*
X80746382Y-75825000D01*
X129456382Y-62175000D02*
X129481382Y-62150000D01*
X93276382Y-57950000D02*
X93006382Y-58220000D01*
X153166382Y-55825000D02*
X153166382Y-63445000D01*
X93006382Y-58220000D02*
X93006382Y-56200000D01*
X131443618Y-70125000D02*
X133706382Y-70125000D01*
X134201382Y-63800000D02*
X135581382Y-63800000D01*
X137996382Y-69015000D02*
X136621382Y-69015000D01*
X130712500Y-69393882D02*
X131443618Y-70125000D01*
X140441382Y-69015000D02*
X137996382Y-69015000D01*
X204331382Y-85525000D02*
X195856382Y-85525000D01*
X133631382Y-78670000D02*
X133631382Y-82300000D01*
X133631382Y-82300000D02*
X133506382Y-82425000D01*
X195026382Y-84845000D02*
X195781382Y-85600000D01*
X121081382Y-67200000D02*
X122281382Y-67200000D01*
X97611382Y-56825000D02*
X97611382Y-57920000D01*
X210021382Y-87550000D02*
X211756382Y-87550000D01*
X98526382Y-82255000D02*
X98281382Y-82500000D01*
X129456382Y-63255000D02*
X129456382Y-62175000D01*
X162691382Y-64545000D02*
X162691382Y-56925000D01*
X104351382Y-57950000D02*
X97581382Y-57950000D01*
X169411382Y-87245000D02*
X169431382Y-87225000D01*
X98526382Y-79500000D02*
X98526382Y-82255000D01*
X169411382Y-89450000D02*
X169411382Y-87245000D01*
X97611382Y-57920000D02*
X97581382Y-57950000D01*
X93006382Y-56200000D02*
X93031382Y-56175000D01*
X155271382Y-97060000D02*
X155271382Y-100640000D01*
X123031382Y-66450000D02*
X123031382Y-64700000D01*
X136596382Y-68860000D02*
X137806382Y-67650000D01*
X192734501Y-90510000D02*
X195781382Y-87463119D01*
X136596382Y-69040000D02*
X136596382Y-68860000D01*
X162691382Y-56925000D02*
X159156382Y-56925000D01*
X157811382Y-97060000D02*
X155271382Y-97060000D01*
X131087500Y-69393882D02*
X131706382Y-68775000D01*
X162891382Y-97060000D02*
X160351382Y-97060000D01*
X129131382Y-67812764D02*
X130637500Y-69318882D01*
X204366382Y-85560000D02*
X204331382Y-85525000D01*
X102511382Y-75345000D02*
X102556382Y-75300000D01*
X190529882Y-58062500D02*
X190416382Y-57949000D01*
X159156382Y-56925000D02*
X158906382Y-56675000D01*
X136376382Y-74725000D02*
X136376382Y-75351500D01*
X97581382Y-57950000D02*
X93276382Y-57950000D01*
X204851382Y-95725000D02*
X204851382Y-90590000D01*
X153166382Y-63445000D02*
X153166382Y-66510000D01*
X123031382Y-64700000D02*
X122831382Y-64500000D01*
X155271382Y-100640000D02*
X155306382Y-100675000D01*
X136376382Y-75351500D02*
X135731382Y-75996500D01*
%TO.N,TDS*%
X123031382Y-68000000D02*
X110756382Y-68000000D01*
X123031382Y-68000000D02*
X124831382Y-68000000D01*
X124831382Y-68000000D02*
X125356382Y-68525000D01*
X110206382Y-67450000D02*
X110206382Y-59650000D01*
X110756382Y-68000000D02*
X110206382Y-67450000D01*
D45*
%TO.N,/SW*%
X194637382Y-59727000D02*
X194226382Y-59727000D01*
X195750382Y-58614000D02*
X194637382Y-59727000D01*
D46*
X192448382Y-59981000D02*
X192866382Y-59563000D01*
X192866382Y-59563000D02*
X192866382Y-58062500D01*
D45*
%TO.N,Net-(C3-Pad2)*%
X195750382Y-57974000D02*
X193904882Y-57974000D01*
X193904882Y-57974000D02*
X193816382Y-58062500D01*
D42*
%TO.N,+5V*%
X78206382Y-72350000D02*
X78556382Y-72000000D01*
X124286382Y-65750000D02*
X124286382Y-64080000D01*
X166756382Y-67800000D02*
X169606382Y-67800000D01*
X167001382Y-82300000D02*
X167051382Y-82250000D01*
X124286382Y-64080000D02*
X122956382Y-62750000D01*
D43*
X200606382Y-55775000D02*
X200606382Y-70600000D01*
D42*
X126156382Y-77500000D02*
X126106382Y-77550000D01*
D43*
X200556382Y-55725000D02*
X200606382Y-55775000D01*
X195075434Y-55725000D02*
X200556382Y-55725000D01*
D42*
X108161382Y-65895000D02*
X108131382Y-65925000D01*
X139658882Y-70285000D02*
X138858882Y-71085000D01*
X88056382Y-63975000D02*
X87981382Y-64050000D01*
X141146382Y-71510000D02*
X139283882Y-71510000D01*
X78206382Y-75825000D02*
X78206382Y-79500000D01*
X137996382Y-70222500D02*
X138858882Y-71085000D01*
X167076382Y-79575000D02*
X167076382Y-68120000D01*
X139283882Y-71510000D02*
X138858882Y-71085000D01*
X167051382Y-79600000D02*
X167076382Y-79575000D01*
X108161382Y-62900000D02*
X108161382Y-65895000D01*
X78206382Y-75825000D02*
X78206382Y-72350000D01*
D43*
X188341382Y-70335000D02*
X188341382Y-63410000D01*
D42*
X169606382Y-67800000D02*
X169631382Y-67825000D01*
X167051382Y-81150000D02*
X167051382Y-79600000D01*
D43*
X195012934Y-55787500D02*
X195075434Y-55725000D01*
D42*
X137996382Y-69655000D02*
X137996382Y-70222500D01*
X127716340Y-73325000D02*
X125356382Y-73325000D01*
X157356382Y-69650000D02*
X157431382Y-69725000D01*
X157356382Y-67250000D02*
X157356382Y-69650000D01*
D43*
X200606382Y-70600000D02*
X200556382Y-70650000D01*
D42*
X141071382Y-70285000D02*
X139658882Y-70285000D01*
X167076382Y-68120000D02*
X166756382Y-67800000D01*
X129755330Y-71286010D02*
X127716340Y-73325000D01*
X78556382Y-72000000D02*
X82081382Y-72000000D01*
D43*
X200556382Y-70650000D02*
X188656382Y-70650000D01*
D42*
X88056382Y-62030000D02*
X88056382Y-63975000D01*
D43*
X193816382Y-55787500D02*
X195012934Y-55787500D01*
X188656382Y-70650000D02*
X188341382Y-70335000D01*
D42*
X167051382Y-82250000D02*
X167051382Y-81150000D01*
X127486382Y-77500000D02*
X126156382Y-77500000D01*
%TO.N,PH*%
X121081382Y-68750000D02*
X121656382Y-69325000D01*
X85881382Y-68200000D02*
X85631382Y-68450000D01*
X121081382Y-68750000D02*
X117284882Y-68750000D01*
X85881382Y-62800000D02*
X85881382Y-68200000D01*
X117284882Y-68750000D02*
X117256382Y-68778500D01*
X121656382Y-69325000D02*
X125356382Y-69325000D01*
X125256382Y-69225000D02*
X125356382Y-69325000D01*
%TO.N,ldr*%
X116731382Y-70600000D02*
X116906382Y-70425000D01*
X125356382Y-70004000D02*
X125356382Y-70125000D01*
X94681382Y-70550000D02*
X94731382Y-70600000D01*
X122906382Y-70425000D02*
X123377382Y-69954000D01*
X125306382Y-69954000D02*
X125356382Y-70004000D01*
X116906382Y-70425000D02*
X122906382Y-70425000D01*
X123377382Y-69954000D02*
X125306382Y-69954000D01*
X94681382Y-65025000D02*
X94681382Y-70550000D01*
%TO.N,Net-(C8-Pad2)*%
X132661382Y-63820000D02*
X131506382Y-64975000D01*
X132661382Y-60100000D02*
X132661382Y-63820000D01*
X133561382Y-63800000D02*
X132681382Y-63800000D01*
X131381382Y-64850000D02*
X131506382Y-64975000D01*
X132611382Y-63870000D02*
X132661382Y-63820000D01*
X130731382Y-65750000D02*
X130731382Y-67150000D01*
X130726382Y-64850000D02*
X131381382Y-64850000D01*
X131506382Y-64975000D02*
X130731382Y-65750000D01*
X132681382Y-63800000D02*
X132611382Y-63870000D01*
%TO.N,Net-(C9-Pad2)*%
X129456382Y-63895000D02*
X128686382Y-63895000D01*
X128686382Y-63895000D02*
X128531382Y-64050000D01*
X128531382Y-60850000D02*
X128531382Y-63050000D01*
X129931382Y-65625000D02*
X129931382Y-67150000D01*
X128531382Y-63050000D02*
X128531382Y-64050000D01*
X128531382Y-64225000D02*
X129293882Y-64987500D01*
X130086382Y-64850000D02*
X129431382Y-64850000D01*
X128531382Y-64050000D02*
X128531382Y-64225000D01*
X129293882Y-64987500D02*
X129931382Y-65625000D01*
X129431382Y-64850000D02*
X129293882Y-64987500D01*
X127781382Y-60100000D02*
X128531382Y-60850000D01*
%TO.N,Net-(C11-Pad2)*%
X136733882Y-69817500D02*
X136596382Y-69680000D01*
X133866382Y-71085000D02*
X133706382Y-70925000D01*
X136733882Y-71085000D02*
X133866382Y-71085000D01*
X136733882Y-71085000D02*
X136733882Y-69817500D01*
%TO.N,Nivel_bajo*%
X135736382Y-74725000D02*
X135006382Y-74725000D01*
X135006382Y-74725000D02*
X134835382Y-74896000D01*
X165231382Y-67675000D02*
X165106382Y-67800000D01*
X134835382Y-73791236D02*
X134835382Y-74896000D01*
X134835382Y-77179000D02*
X135631382Y-77975000D01*
X133706382Y-73325000D02*
X134369146Y-73325000D01*
X165231382Y-64545000D02*
X165231382Y-67675000D01*
X165031382Y-77825000D02*
X165031382Y-67875000D01*
X165031382Y-67875000D02*
X165106382Y-67800000D01*
X134369146Y-73325000D02*
X134835382Y-73791236D01*
X134835382Y-74896000D02*
X134835382Y-77179000D01*
%TO.N,Nivel_alto*%
X133706382Y-74125000D02*
X133706382Y-76775000D01*
X155481382Y-76625000D02*
X155481382Y-67475000D01*
X133631382Y-76850000D02*
X133706382Y-76775000D01*
X155481382Y-67475000D02*
X155706382Y-67250000D01*
X155706382Y-63445000D02*
X155706382Y-67250000D01*
X133631382Y-78030000D02*
X133631382Y-76850000D01*
%TO.N,Digital*%
X137683055Y-73675000D02*
X145070072Y-81062017D01*
X157811382Y-87595000D02*
X159456382Y-85950000D01*
X135519146Y-73675000D02*
X137683055Y-73675000D01*
X145070072Y-81062017D02*
X158919365Y-81062017D01*
X157811382Y-88450000D02*
X157811382Y-87595000D01*
X134369146Y-72525000D02*
X135519146Y-73675000D01*
X158831382Y-81150000D02*
X158919365Y-81062017D01*
X165081382Y-81350000D02*
X166211382Y-81350000D01*
X158831382Y-83750000D02*
X158831382Y-81150000D01*
X133706382Y-72525000D02*
X134369146Y-72525000D01*
X158919365Y-81062017D02*
X161994365Y-81062017D01*
X166211382Y-81350000D02*
X166411382Y-81150000D01*
%TO.N,Digital_1*%
X165881382Y-84350000D02*
X165881382Y-82780000D01*
X165881382Y-84350000D02*
X164231382Y-84350000D01*
X164231382Y-84350000D02*
X164206382Y-84375000D01*
X160351382Y-88450000D02*
X160351382Y-88230000D01*
X165881382Y-82780000D02*
X166361382Y-82300000D01*
X142081382Y-80375000D02*
X137506382Y-75800000D01*
X143281382Y-80375000D02*
X142081382Y-80375000D01*
X126531382Y-71725000D02*
X125356382Y-71725000D01*
X160351382Y-88230000D02*
X164206382Y-84375000D01*
X127131382Y-72325000D02*
X126531382Y-71725000D01*
%TO.N,TX*%
X124731382Y-74750000D02*
X125356382Y-74125000D01*
X124731382Y-77768000D02*
X124731382Y-74750000D01*
%TO.N,RX*%
X125681146Y-76586132D02*
X125681146Y-76550236D01*
X125681146Y-76550236D02*
X126731382Y-75500000D01*
%TO.N,SDA*%
X100881382Y-74250000D02*
X100881382Y-80025000D01*
X83286382Y-75825000D02*
X83286382Y-79500000D01*
X131406382Y-72075000D02*
X130293618Y-72075000D01*
X130293618Y-72075000D02*
X127531382Y-74837236D01*
X100781382Y-80125000D02*
X117306382Y-80125000D01*
X127531382Y-74837236D02*
X127531382Y-75500000D01*
%TO.N,SCL*%
X129893618Y-73275000D02*
X128331382Y-74837236D01*
X85826382Y-75825000D02*
X85826382Y-79500000D01*
X130281382Y-73275000D02*
X129893618Y-73275000D01*
X128331382Y-74837236D02*
X128331382Y-75500000D01*
%TO.N,BKGD_PIN*%
X127856382Y-78546500D02*
X128126382Y-78276500D01*
X128126382Y-78276500D02*
X128126382Y-77500000D01*
X129131382Y-75500000D02*
X129131382Y-76495000D01*
X129131382Y-76495000D02*
X128126382Y-77500000D01*
%TO.N,Rele1*%
X132206382Y-79200000D02*
X132306382Y-79100000D01*
X113756382Y-75300500D02*
X113500882Y-75300500D01*
X132206382Y-80875000D02*
X132206382Y-79200000D01*
X122956382Y-80900000D02*
X122756382Y-81100000D01*
X132306382Y-79100000D02*
X132306382Y-75525000D01*
X123056382Y-75050000D02*
X123056382Y-79125000D01*
X122756382Y-81100000D02*
X122756382Y-79425000D01*
X122756382Y-79425000D02*
X123056382Y-79125000D01*
X113500882Y-75300500D02*
X111401382Y-77400000D01*
X132306382Y-75525000D02*
X132331382Y-75500000D01*
%TO.N,Rele2*%
X131531382Y-80448327D02*
X131281382Y-80698327D01*
X121656382Y-73975000D02*
X121731382Y-74050000D01*
X110131382Y-74050000D02*
X110231382Y-73950000D01*
X110131382Y-77400000D02*
X110131382Y-74050000D01*
X131281382Y-80698327D02*
X131281382Y-82150000D01*
X131531382Y-75500000D02*
X131531382Y-80448327D01*
X121656382Y-76150000D02*
X121631382Y-76175000D01*
X121631382Y-75825000D02*
X121631382Y-76175000D01*
X121656382Y-73975000D02*
X121656382Y-76150000D01*
X121631382Y-76175000D02*
X121631382Y-82150000D01*
%TO.N,Rele3*%
X130281382Y-82928500D02*
X130331382Y-82878500D01*
X130877382Y-75646000D02*
X130731382Y-75500000D01*
X120206382Y-73100000D02*
X120206382Y-75025000D01*
X108861382Y-73130000D02*
X108731382Y-73000000D01*
X120106382Y-75125000D02*
X120106382Y-82550000D01*
X120106382Y-74875000D02*
X120106382Y-75125000D01*
X120106382Y-82550000D02*
X120131382Y-82575000D01*
X108861382Y-77400000D02*
X108861382Y-73130000D01*
X130877382Y-77225000D02*
X130877382Y-75646000D01*
X120206382Y-75025000D02*
X120106382Y-75125000D01*
X130331382Y-82878500D02*
X130331382Y-77771000D01*
X130331382Y-77771000D02*
X130877382Y-77225000D01*
%TO.N,Rele4*%
X134356382Y-84478500D02*
X134356382Y-79425000D01*
X118781382Y-73450000D02*
X118856382Y-73525000D01*
X118781382Y-71575000D02*
X118956382Y-71750000D01*
X129056382Y-79025000D02*
X129056382Y-77975000D01*
X129056382Y-77975000D02*
X129635382Y-77396000D01*
X129635382Y-77396000D02*
X129635382Y-76625000D01*
X107591382Y-71815000D02*
X107731382Y-71675000D01*
X118856382Y-73525000D02*
X118856382Y-84500000D01*
X107591382Y-77400000D02*
X107591382Y-71815000D01*
X129931382Y-76329000D02*
X129635382Y-76625000D01*
X128431382Y-79650000D02*
X129056382Y-79025000D01*
X129931382Y-75500000D02*
X129931382Y-76329000D01*
X134356382Y-79425000D02*
X134431382Y-79350000D01*
X118781382Y-71575000D02*
X118781382Y-73450000D01*
%TO.N,ADC*%
X163406382Y-79575000D02*
X163756382Y-79575000D01*
X145235382Y-80329000D02*
X160027382Y-80329000D01*
X133706382Y-71725000D02*
X134731382Y-71725000D01*
X155271382Y-88450000D02*
X156870382Y-86851000D01*
X135681382Y-72675000D02*
X135731382Y-72725000D01*
X160027382Y-80329000D02*
X160756382Y-79600000D01*
X134731382Y-71725000D02*
X135681382Y-72675000D01*
X160756382Y-79600000D02*
X163381382Y-79600000D01*
X137256382Y-72725000D02*
X137631382Y-72725000D01*
X157380382Y-86851000D02*
X163756382Y-80475000D01*
X163756382Y-80475000D02*
X163756382Y-79575000D01*
X163381382Y-79600000D02*
X163406382Y-79575000D01*
X137631382Y-72725000D02*
X138806382Y-73900000D01*
X135731382Y-72725000D02*
X137256382Y-72725000D01*
X163756382Y-79575000D02*
X166436382Y-79575000D01*
X138806382Y-73900000D02*
X145235382Y-80329000D01*
X156870382Y-86851000D02*
X157380382Y-86851000D01*
X163381382Y-79600000D02*
X163386382Y-79605000D01*
%TO.N,Aux2*%
X135652882Y-67378500D02*
X135652882Y-68041264D01*
X135652882Y-68041264D02*
X134369146Y-69325000D01*
X171951382Y-69455000D02*
X172056382Y-69350000D01*
X134369146Y-69325000D02*
X133706382Y-69325000D01*
X171951382Y-89450000D02*
X171951382Y-69455000D01*
X136169365Y-67378500D02*
X135652882Y-67378500D01*
%TO.N,Aux1*%
X142806382Y-69724500D02*
X142831382Y-69699500D01*
X173221382Y-72465000D02*
X173181382Y-72425000D01*
X140956382Y-66600000D02*
X135631382Y-66600000D01*
X142831382Y-69699500D02*
X142831382Y-68475000D01*
X135631382Y-66600000D02*
X133706382Y-68525000D01*
X173221382Y-89450000D02*
X173221382Y-72465000D01*
X142831382Y-68475000D02*
X140956382Y-66600000D01*
%TO.N,Bomba2*%
X174491382Y-75290000D02*
X174491382Y-75265000D01*
X174491382Y-89450000D02*
X174491382Y-75290000D01*
X144031382Y-67425000D02*
X142656382Y-66050000D01*
X144031382Y-71425000D02*
X144031382Y-67425000D01*
X142656382Y-66050000D02*
X133431382Y-66050000D01*
X175761382Y-89450000D02*
X174491382Y-89450000D01*
X133431382Y-66050000D02*
X132331382Y-67150000D01*
X143931382Y-71525000D02*
X144031382Y-71425000D01*
%TO.N,Bomba1*%
X175702382Y-67179000D02*
X175702382Y-80771000D01*
X178301382Y-89450000D02*
X177031382Y-89450000D01*
X177056382Y-65825000D02*
X175702382Y-67179000D01*
X131531382Y-67150000D02*
X131531382Y-66100000D01*
X177031382Y-82300000D02*
X177131382Y-82200000D01*
X131531382Y-66100000D02*
X132731382Y-64900000D01*
X175702382Y-80771000D02*
X177131382Y-82200000D01*
X177031382Y-89450000D02*
X177031382Y-82300000D01*
%TO.N,Reset_pin*%
X93446382Y-79500000D02*
X93446382Y-72365000D01*
X93446382Y-72365000D02*
X93206382Y-72125000D01*
X104981382Y-68150000D02*
X105081382Y-68050000D01*
X128231382Y-67250000D02*
X128331382Y-67150000D01*
X124926382Y-65750000D02*
X125527882Y-65750000D01*
X128231382Y-68775000D02*
X128231382Y-67250000D01*
X104981382Y-71675000D02*
X104981382Y-68150000D01*
%TO.N,luz a*%
X123556382Y-61375000D02*
X126306382Y-64125000D01*
X180403263Y-77815000D02*
X176621382Y-77815000D01*
X123706382Y-57400000D02*
X123556382Y-57550000D01*
X150981382Y-78700000D02*
X150981382Y-57175000D01*
X126306382Y-64125000D02*
X126306382Y-66725000D01*
X192281382Y-89240000D02*
X191828263Y-89240000D01*
X126306382Y-66725000D02*
X126731382Y-67150000D01*
X123556382Y-57550000D02*
X123556382Y-61375000D01*
X191828263Y-89240000D02*
X180403263Y-77815000D01*
X176621382Y-77815000D02*
X176531382Y-77725000D01*
X150981382Y-57175000D02*
X150806382Y-57000000D01*
%TO.N,luz b*%
X149656382Y-79550000D02*
X149656382Y-66902500D01*
X127456382Y-67075000D02*
X127531382Y-67150000D01*
X192281382Y-91780000D02*
X190481382Y-91780000D01*
X176550399Y-80355000D02*
X176480882Y-80424517D01*
X179056382Y-80355000D02*
X176550399Y-80355000D01*
X127456382Y-64200000D02*
X127456382Y-67075000D01*
X190481382Y-91780000D02*
X179056382Y-80355000D01*
X149656382Y-66902500D02*
X149256382Y-66502500D01*
D43*
%TO.N,Net-(J2-Pad2)*%
X90721382Y-88380003D02*
X90721382Y-111670000D01*
%TO.N,Net-(J3-Pad1)*%
X201616385Y-97950012D02*
X201616385Y-111440003D01*
D42*
X201616382Y-111440000D02*
X201846382Y-111670000D01*
%TO.N,Net-(J3-Pad2)*%
X206926382Y-90090000D02*
X206941382Y-90075000D01*
D43*
X206926382Y-111670000D02*
X206926382Y-90090008D01*
%TO.N,Net-(J4-Pad2)*%
X144061382Y-111670000D02*
X144061382Y-88380000D01*
%TO.N,Net-(J4-Pad3)*%
X150061382Y-102580000D02*
X150061382Y-110750000D01*
D42*
X150061382Y-110750000D02*
X149141382Y-111670000D01*
%TO.N,Net-(J5-Pad3)*%
X105621382Y-55585000D02*
X105621382Y-57950000D01*
X113021382Y-50075000D02*
X113021382Y-54710000D01*
X112181382Y-55550000D02*
X105656382Y-55550000D01*
X113021382Y-54710000D02*
X112181382Y-55550000D01*
X105656382Y-55550000D02*
X105621382Y-55585000D01*
D43*
%TO.N,Net-(J6-Pad2)*%
X126281382Y-111670000D02*
X126281382Y-88380000D01*
%TO.N,Net-(J6-Pad3)*%
X132281382Y-102580000D02*
X132281382Y-110750000D01*
D42*
X132281382Y-110750000D02*
X131361382Y-111670000D01*
D43*
%TO.N,Net-(J7-Pad2)*%
X108501382Y-88380000D02*
X108501382Y-111670000D01*
%TO.N,Net-(J7-Pad3)*%
X114501382Y-102580000D02*
X114501382Y-110750000D01*
D42*
X114501382Y-110750000D02*
X113581382Y-111670000D01*
%TO.N,Net-(J9-Pad3)*%
X85006382Y-55170000D02*
X88056382Y-58220000D01*
X85006382Y-50075000D02*
X85006382Y-55170000D01*
%TO.N,DHt11*%
X134521382Y-50050000D02*
X134521382Y-52865000D01*
X134531382Y-55500000D02*
X134531382Y-52875000D01*
X134531382Y-52875000D02*
X134521382Y-52865000D01*
X134531382Y-52850000D02*
X134531382Y-53075000D01*
X119006382Y-55575000D02*
X119081382Y-55500000D01*
X127256382Y-70875000D02*
X125406382Y-70875000D01*
X125406382Y-70875000D02*
X125356382Y-70925000D01*
X119006382Y-67200000D02*
X119006382Y-55575000D01*
D43*
%TO.N,Net-(J11-Pad1)*%
X190316382Y-97659995D02*
X190316382Y-111775004D01*
D42*
X177031382Y-94400000D02*
X178301382Y-94400000D01*
X178301382Y-94400000D02*
X187056382Y-94400000D01*
D43*
X187056394Y-94400007D02*
X190316382Y-97659995D01*
%TO.N,Net-(J12-Pad1)*%
X178991386Y-99259992D02*
X178991386Y-111624991D01*
D42*
X175761382Y-94400000D02*
X175761382Y-96030000D01*
X174491382Y-94400000D02*
X175761382Y-94400000D01*
X175761382Y-96030000D02*
X178991382Y-99260000D01*
D43*
%TO.N,Net-(J14-Pad1)*%
X167566390Y-107589998D02*
X167566390Y-111524991D01*
X173856382Y-97800000D02*
X173931382Y-97875000D01*
D42*
X173356382Y-94535000D02*
X173221382Y-94400000D01*
X173856382Y-97800000D02*
X173431382Y-97375000D01*
X173431382Y-97375000D02*
X173431382Y-94610000D01*
D43*
X173931382Y-101224980D02*
X167566390Y-107589998D01*
X173931382Y-97875000D02*
X173931382Y-101224980D01*
D42*
X173431382Y-94610000D02*
X173221382Y-94400000D01*
D43*
%TO.N,Net-(J15-Pad1)*%
X171981382Y-96650005D02*
X171981382Y-97925000D01*
X171956373Y-96624996D02*
X171981382Y-96650005D01*
D42*
X171956382Y-95163019D02*
X171956382Y-96625000D01*
X171951382Y-95158019D02*
X171956382Y-95163019D01*
X156931382Y-111650000D02*
X156191382Y-111650000D01*
D43*
X156931384Y-108374998D02*
X156931384Y-111650010D01*
X169506382Y-100400000D02*
X164906382Y-100400000D01*
X164906382Y-100400000D02*
X156931384Y-108374998D01*
X171981382Y-97925000D02*
X169506382Y-100400000D01*
D42*
X171951382Y-94400000D02*
X171951382Y-95158019D01*
%TO.N,Net-(J16-Pad1)*%
X168121382Y-49900000D02*
X168121382Y-55890000D01*
X168121382Y-55890000D02*
X169006382Y-56775000D01*
%TO.N,Net-(J17-Pad1)*%
X159881382Y-53650000D02*
X156256382Y-50025000D01*
X159931382Y-57975000D02*
X159931382Y-59150000D01*
X159881382Y-55025000D02*
X159881382Y-53650000D01*
X159931382Y-59150000D02*
X159856382Y-59225000D01*
%TO.N,Net-(J18-Pad1)*%
X106756382Y-55000000D02*
X101656382Y-55000000D01*
X101466382Y-59490000D02*
X101656382Y-59300000D01*
X93006382Y-59490000D02*
X101466382Y-59490000D01*
X99831382Y-56825000D02*
X101656382Y-55000000D01*
X98251382Y-56825000D02*
X99831382Y-56825000D01*
X106821382Y-50175000D02*
X106821382Y-54935000D01*
X106821382Y-54935000D02*
X106756382Y-55000000D01*
%TO.N,Net-(K1-PadA2)*%
X96881382Y-84650000D02*
X96721382Y-84810000D01*
X107591382Y-84565000D02*
X107581382Y-84575000D01*
X96721382Y-84810000D02*
X96721382Y-90380000D01*
X107591382Y-82350000D02*
X107591382Y-84565000D01*
%TO.N,Net-(K2-PadA2)*%
X111401382Y-82350000D02*
X112751382Y-83700000D01*
X112751382Y-83700000D02*
X115781382Y-83700000D01*
X150061382Y-90380000D02*
X150061382Y-83695000D01*
%TO.N,Net-(K3-PadA2)*%
X110131382Y-82350000D02*
X110131382Y-85249500D01*
X132281382Y-85400000D02*
X132281382Y-90380000D01*
X132381382Y-85300000D02*
X132281382Y-85400000D01*
%TO.N,Net-(K4-PadA2)*%
X114501382Y-84530000D02*
X114501382Y-90380000D01*
X114531382Y-84500000D02*
X114501382Y-84530000D01*
X108861382Y-82350000D02*
X108861382Y-84495000D01*
X108861382Y-84495000D02*
X108831382Y-84525000D01*
%TO.N,Net-(Q1-Pad1)*%
X202976382Y-95650000D02*
X202901382Y-95725000D01*
X202976382Y-94325000D02*
X202976382Y-95650000D01*
X202901382Y-95725000D02*
X204211382Y-95725000D01*
X204211382Y-97895000D02*
X204156382Y-97950000D01*
X204211382Y-95725000D02*
X204211382Y-97895000D01*
%TO.N,Net-(Q2-Pad1)*%
X208351382Y-87550000D02*
X209381382Y-87550000D01*
X209446382Y-90105000D02*
X209381382Y-90040000D01*
X208351382Y-86295000D02*
X208371382Y-86275000D01*
X208351382Y-87550000D02*
X208351382Y-86295000D01*
X209381382Y-90040000D02*
X209381382Y-87550000D01*
%TO.N,Net-(R1-Pad1)*%
X110206382Y-58000000D02*
X108211382Y-58000000D01*
X108211382Y-58000000D02*
X108161382Y-57950000D01*
X106891382Y-57950000D02*
X108161382Y-57950000D01*
%TO.N,Net-(R2-Pad1)*%
X88056382Y-59490000D02*
X88056382Y-60760000D01*
X84456382Y-60700000D02*
X84231382Y-60925000D01*
X84231382Y-60925000D02*
X84231382Y-62800000D01*
X88056382Y-60760000D02*
X84516382Y-60760000D01*
X84516382Y-60760000D02*
X84456382Y-60700000D01*
%TO.N,Net-(R5-Pad1)*%
X165381382Y-56775000D02*
X165231382Y-56925000D01*
X167356382Y-56775000D02*
X165381382Y-56775000D01*
%TO.N,Net-(R6-Pad1)*%
X157431382Y-58450000D02*
X157431382Y-55825000D01*
X155706382Y-55825000D02*
X157431382Y-55825000D01*
X158206382Y-59225000D02*
X157431382Y-58450000D01*
%TO.N,Net-(R7-Pad1)*%
X93031382Y-65025000D02*
X93031382Y-62055000D01*
X93006382Y-60760000D02*
X93006382Y-62030000D01*
X93031382Y-62055000D02*
X93006382Y-62030000D01*
D43*
%TO.N,Net-(J2-Pad1)*%
X85641382Y-111670000D02*
X85641382Y-103499988D01*
D42*
X85641382Y-103500000D02*
X84721382Y-102580000D01*
%TO.N,Net-(J2-Pad3)*%
X96721382Y-110750000D02*
X95801382Y-111670000D01*
D43*
X96721370Y-102580000D02*
X96721370Y-110750012D01*
%TO.N,Net-(J4-Pad1)*%
X138061382Y-102580000D02*
X138061382Y-110750000D01*
D42*
X138061382Y-110750000D02*
X138981382Y-111670000D01*
D43*
%TO.N,Net-(J6-Pad1)*%
X121201382Y-111670000D02*
X121201382Y-103500000D01*
D42*
X121201382Y-103500000D02*
X120281382Y-102580000D01*
D43*
%TO.N,Net-(J7-Pad1)*%
X102501394Y-102580000D02*
X102501394Y-110750012D01*
D42*
X102501382Y-110750000D02*
X103421382Y-111670000D01*
%TO.N,Net-(U2-Pad5)*%
X205331382Y-87550000D02*
X205231382Y-87450000D01*
X207711382Y-87550000D02*
X205331382Y-87550000D01*
X207711382Y-87550000D02*
X207711382Y-86295000D01*
X197236382Y-91775000D02*
X197231382Y-91780000D01*
X199556382Y-91775000D02*
X197236382Y-91775000D01*
X207711382Y-86295000D02*
X207731382Y-86275000D01*
%TO.N,Net-(U2-Pad7)*%
X202336382Y-94325000D02*
X202336382Y-89780000D01*
X202336382Y-94325000D02*
X202261382Y-94400000D01*
X202336382Y-89780000D02*
X201796382Y-89240000D01*
X201796382Y-89240000D02*
X197231382Y-89240000D01*
X202261382Y-94400000D02*
X202261382Y-95725000D01*
%TD*%
%TA.AperFunction,Conductor*%
%TO.N,+5V*%
G36*
X189738076Y-59493306D02*
G01*
X189756382Y-59537500D01*
X189756382Y-66612500D01*
X189738076Y-66656694D01*
X189693882Y-66675000D01*
X185218882Y-66675000D01*
X185174688Y-66656694D01*
X185156382Y-66612500D01*
X185156382Y-65075000D01*
X179618882Y-65075000D01*
X179574688Y-65056694D01*
X179556382Y-65012500D01*
X179556382Y-59537500D01*
X179574688Y-59493306D01*
X179618882Y-59475000D01*
X189693882Y-59475000D01*
X189738076Y-59493306D01*
G37*
%TD.AperFunction*%
%TD*%
%TA.AperFunction,Conductor*%
%TO.N,+12V*%
G36*
X192951797Y-52847453D02*
G01*
X192970454Y-52891894D01*
X192976330Y-56508917D01*
X192958096Y-56553141D01*
X192914399Y-56571516D01*
X191679955Y-56582753D01*
X190670377Y-56591943D01*
X190668529Y-56597898D01*
X190657905Y-56602412D01*
X190634399Y-56619897D01*
X190619106Y-56621792D01*
X187985480Y-56620839D01*
X187941294Y-56602517D01*
X187923004Y-56558452D01*
X187916464Y-52931119D01*
X187934690Y-52886892D01*
X187978468Y-52868508D01*
X191019624Y-52844439D01*
X192907459Y-52829498D01*
X192951797Y-52847453D01*
G37*
%TD.AperFunction*%
%TD*%
%TA.AperFunction,Conductor*%
%TO.N,/SW*%
G36*
X194418336Y-59481604D02*
G01*
X194462484Y-59500019D01*
X194480681Y-59544107D01*
X194480629Y-60816482D01*
X194480414Y-66076212D01*
X194480385Y-66776513D01*
X194462077Y-66820706D01*
X194417885Y-66839010D01*
X192702425Y-66839005D01*
X190986882Y-66839000D01*
X190942688Y-66820694D01*
X190924382Y-66776500D01*
X190924382Y-65969438D01*
X191189382Y-65969438D01*
X191189981Y-65975519D01*
X191195551Y-66003518D01*
X191200170Y-66014670D01*
X191221401Y-66046445D01*
X191229937Y-66054981D01*
X191261712Y-66076212D01*
X191272864Y-66080831D01*
X191300863Y-66086401D01*
X191306944Y-66087000D01*
X192097951Y-66087000D01*
X192106741Y-66083359D01*
X192110382Y-66074569D01*
X192872382Y-66074569D01*
X192876023Y-66083359D01*
X192884813Y-66087000D01*
X193675820Y-66087000D01*
X193681901Y-66086401D01*
X193709900Y-66080831D01*
X193721052Y-66076212D01*
X193752827Y-66054981D01*
X193761363Y-66046445D01*
X193782594Y-66014670D01*
X193787213Y-66003518D01*
X193792783Y-65975519D01*
X193793382Y-65969438D01*
X193793382Y-63803431D01*
X193789741Y-63794641D01*
X193780951Y-63791000D01*
X192884813Y-63791000D01*
X192876023Y-63794641D01*
X192872382Y-63803431D01*
X192872382Y-66074569D01*
X192110382Y-66074569D01*
X192110382Y-63803431D01*
X192106741Y-63794641D01*
X192097951Y-63791000D01*
X191201813Y-63791000D01*
X191193023Y-63794641D01*
X191189382Y-63803431D01*
X191189382Y-65969438D01*
X190924382Y-65969438D01*
X190924382Y-63016569D01*
X191189382Y-63016569D01*
X191193023Y-63025359D01*
X191201813Y-63029000D01*
X192097951Y-63029000D01*
X192106741Y-63025359D01*
X192110382Y-63016569D01*
X192872382Y-63016569D01*
X192876023Y-63025359D01*
X192884813Y-63029000D01*
X193780951Y-63029000D01*
X193789741Y-63025359D01*
X193793382Y-63016569D01*
X193793382Y-60850562D01*
X193792783Y-60844481D01*
X193787213Y-60816482D01*
X193782594Y-60805330D01*
X193761363Y-60773555D01*
X193752827Y-60765019D01*
X193721052Y-60743788D01*
X193709900Y-60739169D01*
X193681901Y-60733599D01*
X193675820Y-60733000D01*
X192884813Y-60733000D01*
X192876023Y-60736641D01*
X192872382Y-60745431D01*
X192872382Y-63016569D01*
X192110382Y-63016569D01*
X192110382Y-60745431D01*
X192106741Y-60736641D01*
X192097951Y-60733000D01*
X191306944Y-60733000D01*
X191300863Y-60733599D01*
X191272864Y-60739169D01*
X191261712Y-60743788D01*
X191229937Y-60765019D01*
X191221401Y-60773555D01*
X191200170Y-60805330D01*
X191195551Y-60816482D01*
X191189981Y-60844481D01*
X191189382Y-60850562D01*
X191189382Y-63016569D01*
X190924382Y-63016569D01*
X190924382Y-59535654D01*
X190942688Y-59491460D01*
X190987035Y-59473154D01*
X194418336Y-59481604D01*
G37*
%TD.AperFunction*%
%TD*%
%TA.AperFunction,Conductor*%
%TO.N,GND*%
G36*
X184538076Y-65433306D02*
G01*
X184556382Y-65477500D01*
X184556382Y-69412500D01*
X184538076Y-69456694D01*
X184493882Y-69475000D01*
X179018882Y-69475000D01*
X178974688Y-69456694D01*
X178956382Y-69412500D01*
X178956382Y-66658453D01*
X179904383Y-66658453D01*
X179904715Y-66662985D01*
X179914583Y-66730028D01*
X179917430Y-66739192D01*
X179968329Y-66842861D01*
X179974257Y-66851142D01*
X180055775Y-66932518D01*
X180064070Y-66938434D01*
X180167828Y-66989152D01*
X180176992Y-66991984D01*
X180243403Y-67001672D01*
X180247916Y-67002000D01*
X180616951Y-67002000D01*
X180625741Y-66998359D01*
X180629382Y-66989569D01*
X180629382Y-66989568D01*
X180883382Y-66989568D01*
X180887023Y-66998358D01*
X180895813Y-67001999D01*
X181264835Y-67001999D01*
X181269367Y-67001667D01*
X181336410Y-66991799D01*
X181345574Y-66988952D01*
X181449243Y-66938053D01*
X181457524Y-66932125D01*
X181538900Y-66850607D01*
X181544816Y-66842312D01*
X181595534Y-66738554D01*
X181598366Y-66729390D01*
X181608054Y-66662979D01*
X181608382Y-66658466D01*
X181608382Y-66648453D01*
X182504383Y-66648453D01*
X182504715Y-66652985D01*
X182514583Y-66720028D01*
X182517430Y-66729192D01*
X182568329Y-66832861D01*
X182574257Y-66841142D01*
X182655775Y-66922518D01*
X182664070Y-66928434D01*
X182767828Y-66979152D01*
X182776992Y-66981984D01*
X182843403Y-66991672D01*
X182847916Y-66992000D01*
X183216951Y-66992000D01*
X183225741Y-66988359D01*
X183229382Y-66979569D01*
X183229382Y-66979568D01*
X183483382Y-66979568D01*
X183487023Y-66988358D01*
X183495813Y-66991999D01*
X183864835Y-66991999D01*
X183869367Y-66991667D01*
X183936410Y-66981799D01*
X183945574Y-66978952D01*
X184049243Y-66928053D01*
X184057524Y-66922125D01*
X184138900Y-66840607D01*
X184144816Y-66832312D01*
X184195534Y-66728554D01*
X184198366Y-66719390D01*
X184208054Y-66652979D01*
X184208382Y-66648466D01*
X184208382Y-66504431D01*
X184204741Y-66495641D01*
X184195951Y-66492000D01*
X183495813Y-66492000D01*
X183487023Y-66495641D01*
X183483382Y-66504431D01*
X183483382Y-66979568D01*
X183229382Y-66979568D01*
X183229382Y-66504431D01*
X183225741Y-66495641D01*
X183216951Y-66492000D01*
X182516814Y-66492000D01*
X182508024Y-66495641D01*
X182504383Y-66504431D01*
X182504383Y-66648453D01*
X181608382Y-66648453D01*
X181608382Y-66514431D01*
X181604741Y-66505641D01*
X181595951Y-66502000D01*
X180895813Y-66502000D01*
X180887023Y-66505641D01*
X180883382Y-66514431D01*
X180883382Y-66989568D01*
X180629382Y-66989568D01*
X180629382Y-66514431D01*
X180625741Y-66505641D01*
X180616951Y-66502000D01*
X179916814Y-66502000D01*
X179908024Y-66505641D01*
X179904383Y-66514431D01*
X179904383Y-66658453D01*
X178956382Y-66658453D01*
X178956382Y-66235569D01*
X179904382Y-66235569D01*
X179908023Y-66244359D01*
X179916813Y-66248000D01*
X180616951Y-66248000D01*
X180625741Y-66244359D01*
X180629382Y-66235569D01*
X180883382Y-66235569D01*
X180887023Y-66244359D01*
X180895813Y-66248000D01*
X181595950Y-66248000D01*
X181604740Y-66244359D01*
X181608381Y-66235569D01*
X181608381Y-66225569D01*
X182504382Y-66225569D01*
X182508023Y-66234359D01*
X182516813Y-66238000D01*
X183216951Y-66238000D01*
X183225741Y-66234359D01*
X183229382Y-66225569D01*
X183483382Y-66225569D01*
X183487023Y-66234359D01*
X183495813Y-66238000D01*
X184195950Y-66238000D01*
X184204740Y-66234359D01*
X184208381Y-66225569D01*
X184208381Y-66081547D01*
X184208049Y-66077015D01*
X184198181Y-66009972D01*
X184195334Y-66000808D01*
X184144435Y-65897139D01*
X184138507Y-65888858D01*
X184056989Y-65807482D01*
X184048694Y-65801566D01*
X183944936Y-65750848D01*
X183935772Y-65748016D01*
X183869361Y-65738328D01*
X183864848Y-65738000D01*
X183495813Y-65738000D01*
X183487023Y-65741641D01*
X183483382Y-65750431D01*
X183483382Y-66225569D01*
X183229382Y-66225569D01*
X183229382Y-65750432D01*
X183225741Y-65741642D01*
X183216951Y-65738001D01*
X182847929Y-65738001D01*
X182843397Y-65738333D01*
X182776354Y-65748201D01*
X182767190Y-65751048D01*
X182663521Y-65801947D01*
X182655240Y-65807875D01*
X182573864Y-65889393D01*
X182567948Y-65897688D01*
X182517230Y-66001446D01*
X182514398Y-66010610D01*
X182504710Y-66077021D01*
X182504382Y-66081534D01*
X182504382Y-66225569D01*
X181608381Y-66225569D01*
X181608381Y-66091547D01*
X181608049Y-66087015D01*
X181598181Y-66019972D01*
X181595334Y-66010808D01*
X181544435Y-65907139D01*
X181538507Y-65898858D01*
X181456989Y-65817482D01*
X181448694Y-65811566D01*
X181344936Y-65760848D01*
X181335772Y-65758016D01*
X181269361Y-65748328D01*
X181264848Y-65748000D01*
X180895813Y-65748000D01*
X180887023Y-65751641D01*
X180883382Y-65760431D01*
X180883382Y-66235569D01*
X180629382Y-66235569D01*
X180629382Y-65760432D01*
X180625741Y-65751642D01*
X180616951Y-65748001D01*
X180247929Y-65748001D01*
X180243397Y-65748333D01*
X180176354Y-65758201D01*
X180167190Y-65761048D01*
X180063521Y-65811947D01*
X180055240Y-65817875D01*
X179973864Y-65899393D01*
X179967948Y-65907688D01*
X179917230Y-66011446D01*
X179914398Y-66020610D01*
X179904710Y-66087021D01*
X179904382Y-66091534D01*
X179904382Y-66235569D01*
X178956382Y-66235569D01*
X178956382Y-65477500D01*
X178974688Y-65433306D01*
X179018882Y-65415000D01*
X184493882Y-65415000D01*
X184538076Y-65433306D01*
G37*
%TD.AperFunction*%
%TD*%
%TA.AperFunction,Conductor*%
%TO.N,GND*%
G36*
X187096076Y-54665306D02*
G01*
X187114382Y-54709500D01*
X187114382Y-57187000D01*
X191115882Y-57187000D01*
X191160076Y-57205306D01*
X191178382Y-57249500D01*
X191178382Y-58902500D01*
X191160076Y-58946694D01*
X191115882Y-58965000D01*
X182096882Y-58965000D01*
X182052688Y-58946694D01*
X182034382Y-58902500D01*
X182034382Y-55814453D01*
X184230383Y-55814453D01*
X184230715Y-55818985D01*
X184240583Y-55886028D01*
X184243430Y-55895192D01*
X184294329Y-55998861D01*
X184300257Y-56007142D01*
X184381775Y-56088518D01*
X184390070Y-56094434D01*
X184493828Y-56145152D01*
X184502992Y-56147984D01*
X184569403Y-56157672D01*
X184573916Y-56158000D01*
X184942951Y-56158000D01*
X184951741Y-56154359D01*
X184955382Y-56145569D01*
X184955382Y-56145568D01*
X185209382Y-56145568D01*
X185213023Y-56154358D01*
X185221813Y-56157999D01*
X185590835Y-56157999D01*
X185595367Y-56157667D01*
X185662410Y-56147799D01*
X185671574Y-56144952D01*
X185775243Y-56094053D01*
X185783524Y-56088125D01*
X185864900Y-56006607D01*
X185870816Y-55998312D01*
X185921534Y-55894554D01*
X185924366Y-55885390D01*
X185934054Y-55818979D01*
X185934382Y-55814466D01*
X185934382Y-55670431D01*
X185930741Y-55661641D01*
X185921951Y-55658000D01*
X185221813Y-55658000D01*
X185213023Y-55661641D01*
X185209382Y-55670431D01*
X185209382Y-56145568D01*
X184955382Y-56145568D01*
X184955382Y-55670431D01*
X184951741Y-55661641D01*
X184942951Y-55658000D01*
X184242814Y-55658000D01*
X184234024Y-55661641D01*
X184230383Y-55670431D01*
X184230383Y-55814453D01*
X182034382Y-55814453D01*
X182034382Y-55391569D01*
X184230382Y-55391569D01*
X184234023Y-55400359D01*
X184242813Y-55404000D01*
X184942951Y-55404000D01*
X184951741Y-55400359D01*
X184955382Y-55391569D01*
X185209382Y-55391569D01*
X185213023Y-55400359D01*
X185221813Y-55404000D01*
X185921950Y-55404000D01*
X185930740Y-55400359D01*
X185934381Y-55391569D01*
X185934381Y-55247547D01*
X185934049Y-55243015D01*
X185924181Y-55175972D01*
X185921334Y-55166808D01*
X185870435Y-55063139D01*
X185864507Y-55054858D01*
X185782989Y-54973482D01*
X185774694Y-54967566D01*
X185670936Y-54916848D01*
X185661772Y-54914016D01*
X185595361Y-54904328D01*
X185590848Y-54904000D01*
X185221813Y-54904000D01*
X185213023Y-54907641D01*
X185209382Y-54916431D01*
X185209382Y-55391569D01*
X184955382Y-55391569D01*
X184955382Y-54916432D01*
X184951741Y-54907642D01*
X184942951Y-54904001D01*
X184573929Y-54904001D01*
X184569397Y-54904333D01*
X184502354Y-54914201D01*
X184493190Y-54917048D01*
X184389521Y-54967947D01*
X184381240Y-54973875D01*
X184299864Y-55055393D01*
X184293948Y-55063688D01*
X184243230Y-55167446D01*
X184240398Y-55176610D01*
X184230710Y-55243021D01*
X184230382Y-55247534D01*
X184230382Y-55391569D01*
X182034382Y-55391569D01*
X182034382Y-54709500D01*
X182052688Y-54665306D01*
X182096882Y-54647000D01*
X187051882Y-54647000D01*
X187096076Y-54665306D01*
G37*
%TD.AperFunction*%
%TD*%
M02*
