%TF.GenerationSoftware,KiCad,Pcbnew,(6.0.6)*%
%TF.CreationDate,2022-07-22T23:00:37-04:00*%
%TF.ProjectId,Proyecto,50726f79-6563-4746-9f2e-6b696361645f,rev?*%
%TF.SameCoordinates,Original*%
%TF.FileFunction,Soldermask,Bot*%
%TF.FilePolarity,Negative*%
%FSLAX46Y46*%
G04 Gerber Fmt 4.6, Leading zero omitted, Abs format (unit mm)*
G04 Created by KiCad (PCBNEW (6.0.6)) date 2022-07-22 23:00:37*
%MOMM*%
%LPD*%
G01*
G04 APERTURE LIST*
%ADD10R,3.000000X3.000000*%
%ADD11C,3.000000*%
%ADD12R,1.905000X2.000000*%
%ADD13O,1.905000X2.000000*%
%ADD14R,1.700000X1.700000*%
%ADD15O,1.700000X1.700000*%
%ADD16C,2.200000*%
%ADD17C,1.500000*%
%ADD18R,1.600000X1.600000*%
%ADD19O,1.600000X1.600000*%
G04 APERTURE END LIST*
D10*
%TO.C,J3*%
X201776382Y-110475000D03*
D11*
X206856382Y-110475000D03*
X211936382Y-110475000D03*
%TD*%
D12*
%TO.C,Q1*%
X204156382Y-97950000D03*
D13*
X201616382Y-97950000D03*
X199076382Y-97950000D03*
%TD*%
D10*
%TO.C,J4*%
X138876382Y-110425000D03*
D11*
X143956382Y-110425000D03*
X149036382Y-110425000D03*
%TD*%
D14*
%TO.C,J13*%
X78206382Y-75825000D03*
D15*
X80746382Y-75825000D03*
X83286382Y-75825000D03*
X85826382Y-75825000D03*
%TD*%
D10*
%TO.C,J5*%
X123081382Y-51250000D03*
D11*
X118001382Y-51250000D03*
X112921382Y-51250000D03*
%TD*%
D10*
%TO.C,J15*%
X156166382Y-110425000D03*
D11*
X161246382Y-110425000D03*
%TD*%
D10*
%TO.C,J2*%
X85551382Y-110475000D03*
D11*
X90631382Y-110475000D03*
X95711382Y-110475000D03*
%TD*%
D10*
%TO.C,J9*%
X95156382Y-51425000D03*
D11*
X90076382Y-51425000D03*
X84996382Y-51425000D03*
%TD*%
D16*
%TO.C,HOLE3*%
X221531382Y-113575000D03*
%TD*%
D10*
%TO.C,J7*%
X103401382Y-110425000D03*
D11*
X108481382Y-110425000D03*
X113561382Y-110425000D03*
%TD*%
D12*
%TO.C,Q2*%
X209446382Y-90105000D03*
D13*
X206906382Y-90105000D03*
X204366382Y-90105000D03*
%TD*%
D11*
%TO.C,K2*%
X144061382Y-88380000D03*
X150061382Y-102580000D03*
X138061382Y-102580000D03*
X138061382Y-90380000D03*
X150061382Y-90380000D03*
%TD*%
%TO.C,K3*%
X126281382Y-88380000D03*
X132281382Y-102580000D03*
X120281382Y-102580000D03*
X120281382Y-90380000D03*
X132281382Y-90380000D03*
%TD*%
D10*
%TO.C,J16*%
X168046382Y-50900000D03*
D11*
X162966382Y-50900000D03*
%TD*%
%TO.C,K4*%
X108501382Y-88380000D03*
X114501382Y-102580000D03*
X102501382Y-102580000D03*
X102501382Y-90380000D03*
X114501382Y-90380000D03*
%TD*%
D16*
%TO.C,HOLE3*%
X78021382Y-113575000D03*
%TD*%
%TO.C,HOLE3*%
X221531382Y-48170000D03*
%TD*%
D10*
%TO.C,J17*%
X156056382Y-50850000D03*
D11*
X150976382Y-50850000D03*
%TD*%
D10*
%TO.C,J14*%
X167466382Y-110475000D03*
D11*
X172546382Y-110475000D03*
%TD*%
D16*
%TO.C,HOLE3*%
X78021382Y-48170000D03*
%TD*%
D10*
%TO.C,J11*%
X190291382Y-110425000D03*
D11*
X195371382Y-110425000D03*
%TD*%
D14*
%TO.C,J1*%
X78206382Y-79500000D03*
D15*
X80746382Y-79500000D03*
X83286382Y-79500000D03*
X85826382Y-79500000D03*
X88366382Y-79500000D03*
X90906382Y-79500000D03*
X93446382Y-79500000D03*
X95986382Y-79500000D03*
X98526382Y-79500000D03*
%TD*%
D17*
%TO.C,Y1*%
X127781382Y-60100000D03*
X132661382Y-60100000D03*
%TD*%
D11*
%TO.C,K1*%
X90721382Y-88380000D03*
X96721382Y-102580000D03*
X84721382Y-102580000D03*
X84721382Y-90380000D03*
X96721382Y-90380000D03*
%TD*%
D18*
%TO.C,U4*%
X165231382Y-56925000D03*
D19*
X162691382Y-56925000D03*
X162691382Y-64545000D03*
X165231382Y-64545000D03*
%TD*%
D10*
%TO.C,J18*%
X106856382Y-51350000D03*
D11*
X101776382Y-51350000D03*
%TD*%
D10*
%TO.C,J8*%
X213276382Y-58965000D03*
D11*
X213276382Y-53885000D03*
%TD*%
D10*
%TO.C,J10*%
X144831382Y-50975000D03*
D11*
X139751382Y-50975000D03*
X134671382Y-50975000D03*
%TD*%
D10*
%TO.C,J6*%
X121101382Y-110475000D03*
D11*
X126181382Y-110475000D03*
X131261382Y-110475000D03*
%TD*%
D18*
%TO.C,U5*%
X155706382Y-56600000D03*
D19*
X153166382Y-56600000D03*
X153166382Y-64220000D03*
X155706382Y-64220000D03*
%TD*%
D10*
%TO.C,J12*%
X178941382Y-110475000D03*
D11*
X184021382Y-110475000D03*
%TD*%
M02*
