%TF.GenerationSoftware,KiCad,Pcbnew,(6.0.6)*%
%TF.CreationDate,2022-07-22T23:00:37-04:00*%
%TF.ProjectId,Proyecto,50726f79-6563-4746-9f2e-6b696361645f,rev?*%
%TF.SameCoordinates,Original*%
%TF.FileFunction,Paste,Top*%
%TF.FilePolarity,Positive*%
%FSLAX46Y46*%
G04 Gerber Fmt 4.6, Leading zero omitted, Abs format (unit mm)*
G04 Created by KiCad (PCBNEW (6.0.6)) date 2022-07-22 23:00:37*
%MOMM*%
%LPD*%
G01*
G04 APERTURE LIST*
G04 Aperture macros list*
%AMRoundRect*
0 Rectangle with rounded corners*
0 $1 Rounding radius*
0 $2 $3 $4 $5 $6 $7 $8 $9 X,Y pos of 4 corners*
0 Add a 4 corners polygon primitive as box body*
4,1,4,$2,$3,$4,$5,$6,$7,$8,$9,$2,$3,0*
0 Add four circle primitives for the rounded corners*
1,1,$1+$1,$2,$3*
1,1,$1+$1,$4,$5*
1,1,$1+$1,$6,$7*
1,1,$1+$1,$8,$9*
0 Add four rect primitives between the rounded corners*
20,1,$1+$1,$2,$3,$4,$5,0*
20,1,$1+$1,$4,$5,$6,$7,0*
20,1,$1+$1,$6,$7,$8,$9,0*
20,1,$1+$1,$8,$9,$2,$3,0*%
G04 Aperture macros list end*
%ADD10RoundRect,0.079500X0.079500X0.100500X-0.079500X0.100500X-0.079500X-0.100500X0.079500X-0.100500X0*%
%ADD11RoundRect,0.150000X0.825000X0.150000X-0.825000X0.150000X-0.825000X-0.150000X0.825000X-0.150000X0*%
%ADD12RoundRect,0.150000X-0.150000X0.825000X-0.150000X-0.825000X0.150000X-0.825000X0.150000X0.825000X0*%
%ADD13R,1.120000X2.440000*%
%ADD14RoundRect,0.079500X-0.079500X-0.100500X0.079500X-0.100500X0.079500X0.100500X-0.079500X0.100500X0*%
%ADD15RoundRect,0.225000X0.250000X-0.225000X0.250000X0.225000X-0.250000X0.225000X-0.250000X-0.225000X0*%
%ADD16RoundRect,0.150000X-0.150000X0.512500X-0.150000X-0.512500X0.150000X-0.512500X0.150000X0.512500X0*%
%ADD17RoundRect,0.079500X-0.100500X0.079500X-0.100500X-0.079500X0.100500X-0.079500X0.100500X0.079500X0*%
%ADD18RoundRect,0.200000X-0.200000X-0.275000X0.200000X-0.275000X0.200000X0.275000X-0.200000X0.275000X0*%
%ADD19RoundRect,0.218750X0.218750X0.381250X-0.218750X0.381250X-0.218750X-0.381250X0.218750X-0.381250X0*%
%ADD20R,2.350000X5.100000*%
%ADD21RoundRect,0.250000X-0.475000X0.250000X-0.475000X-0.250000X0.475000X-0.250000X0.475000X0.250000X0*%
%ADD22RoundRect,0.200000X0.200000X0.275000X-0.200000X0.275000X-0.200000X-0.275000X0.200000X-0.275000X0*%
%ADD23RoundRect,0.125000X-0.625000X-0.125000X0.625000X-0.125000X0.625000X0.125000X-0.625000X0.125000X0*%
%ADD24RoundRect,0.125000X-0.125000X-0.625000X0.125000X-0.625000X0.125000X0.625000X-0.125000X0.625000X0*%
%ADD25RoundRect,0.079500X0.100500X-0.079500X0.100500X0.079500X-0.100500X0.079500X-0.100500X-0.079500X0*%
%ADD26RoundRect,0.250000X0.475000X-0.250000X0.475000X0.250000X-0.475000X0.250000X-0.475000X-0.250000X0*%
%ADD27RoundRect,0.200000X-0.275000X0.200000X-0.275000X-0.200000X0.275000X-0.200000X0.275000X0.200000X0*%
%ADD28RoundRect,0.225000X-0.250000X0.225000X-0.250000X-0.225000X0.250000X-0.225000X0.250000X0.225000X0*%
%ADD29RoundRect,0.250000X-0.250000X-0.475000X0.250000X-0.475000X0.250000X0.475000X-0.250000X0.475000X0*%
%ADD30RoundRect,0.150000X-0.825000X-0.150000X0.825000X-0.150000X0.825000X0.150000X-0.825000X0.150000X0*%
G04 APERTURE END LIST*
D10*
%TO.C,R11*%
X124261382Y-65750000D03*
X124951382Y-65750000D03*
%TD*%
D11*
%TO.C,U7*%
X93006382Y-62030000D03*
X93006382Y-60760000D03*
X93006382Y-59490000D03*
X93006382Y-58220000D03*
X88056382Y-58220000D03*
X88056382Y-59490000D03*
X88056382Y-60760000D03*
X88056382Y-62030000D03*
%TD*%
D12*
%TO.C,U1*%
X111401382Y-77400000D03*
X110131382Y-77400000D03*
X108861382Y-77400000D03*
X107591382Y-77400000D03*
X106321382Y-77400000D03*
X105051382Y-77400000D03*
X103781382Y-77400000D03*
X102511382Y-77400000D03*
X102511382Y-82350000D03*
X103781382Y-82350000D03*
X105051382Y-82350000D03*
X106321382Y-82350000D03*
X107591382Y-82350000D03*
X108861382Y-82350000D03*
X110131382Y-82350000D03*
X111401382Y-82350000D03*
%TD*%
D13*
%TO.C,SW1*%
X155271382Y-97060000D03*
X157811382Y-97060000D03*
X160351382Y-97060000D03*
X162891382Y-97060000D03*
X162891382Y-88450000D03*
X160351382Y-88450000D03*
X157811382Y-88450000D03*
X155271382Y-88450000D03*
%TD*%
D14*
%TO.C,R16*%
X203001382Y-94325000D03*
X202311382Y-94325000D03*
%TD*%
D15*
%TO.C,C6*%
X121081382Y-68750000D03*
X121081382Y-67200000D03*
%TD*%
D14*
%TO.C,R14*%
X208376382Y-87550000D03*
X207686382Y-87550000D03*
%TD*%
D10*
%TO.C,R12*%
X167076382Y-81150000D03*
X166386382Y-81150000D03*
%TD*%
%TO.C,R10*%
X127461382Y-77500000D03*
X128151382Y-77500000D03*
%TD*%
D16*
%TO.C,U3*%
X193816382Y-55787500D03*
X192866382Y-55787500D03*
X191916382Y-55787500D03*
X191916382Y-58062500D03*
X192866382Y-58062500D03*
X193816382Y-58062500D03*
%TD*%
D17*
%TO.C,C15*%
X133631382Y-78005000D03*
X133631382Y-78695000D03*
%TD*%
D18*
%TO.C,R6*%
X158206382Y-59225000D03*
X159856382Y-59225000D03*
%TD*%
D19*
%TO.C,L2*%
X138858882Y-71085000D03*
X136733882Y-71085000D03*
%TD*%
D10*
%TO.C,C8*%
X134226382Y-63800000D03*
X133536382Y-63800000D03*
%TD*%
D20*
%TO.C,L1*%
X192491382Y-63410000D03*
X188341382Y-63410000D03*
%TD*%
D14*
%TO.C,R8*%
X130751382Y-64850000D03*
X130061382Y-64850000D03*
%TD*%
D21*
%TO.C,C5*%
X180756382Y-64475000D03*
X180756382Y-66375000D03*
%TD*%
%TO.C,C4*%
X183356382Y-64465000D03*
X183356382Y-66365000D03*
%TD*%
D12*
%TO.C,U6*%
X108161382Y-57950000D03*
X106891382Y-57950000D03*
X105621382Y-57950000D03*
X104351382Y-57950000D03*
X104351382Y-62900000D03*
X105621382Y-62900000D03*
X106891382Y-62900000D03*
X108161382Y-62900000D03*
%TD*%
D17*
%TO.C,C10*%
X137996382Y-69680000D03*
X137996382Y-68990000D03*
%TD*%
D22*
%TO.C,R4*%
X157356382Y-67250000D03*
X155706382Y-67250000D03*
%TD*%
D17*
%TO.C,C11*%
X136596382Y-69015000D03*
X136596382Y-69705000D03*
%TD*%
D23*
%TO.C,IC1*%
X125356382Y-68525000D03*
X125356382Y-69325000D03*
X125356382Y-70125000D03*
X125356382Y-70925000D03*
X125356382Y-71725000D03*
X125356382Y-72525000D03*
X125356382Y-73325000D03*
X125356382Y-74125000D03*
D24*
X126731382Y-75500000D03*
X127531382Y-75500000D03*
X128331382Y-75500000D03*
X129131382Y-75500000D03*
X129931382Y-75500000D03*
X130731382Y-75500000D03*
X131531382Y-75500000D03*
X132331382Y-75500000D03*
D23*
X133706382Y-74125000D03*
X133706382Y-73325000D03*
X133706382Y-72525000D03*
X133706382Y-71725000D03*
X133706382Y-70925000D03*
X133706382Y-70125000D03*
X133706382Y-69325000D03*
X133706382Y-68525000D03*
D24*
X132331382Y-67150000D03*
X131531382Y-67150000D03*
X130731382Y-67150000D03*
X129931382Y-67150000D03*
X129131382Y-67150000D03*
X128331382Y-67150000D03*
X127531382Y-67150000D03*
X126731382Y-67150000D03*
%TD*%
D10*
%TO.C,R20*%
X97586382Y-56825000D03*
X98276382Y-56825000D03*
%TD*%
D14*
%TO.C,C13*%
X195051382Y-84000000D03*
X194361382Y-84000000D03*
%TD*%
D10*
%TO.C,R13*%
X167026382Y-82300000D03*
X166336382Y-82300000D03*
%TD*%
D25*
%TO.C,C3*%
X195750382Y-57949000D03*
X195750382Y-58639000D03*
%TD*%
D26*
%TO.C,RV2*%
X141071382Y-70285000D03*
X141071382Y-68385000D03*
%TD*%
D12*
%TO.C,U8*%
X178301382Y-89450000D03*
X177031382Y-89450000D03*
X175761382Y-89450000D03*
X174491382Y-89450000D03*
X173221382Y-89450000D03*
X171951382Y-89450000D03*
X170681382Y-89450000D03*
X169411382Y-89450000D03*
X169411382Y-94400000D03*
X170681382Y-94400000D03*
X171951382Y-94400000D03*
X173221382Y-94400000D03*
X174491382Y-94400000D03*
X175761382Y-94400000D03*
X177031382Y-94400000D03*
X178301382Y-94400000D03*
%TD*%
D14*
%TO.C,R18*%
X210046382Y-87550000D03*
X209356382Y-87550000D03*
%TD*%
D27*
%TO.C,R1*%
X110206382Y-58000000D03*
X110206382Y-59650000D03*
%TD*%
D22*
%TO.C,R3*%
X166756382Y-67800000D03*
X165106382Y-67800000D03*
%TD*%
D21*
%TO.C,C1*%
X185082382Y-53631000D03*
X185082382Y-55531000D03*
%TD*%
D28*
%TO.C,C7*%
X122906382Y-70425000D03*
X122906382Y-71975000D03*
%TD*%
D18*
%TO.C,R5*%
X167356382Y-56775000D03*
X169006382Y-56775000D03*
%TD*%
D14*
%TO.C,R19*%
X204186382Y-95725000D03*
X204876382Y-95725000D03*
%TD*%
D18*
%TO.C,R2*%
X84231382Y-62800000D03*
X85881382Y-62800000D03*
%TD*%
D17*
%TO.C,C9*%
X129456382Y-63230000D03*
X129456382Y-63920000D03*
%TD*%
D10*
%TO.C,R9*%
X166411382Y-79575000D03*
X167101382Y-79575000D03*
%TD*%
D29*
%TO.C,C12*%
X193881382Y-85600000D03*
X195781382Y-85600000D03*
%TD*%
D14*
%TO.C,R15*%
X207706382Y-86275000D03*
X208396382Y-86275000D03*
%TD*%
D18*
%TO.C,R7*%
X93031382Y-65025000D03*
X94681382Y-65025000D03*
%TD*%
D15*
%TO.C,C2*%
X123031382Y-68000000D03*
X123031382Y-66450000D03*
%TD*%
D14*
%TO.C,R17*%
X202926382Y-95725000D03*
X202236382Y-95725000D03*
%TD*%
D30*
%TO.C,U2*%
X192281382Y-87970000D03*
X192281382Y-89240000D03*
X192281382Y-90510000D03*
X192281382Y-91780000D03*
X197231382Y-91780000D03*
X197231382Y-90510000D03*
X197231382Y-89240000D03*
X197231382Y-87970000D03*
%TD*%
D14*
%TO.C,C14*%
X136401382Y-74725000D03*
X135711382Y-74725000D03*
%TD*%
M02*
