%TF.GenerationSoftware,KiCad,Pcbnew,(6.0.6)*%
%TF.CreationDate,2022-07-22T23:00:37-04:00*%
%TF.ProjectId,Proyecto,50726f79-6563-4746-9f2e-6b696361645f,rev?*%
%TF.SameCoordinates,Original*%
%TF.FileFunction,Copper,L4,Bot*%
%TF.FilePolarity,Positive*%
%FSLAX46Y46*%
G04 Gerber Fmt 4.6, Leading zero omitted, Abs format (unit mm)*
G04 Created by KiCad (PCBNEW (6.0.6)) date 2022-07-22 23:00:37*
%MOMM*%
%LPD*%
G01*
G04 APERTURE LIST*
%TA.AperFunction,ComponentPad*%
%ADD10R,3.000000X3.000000*%
%TD*%
%TA.AperFunction,ComponentPad*%
%ADD11C,3.000000*%
%TD*%
%TA.AperFunction,ComponentPad*%
%ADD12R,1.905000X2.000000*%
%TD*%
%TA.AperFunction,ComponentPad*%
%ADD13O,1.905000X2.000000*%
%TD*%
%TA.AperFunction,ComponentPad*%
%ADD14R,1.700000X1.700000*%
%TD*%
%TA.AperFunction,ComponentPad*%
%ADD15O,1.700000X1.700000*%
%TD*%
%TA.AperFunction,ComponentPad*%
%ADD16C,1.500000*%
%TD*%
%TA.AperFunction,ComponentPad*%
%ADD17R,1.600000X1.600000*%
%TD*%
%TA.AperFunction,ComponentPad*%
%ADD18O,1.600000X1.600000*%
%TD*%
%TA.AperFunction,ViaPad*%
%ADD19C,0.800000*%
%TD*%
%TA.AperFunction,Conductor*%
%ADD20C,0.250000*%
%TD*%
G04 APERTURE END LIST*
D10*
%TO.P,J3,1,Pin_1*%
%TO.N,Net-(J3-Pad1)*%
X201776382Y-110475000D03*
D11*
%TO.P,J3,2,Pin_2*%
%TO.N,Net-(J3-Pad2)*%
X206856382Y-110475000D03*
%TO.P,J3,3,Pin_3*%
%TO.N,GND*%
X211936382Y-110475000D03*
%TD*%
D12*
%TO.P,Q1,1,G*%
%TO.N,Net-(Q1-Pad1)*%
X204156382Y-97950000D03*
D13*
%TO.P,Q1,2,D*%
%TO.N,Net-(J3-Pad1)*%
X201616382Y-97950000D03*
%TO.P,Q1,3,S*%
%TO.N,GND*%
X199076382Y-97950000D03*
%TD*%
D10*
%TO.P,J4,1,Pin_1*%
%TO.N,Net-(J4-Pad1)*%
X138876382Y-110425000D03*
D11*
%TO.P,J4,2,Pin_2*%
%TO.N,Net-(J4-Pad2)*%
X143956382Y-110425000D03*
%TO.P,J4,3,Pin_3*%
%TO.N,Net-(J4-Pad3)*%
X149036382Y-110425000D03*
%TD*%
D14*
%TO.P,J13,1,Pin_1*%
%TO.N,+5V*%
X78206382Y-75825000D03*
D15*
%TO.P,J13,2,Pin_2*%
%TO.N,GND*%
X80746382Y-75825000D03*
%TO.P,J13,3,Pin_3*%
%TO.N,SDA*%
X83286382Y-75825000D03*
%TO.P,J13,4,Pin_4*%
%TO.N,SCL*%
X85826382Y-75825000D03*
%TD*%
D10*
%TO.P,J5,1,Pin_1*%
%TO.N,GND*%
X123081382Y-51250000D03*
D11*
%TO.P,J5,2,Pin_2*%
%TO.N,+5V*%
X118001382Y-51250000D03*
%TO.P,J5,3,Pin_3*%
%TO.N,Net-(J5-Pad3)*%
X112921382Y-51250000D03*
%TD*%
D10*
%TO.P,J15,1,Pin_1*%
%TO.N,Net-(J15-Pad1)*%
X156166382Y-110425000D03*
D11*
%TO.P,J15,2,Pin_2*%
%TO.N,+12V*%
X161246382Y-110425000D03*
%TD*%
D10*
%TO.P,J2,1,Pin_1*%
%TO.N,Net-(J2-Pad1)*%
X85551382Y-110475000D03*
D11*
%TO.P,J2,2,Pin_2*%
%TO.N,Net-(J2-Pad2)*%
X90631382Y-110475000D03*
%TO.P,J2,3,Pin_3*%
%TO.N,Net-(J2-Pad3)*%
X95711382Y-110475000D03*
%TD*%
D10*
%TO.P,J9,1,Pin_1*%
%TO.N,GND*%
X95156382Y-51425000D03*
D11*
%TO.P,J9,2,Pin_2*%
%TO.N,+5V*%
X90076382Y-51425000D03*
%TO.P,J9,3,Pin_3*%
%TO.N,Net-(J9-Pad3)*%
X84996382Y-51425000D03*
%TD*%
D10*
%TO.P,J7,1,Pin_1*%
%TO.N,Net-(J7-Pad1)*%
X103401382Y-110425000D03*
D11*
%TO.P,J7,2,Pin_2*%
%TO.N,Net-(J7-Pad2)*%
X108481382Y-110425000D03*
%TO.P,J7,3,Pin_3*%
%TO.N,Net-(J7-Pad3)*%
X113561382Y-110425000D03*
%TD*%
D12*
%TO.P,Q2,1,G*%
%TO.N,Net-(Q2-Pad1)*%
X209446382Y-90105000D03*
D13*
%TO.P,Q2,2,D*%
%TO.N,Net-(J3-Pad2)*%
X206906382Y-90105000D03*
%TO.P,Q2,3,S*%
%TO.N,GND*%
X204366382Y-90105000D03*
%TD*%
D11*
%TO.P,K2,11*%
%TO.N,Net-(J4-Pad2)*%
X144061382Y-88380000D03*
%TO.P,K2,12*%
%TO.N,Net-(J4-Pad3)*%
X150061382Y-102580000D03*
%TO.P,K2,14*%
%TO.N,Net-(J4-Pad1)*%
X138061382Y-102580000D03*
%TO.P,K2,A1*%
%TO.N,+12V*%
X138061382Y-90380000D03*
%TO.P,K2,A2*%
%TO.N,Net-(K2-PadA2)*%
X150061382Y-90380000D03*
%TD*%
%TO.P,K3,11*%
%TO.N,Net-(J6-Pad2)*%
X126281382Y-88380000D03*
%TO.P,K3,12*%
%TO.N,Net-(J6-Pad3)*%
X132281382Y-102580000D03*
%TO.P,K3,14*%
%TO.N,Net-(J6-Pad1)*%
X120281382Y-102580000D03*
%TO.P,K3,A1*%
%TO.N,+12V*%
X120281382Y-90380000D03*
%TO.P,K3,A2*%
%TO.N,Net-(K3-PadA2)*%
X132281382Y-90380000D03*
%TD*%
D10*
%TO.P,J16,1,Pin_1*%
%TO.N,Net-(J16-Pad1)*%
X168046382Y-50900000D03*
D11*
%TO.P,J16,2,Pin_2*%
%TO.N,+5V*%
X162966382Y-50900000D03*
%TD*%
%TO.P,K4,11*%
%TO.N,Net-(J7-Pad2)*%
X108501382Y-88380000D03*
%TO.P,K4,12*%
%TO.N,Net-(J7-Pad3)*%
X114501382Y-102580000D03*
%TO.P,K4,14*%
%TO.N,Net-(J7-Pad1)*%
X102501382Y-102580000D03*
%TO.P,K4,A1*%
%TO.N,+12V*%
X102501382Y-90380000D03*
%TO.P,K4,A2*%
%TO.N,Net-(K4-PadA2)*%
X114501382Y-90380000D03*
%TD*%
D10*
%TO.P,J17,1,Pin_1*%
%TO.N,Net-(J17-Pad1)*%
X156056382Y-50850000D03*
D11*
%TO.P,J17,2,Pin_2*%
%TO.N,+5V*%
X150976382Y-50850000D03*
%TD*%
D10*
%TO.P,J14,1,Pin_1*%
%TO.N,Net-(J14-Pad1)*%
X167466382Y-110475000D03*
D11*
%TO.P,J14,2,Pin_2*%
%TO.N,+12V*%
X172546382Y-110475000D03*
%TD*%
D10*
%TO.P,J11,1,Pin_1*%
%TO.N,Net-(J11-Pad1)*%
X190291382Y-110425000D03*
D11*
%TO.P,J11,2,Pin_2*%
%TO.N,+12V*%
X195371382Y-110425000D03*
%TD*%
D14*
%TO.P,J1,1,Pin_1*%
%TO.N,+5V*%
X78206382Y-79500000D03*
D15*
%TO.P,J1,2,Pin_2*%
%TO.N,GND*%
X80746382Y-79500000D03*
%TO.P,J1,3,Pin_3*%
%TO.N,SDA*%
X83286382Y-79500000D03*
%TO.P,J1,4,Pin_4*%
%TO.N,SCL*%
X85826382Y-79500000D03*
%TO.P,J1,5,Pin_5*%
%TO.N,RX*%
X88366382Y-79500000D03*
%TO.P,J1,6,Pin_6*%
%TO.N,TX*%
X90906382Y-79500000D03*
%TO.P,J1,7,Pin_7*%
%TO.N,Reset_pin*%
X93446382Y-79500000D03*
%TO.P,J1,8,Pin_8*%
%TO.N,BKGD_PIN*%
X95986382Y-79500000D03*
%TO.P,J1,9,Pin_9*%
%TO.N,GND*%
X98526382Y-79500000D03*
%TD*%
D16*
%TO.P,Y1,1,1*%
%TO.N,Net-(C9-Pad2)*%
X127781382Y-60100000D03*
%TO.P,Y1,2,2*%
%TO.N,Net-(C8-Pad2)*%
X132661382Y-60100000D03*
%TD*%
D11*
%TO.P,K1,11*%
%TO.N,Net-(J2-Pad2)*%
X90721382Y-88380000D03*
%TO.P,K1,12*%
%TO.N,Net-(J2-Pad3)*%
X96721382Y-102580000D03*
%TO.P,K1,14*%
%TO.N,Net-(J2-Pad1)*%
X84721382Y-102580000D03*
%TO.P,K1,A1*%
%TO.N,+12V*%
X84721382Y-90380000D03*
%TO.P,K1,A2*%
%TO.N,Net-(K1-PadA2)*%
X96721382Y-90380000D03*
%TD*%
D17*
%TO.P,U4,1*%
%TO.N,Net-(R5-Pad1)*%
X165231382Y-56925000D03*
D18*
%TO.P,U4,2*%
%TO.N,GND*%
X162691382Y-56925000D03*
%TO.P,U4,3*%
X162691382Y-64545000D03*
%TO.P,U4,4*%
%TO.N,Nivel_bajo*%
X165231382Y-64545000D03*
%TD*%
D10*
%TO.P,J18,1,Pin_1*%
%TO.N,Net-(J18-Pad1)*%
X106856382Y-51350000D03*
D11*
%TO.P,J18,2,Pin_2*%
%TO.N,+5V*%
X101776382Y-51350000D03*
%TD*%
D10*
%TO.P,J8,1,Pin_1*%
%TO.N,+12V*%
X213276382Y-58965000D03*
D11*
%TO.P,J8,2,Pin_2*%
%TO.N,GND*%
X213276382Y-53885000D03*
%TD*%
D10*
%TO.P,J10,1,Pin_1*%
%TO.N,GND*%
X144831382Y-50975000D03*
D11*
%TO.P,J10,2,Pin_2*%
%TO.N,+5V*%
X139751382Y-50975000D03*
%TO.P,J10,3,Pin_3*%
%TO.N,DHt11*%
X134671382Y-50975000D03*
%TD*%
D10*
%TO.P,J6,1,Pin_1*%
%TO.N,Net-(J6-Pad1)*%
X121101382Y-110475000D03*
D11*
%TO.P,J6,2,Pin_2*%
%TO.N,Net-(J6-Pad2)*%
X126181382Y-110475000D03*
%TO.P,J6,3,Pin_3*%
%TO.N,Net-(J6-Pad3)*%
X131261382Y-110475000D03*
%TD*%
D17*
%TO.P,U5,1*%
%TO.N,Net-(R6-Pad1)*%
X155706382Y-56600000D03*
D18*
%TO.P,U5,2*%
%TO.N,GND*%
X153166382Y-56600000D03*
%TO.P,U5,3*%
X153166382Y-64220000D03*
%TO.P,U5,4*%
%TO.N,Nivel_alto*%
X155706382Y-64220000D03*
%TD*%
D10*
%TO.P,J12,1,Pin_1*%
%TO.N,Net-(J12-Pad1)*%
X178941382Y-110475000D03*
D11*
%TO.P,J12,2,Pin_2*%
%TO.N,+12V*%
X184021382Y-110475000D03*
%TD*%
D19*
%TO.N,+12V*%
X191686382Y-54393000D03*
X191831382Y-85825000D03*
X169356382Y-96675000D03*
X191686373Y-53393011D03*
X200756382Y-90475000D03*
X188686373Y-53393011D03*
X190686373Y-53393011D03*
X190686373Y-54393011D03*
X188718373Y-54393011D03*
X189686373Y-54393011D03*
X189686373Y-53393011D03*
%TO.N,GND*%
X155306382Y-100675000D03*
X133506382Y-82425000D03*
X185158382Y-57987000D03*
X181556382Y-67675000D03*
X121281382Y-71475000D03*
X183556382Y-67675000D03*
X181156382Y-68475000D03*
X180156382Y-68475000D03*
X182556382Y-67675000D03*
X135731382Y-75996500D03*
X182156382Y-68475000D03*
X129481382Y-62150000D03*
X122831382Y-64500000D03*
X182958382Y-57987000D03*
X80856382Y-73600000D03*
X131706382Y-68775000D03*
X184558382Y-57187000D03*
X180556382Y-67675000D03*
X183558382Y-57187000D03*
X135581382Y-63800000D03*
X184158382Y-57987000D03*
X211781382Y-87525000D03*
X185558382Y-57187000D03*
X169431382Y-87225000D03*
X93031382Y-56175000D03*
X183156382Y-68475000D03*
X153281382Y-66625000D03*
X102556382Y-75300000D03*
X158906382Y-56675000D03*
X137806382Y-67650000D03*
X98281382Y-82500000D03*
X186158382Y-57987000D03*
X179556382Y-67675000D03*
%TO.N,+5V*%
X184556382Y-62275000D03*
X169631382Y-67825000D03*
X108131382Y-65925000D03*
X181556382Y-60275000D03*
X185556382Y-60275000D03*
X129755330Y-71286010D03*
X126106382Y-77550000D03*
X87981382Y-64050000D03*
X183556382Y-62275000D03*
X185556382Y-62275000D03*
X182556382Y-60275000D03*
X180556382Y-61275000D03*
X183556382Y-60275000D03*
X181556382Y-62275000D03*
X185556382Y-61275000D03*
X180556382Y-60275000D03*
X181556382Y-61275000D03*
X184556382Y-60275000D03*
X182556382Y-61275000D03*
X157431382Y-69725000D03*
X183556382Y-61275000D03*
X180556382Y-62275000D03*
X182556382Y-62275000D03*
X184556382Y-61275000D03*
X141146382Y-71510000D03*
X82081382Y-72000000D03*
X122956382Y-62750000D03*
%TO.N,PH*%
X85631382Y-68450000D03*
X117256382Y-68778500D03*
%TO.N,ldr*%
X116731382Y-70600000D03*
X94731382Y-70600000D03*
%TO.N,Nivel_bajo*%
X135631382Y-77975000D03*
X165031382Y-77825000D03*
%TO.N,Nivel_alto*%
X133706382Y-76775000D03*
X155481382Y-76625000D03*
%TO.N,Digital*%
X159456382Y-85950000D03*
X158831382Y-83750000D03*
X161994365Y-81062017D03*
X165081382Y-81350000D03*
%TO.N,Digital_1*%
X127131382Y-72325000D03*
X143281382Y-80375000D03*
X165881382Y-84350000D03*
X164206382Y-84375000D03*
X137506382Y-75800000D03*
%TO.N,TX*%
X124731382Y-77768000D03*
%TO.N,RX*%
X125681146Y-76586132D03*
%TO.N,SDA*%
X100881382Y-74250000D03*
X117306382Y-80125000D03*
X131406382Y-72075000D03*
%TO.N,SCL*%
X130281382Y-73275000D03*
%TO.N,BKGD_PIN*%
X127856382Y-78546500D03*
%TO.N,Rele1*%
X122756382Y-81100000D03*
X123056382Y-75050000D03*
X132206382Y-80875000D03*
X113756382Y-75300500D03*
%TO.N,Rele2*%
X121656382Y-73975000D03*
X131281382Y-82150000D03*
X110231382Y-73950000D03*
X121631382Y-82150000D03*
%TO.N,Rele3*%
X108731382Y-73000000D03*
X120206382Y-73100000D03*
X120131382Y-82575000D03*
X130281382Y-82928500D03*
%TO.N,Rele4*%
X134431382Y-79350000D03*
X118781382Y-71575000D03*
X128431382Y-79650000D03*
X134356382Y-84478500D03*
X107731382Y-71675000D03*
X118856382Y-84500000D03*
%TO.N,Aux2*%
X172056382Y-69350000D03*
X136169365Y-67378500D03*
%TO.N,Aux1*%
X173181382Y-72425000D03*
X142806382Y-69724500D03*
%TO.N,Bomba2*%
X143931382Y-71525000D03*
X174491382Y-75290000D03*
%TO.N,Bomba1*%
X177056382Y-65825000D03*
X132731382Y-64900000D03*
%TO.N,Reset_pin*%
X93206382Y-72125000D03*
X105081382Y-68050000D03*
X128231382Y-68775000D03*
X125527882Y-65750000D03*
X104981382Y-71675000D03*
%TO.N,luz a*%
X176531382Y-77725000D03*
X150806382Y-57000000D03*
X123706382Y-57400000D03*
X150981382Y-78700000D03*
%TO.N,luz b*%
X127456382Y-64200000D03*
X149256382Y-66502500D03*
X176480882Y-80424517D03*
X149656382Y-79550000D03*
%TO.N,DHt11*%
X127256382Y-70875000D03*
X134531382Y-55500000D03*
X119006382Y-67200000D03*
X119081382Y-55500000D03*
X127256382Y-70875000D03*
%TO.N,Net-(J17-Pad1)*%
X159931382Y-57975000D03*
X159881382Y-55025000D03*
%TO.N,Net-(J18-Pad1)*%
X101656382Y-59300000D03*
X101656382Y-55000000D03*
%TO.N,Net-(K1-PadA2)*%
X96881382Y-84650000D03*
X107581382Y-84575000D03*
%TO.N,Net-(K2-PadA2)*%
X115781382Y-83700000D03*
X150061382Y-83695000D03*
%TO.N,Net-(K3-PadA2)*%
X132381382Y-85300000D03*
X110131382Y-85249500D03*
%TO.N,Net-(K4-PadA2)*%
X114531382Y-84500000D03*
X108831382Y-84525000D03*
%TO.N,Net-(U2-Pad5)*%
X199556382Y-91775000D03*
X205231382Y-87450000D03*
%TD*%
D20*
%TO.N,GND*%
X80746382Y-75825000D02*
X80746382Y-73710000D01*
X80746382Y-73710000D02*
X80856382Y-73600000D01*
%TO.N,PH*%
X86481382Y-69300000D02*
X85631382Y-68450000D01*
X117256382Y-68778500D02*
X116734882Y-69300000D01*
X116734882Y-69300000D02*
X86481382Y-69300000D01*
%TO.N,ldr*%
X94731382Y-70600000D02*
X116731382Y-70600000D01*
%TO.N,Nivel_bajo*%
X135631382Y-77975000D02*
X135781382Y-77825000D01*
X135781382Y-77825000D02*
X165031382Y-77825000D01*
%TO.N,Nivel_alto*%
X133706382Y-76775000D02*
X155331382Y-76775000D01*
X155331382Y-76775000D02*
X155481382Y-76625000D01*
%TO.N,Digital*%
X159456382Y-84375000D02*
X158831382Y-83750000D01*
X159456382Y-85950000D02*
X159456382Y-84375000D01*
X165081382Y-81350000D02*
X162282348Y-81350000D01*
X162282348Y-81350000D02*
X161994365Y-81062017D01*
%TO.N,Digital_1*%
X129356382Y-70100000D02*
X127131382Y-72325000D01*
X155331382Y-80329000D02*
X143327382Y-80329000D01*
X159885382Y-80054000D02*
X155606382Y-80054000D01*
X137506382Y-70100000D02*
X129356382Y-70100000D01*
X155606382Y-80054000D02*
X155331382Y-80329000D01*
X164206382Y-84375000D02*
X159885382Y-80054000D01*
X143327382Y-80329000D02*
X143281382Y-80375000D01*
X137506382Y-75800000D02*
X137506382Y-70100000D01*
%TO.N,TX*%
X92638382Y-77768000D02*
X124731382Y-77768000D01*
X90906382Y-79500000D02*
X92638382Y-77768000D01*
%TO.N,RX*%
X91280250Y-76586132D02*
X125681146Y-76586132D01*
X88366382Y-79500000D02*
X91280250Y-76586132D01*
%TO.N,SDA*%
X118884382Y-78547000D02*
X126234382Y-78547000D01*
X84861382Y-74250000D02*
X100881382Y-74250000D01*
X131406382Y-73375000D02*
X131406382Y-72075000D01*
X126234382Y-78547000D02*
X131406382Y-73375000D01*
X117306382Y-80125000D02*
X118884382Y-78547000D01*
X83286382Y-75825000D02*
X84861382Y-74250000D01*
%TO.N,SCL*%
X125086605Y-76079000D02*
X127015605Y-74150000D01*
X127015605Y-74150000D02*
X129406382Y-74150000D01*
X85826382Y-75825000D02*
X86080382Y-76079000D01*
X129406382Y-74150000D02*
X130281382Y-73275000D01*
X86080382Y-76079000D02*
X125086605Y-76079000D01*
%TO.N,BKGD_PIN*%
X95986382Y-79500000D02*
X97630139Y-81143757D01*
X119705625Y-81143757D02*
X120599382Y-80250000D01*
X126152882Y-80250000D02*
X127856382Y-78546500D01*
X97630139Y-81143757D02*
X119705625Y-81143757D01*
X120599382Y-80250000D02*
X126152882Y-80250000D01*
%TO.N,Rele1*%
X123031382Y-75075000D02*
X123056382Y-75050000D01*
X113756382Y-75300500D02*
X113981882Y-75075000D01*
X131981382Y-81100000D02*
X132206382Y-80875000D01*
X113981882Y-75075000D02*
X123031382Y-75075000D01*
X122756382Y-81100000D02*
X131981382Y-81100000D01*
%TO.N,Rele2*%
X121631382Y-73950000D02*
X121656382Y-73975000D01*
X121631382Y-82150000D02*
X131281382Y-82150000D01*
X110231382Y-73950000D02*
X121631382Y-73950000D01*
%TO.N,Rele3*%
X130281382Y-82928500D02*
X129984882Y-83225000D01*
X120106382Y-73000000D02*
X120206382Y-73100000D01*
X120781382Y-83225000D02*
X120131382Y-82575000D01*
X108731382Y-73000000D02*
X120106382Y-73000000D01*
X129984882Y-83225000D02*
X120781382Y-83225000D01*
%TO.N,Rele4*%
X107731382Y-71675000D02*
X118681382Y-71675000D01*
X123682016Y-84474366D02*
X134352248Y-84474366D01*
X118681382Y-71675000D02*
X118781382Y-71575000D01*
X118984713Y-84474366D02*
X123682016Y-84474366D01*
X128731382Y-79350000D02*
X128431382Y-79650000D01*
X134431382Y-79350000D02*
X128731382Y-79350000D01*
X134352248Y-84474366D02*
X134356382Y-84478500D01*
%TO.N,Aux2*%
X171652382Y-68946000D02*
X172056382Y-69350000D01*
X136169365Y-67378500D02*
X137736865Y-68946000D01*
X137736865Y-68946000D02*
X171652382Y-68946000D01*
%TO.N,Aux1*%
X171406382Y-70650000D02*
X143731882Y-70650000D01*
X143731882Y-70650000D02*
X142806382Y-69724500D01*
X173181382Y-72425000D02*
X171406382Y-70650000D01*
%TO.N,Bomba2*%
X144006382Y-71450000D02*
X170651382Y-71450000D01*
X170651382Y-71450000D02*
X174491382Y-75290000D01*
X143931382Y-71525000D02*
X144006382Y-71450000D01*
%TO.N,Bomba1*%
X176955382Y-65724000D02*
X177056382Y-65825000D01*
X133555382Y-65724000D02*
X176955382Y-65724000D01*
X132731382Y-64900000D02*
X133555382Y-65724000D01*
%TO.N,Reset_pin*%
X121581382Y-65750000D02*
X125527882Y-65750000D01*
X108933055Y-66225000D02*
X120856382Y-66225000D01*
X120856382Y-66225000D02*
X121456382Y-65625000D01*
X125527882Y-66071500D02*
X128231382Y-68775000D01*
X101271382Y-71675000D02*
X104981382Y-71675000D01*
X105081382Y-68050000D02*
X107108055Y-68050000D01*
X121456382Y-65625000D02*
X121581382Y-65750000D01*
X93206382Y-72125000D02*
X100821382Y-72125000D01*
X100821382Y-72125000D02*
X101271382Y-71675000D01*
X107108055Y-68050000D02*
X108933055Y-66225000D01*
X125527882Y-65750000D02*
X125527882Y-66071500D01*
%TO.N,luz a*%
X124106382Y-57000000D02*
X123706382Y-57400000D01*
X176531382Y-77725000D02*
X175556382Y-78700000D01*
X150806382Y-57000000D02*
X124106382Y-57000000D01*
X175556382Y-78700000D02*
X150981382Y-78700000D01*
%TO.N,luz b*%
X175606365Y-79550000D02*
X149656382Y-79550000D01*
X149256382Y-66502500D02*
X129758882Y-66502500D01*
X129758882Y-66502500D02*
X127456382Y-64200000D01*
X176480882Y-80424517D02*
X175606365Y-79550000D01*
%TO.N,DHt11*%
X124748882Y-68367500D02*
X123581382Y-67200000D01*
X124748882Y-68367500D02*
X127256382Y-70875000D01*
X123581382Y-67200000D02*
X119006382Y-67200000D01*
X119081382Y-55500000D02*
X134531382Y-55500000D01*
%TO.N,Net-(J17-Pad1)*%
X159881382Y-57925000D02*
X159931382Y-57975000D01*
X159881382Y-55025000D02*
X159881382Y-57925000D01*
%TO.N,Net-(J18-Pad1)*%
X101656382Y-59300000D02*
X101656382Y-55000000D01*
%TO.N,Net-(K1-PadA2)*%
X107581382Y-84575000D02*
X107506382Y-84650000D01*
X107506382Y-84650000D02*
X96881382Y-84650000D01*
%TO.N,Net-(K2-PadA2)*%
X150056382Y-83700000D02*
X150061382Y-83695000D01*
X115781382Y-83700000D02*
X150056382Y-83700000D01*
%TO.N,Net-(K3-PadA2)*%
X110131382Y-85249500D02*
X132330882Y-85249500D01*
X132330882Y-85249500D02*
X132381382Y-85300000D01*
%TO.N,Net-(K4-PadA2)*%
X114506382Y-84525000D02*
X114531382Y-84500000D01*
X108831382Y-84525000D02*
X114506382Y-84525000D01*
%TO.N,Net-(Q1-Pad1)*%
X204406382Y-97700000D02*
X204156382Y-97950000D01*
%TO.N,Net-(U2-Pad5)*%
X199556382Y-87775000D02*
X199556382Y-91775000D01*
X199881382Y-87450000D02*
X199856382Y-87475000D01*
X199856382Y-87475000D02*
X199556382Y-87775000D01*
X205231382Y-87450000D02*
X199881382Y-87450000D01*
%TD*%
M02*
