%TF.GenerationSoftware,KiCad,Pcbnew,(6.0.6)*%
%TF.CreationDate,2022-07-22T23:00:37-04:00*%
%TF.ProjectId,Proyecto,50726f79-6563-4746-9f2e-6b696361645f,rev?*%
%TF.SameCoordinates,Original*%
%TF.FileFunction,Legend,Top*%
%TF.FilePolarity,Positive*%
%FSLAX46Y46*%
G04 Gerber Fmt 4.6, Leading zero omitted, Abs format (unit mm)*
G04 Created by KiCad (PCBNEW (6.0.6)) date 2022-07-22 23:00:37*
%MOMM*%
%LPD*%
G01*
G04 APERTURE LIST*
%ADD10C,0.150000*%
%ADD11C,0.127000*%
%ADD12C,0.095250*%
%ADD13C,0.120000*%
G04 APERTURE END LIST*
D10*
X138370667Y-46321428D02*
X139132572Y-46321428D01*
X138751620Y-46702380D02*
X138751620Y-45940476D01*
X140084953Y-45702380D02*
X139608762Y-45702380D01*
X139561143Y-46178571D01*
X139608762Y-46130952D01*
X139704001Y-46083333D01*
X139942096Y-46083333D01*
X140037334Y-46130952D01*
X140084953Y-46178571D01*
X140132572Y-46273809D01*
X140132572Y-46511904D01*
X140084953Y-46607142D01*
X140037334Y-46654761D01*
X139942096Y-46702380D01*
X139704001Y-46702380D01*
X139608762Y-46654761D01*
X139561143Y-46607142D01*
X140418286Y-45702380D02*
X140751620Y-46702380D01*
X141084953Y-45702380D01*
X155571849Y-115802383D02*
X155571849Y-114802383D01*
X155905182Y-115516669D01*
X156238515Y-114802383D01*
X156238515Y-115802383D01*
X156667087Y-114897622D02*
X156714706Y-114850003D01*
X156809944Y-114802383D01*
X157048039Y-114802383D01*
X157143277Y-114850003D01*
X157190896Y-114897622D01*
X157238515Y-114992860D01*
X157238515Y-115088098D01*
X157190896Y-115230955D01*
X156619468Y-115802383D01*
X157238515Y-115802383D01*
X94520667Y-115902380D02*
X94520667Y-114902380D01*
X95092096Y-115902380D01*
X95092096Y-114902380D01*
X96139715Y-115807142D02*
X96092096Y-115854761D01*
X95949239Y-115902380D01*
X95854001Y-115902380D01*
X95711143Y-115854761D01*
X95615905Y-115759523D01*
X95568286Y-115664285D01*
X95520667Y-115473809D01*
X95520667Y-115330952D01*
X95568286Y-115140476D01*
X95615905Y-115045238D01*
X95711143Y-114950000D01*
X95854001Y-114902380D01*
X95949239Y-114902380D01*
X96092096Y-114950000D01*
X96139715Y-114997619D01*
X161145667Y-46271428D02*
X161907572Y-46271428D01*
X161526620Y-46652380D02*
X161526620Y-45890476D01*
X162859953Y-45652380D02*
X162383762Y-45652380D01*
X162336143Y-46128571D01*
X162383762Y-46080952D01*
X162479001Y-46033333D01*
X162717096Y-46033333D01*
X162812334Y-46080952D01*
X162859953Y-46128571D01*
X162907572Y-46223809D01*
X162907572Y-46461904D01*
X162859953Y-46557142D01*
X162812334Y-46604761D01*
X162717096Y-46652380D01*
X162479001Y-46652380D01*
X162383762Y-46604761D01*
X162336143Y-46557142D01*
X163193286Y-45652380D02*
X163526620Y-46652380D01*
X163859953Y-45652380D01*
X116570667Y-46671428D02*
X117332572Y-46671428D01*
X116951620Y-47052380D02*
X116951620Y-46290476D01*
X118284953Y-46052380D02*
X117808762Y-46052380D01*
X117761143Y-46528571D01*
X117808762Y-46480952D01*
X117904001Y-46433333D01*
X118142096Y-46433333D01*
X118237334Y-46480952D01*
X118284953Y-46528571D01*
X118332572Y-46623809D01*
X118332572Y-46861904D01*
X118284953Y-46957142D01*
X118237334Y-47004761D01*
X118142096Y-47052380D01*
X117904001Y-47052380D01*
X117808762Y-47004761D01*
X117761143Y-46957142D01*
X118618286Y-46052380D02*
X118951620Y-47052380D01*
X119284953Y-46052380D01*
X111919477Y-45827380D02*
X112490905Y-45827380D01*
X112205191Y-46827380D02*
X112205191Y-45827380D01*
X112824239Y-46827380D02*
X112824239Y-45827380D01*
X113062334Y-45827380D01*
X113205191Y-45875000D01*
X113300429Y-45970238D01*
X113348048Y-46065476D01*
X113395667Y-46255952D01*
X113395667Y-46398809D01*
X113348048Y-46589285D01*
X113300429Y-46684523D01*
X113205191Y-46779761D01*
X113062334Y-46827380D01*
X112824239Y-46827380D01*
X113776620Y-46779761D02*
X113919477Y-46827380D01*
X114157572Y-46827380D01*
X114252810Y-46779761D01*
X114300429Y-46732142D01*
X114348048Y-46636904D01*
X114348048Y-46541666D01*
X114300429Y-46446428D01*
X114252810Y-46398809D01*
X114157572Y-46351190D01*
X113967096Y-46303571D01*
X113871858Y-46255952D01*
X113824239Y-46208333D01*
X113776620Y-46113095D01*
X113776620Y-46017857D01*
X113824239Y-45922619D01*
X113871858Y-45875000D01*
X113967096Y-45827380D01*
X114205191Y-45827380D01*
X114348048Y-45875000D01*
X143420667Y-115782142D02*
X143373048Y-115829761D01*
X143230191Y-115877380D01*
X143134953Y-115877380D01*
X142992096Y-115829761D01*
X142896858Y-115734523D01*
X142849239Y-115639285D01*
X142801620Y-115448809D01*
X142801620Y-115305952D01*
X142849239Y-115115476D01*
X142896858Y-115020238D01*
X142992096Y-114925000D01*
X143134953Y-114877380D01*
X143230191Y-114877380D01*
X143373048Y-114925000D01*
X143420667Y-114972619D01*
X144039715Y-114877380D02*
X144230191Y-114877380D01*
X144325429Y-114925000D01*
X144420667Y-115020238D01*
X144468286Y-115210714D01*
X144468286Y-115544047D01*
X144420667Y-115734523D01*
X144325429Y-115829761D01*
X144230191Y-115877380D01*
X144039715Y-115877380D01*
X143944477Y-115829761D01*
X143849239Y-115734523D01*
X143801620Y-115544047D01*
X143801620Y-115210714D01*
X143849239Y-115020238D01*
X143944477Y-114925000D01*
X144039715Y-114877380D01*
X144896858Y-115877380D02*
X144896858Y-114877380D01*
X145230191Y-115591666D01*
X145563524Y-114877380D01*
X145563524Y-115877380D01*
X165215917Y-46602369D02*
X165215917Y-45602369D01*
X165787346Y-46602369D01*
X165787346Y-45602369D01*
X166263536Y-46602369D02*
X166263536Y-45602369D01*
X166596870Y-45602369D02*
X166930203Y-46602369D01*
X167263536Y-45602369D01*
X167596870Y-46078560D02*
X167930203Y-46078560D01*
X168073060Y-46602369D02*
X167596870Y-46602369D01*
X167596870Y-45602369D01*
X168073060Y-45602369D01*
X168977822Y-46602369D02*
X168501632Y-46602369D01*
X168501632Y-45602369D01*
X170406394Y-46078560D02*
X170549251Y-46126179D01*
X170596870Y-46173798D01*
X170644489Y-46269036D01*
X170644489Y-46411893D01*
X170596870Y-46507131D01*
X170549251Y-46554750D01*
X170454013Y-46602369D01*
X170073060Y-46602369D01*
X170073060Y-45602369D01*
X170406394Y-45602369D01*
X170501632Y-45649989D01*
X170549251Y-45697608D01*
X170596870Y-45792846D01*
X170596870Y-45888084D01*
X170549251Y-45983322D01*
X170501632Y-46030941D01*
X170406394Y-46078560D01*
X170073060Y-46078560D01*
X153637334Y-46602380D02*
X153637334Y-45602380D01*
X154208762Y-46602380D01*
X154208762Y-45602380D01*
X154684953Y-46602380D02*
X154684953Y-45602380D01*
X155018286Y-45602380D02*
X155351620Y-46602380D01*
X155684953Y-45602380D01*
X156018286Y-46078571D02*
X156351620Y-46078571D01*
X156494477Y-46602380D02*
X156018286Y-46602380D01*
X156018286Y-45602380D01*
X156494477Y-45602380D01*
X157399239Y-46602380D02*
X156923048Y-46602380D01*
X156923048Y-45602380D01*
X158446858Y-46316666D02*
X158923048Y-46316666D01*
X158351620Y-46602380D02*
X158684953Y-45602380D01*
X159018286Y-46602380D01*
X167071851Y-115902383D02*
X167071851Y-114902383D01*
X167405184Y-115616669D01*
X167738517Y-114902383D01*
X167738517Y-115902383D01*
X168738517Y-115902383D02*
X168167089Y-115902383D01*
X168452803Y-115902383D02*
X168452803Y-114902383D01*
X168357565Y-115045241D01*
X168262327Y-115140479D01*
X168167089Y-115188098D01*
X112145667Y-115802380D02*
X112145667Y-114802380D01*
X112717096Y-115802380D01*
X112717096Y-114802380D01*
X113764715Y-115707142D02*
X113717096Y-115754761D01*
X113574239Y-115802380D01*
X113479001Y-115802380D01*
X113336143Y-115754761D01*
X113240905Y-115659523D01*
X113193286Y-115564285D01*
X113145667Y-115373809D01*
X113145667Y-115230952D01*
X113193286Y-115040476D01*
X113240905Y-114945238D01*
X113336143Y-114850000D01*
X113479001Y-114802380D01*
X113574239Y-114802380D01*
X113717096Y-114850000D01*
X113764715Y-114897619D01*
X218144477Y-52975000D02*
X218049239Y-52927380D01*
X217906382Y-52927380D01*
X217763524Y-52975000D01*
X217668286Y-53070238D01*
X217620667Y-53165476D01*
X217573048Y-53355952D01*
X217573048Y-53498809D01*
X217620667Y-53689285D01*
X217668286Y-53784523D01*
X217763524Y-53879761D01*
X217906382Y-53927380D01*
X218001620Y-53927380D01*
X218144477Y-53879761D01*
X218192096Y-53832142D01*
X218192096Y-53498809D01*
X218001620Y-53498809D01*
X218620667Y-53927380D02*
X218620667Y-52927380D01*
X219192096Y-53927380D01*
X219192096Y-52927380D01*
X219668286Y-53927380D02*
X219668286Y-52927380D01*
X219906382Y-52927380D01*
X220049239Y-52975000D01*
X220144477Y-53070238D01*
X220192096Y-53165476D01*
X220239715Y-53355952D01*
X220239715Y-53498809D01*
X220192096Y-53689285D01*
X220144477Y-53784523D01*
X220049239Y-53879761D01*
X219906382Y-53927380D01*
X219668286Y-53927380D01*
X149295667Y-46271428D02*
X150057572Y-46271428D01*
X149676620Y-46652380D02*
X149676620Y-45890476D01*
X151009953Y-45652380D02*
X150533762Y-45652380D01*
X150486143Y-46128571D01*
X150533762Y-46080952D01*
X150629001Y-46033333D01*
X150867096Y-46033333D01*
X150962334Y-46080952D01*
X151009953Y-46128571D01*
X151057572Y-46223809D01*
X151057572Y-46461904D01*
X151009953Y-46557142D01*
X150962334Y-46604761D01*
X150867096Y-46652380D01*
X150629001Y-46652380D01*
X150533762Y-46604761D01*
X150486143Y-46557142D01*
X151343286Y-45652380D02*
X151676620Y-46652380D01*
X152009953Y-45652380D01*
X84746858Y-115927380D02*
X84746858Y-114927380D01*
X85318286Y-115927380D01*
X85318286Y-114927380D01*
X85984953Y-114927380D02*
X86175429Y-114927380D01*
X86270667Y-114975000D01*
X86365905Y-115070238D01*
X86413524Y-115260714D01*
X86413524Y-115594047D01*
X86365905Y-115784523D01*
X86270667Y-115879761D01*
X86175429Y-115927380D01*
X85984953Y-115927380D01*
X85889715Y-115879761D01*
X85794477Y-115784523D01*
X85746858Y-115594047D01*
X85746858Y-115260714D01*
X85794477Y-115070238D01*
X85889715Y-114975000D01*
X85984953Y-114927380D01*
X94919477Y-46125000D02*
X94824239Y-46077380D01*
X94681382Y-46077380D01*
X94538524Y-46125000D01*
X94443286Y-46220238D01*
X94395667Y-46315476D01*
X94348048Y-46505952D01*
X94348048Y-46648809D01*
X94395667Y-46839285D01*
X94443286Y-46934523D01*
X94538524Y-47029761D01*
X94681382Y-47077380D01*
X94776620Y-47077380D01*
X94919477Y-47029761D01*
X94967096Y-46982142D01*
X94967096Y-46648809D01*
X94776620Y-46648809D01*
X95395667Y-47077380D02*
X95395667Y-46077380D01*
X95967096Y-47077380D01*
X95967096Y-46077380D01*
X96443286Y-47077380D02*
X96443286Y-46077380D01*
X96681382Y-46077380D01*
X96824239Y-46125000D01*
X96919477Y-46220238D01*
X96967096Y-46315476D01*
X97014715Y-46505952D01*
X97014715Y-46648809D01*
X96967096Y-46839285D01*
X96919477Y-46934523D01*
X96824239Y-47029761D01*
X96681382Y-47077380D01*
X96443286Y-47077380D01*
X90070667Y-115807142D02*
X90023048Y-115854761D01*
X89880191Y-115902380D01*
X89784953Y-115902380D01*
X89642096Y-115854761D01*
X89546858Y-115759523D01*
X89499239Y-115664285D01*
X89451620Y-115473809D01*
X89451620Y-115330952D01*
X89499239Y-115140476D01*
X89546858Y-115045238D01*
X89642096Y-114950000D01*
X89784953Y-114902380D01*
X89880191Y-114902380D01*
X90023048Y-114950000D01*
X90070667Y-114997619D01*
X90689715Y-114902380D02*
X90880191Y-114902380D01*
X90975429Y-114950000D01*
X91070667Y-115045238D01*
X91118286Y-115235714D01*
X91118286Y-115569047D01*
X91070667Y-115759523D01*
X90975429Y-115854761D01*
X90880191Y-115902380D01*
X90689715Y-115902380D01*
X90594477Y-115854761D01*
X90499239Y-115759523D01*
X90451620Y-115569047D01*
X90451620Y-115235714D01*
X90499239Y-115045238D01*
X90594477Y-114950000D01*
X90689715Y-114902380D01*
X91546858Y-115902380D02*
X91546858Y-114902380D01*
X91880191Y-115616666D01*
X92213524Y-114902380D01*
X92213524Y-115902380D01*
X138096858Y-115902380D02*
X138096858Y-114902380D01*
X138668286Y-115902380D01*
X138668286Y-114902380D01*
X139334953Y-114902380D02*
X139525429Y-114902380D01*
X139620667Y-114950000D01*
X139715905Y-115045238D01*
X139763524Y-115235714D01*
X139763524Y-115569047D01*
X139715905Y-115759523D01*
X139620667Y-115854761D01*
X139525429Y-115902380D01*
X139334953Y-115902380D01*
X139239715Y-115854761D01*
X139144477Y-115759523D01*
X139096858Y-115569047D01*
X139096858Y-115235714D01*
X139144477Y-115045238D01*
X139239715Y-114950000D01*
X139334953Y-114902380D01*
X132687334Y-46702380D02*
X132687334Y-45702380D01*
X132925429Y-45702380D01*
X133068286Y-45750000D01*
X133163524Y-45845238D01*
X133211143Y-45940476D01*
X133258762Y-46130952D01*
X133258762Y-46273809D01*
X133211143Y-46464285D01*
X133163524Y-46559523D01*
X133068286Y-46654761D01*
X132925429Y-46702380D01*
X132687334Y-46702380D01*
X133687334Y-46702380D02*
X133687334Y-45702380D01*
X133687334Y-46178571D02*
X134258762Y-46178571D01*
X134258762Y-46702380D02*
X134258762Y-45702380D01*
X134592096Y-45702380D02*
X135163524Y-45702380D01*
X134877810Y-46702380D02*
X134877810Y-45702380D01*
X136020667Y-46702380D02*
X135449239Y-46702380D01*
X135734953Y-46702380D02*
X135734953Y-45702380D01*
X135639715Y-45845238D01*
X135544477Y-45940476D01*
X135449239Y-45988095D01*
X136973048Y-46702380D02*
X136401620Y-46702380D01*
X136687334Y-46702380D02*
X136687334Y-45702380D01*
X136592096Y-45845238D01*
X136496858Y-45940476D01*
X136401620Y-45988095D01*
X88365905Y-76327380D02*
X87889715Y-76327380D01*
X87889715Y-75327380D01*
X89270667Y-76232142D02*
X89223048Y-76279761D01*
X89080191Y-76327380D01*
X88984953Y-76327380D01*
X88842096Y-76279761D01*
X88746858Y-76184523D01*
X88699239Y-76089285D01*
X88651620Y-75898809D01*
X88651620Y-75755952D01*
X88699239Y-75565476D01*
X88746858Y-75470238D01*
X88842096Y-75375000D01*
X88984953Y-75327380D01*
X89080191Y-75327380D01*
X89223048Y-75375000D01*
X89270667Y-75422619D01*
X89699239Y-76327380D02*
X89699239Y-75327380D01*
X89937334Y-75327380D01*
X90080191Y-75375000D01*
X90175429Y-75470238D01*
X90223048Y-75565476D01*
X90270667Y-75755952D01*
X90270667Y-75898809D01*
X90223048Y-76089285D01*
X90175429Y-76184523D01*
X90080191Y-76279761D01*
X89937334Y-76327380D01*
X89699239Y-76327380D01*
X159419477Y-115496428D02*
X160181382Y-115496428D01*
X159800429Y-115877380D02*
X159800429Y-115115476D01*
X161181382Y-115877380D02*
X160609953Y-115877380D01*
X160895667Y-115877380D02*
X160895667Y-114877380D01*
X160800429Y-115020238D01*
X160705191Y-115115476D01*
X160609953Y-115163095D01*
X161562334Y-114972619D02*
X161609953Y-114925000D01*
X161705191Y-114877380D01*
X161943286Y-114877380D01*
X162038524Y-114925000D01*
X162086143Y-114972619D01*
X162133762Y-115067857D01*
X162133762Y-115163095D01*
X162086143Y-115305952D01*
X161514715Y-115877380D01*
X162133762Y-115877380D01*
X162419477Y-114877380D02*
X162752810Y-115877380D01*
X163086143Y-114877380D01*
X176677800Y-115198571D02*
X176820657Y-115246190D01*
X176868276Y-115293809D01*
X176915895Y-115389047D01*
X176915895Y-115531904D01*
X176868276Y-115627142D01*
X176820657Y-115674761D01*
X176725419Y-115722380D01*
X176344467Y-115722380D01*
X176344467Y-114722380D01*
X176677800Y-114722380D01*
X176773038Y-114770000D01*
X176820657Y-114817619D01*
X176868276Y-114912857D01*
X176868276Y-115008095D01*
X176820657Y-115103333D01*
X176773038Y-115150952D01*
X176677800Y-115198571D01*
X176344467Y-115198571D01*
X177534943Y-114722380D02*
X177725419Y-114722380D01*
X177820657Y-114770000D01*
X177915895Y-114865238D01*
X177963514Y-115055714D01*
X177963514Y-115389047D01*
X177915895Y-115579523D01*
X177820657Y-115674761D01*
X177725419Y-115722380D01*
X177534943Y-115722380D01*
X177439705Y-115674761D01*
X177344467Y-115579523D01*
X177296848Y-115389047D01*
X177296848Y-115055714D01*
X177344467Y-114865238D01*
X177439705Y-114770000D01*
X177534943Y-114722380D01*
X178392086Y-115722380D02*
X178392086Y-114722380D01*
X178725419Y-115436666D01*
X179058752Y-114722380D01*
X179058752Y-115722380D01*
X179868276Y-115198571D02*
X180011133Y-115246190D01*
X180058752Y-115293809D01*
X180106372Y-115389047D01*
X180106372Y-115531904D01*
X180058752Y-115627142D01*
X180011133Y-115674761D01*
X179915895Y-115722380D01*
X179534943Y-115722380D01*
X179534943Y-114722380D01*
X179868276Y-114722380D01*
X179963514Y-114770000D01*
X180011133Y-114817619D01*
X180058752Y-114912857D01*
X180058752Y-115008095D01*
X180011133Y-115103333D01*
X179963514Y-115150952D01*
X179868276Y-115198571D01*
X179534943Y-115198571D01*
X180487324Y-115436666D02*
X180963514Y-115436666D01*
X180392086Y-115722380D02*
X180725419Y-114722380D01*
X181058752Y-115722380D01*
X181344467Y-114817619D02*
X181392086Y-114770000D01*
X181487324Y-114722380D01*
X181725419Y-114722380D01*
X181820657Y-114770000D01*
X181868276Y-114817619D01*
X181915895Y-114912857D01*
X181915895Y-115008095D01*
X181868276Y-115150952D01*
X181296848Y-115722380D01*
X181915895Y-115722380D01*
X122444477Y-46125000D02*
X122349239Y-46077380D01*
X122206382Y-46077380D01*
X122063524Y-46125000D01*
X121968286Y-46220238D01*
X121920667Y-46315476D01*
X121873048Y-46505952D01*
X121873048Y-46648809D01*
X121920667Y-46839285D01*
X121968286Y-46934523D01*
X122063524Y-47029761D01*
X122206382Y-47077380D01*
X122301620Y-47077380D01*
X122444477Y-47029761D01*
X122492096Y-46982142D01*
X122492096Y-46648809D01*
X122301620Y-46648809D01*
X122920667Y-47077380D02*
X122920667Y-46077380D01*
X123492096Y-47077380D01*
X123492096Y-46077380D01*
X123968286Y-47077380D02*
X123968286Y-46077380D01*
X124206382Y-46077380D01*
X124349239Y-46125000D01*
X124444477Y-46220238D01*
X124492096Y-46315476D01*
X124539715Y-46505952D01*
X124539715Y-46648809D01*
X124492096Y-46839285D01*
X124444477Y-46934523D01*
X124349239Y-47029761D01*
X124206382Y-47077380D01*
X123968286Y-47077380D01*
X205284953Y-115877380D02*
X204808762Y-115877380D01*
X204808762Y-114877380D01*
X205618286Y-114877380D02*
X205618286Y-115686904D01*
X205665905Y-115782142D01*
X205713524Y-115829761D01*
X205808762Y-115877380D01*
X205999239Y-115877380D01*
X206094477Y-115829761D01*
X206142096Y-115782142D01*
X206189715Y-115686904D01*
X206189715Y-114877380D01*
X206570667Y-114877380D02*
X207237334Y-114877380D01*
X206570667Y-115877380D01*
X207237334Y-115877380D01*
X207380191Y-115972619D02*
X208142096Y-115972619D01*
X208713524Y-115353571D02*
X208856382Y-115401190D01*
X208904001Y-115448809D01*
X208951620Y-115544047D01*
X208951620Y-115686904D01*
X208904001Y-115782142D01*
X208856382Y-115829761D01*
X208761143Y-115877380D01*
X208380191Y-115877380D01*
X208380191Y-114877380D01*
X208713524Y-114877380D01*
X208808762Y-114925000D01*
X208856382Y-114972619D01*
X208904001Y-115067857D01*
X208904001Y-115163095D01*
X208856382Y-115258333D01*
X208808762Y-115305952D01*
X208713524Y-115353571D01*
X208380191Y-115353571D01*
X83726620Y-82253571D02*
X84059953Y-82253571D01*
X84202810Y-82777380D02*
X83726620Y-82777380D01*
X83726620Y-81777380D01*
X84202810Y-81777380D01*
X84536143Y-81777380D02*
X85202810Y-82777380D01*
X85202810Y-81777380D02*
X84536143Y-82777380D01*
X85583762Y-82777380D02*
X85583762Y-81777380D01*
X85964715Y-81777380D01*
X86059953Y-81825000D01*
X86107572Y-81872619D01*
X86155191Y-81967857D01*
X86155191Y-82110714D01*
X86107572Y-82205952D01*
X86059953Y-82253571D01*
X85964715Y-82301190D01*
X85583762Y-82301190D01*
X86536143Y-82491666D02*
X87012334Y-82491666D01*
X86440905Y-82777380D02*
X86774239Y-81777380D01*
X87107572Y-82777380D01*
X87440905Y-82777380D02*
X87440905Y-81777380D01*
X88012334Y-82777380D01*
X88012334Y-81777380D01*
X88440905Y-82729761D02*
X88583762Y-82777380D01*
X88821858Y-82777380D01*
X88917096Y-82729761D01*
X88964715Y-82682142D01*
X89012334Y-82586904D01*
X89012334Y-82491666D01*
X88964715Y-82396428D01*
X88917096Y-82348809D01*
X88821858Y-82301190D01*
X88631382Y-82253571D01*
X88536143Y-82205952D01*
X88488524Y-82158333D01*
X88440905Y-82063095D01*
X88440905Y-81967857D01*
X88488524Y-81872619D01*
X88536143Y-81825000D01*
X88631382Y-81777380D01*
X88869477Y-81777380D01*
X89012334Y-81825000D01*
X89440905Y-82777380D02*
X89440905Y-81777380D01*
X90107572Y-81777380D02*
X90298048Y-81777380D01*
X90393286Y-81825000D01*
X90488524Y-81920238D01*
X90536143Y-82110714D01*
X90536143Y-82444047D01*
X90488524Y-82634523D01*
X90393286Y-82729761D01*
X90298048Y-82777380D01*
X90107572Y-82777380D01*
X90012334Y-82729761D01*
X89917096Y-82634523D01*
X89869477Y-82444047D01*
X89869477Y-82110714D01*
X89917096Y-81920238D01*
X90012334Y-81825000D01*
X90107572Y-81777380D01*
X90964715Y-82777380D02*
X90964715Y-81777380D01*
X91536143Y-82777380D01*
X91536143Y-81777380D01*
X106465905Y-47127380D02*
X105989715Y-47127380D01*
X105989715Y-46127380D01*
X106799239Y-47127380D02*
X106799239Y-46127380D01*
X107037334Y-46127380D01*
X107180191Y-46175000D01*
X107275429Y-46270238D01*
X107323048Y-46365476D01*
X107370667Y-46555952D01*
X107370667Y-46698809D01*
X107323048Y-46889285D01*
X107275429Y-46984523D01*
X107180191Y-47079761D01*
X107037334Y-47127380D01*
X106799239Y-47127380D01*
X108370667Y-47127380D02*
X108037334Y-46651190D01*
X107799239Y-47127380D02*
X107799239Y-46127380D01*
X108180191Y-46127380D01*
X108275429Y-46175000D01*
X108323048Y-46222619D01*
X108370667Y-46317857D01*
X108370667Y-46460714D01*
X108323048Y-46555952D01*
X108275429Y-46603571D01*
X108180191Y-46651190D01*
X107799239Y-46651190D01*
X170794477Y-115371428D02*
X171556382Y-115371428D01*
X171175429Y-115752380D02*
X171175429Y-114990476D01*
X172556382Y-115752380D02*
X171984953Y-115752380D01*
X172270667Y-115752380D02*
X172270667Y-114752380D01*
X172175429Y-114895238D01*
X172080191Y-114990476D01*
X171984953Y-115038095D01*
X172937334Y-114847619D02*
X172984953Y-114800000D01*
X173080191Y-114752380D01*
X173318286Y-114752380D01*
X173413524Y-114800000D01*
X173461143Y-114847619D01*
X173508762Y-114942857D01*
X173508762Y-115038095D01*
X173461143Y-115180952D01*
X172889715Y-115752380D01*
X173508762Y-115752380D01*
X173794477Y-114752380D02*
X174127810Y-115752380D01*
X174461143Y-114752380D01*
X144419477Y-45875000D02*
X144324239Y-45827380D01*
X144181382Y-45827380D01*
X144038524Y-45875000D01*
X143943286Y-45970238D01*
X143895667Y-46065476D01*
X143848048Y-46255952D01*
X143848048Y-46398809D01*
X143895667Y-46589285D01*
X143943286Y-46684523D01*
X144038524Y-46779761D01*
X144181382Y-46827380D01*
X144276620Y-46827380D01*
X144419477Y-46779761D01*
X144467096Y-46732142D01*
X144467096Y-46398809D01*
X144276620Y-46398809D01*
X144895667Y-46827380D02*
X144895667Y-45827380D01*
X145467096Y-46827380D01*
X145467096Y-45827380D01*
X145943286Y-46827380D02*
X145943286Y-45827380D01*
X146181382Y-45827380D01*
X146324239Y-45875000D01*
X146419477Y-45970238D01*
X146467096Y-46065476D01*
X146514715Y-46255952D01*
X146514715Y-46398809D01*
X146467096Y-46589285D01*
X146419477Y-46684523D01*
X146324239Y-46779761D01*
X146181382Y-46827380D01*
X145943286Y-46827380D01*
X199781382Y-115827380D02*
X199305191Y-115827380D01*
X199305191Y-114827380D01*
X200114715Y-114827380D02*
X200114715Y-115636904D01*
X200162334Y-115732142D01*
X200209953Y-115779761D01*
X200305191Y-115827380D01*
X200495667Y-115827380D01*
X200590905Y-115779761D01*
X200638524Y-115732142D01*
X200686143Y-115636904D01*
X200686143Y-114827380D01*
X201067096Y-114827380D02*
X201733762Y-114827380D01*
X201067096Y-115827380D01*
X201733762Y-115827380D01*
X201876620Y-115922619D02*
X202638524Y-115922619D01*
X202829001Y-115541666D02*
X203305191Y-115541666D01*
X202733762Y-115827380D02*
X203067096Y-114827380D01*
X203400429Y-115827380D01*
X211294477Y-115000000D02*
X211199239Y-114952380D01*
X211056382Y-114952380D01*
X210913524Y-115000000D01*
X210818286Y-115095238D01*
X210770667Y-115190476D01*
X210723048Y-115380952D01*
X210723048Y-115523809D01*
X210770667Y-115714285D01*
X210818286Y-115809523D01*
X210913524Y-115904761D01*
X211056382Y-115952380D01*
X211151620Y-115952380D01*
X211294477Y-115904761D01*
X211342096Y-115857142D01*
X211342096Y-115523809D01*
X211151620Y-115523809D01*
X211770667Y-115952380D02*
X211770667Y-114952380D01*
X212342096Y-115952380D01*
X212342096Y-114952380D01*
X212818286Y-115952380D02*
X212818286Y-114952380D01*
X213056382Y-114952380D01*
X213199239Y-115000000D01*
X213294477Y-115095238D01*
X213342096Y-115190476D01*
X213389715Y-115380952D01*
X213389715Y-115523809D01*
X213342096Y-115714285D01*
X213294477Y-115809523D01*
X213199239Y-115904761D01*
X213056382Y-115952380D01*
X212818286Y-115952380D01*
X125720667Y-115732142D02*
X125673048Y-115779761D01*
X125530191Y-115827380D01*
X125434953Y-115827380D01*
X125292096Y-115779761D01*
X125196858Y-115684523D01*
X125149239Y-115589285D01*
X125101620Y-115398809D01*
X125101620Y-115255952D01*
X125149239Y-115065476D01*
X125196858Y-114970238D01*
X125292096Y-114875000D01*
X125434953Y-114827380D01*
X125530191Y-114827380D01*
X125673048Y-114875000D01*
X125720667Y-114922619D01*
X126339715Y-114827380D02*
X126530191Y-114827380D01*
X126625429Y-114875000D01*
X126720667Y-114970238D01*
X126768286Y-115160714D01*
X126768286Y-115494047D01*
X126720667Y-115684523D01*
X126625429Y-115779761D01*
X126530191Y-115827380D01*
X126339715Y-115827380D01*
X126244477Y-115779761D01*
X126149239Y-115684523D01*
X126101620Y-115494047D01*
X126101620Y-115160714D01*
X126149239Y-114970238D01*
X126244477Y-114875000D01*
X126339715Y-114827380D01*
X127196858Y-115827380D02*
X127196858Y-114827380D01*
X127530191Y-115541666D01*
X127863524Y-114827380D01*
X127863524Y-115827380D01*
X182194477Y-115321428D02*
X182956382Y-115321428D01*
X182575429Y-115702380D02*
X182575429Y-114940476D01*
X183956382Y-115702380D02*
X183384953Y-115702380D01*
X183670667Y-115702380D02*
X183670667Y-114702380D01*
X183575429Y-114845238D01*
X183480191Y-114940476D01*
X183384953Y-114988095D01*
X184337334Y-114797619D02*
X184384953Y-114750000D01*
X184480191Y-114702380D01*
X184718286Y-114702380D01*
X184813524Y-114750000D01*
X184861143Y-114797619D01*
X184908762Y-114892857D01*
X184908762Y-114988095D01*
X184861143Y-115130952D01*
X184289715Y-115702380D01*
X184908762Y-115702380D01*
X185194477Y-114702380D02*
X185527810Y-115702380D01*
X185861143Y-114702380D01*
X102371858Y-115827380D02*
X102371858Y-114827380D01*
X102943286Y-115827380D01*
X102943286Y-114827380D01*
X103609953Y-114827380D02*
X103800429Y-114827380D01*
X103895667Y-114875000D01*
X103990905Y-114970238D01*
X104038524Y-115160714D01*
X104038524Y-115494047D01*
X103990905Y-115684523D01*
X103895667Y-115779761D01*
X103800429Y-115827380D01*
X103609953Y-115827380D01*
X103514715Y-115779761D01*
X103419477Y-115684523D01*
X103371858Y-115494047D01*
X103371858Y-115160714D01*
X103419477Y-114970238D01*
X103514715Y-114875000D01*
X103609953Y-114827380D01*
X147870667Y-115877380D02*
X147870667Y-114877380D01*
X148442096Y-115877380D01*
X148442096Y-114877380D01*
X149489715Y-115782142D02*
X149442096Y-115829761D01*
X149299239Y-115877380D01*
X149204001Y-115877380D01*
X149061143Y-115829761D01*
X148965905Y-115734523D01*
X148918286Y-115639285D01*
X148870667Y-115448809D01*
X148870667Y-115305952D01*
X148918286Y-115115476D01*
X148965905Y-115020238D01*
X149061143Y-114925000D01*
X149204001Y-114877380D01*
X149299239Y-114877380D01*
X149442096Y-114925000D01*
X149489715Y-114972619D01*
X100170667Y-46746428D02*
X100932572Y-46746428D01*
X100551620Y-47127380D02*
X100551620Y-46365476D01*
X101884953Y-46127380D02*
X101408762Y-46127380D01*
X101361143Y-46603571D01*
X101408762Y-46555952D01*
X101504001Y-46508333D01*
X101742096Y-46508333D01*
X101837334Y-46555952D01*
X101884953Y-46603571D01*
X101932572Y-46698809D01*
X101932572Y-46936904D01*
X101884953Y-47032142D01*
X101837334Y-47079761D01*
X101742096Y-47127380D01*
X101504001Y-47127380D01*
X101408762Y-47079761D01*
X101361143Y-47032142D01*
X102218286Y-46127380D02*
X102551620Y-47127380D01*
X102884953Y-46127380D01*
X120396858Y-115852380D02*
X120396858Y-114852380D01*
X120968286Y-115852380D01*
X120968286Y-114852380D01*
X121634953Y-114852380D02*
X121825429Y-114852380D01*
X121920667Y-114900000D01*
X122015905Y-114995238D01*
X122063524Y-115185714D01*
X122063524Y-115519047D01*
X122015905Y-115709523D01*
X121920667Y-115804761D01*
X121825429Y-115852380D01*
X121634953Y-115852380D01*
X121539715Y-115804761D01*
X121444477Y-115709523D01*
X121396858Y-115519047D01*
X121396858Y-115185714D01*
X121444477Y-114995238D01*
X121539715Y-114900000D01*
X121634953Y-114852380D01*
X130170667Y-115827380D02*
X130170667Y-114827380D01*
X130742096Y-115827380D01*
X130742096Y-114827380D01*
X131789715Y-115732142D02*
X131742096Y-115779761D01*
X131599239Y-115827380D01*
X131504001Y-115827380D01*
X131361143Y-115779761D01*
X131265905Y-115684523D01*
X131218286Y-115589285D01*
X131170667Y-115398809D01*
X131170667Y-115255952D01*
X131218286Y-115065476D01*
X131265905Y-114970238D01*
X131361143Y-114875000D01*
X131504001Y-114827380D01*
X131599239Y-114827380D01*
X131742096Y-114875000D01*
X131789715Y-114922619D01*
X217244477Y-59021428D02*
X218006382Y-59021428D01*
X217625429Y-59402380D02*
X217625429Y-58640476D01*
X219006382Y-59402380D02*
X218434953Y-59402380D01*
X218720667Y-59402380D02*
X218720667Y-58402380D01*
X218625429Y-58545238D01*
X218530191Y-58640476D01*
X218434953Y-58688095D01*
X219387334Y-58497619D02*
X219434953Y-58450000D01*
X219530191Y-58402380D01*
X219768286Y-58402380D01*
X219863524Y-58450000D01*
X219911143Y-58497619D01*
X219958762Y-58592857D01*
X219958762Y-58688095D01*
X219911143Y-58830952D01*
X219339715Y-59402380D01*
X219958762Y-59402380D01*
X220244477Y-58402380D02*
X220577810Y-59402380D01*
X220911143Y-58402380D01*
X84195667Y-47052380D02*
X84195667Y-46052380D01*
X84576620Y-46052380D01*
X84671858Y-46100000D01*
X84719477Y-46147619D01*
X84767096Y-46242857D01*
X84767096Y-46385714D01*
X84719477Y-46480952D01*
X84671858Y-46528571D01*
X84576620Y-46576190D01*
X84195667Y-46576190D01*
X85195667Y-47052380D02*
X85195667Y-46052380D01*
X85195667Y-46528571D02*
X85767096Y-46528571D01*
X85767096Y-47052380D02*
X85767096Y-46052380D01*
X188152810Y-115353571D02*
X188295667Y-115401190D01*
X188343286Y-115448809D01*
X188390905Y-115544047D01*
X188390905Y-115686904D01*
X188343286Y-115782142D01*
X188295667Y-115829761D01*
X188200429Y-115877380D01*
X187819477Y-115877380D01*
X187819477Y-114877380D01*
X188152810Y-114877380D01*
X188248048Y-114925000D01*
X188295667Y-114972619D01*
X188343286Y-115067857D01*
X188343286Y-115163095D01*
X188295667Y-115258333D01*
X188248048Y-115305952D01*
X188152810Y-115353571D01*
X187819477Y-115353571D01*
X189009953Y-114877380D02*
X189200429Y-114877380D01*
X189295667Y-114925000D01*
X189390905Y-115020238D01*
X189438524Y-115210714D01*
X189438524Y-115544047D01*
X189390905Y-115734523D01*
X189295667Y-115829761D01*
X189200429Y-115877380D01*
X189009953Y-115877380D01*
X188914715Y-115829761D01*
X188819477Y-115734523D01*
X188771858Y-115544047D01*
X188771858Y-115210714D01*
X188819477Y-115020238D01*
X188914715Y-114925000D01*
X189009953Y-114877380D01*
X189867096Y-115877380D02*
X189867096Y-114877380D01*
X190200429Y-115591666D01*
X190533762Y-114877380D01*
X190533762Y-115877380D01*
X191343286Y-115353571D02*
X191486143Y-115401190D01*
X191533762Y-115448809D01*
X191581382Y-115544047D01*
X191581382Y-115686904D01*
X191533762Y-115782142D01*
X191486143Y-115829761D01*
X191390905Y-115877380D01*
X191009953Y-115877380D01*
X191009953Y-114877380D01*
X191343286Y-114877380D01*
X191438524Y-114925000D01*
X191486143Y-114972619D01*
X191533762Y-115067857D01*
X191533762Y-115163095D01*
X191486143Y-115258333D01*
X191438524Y-115305952D01*
X191343286Y-115353571D01*
X191009953Y-115353571D01*
X191962334Y-115591666D02*
X192438524Y-115591666D01*
X191867096Y-115877380D02*
X192200429Y-114877380D01*
X192533762Y-115877380D01*
X193390905Y-115877380D02*
X192819477Y-115877380D01*
X193105191Y-115877380D02*
X193105191Y-114877380D01*
X193009953Y-115020238D01*
X192914715Y-115115476D01*
X192819477Y-115163095D01*
X193619477Y-115421428D02*
X194381382Y-115421428D01*
X194000429Y-115802380D02*
X194000429Y-115040476D01*
X195381382Y-115802380D02*
X194809953Y-115802380D01*
X195095667Y-115802380D02*
X195095667Y-114802380D01*
X195000429Y-114945238D01*
X194905191Y-115040476D01*
X194809953Y-115088095D01*
X195762334Y-114897619D02*
X195809953Y-114850000D01*
X195905191Y-114802380D01*
X196143286Y-114802380D01*
X196238524Y-114850000D01*
X196286143Y-114897619D01*
X196333762Y-114992857D01*
X196333762Y-115088095D01*
X196286143Y-115230952D01*
X195714715Y-115802380D01*
X196333762Y-115802380D01*
X196619477Y-114802380D02*
X196952810Y-115802380D01*
X197286143Y-114802380D01*
X88820657Y-46571429D02*
X89582562Y-46571429D01*
X89201610Y-46952381D02*
X89201610Y-46190477D01*
X90534943Y-45952381D02*
X90058752Y-45952381D01*
X90011133Y-46428572D01*
X90058752Y-46380953D01*
X90153991Y-46333334D01*
X90392086Y-46333334D01*
X90487324Y-46380953D01*
X90534943Y-46428572D01*
X90582562Y-46523810D01*
X90582562Y-46761905D01*
X90534943Y-46857143D01*
X90487324Y-46904762D01*
X90392086Y-46952381D01*
X90153991Y-46952381D01*
X90058752Y-46904762D01*
X90011133Y-46857143D01*
X90868276Y-45952381D02*
X91201610Y-46952381D01*
X91534943Y-45952381D01*
X107695667Y-115707142D02*
X107648048Y-115754761D01*
X107505191Y-115802380D01*
X107409953Y-115802380D01*
X107267096Y-115754761D01*
X107171858Y-115659523D01*
X107124239Y-115564285D01*
X107076620Y-115373809D01*
X107076620Y-115230952D01*
X107124239Y-115040476D01*
X107171858Y-114945238D01*
X107267096Y-114850000D01*
X107409953Y-114802380D01*
X107505191Y-114802380D01*
X107648048Y-114850000D01*
X107695667Y-114897619D01*
X108314715Y-114802380D02*
X108505191Y-114802380D01*
X108600429Y-114850000D01*
X108695667Y-114945238D01*
X108743286Y-115135714D01*
X108743286Y-115469047D01*
X108695667Y-115659523D01*
X108600429Y-115754761D01*
X108505191Y-115802380D01*
X108314715Y-115802380D01*
X108219477Y-115754761D01*
X108124239Y-115659523D01*
X108076620Y-115469047D01*
X108076620Y-115135714D01*
X108124239Y-114945238D01*
X108219477Y-114850000D01*
X108314715Y-114802380D01*
X109171858Y-115802380D02*
X109171858Y-114802380D01*
X109505191Y-115516666D01*
X109838524Y-114802380D01*
X109838524Y-115802380D01*
%TO.C,J3*%
X206493048Y-105277380D02*
X206493048Y-105991666D01*
X206445429Y-106134523D01*
X206350191Y-106229761D01*
X206207334Y-106277380D01*
X206112096Y-106277380D01*
X206874001Y-105277380D02*
X207493048Y-105277380D01*
X207159715Y-105658333D01*
X207302572Y-105658333D01*
X207397810Y-105705952D01*
X207445429Y-105753571D01*
X207493048Y-105848809D01*
X207493048Y-106086904D01*
X207445429Y-106182142D01*
X207397810Y-106229761D01*
X207302572Y-106277380D01*
X207016858Y-106277380D01*
X206921620Y-106229761D01*
X206874001Y-106182142D01*
%TO.C,Q1*%
X201521143Y-102767619D02*
X201425905Y-102720000D01*
X201330667Y-102624761D01*
X201187810Y-102481904D01*
X201092572Y-102434285D01*
X200997334Y-102434285D01*
X201044953Y-102672380D02*
X200949715Y-102624761D01*
X200854477Y-102529523D01*
X200806858Y-102339047D01*
X200806858Y-102005714D01*
X200854477Y-101815238D01*
X200949715Y-101720000D01*
X201044953Y-101672380D01*
X201235429Y-101672380D01*
X201330667Y-101720000D01*
X201425905Y-101815238D01*
X201473524Y-102005714D01*
X201473524Y-102339047D01*
X201425905Y-102529523D01*
X201330667Y-102624761D01*
X201235429Y-102672380D01*
X201044953Y-102672380D01*
X202425905Y-102672380D02*
X201854477Y-102672380D01*
X202140191Y-102672380D02*
X202140191Y-101672380D01*
X202044953Y-101815238D01*
X201949715Y-101910476D01*
X201854477Y-101958095D01*
%TO.C,J4*%
X134798048Y-109752380D02*
X134798048Y-110466666D01*
X134750429Y-110609523D01*
X134655191Y-110704761D01*
X134512334Y-110752380D01*
X134417096Y-110752380D01*
X135702810Y-110085714D02*
X135702810Y-110752380D01*
X135464715Y-109704761D02*
X135226620Y-110419047D01*
X135845667Y-110419047D01*
%TO.C,R11*%
X124188524Y-65027380D02*
X123855191Y-64551190D01*
X123617096Y-65027380D02*
X123617096Y-64027380D01*
X123998048Y-64027380D01*
X124093286Y-64075000D01*
X124140905Y-64122619D01*
X124188524Y-64217857D01*
X124188524Y-64360714D01*
X124140905Y-64455952D01*
X124093286Y-64503571D01*
X123998048Y-64551190D01*
X123617096Y-64551190D01*
X125140905Y-65027380D02*
X124569477Y-65027380D01*
X124855191Y-65027380D02*
X124855191Y-64027380D01*
X124759953Y-64170238D01*
X124664715Y-64265476D01*
X124569477Y-64313095D01*
X126093286Y-65027380D02*
X125521858Y-65027380D01*
X125807572Y-65027380D02*
X125807572Y-64027380D01*
X125712334Y-64170238D01*
X125617096Y-64265476D01*
X125521858Y-64313095D01*
D11*
%TO.C,J13*%
X76667331Y-73177252D02*
X76667331Y-73630824D01*
X76637093Y-73721538D01*
X76576617Y-73782014D01*
X76485902Y-73812252D01*
X76425426Y-73812252D01*
X77302331Y-73812252D02*
X76939474Y-73812252D01*
X77120902Y-73812252D02*
X77120902Y-73177252D01*
X77060426Y-73267967D01*
X76999950Y-73328443D01*
X76939474Y-73358681D01*
X77513998Y-73177252D02*
X77907093Y-73177252D01*
X77695426Y-73419157D01*
X77786140Y-73419157D01*
X77846617Y-73449395D01*
X77876855Y-73479633D01*
X77907093Y-73540110D01*
X77907093Y-73691300D01*
X77876855Y-73751776D01*
X77846617Y-73782014D01*
X77786140Y-73812252D01*
X77604712Y-73812252D01*
X77544236Y-73782014D01*
X77513998Y-73751776D01*
D10*
%TO.C,U7*%
X89769477Y-62977380D02*
X89769477Y-63786904D01*
X89817096Y-63882142D01*
X89864715Y-63929761D01*
X89959953Y-63977380D01*
X90150429Y-63977380D01*
X90245667Y-63929761D01*
X90293286Y-63882142D01*
X90340905Y-63786904D01*
X90340905Y-62977380D01*
X90721858Y-62977380D02*
X91388524Y-62977380D01*
X90959953Y-63977380D01*
%TO.C,U1*%
X112594477Y-79327380D02*
X112594477Y-80136904D01*
X112642096Y-80232142D01*
X112689715Y-80279761D01*
X112784953Y-80327380D01*
X112975429Y-80327380D01*
X113070667Y-80279761D01*
X113118286Y-80232142D01*
X113165905Y-80136904D01*
X113165905Y-79327380D01*
X114165905Y-80327380D02*
X113594477Y-80327380D01*
X113880191Y-80327380D02*
X113880191Y-79327380D01*
X113784953Y-79470238D01*
X113689715Y-79565476D01*
X113594477Y-79613095D01*
%TO.C,SW1*%
X152256143Y-94088333D02*
X152303762Y-93945476D01*
X152303762Y-93707380D01*
X152256143Y-93612142D01*
X152208524Y-93564523D01*
X152113286Y-93516904D01*
X152018048Y-93516904D01*
X151922810Y-93564523D01*
X151875191Y-93612142D01*
X151827572Y-93707380D01*
X151779953Y-93897857D01*
X151732334Y-93993095D01*
X151684715Y-94040714D01*
X151589477Y-94088333D01*
X151494239Y-94088333D01*
X151399001Y-94040714D01*
X151351382Y-93993095D01*
X151303762Y-93897857D01*
X151303762Y-93659761D01*
X151351382Y-93516904D01*
X151303762Y-93183571D02*
X152303762Y-92945476D01*
X151589477Y-92755000D01*
X152303762Y-92564523D01*
X151303762Y-92326428D01*
X152303762Y-91421666D02*
X152303762Y-91993095D01*
X152303762Y-91707380D02*
X151303762Y-91707380D01*
X151446620Y-91802619D01*
X151541858Y-91897857D01*
X151589477Y-91993095D01*
%TO.C,R16*%
X199588524Y-94802380D02*
X199255191Y-94326190D01*
X199017096Y-94802380D02*
X199017096Y-93802380D01*
X199398048Y-93802380D01*
X199493286Y-93850000D01*
X199540905Y-93897619D01*
X199588524Y-93992857D01*
X199588524Y-94135714D01*
X199540905Y-94230952D01*
X199493286Y-94278571D01*
X199398048Y-94326190D01*
X199017096Y-94326190D01*
X200540905Y-94802380D02*
X199969477Y-94802380D01*
X200255191Y-94802380D02*
X200255191Y-93802380D01*
X200159953Y-93945238D01*
X200064715Y-94040476D01*
X199969477Y-94088095D01*
X201398048Y-93802380D02*
X201207572Y-93802380D01*
X201112334Y-93850000D01*
X201064715Y-93897619D01*
X200969477Y-94040476D01*
X200921858Y-94230952D01*
X200921858Y-94611904D01*
X200969477Y-94707142D01*
X201017096Y-94754761D01*
X201112334Y-94802380D01*
X201302810Y-94802380D01*
X201398048Y-94754761D01*
X201445667Y-94707142D01*
X201493286Y-94611904D01*
X201493286Y-94373809D01*
X201445667Y-94278571D01*
X201398048Y-94230952D01*
X201302810Y-94183333D01*
X201112334Y-94183333D01*
X201017096Y-94230952D01*
X200969477Y-94278571D01*
X200921858Y-94373809D01*
%TO.C,J5*%
X117698048Y-55352380D02*
X117698048Y-56066666D01*
X117650429Y-56209523D01*
X117555191Y-56304761D01*
X117412334Y-56352380D01*
X117317096Y-56352380D01*
X118650429Y-55352380D02*
X118174239Y-55352380D01*
X118126620Y-55828571D01*
X118174239Y-55780952D01*
X118269477Y-55733333D01*
X118507572Y-55733333D01*
X118602810Y-55780952D01*
X118650429Y-55828571D01*
X118698048Y-55923809D01*
X118698048Y-56161904D01*
X118650429Y-56257142D01*
X118602810Y-56304761D01*
X118507572Y-56352380D01*
X118269477Y-56352380D01*
X118174239Y-56304761D01*
X118126620Y-56257142D01*
%TO.C,C6*%
X119439715Y-68582142D02*
X119392096Y-68629761D01*
X119249239Y-68677380D01*
X119154001Y-68677380D01*
X119011143Y-68629761D01*
X118915905Y-68534523D01*
X118868286Y-68439285D01*
X118820667Y-68248809D01*
X118820667Y-68105952D01*
X118868286Y-67915476D01*
X118915905Y-67820238D01*
X119011143Y-67725000D01*
X119154001Y-67677380D01*
X119249239Y-67677380D01*
X119392096Y-67725000D01*
X119439715Y-67772619D01*
X120296858Y-67677380D02*
X120106382Y-67677380D01*
X120011143Y-67725000D01*
X119963524Y-67772619D01*
X119868286Y-67915476D01*
X119820667Y-68105952D01*
X119820667Y-68486904D01*
X119868286Y-68582142D01*
X119915905Y-68629761D01*
X120011143Y-68677380D01*
X120201620Y-68677380D01*
X120296858Y-68629761D01*
X120344477Y-68582142D01*
X120392096Y-68486904D01*
X120392096Y-68248809D01*
X120344477Y-68153571D01*
X120296858Y-68105952D01*
X120201620Y-68058333D01*
X120011143Y-68058333D01*
X119915905Y-68105952D01*
X119868286Y-68153571D01*
X119820667Y-68248809D01*
%TO.C,R14*%
X209638524Y-87902380D02*
X209305191Y-87426190D01*
X209067096Y-87902380D02*
X209067096Y-86902380D01*
X209448048Y-86902380D01*
X209543286Y-86950000D01*
X209590905Y-86997619D01*
X209638524Y-87092857D01*
X209638524Y-87235714D01*
X209590905Y-87330952D01*
X209543286Y-87378571D01*
X209448048Y-87426190D01*
X209067096Y-87426190D01*
X210590905Y-87902380D02*
X210019477Y-87902380D01*
X210305191Y-87902380D02*
X210305191Y-86902380D01*
X210209953Y-87045238D01*
X210114715Y-87140476D01*
X210019477Y-87188095D01*
X211448048Y-87235714D02*
X211448048Y-87902380D01*
X211209953Y-86854761D02*
X210971858Y-87569047D01*
X211590905Y-87569047D01*
%TO.C,R12*%
X168463524Y-81752380D02*
X168130191Y-81276190D01*
X167892096Y-81752380D02*
X167892096Y-80752380D01*
X168273048Y-80752380D01*
X168368286Y-80800000D01*
X168415905Y-80847619D01*
X168463524Y-80942857D01*
X168463524Y-81085714D01*
X168415905Y-81180952D01*
X168368286Y-81228571D01*
X168273048Y-81276190D01*
X167892096Y-81276190D01*
X169415905Y-81752380D02*
X168844477Y-81752380D01*
X169130191Y-81752380D02*
X169130191Y-80752380D01*
X169034953Y-80895238D01*
X168939715Y-80990476D01*
X168844477Y-81038095D01*
X169796858Y-80847619D02*
X169844477Y-80800000D01*
X169939715Y-80752380D01*
X170177810Y-80752380D01*
X170273048Y-80800000D01*
X170320667Y-80847619D01*
X170368286Y-80942857D01*
X170368286Y-81038095D01*
X170320667Y-81180952D01*
X169749239Y-81752380D01*
X170368286Y-81752380D01*
D12*
%TO.C,R10*%
X127536453Y-76997357D02*
X127409453Y-76815928D01*
X127318739Y-76997357D02*
X127318739Y-76616357D01*
X127463882Y-76616357D01*
X127500167Y-76634500D01*
X127518310Y-76652642D01*
X127536453Y-76688928D01*
X127536453Y-76743357D01*
X127518310Y-76779642D01*
X127500167Y-76797785D01*
X127463882Y-76815928D01*
X127318739Y-76815928D01*
X127899310Y-76997357D02*
X127681596Y-76997357D01*
X127790453Y-76997357D02*
X127790453Y-76616357D01*
X127754167Y-76670785D01*
X127717882Y-76707071D01*
X127681596Y-76725214D01*
X128135167Y-76616357D02*
X128171453Y-76616357D01*
X128207739Y-76634500D01*
X128225882Y-76652642D01*
X128244024Y-76688928D01*
X128262167Y-76761500D01*
X128262167Y-76852214D01*
X128244024Y-76924785D01*
X128225882Y-76961071D01*
X128207739Y-76979214D01*
X128171453Y-76997357D01*
X128135167Y-76997357D01*
X128098882Y-76979214D01*
X128080739Y-76961071D01*
X128062596Y-76924785D01*
X128044453Y-76852214D01*
X128044453Y-76761500D01*
X128062596Y-76688928D01*
X128080739Y-76652642D01*
X128098882Y-76634500D01*
X128135167Y-76616357D01*
D10*
%TO.C,U3*%
X194844477Y-56127380D02*
X194844477Y-56936904D01*
X194892096Y-57032142D01*
X194939715Y-57079761D01*
X195034953Y-57127380D01*
X195225429Y-57127380D01*
X195320667Y-57079761D01*
X195368286Y-57032142D01*
X195415905Y-56936904D01*
X195415905Y-56127380D01*
X195796858Y-56127380D02*
X196415905Y-56127380D01*
X196082572Y-56508333D01*
X196225429Y-56508333D01*
X196320667Y-56555952D01*
X196368286Y-56603571D01*
X196415905Y-56698809D01*
X196415905Y-56936904D01*
X196368286Y-57032142D01*
X196320667Y-57079761D01*
X196225429Y-57127380D01*
X195939715Y-57127380D01*
X195844477Y-57079761D01*
X195796858Y-57032142D01*
%TO.C,J15*%
X157896858Y-104797380D02*
X157896858Y-105511666D01*
X157849239Y-105654523D01*
X157754001Y-105749761D01*
X157611143Y-105797380D01*
X157515905Y-105797380D01*
X158896858Y-105797380D02*
X158325429Y-105797380D01*
X158611143Y-105797380D02*
X158611143Y-104797380D01*
X158515905Y-104940238D01*
X158420667Y-105035476D01*
X158325429Y-105083095D01*
X159801620Y-104797380D02*
X159325429Y-104797380D01*
X159277810Y-105273571D01*
X159325429Y-105225952D01*
X159420667Y-105178333D01*
X159658762Y-105178333D01*
X159754001Y-105225952D01*
X159801620Y-105273571D01*
X159849239Y-105368809D01*
X159849239Y-105606904D01*
X159801620Y-105702142D01*
X159754001Y-105749761D01*
X159658762Y-105797380D01*
X159420667Y-105797380D01*
X159325429Y-105749761D01*
X159277810Y-105702142D01*
%TO.C,J2*%
X81223048Y-109977380D02*
X81223048Y-110691666D01*
X81175429Y-110834523D01*
X81080191Y-110929761D01*
X80937334Y-110977380D01*
X80842096Y-110977380D01*
X81651620Y-110072619D02*
X81699239Y-110025000D01*
X81794477Y-109977380D01*
X82032572Y-109977380D01*
X82127810Y-110025000D01*
X82175429Y-110072619D01*
X82223048Y-110167857D01*
X82223048Y-110263095D01*
X82175429Y-110405952D01*
X81604001Y-110977380D01*
X82223048Y-110977380D01*
%TO.C,J9*%
X89773048Y-55527380D02*
X89773048Y-56241666D01*
X89725429Y-56384523D01*
X89630191Y-56479761D01*
X89487334Y-56527380D01*
X89392096Y-56527380D01*
X90296858Y-56527380D02*
X90487334Y-56527380D01*
X90582572Y-56479761D01*
X90630191Y-56432142D01*
X90725429Y-56289285D01*
X90773048Y-56098809D01*
X90773048Y-55717857D01*
X90725429Y-55622619D01*
X90677810Y-55575000D01*
X90582572Y-55527380D01*
X90392096Y-55527380D01*
X90296858Y-55575000D01*
X90249239Y-55622619D01*
X90201620Y-55717857D01*
X90201620Y-55955952D01*
X90249239Y-56051190D01*
X90296858Y-56098809D01*
X90392096Y-56146428D01*
X90582572Y-56146428D01*
X90677810Y-56098809D01*
X90725429Y-56051190D01*
X90773048Y-55955952D01*
D12*
%TO.C,C15*%
X132436453Y-78386071D02*
X132418310Y-78404214D01*
X132363882Y-78422357D01*
X132327596Y-78422357D01*
X132273167Y-78404214D01*
X132236882Y-78367928D01*
X132218739Y-78331642D01*
X132200596Y-78259071D01*
X132200596Y-78204642D01*
X132218739Y-78132071D01*
X132236882Y-78095785D01*
X132273167Y-78059500D01*
X132327596Y-78041357D01*
X132363882Y-78041357D01*
X132418310Y-78059500D01*
X132436453Y-78077642D01*
X132799310Y-78422357D02*
X132581596Y-78422357D01*
X132690453Y-78422357D02*
X132690453Y-78041357D01*
X132654167Y-78095785D01*
X132617882Y-78132071D01*
X132581596Y-78150214D01*
X133144024Y-78041357D02*
X132962596Y-78041357D01*
X132944453Y-78222785D01*
X132962596Y-78204642D01*
X132998882Y-78186500D01*
X133089596Y-78186500D01*
X133125882Y-78204642D01*
X133144024Y-78222785D01*
X133162167Y-78259071D01*
X133162167Y-78349785D01*
X133144024Y-78386071D01*
X133125882Y-78404214D01*
X133089596Y-78422357D01*
X132998882Y-78422357D01*
X132962596Y-78404214D01*
X132944453Y-78386071D01*
D10*
%TO.C,R6*%
X158864715Y-58247380D02*
X158531382Y-57771190D01*
X158293286Y-58247380D02*
X158293286Y-57247380D01*
X158674239Y-57247380D01*
X158769477Y-57295000D01*
X158817096Y-57342619D01*
X158864715Y-57437857D01*
X158864715Y-57580714D01*
X158817096Y-57675952D01*
X158769477Y-57723571D01*
X158674239Y-57771190D01*
X158293286Y-57771190D01*
X159721858Y-57247380D02*
X159531382Y-57247380D01*
X159436143Y-57295000D01*
X159388524Y-57342619D01*
X159293286Y-57485476D01*
X159245667Y-57675952D01*
X159245667Y-58056904D01*
X159293286Y-58152142D01*
X159340905Y-58199761D01*
X159436143Y-58247380D01*
X159626620Y-58247380D01*
X159721858Y-58199761D01*
X159769477Y-58152142D01*
X159817096Y-58056904D01*
X159817096Y-57818809D01*
X159769477Y-57723571D01*
X159721858Y-57675952D01*
X159626620Y-57628333D01*
X159436143Y-57628333D01*
X159340905Y-57675952D01*
X159293286Y-57723571D01*
X159245667Y-57818809D01*
%TO.C,L2*%
X137629715Y-73087380D02*
X137153524Y-73087380D01*
X137153524Y-72087380D01*
X137915429Y-72182619D02*
X137963048Y-72135000D01*
X138058286Y-72087380D01*
X138296382Y-72087380D01*
X138391620Y-72135000D01*
X138439239Y-72182619D01*
X138486858Y-72277857D01*
X138486858Y-72373095D01*
X138439239Y-72515952D01*
X137867810Y-73087380D01*
X138486858Y-73087380D01*
%TO.C,C8*%
X133714715Y-65207142D02*
X133667096Y-65254761D01*
X133524239Y-65302380D01*
X133429001Y-65302380D01*
X133286143Y-65254761D01*
X133190905Y-65159523D01*
X133143286Y-65064285D01*
X133095667Y-64873809D01*
X133095667Y-64730952D01*
X133143286Y-64540476D01*
X133190905Y-64445238D01*
X133286143Y-64350000D01*
X133429001Y-64302380D01*
X133524239Y-64302380D01*
X133667096Y-64350000D01*
X133714715Y-64397619D01*
X134286143Y-64730952D02*
X134190905Y-64683333D01*
X134143286Y-64635714D01*
X134095667Y-64540476D01*
X134095667Y-64492857D01*
X134143286Y-64397619D01*
X134190905Y-64350000D01*
X134286143Y-64302380D01*
X134476620Y-64302380D01*
X134571858Y-64350000D01*
X134619477Y-64397619D01*
X134667096Y-64492857D01*
X134667096Y-64540476D01*
X134619477Y-64635714D01*
X134571858Y-64683333D01*
X134476620Y-64730952D01*
X134286143Y-64730952D01*
X134190905Y-64778571D01*
X134143286Y-64826190D01*
X134095667Y-64921428D01*
X134095667Y-65111904D01*
X134143286Y-65207142D01*
X134190905Y-65254761D01*
X134286143Y-65302380D01*
X134476620Y-65302380D01*
X134571858Y-65254761D01*
X134619477Y-65207142D01*
X134667096Y-65111904D01*
X134667096Y-64921428D01*
X134619477Y-64826190D01*
X134571858Y-64778571D01*
X134476620Y-64730952D01*
%TO.C,J7*%
X99423048Y-109727380D02*
X99423048Y-110441666D01*
X99375429Y-110584523D01*
X99280191Y-110679761D01*
X99137334Y-110727380D01*
X99042096Y-110727380D01*
X99804001Y-109727380D02*
X100470667Y-109727380D01*
X100042096Y-110727380D01*
%TO.C,Q2*%
X206811143Y-94922619D02*
X206715905Y-94875000D01*
X206620667Y-94779761D01*
X206477810Y-94636904D01*
X206382572Y-94589285D01*
X206287334Y-94589285D01*
X206334953Y-94827380D02*
X206239715Y-94779761D01*
X206144477Y-94684523D01*
X206096858Y-94494047D01*
X206096858Y-94160714D01*
X206144477Y-93970238D01*
X206239715Y-93875000D01*
X206334953Y-93827380D01*
X206525429Y-93827380D01*
X206620667Y-93875000D01*
X206715905Y-93970238D01*
X206763524Y-94160714D01*
X206763524Y-94494047D01*
X206715905Y-94684523D01*
X206620667Y-94779761D01*
X206525429Y-94827380D01*
X206334953Y-94827380D01*
X207144477Y-93922619D02*
X207192096Y-93875000D01*
X207287334Y-93827380D01*
X207525429Y-93827380D01*
X207620667Y-93875000D01*
X207668286Y-93922619D01*
X207715905Y-94017857D01*
X207715905Y-94113095D01*
X207668286Y-94255952D01*
X207096858Y-94827380D01*
X207715905Y-94827380D01*
%TO.C,K2*%
X134518286Y-96932380D02*
X134518286Y-95932380D01*
X135089715Y-96932380D02*
X134661143Y-96360952D01*
X135089715Y-95932380D02*
X134518286Y-96503809D01*
X135470667Y-96027619D02*
X135518286Y-95980000D01*
X135613524Y-95932380D01*
X135851620Y-95932380D01*
X135946858Y-95980000D01*
X135994477Y-96027619D01*
X136042096Y-96122857D01*
X136042096Y-96218095D01*
X135994477Y-96360952D01*
X135423048Y-96932380D01*
X136042096Y-96932380D01*
%TO.C,L1*%
X190249715Y-68462380D02*
X189773524Y-68462380D01*
X189773524Y-67462380D01*
X191106858Y-68462380D02*
X190535429Y-68462380D01*
X190821143Y-68462380D02*
X190821143Y-67462380D01*
X190725905Y-67605238D01*
X190630667Y-67700476D01*
X190535429Y-67748095D01*
%TO.C,K3*%
X116818286Y-96932380D02*
X116818286Y-95932380D01*
X117389715Y-96932380D02*
X116961143Y-96360952D01*
X117389715Y-95932380D02*
X116818286Y-96503809D01*
X117723048Y-95932380D02*
X118342096Y-95932380D01*
X118008762Y-96313333D01*
X118151620Y-96313333D01*
X118246858Y-96360952D01*
X118294477Y-96408571D01*
X118342096Y-96503809D01*
X118342096Y-96741904D01*
X118294477Y-96837142D01*
X118246858Y-96884761D01*
X118151620Y-96932380D01*
X117865905Y-96932380D01*
X117770667Y-96884761D01*
X117723048Y-96837142D01*
%TO.C,J16*%
X164446858Y-54452380D02*
X164446858Y-55166666D01*
X164399239Y-55309523D01*
X164304001Y-55404761D01*
X164161143Y-55452380D01*
X164065905Y-55452380D01*
X165446858Y-55452380D02*
X164875429Y-55452380D01*
X165161143Y-55452380D02*
X165161143Y-54452380D01*
X165065905Y-54595238D01*
X164970667Y-54690476D01*
X164875429Y-54738095D01*
X166304001Y-54452380D02*
X166113524Y-54452380D01*
X166018286Y-54500000D01*
X165970667Y-54547619D01*
X165875429Y-54690476D01*
X165827810Y-54880952D01*
X165827810Y-55261904D01*
X165875429Y-55357142D01*
X165923048Y-55404761D01*
X166018286Y-55452380D01*
X166208762Y-55452380D01*
X166304001Y-55404761D01*
X166351620Y-55357142D01*
X166399239Y-55261904D01*
X166399239Y-55023809D01*
X166351620Y-54928571D01*
X166304001Y-54880952D01*
X166208762Y-54833333D01*
X166018286Y-54833333D01*
X165923048Y-54880952D01*
X165875429Y-54928571D01*
X165827810Y-55023809D01*
%TO.C,K4*%
X98893286Y-96852380D02*
X98893286Y-95852380D01*
X99464715Y-96852380D02*
X99036143Y-96280952D01*
X99464715Y-95852380D02*
X98893286Y-96423809D01*
X100321858Y-96185714D02*
X100321858Y-96852380D01*
X100083762Y-95804761D02*
X99845667Y-96519047D01*
X100464715Y-96519047D01*
%TO.C,J17*%
X152921858Y-53477380D02*
X152921858Y-54191666D01*
X152874239Y-54334523D01*
X152779001Y-54429761D01*
X152636143Y-54477380D01*
X152540905Y-54477380D01*
X153921858Y-54477380D02*
X153350429Y-54477380D01*
X153636143Y-54477380D02*
X153636143Y-53477380D01*
X153540905Y-53620238D01*
X153445667Y-53715476D01*
X153350429Y-53763095D01*
X154255191Y-53477380D02*
X154921858Y-53477380D01*
X154493286Y-54477380D01*
D12*
%TO.C,R8*%
X130346719Y-64379809D02*
X130177386Y-64137904D01*
X130056433Y-64379809D02*
X130056433Y-63871809D01*
X130249957Y-63871809D01*
X130298338Y-63896000D01*
X130322528Y-63920190D01*
X130346719Y-63968571D01*
X130346719Y-64041142D01*
X130322528Y-64089523D01*
X130298338Y-64113714D01*
X130249957Y-64137904D01*
X130056433Y-64137904D01*
X130637005Y-64089523D02*
X130588624Y-64065333D01*
X130564433Y-64041142D01*
X130540243Y-63992761D01*
X130540243Y-63968571D01*
X130564433Y-63920190D01*
X130588624Y-63896000D01*
X130637005Y-63871809D01*
X130733766Y-63871809D01*
X130782147Y-63896000D01*
X130806338Y-63920190D01*
X130830528Y-63968571D01*
X130830528Y-63992761D01*
X130806338Y-64041142D01*
X130782147Y-64065333D01*
X130733766Y-64089523D01*
X130637005Y-64089523D01*
X130588624Y-64113714D01*
X130564433Y-64137904D01*
X130540243Y-64186285D01*
X130540243Y-64283047D01*
X130564433Y-64331428D01*
X130588624Y-64355619D01*
X130637005Y-64379809D01*
X130733766Y-64379809D01*
X130782147Y-64355619D01*
X130806338Y-64331428D01*
X130830528Y-64283047D01*
X130830528Y-64186285D01*
X130806338Y-64137904D01*
X130782147Y-64113714D01*
X130733766Y-64089523D01*
D10*
%TO.C,C5*%
X178464715Y-65857142D02*
X178417096Y-65904761D01*
X178274239Y-65952380D01*
X178179001Y-65952380D01*
X178036143Y-65904761D01*
X177940905Y-65809523D01*
X177893286Y-65714285D01*
X177845667Y-65523809D01*
X177845667Y-65380952D01*
X177893286Y-65190476D01*
X177940905Y-65095238D01*
X178036143Y-65000000D01*
X178179001Y-64952380D01*
X178274239Y-64952380D01*
X178417096Y-65000000D01*
X178464715Y-65047619D01*
X179369477Y-64952380D02*
X178893286Y-64952380D01*
X178845667Y-65428571D01*
X178893286Y-65380952D01*
X178988524Y-65333333D01*
X179226620Y-65333333D01*
X179321858Y-65380952D01*
X179369477Y-65428571D01*
X179417096Y-65523809D01*
X179417096Y-65761904D01*
X179369477Y-65857142D01*
X179321858Y-65904761D01*
X179226620Y-65952380D01*
X178988524Y-65952380D01*
X178893286Y-65904761D01*
X178845667Y-65857142D01*
%TO.C,C4*%
X185214715Y-65782142D02*
X185167096Y-65829761D01*
X185024239Y-65877380D01*
X184929001Y-65877380D01*
X184786143Y-65829761D01*
X184690905Y-65734523D01*
X184643286Y-65639285D01*
X184595667Y-65448809D01*
X184595667Y-65305952D01*
X184643286Y-65115476D01*
X184690905Y-65020238D01*
X184786143Y-64925000D01*
X184929001Y-64877380D01*
X185024239Y-64877380D01*
X185167096Y-64925000D01*
X185214715Y-64972619D01*
X186071858Y-65210714D02*
X186071858Y-65877380D01*
X185833762Y-64829761D02*
X185595667Y-65544047D01*
X186214715Y-65544047D01*
%TO.C,J14*%
X169196858Y-104847380D02*
X169196858Y-105561666D01*
X169149239Y-105704523D01*
X169054001Y-105799761D01*
X168911143Y-105847380D01*
X168815905Y-105847380D01*
X170196858Y-105847380D02*
X169625429Y-105847380D01*
X169911143Y-105847380D02*
X169911143Y-104847380D01*
X169815905Y-104990238D01*
X169720667Y-105085476D01*
X169625429Y-105133095D01*
X171054001Y-105180714D02*
X171054001Y-105847380D01*
X170815905Y-104799761D02*
X170577810Y-105514047D01*
X171196858Y-105514047D01*
%TO.C,U6*%
X101694477Y-60377380D02*
X101694477Y-61186904D01*
X101742096Y-61282142D01*
X101789715Y-61329761D01*
X101884953Y-61377380D01*
X102075429Y-61377380D01*
X102170667Y-61329761D01*
X102218286Y-61282142D01*
X102265905Y-61186904D01*
X102265905Y-60377380D01*
X103170667Y-60377380D02*
X102980191Y-60377380D01*
X102884953Y-60425000D01*
X102837334Y-60472619D01*
X102742096Y-60615476D01*
X102694477Y-60805952D01*
X102694477Y-61186904D01*
X102742096Y-61282142D01*
X102789715Y-61329761D01*
X102884953Y-61377380D01*
X103075429Y-61377380D01*
X103170667Y-61329761D01*
X103218286Y-61282142D01*
X103265905Y-61186904D01*
X103265905Y-60948809D01*
X103218286Y-60853571D01*
X103170667Y-60805952D01*
X103075429Y-60758333D01*
X102884953Y-60758333D01*
X102789715Y-60805952D01*
X102742096Y-60853571D01*
X102694477Y-60948809D01*
D12*
%TO.C,C10*%
X138755410Y-69561071D02*
X138736820Y-69579214D01*
X138681048Y-69597357D01*
X138643867Y-69597357D01*
X138588096Y-69579214D01*
X138550915Y-69542928D01*
X138532324Y-69506642D01*
X138513734Y-69434071D01*
X138513734Y-69379642D01*
X138532324Y-69307071D01*
X138550915Y-69270785D01*
X138588096Y-69234500D01*
X138643867Y-69216357D01*
X138681048Y-69216357D01*
X138736820Y-69234500D01*
X138755410Y-69252642D01*
X139127220Y-69597357D02*
X138904134Y-69597357D01*
X139015677Y-69597357D02*
X139015677Y-69216357D01*
X138978496Y-69270785D01*
X138941315Y-69307071D01*
X138904134Y-69325214D01*
X139368896Y-69216357D02*
X139406077Y-69216357D01*
X139443258Y-69234500D01*
X139461848Y-69252642D01*
X139480439Y-69288928D01*
X139499029Y-69361500D01*
X139499029Y-69452214D01*
X139480439Y-69524785D01*
X139461848Y-69561071D01*
X139443258Y-69579214D01*
X139406077Y-69597357D01*
X139368896Y-69597357D01*
X139331715Y-69579214D01*
X139313124Y-69561071D01*
X139294534Y-69524785D01*
X139275943Y-69452214D01*
X139275943Y-69361500D01*
X139294534Y-69288928D01*
X139313124Y-69252642D01*
X139331715Y-69234500D01*
X139368896Y-69216357D01*
D10*
%TO.C,R4*%
X156364715Y-69132380D02*
X156031382Y-68656190D01*
X155793286Y-69132380D02*
X155793286Y-68132380D01*
X156174239Y-68132380D01*
X156269477Y-68180000D01*
X156317096Y-68227619D01*
X156364715Y-68322857D01*
X156364715Y-68465714D01*
X156317096Y-68560952D01*
X156269477Y-68608571D01*
X156174239Y-68656190D01*
X155793286Y-68656190D01*
X157221858Y-68465714D02*
X157221858Y-69132380D01*
X156983762Y-68084761D02*
X156745667Y-68799047D01*
X157364715Y-68799047D01*
%TO.C,J11*%
X192021858Y-104797380D02*
X192021858Y-105511666D01*
X191974239Y-105654523D01*
X191879001Y-105749761D01*
X191736143Y-105797380D01*
X191640905Y-105797380D01*
X193021858Y-105797380D02*
X192450429Y-105797380D01*
X192736143Y-105797380D02*
X192736143Y-104797380D01*
X192640905Y-104940238D01*
X192545667Y-105035476D01*
X192450429Y-105083095D01*
X193974239Y-105797380D02*
X193402810Y-105797380D01*
X193688524Y-105797380D02*
X193688524Y-104797380D01*
X193593286Y-104940238D01*
X193498048Y-105035476D01*
X193402810Y-105083095D01*
D12*
%TO.C,C11*%
X135386453Y-69411071D02*
X135368310Y-69429214D01*
X135313882Y-69447357D01*
X135277596Y-69447357D01*
X135223167Y-69429214D01*
X135186882Y-69392928D01*
X135168739Y-69356642D01*
X135150596Y-69284071D01*
X135150596Y-69229642D01*
X135168739Y-69157071D01*
X135186882Y-69120785D01*
X135223167Y-69084500D01*
X135277596Y-69066357D01*
X135313882Y-69066357D01*
X135368310Y-69084500D01*
X135386453Y-69102642D01*
X135749310Y-69447357D02*
X135531596Y-69447357D01*
X135640453Y-69447357D02*
X135640453Y-69066357D01*
X135604167Y-69120785D01*
X135567882Y-69157071D01*
X135531596Y-69175214D01*
X136112167Y-69447357D02*
X135894453Y-69447357D01*
X136003310Y-69447357D02*
X136003310Y-69066357D01*
X135967024Y-69120785D01*
X135930739Y-69157071D01*
X135894453Y-69175214D01*
D10*
%TO.C,IC1*%
X128061496Y-65837262D02*
X128061496Y-65202262D01*
X128726734Y-65776786D02*
X128696496Y-65807024D01*
X128605781Y-65837262D01*
X128545305Y-65837262D01*
X128454591Y-65807024D01*
X128394115Y-65746548D01*
X128363877Y-65686072D01*
X128333638Y-65565120D01*
X128333638Y-65474405D01*
X128363877Y-65353453D01*
X128394115Y-65292977D01*
X128454591Y-65232501D01*
X128545305Y-65202262D01*
X128605781Y-65202262D01*
X128696496Y-65232501D01*
X128726734Y-65262739D01*
X129331496Y-65837262D02*
X128968638Y-65837262D01*
X129150067Y-65837262D02*
X129150067Y-65202262D01*
X129089591Y-65292977D01*
X129029115Y-65353453D01*
X128968638Y-65383691D01*
%TO.C,R20*%
X97288524Y-58327380D02*
X96955191Y-57851190D01*
X96717096Y-58327380D02*
X96717096Y-57327380D01*
X97098048Y-57327380D01*
X97193286Y-57375000D01*
X97240905Y-57422619D01*
X97288524Y-57517857D01*
X97288524Y-57660714D01*
X97240905Y-57755952D01*
X97193286Y-57803571D01*
X97098048Y-57851190D01*
X96717096Y-57851190D01*
X97669477Y-57422619D02*
X97717096Y-57375000D01*
X97812334Y-57327380D01*
X98050429Y-57327380D01*
X98145667Y-57375000D01*
X98193286Y-57422619D01*
X98240905Y-57517857D01*
X98240905Y-57613095D01*
X98193286Y-57755952D01*
X97621858Y-58327380D01*
X98240905Y-58327380D01*
X98859953Y-57327380D02*
X98955191Y-57327380D01*
X99050429Y-57375000D01*
X99098048Y-57422619D01*
X99145667Y-57517857D01*
X99193286Y-57708333D01*
X99193286Y-57946428D01*
X99145667Y-58136904D01*
X99098048Y-58232142D01*
X99050429Y-58279761D01*
X98955191Y-58327380D01*
X98859953Y-58327380D01*
X98764715Y-58279761D01*
X98717096Y-58232142D01*
X98669477Y-58136904D01*
X98621858Y-57946428D01*
X98621858Y-57708333D01*
X98669477Y-57517857D01*
X98717096Y-57422619D01*
X98764715Y-57375000D01*
X98859953Y-57327380D01*
%TO.C,J1*%
X75328762Y-79833333D02*
X76043048Y-79833333D01*
X76185905Y-79880952D01*
X76281143Y-79976190D01*
X76328762Y-80119047D01*
X76328762Y-80214285D01*
X76328762Y-78833333D02*
X76328762Y-79404761D01*
X76328762Y-79119047D02*
X75328762Y-79119047D01*
X75471620Y-79214285D01*
X75566858Y-79309523D01*
X75614477Y-79404761D01*
%TO.C,C13*%
X194063524Y-83307142D02*
X194015905Y-83354761D01*
X193873048Y-83402380D01*
X193777810Y-83402380D01*
X193634953Y-83354761D01*
X193539715Y-83259523D01*
X193492096Y-83164285D01*
X193444477Y-82973809D01*
X193444477Y-82830952D01*
X193492096Y-82640476D01*
X193539715Y-82545238D01*
X193634953Y-82450000D01*
X193777810Y-82402380D01*
X193873048Y-82402380D01*
X194015905Y-82450000D01*
X194063524Y-82497619D01*
X195015905Y-83402380D02*
X194444477Y-83402380D01*
X194730191Y-83402380D02*
X194730191Y-82402380D01*
X194634953Y-82545238D01*
X194539715Y-82640476D01*
X194444477Y-82688095D01*
X195349239Y-82402380D02*
X195968286Y-82402380D01*
X195634953Y-82783333D01*
X195777810Y-82783333D01*
X195873048Y-82830952D01*
X195920667Y-82878571D01*
X195968286Y-82973809D01*
X195968286Y-83211904D01*
X195920667Y-83307142D01*
X195873048Y-83354761D01*
X195777810Y-83402380D01*
X195492096Y-83402380D01*
X195396858Y-83354761D01*
X195349239Y-83307142D01*
%TO.C,Y1*%
X129745191Y-56551190D02*
X129745191Y-57027380D01*
X129411858Y-56027380D02*
X129745191Y-56551190D01*
X130078524Y-56027380D01*
X130935667Y-57027380D02*
X130364239Y-57027380D01*
X130649953Y-57027380D02*
X130649953Y-56027380D01*
X130554715Y-56170238D01*
X130459477Y-56265476D01*
X130364239Y-56313095D01*
%TO.C,R13*%
X168413524Y-83052380D02*
X168080191Y-82576190D01*
X167842096Y-83052380D02*
X167842096Y-82052380D01*
X168223048Y-82052380D01*
X168318286Y-82100000D01*
X168365905Y-82147619D01*
X168413524Y-82242857D01*
X168413524Y-82385714D01*
X168365905Y-82480952D01*
X168318286Y-82528571D01*
X168223048Y-82576190D01*
X167842096Y-82576190D01*
X169365905Y-83052380D02*
X168794477Y-83052380D01*
X169080191Y-83052380D02*
X169080191Y-82052380D01*
X168984953Y-82195238D01*
X168889715Y-82290476D01*
X168794477Y-82338095D01*
X169699239Y-82052380D02*
X170318286Y-82052380D01*
X169984953Y-82433333D01*
X170127810Y-82433333D01*
X170223048Y-82480952D01*
X170270667Y-82528571D01*
X170318286Y-82623809D01*
X170318286Y-82861904D01*
X170270667Y-82957142D01*
X170223048Y-83004761D01*
X170127810Y-83052380D01*
X169842096Y-83052380D01*
X169746858Y-83004761D01*
X169699239Y-82957142D01*
%TO.C,K1*%
X80783286Y-96932380D02*
X80783286Y-95932380D01*
X81354715Y-96932380D02*
X80926143Y-96360952D01*
X81354715Y-95932380D02*
X80783286Y-96503809D01*
X82307096Y-96932380D02*
X81735667Y-96932380D01*
X82021382Y-96932380D02*
X82021382Y-95932380D01*
X81926143Y-96075238D01*
X81830905Y-96170476D01*
X81735667Y-96218095D01*
%TO.C,C3*%
X197289715Y-58582142D02*
X197242096Y-58629761D01*
X197099239Y-58677380D01*
X197004001Y-58677380D01*
X196861143Y-58629761D01*
X196765905Y-58534523D01*
X196718286Y-58439285D01*
X196670667Y-58248809D01*
X196670667Y-58105952D01*
X196718286Y-57915476D01*
X196765905Y-57820238D01*
X196861143Y-57725000D01*
X197004001Y-57677380D01*
X197099239Y-57677380D01*
X197242096Y-57725000D01*
X197289715Y-57772619D01*
X197623048Y-57677380D02*
X198242096Y-57677380D01*
X197908762Y-58058333D01*
X198051620Y-58058333D01*
X198146858Y-58105952D01*
X198194477Y-58153571D01*
X198242096Y-58248809D01*
X198242096Y-58486904D01*
X198194477Y-58582142D01*
X198146858Y-58629761D01*
X198051620Y-58677380D01*
X197765905Y-58677380D01*
X197670667Y-58629761D01*
X197623048Y-58582142D01*
%TO.C,RV2*%
X142761143Y-69002380D02*
X142427810Y-68526190D01*
X142189715Y-69002380D02*
X142189715Y-68002380D01*
X142570667Y-68002380D01*
X142665905Y-68050000D01*
X142713524Y-68097619D01*
X142761143Y-68192857D01*
X142761143Y-68335714D01*
X142713524Y-68430952D01*
X142665905Y-68478571D01*
X142570667Y-68526190D01*
X142189715Y-68526190D01*
X143046858Y-68002380D02*
X143380191Y-69002380D01*
X143713524Y-68002380D01*
X143999239Y-68097619D02*
X144046858Y-68050000D01*
X144142096Y-68002380D01*
X144380191Y-68002380D01*
X144475429Y-68050000D01*
X144523048Y-68097619D01*
X144570667Y-68192857D01*
X144570667Y-68288095D01*
X144523048Y-68430952D01*
X143951620Y-69002380D01*
X144570667Y-69002380D01*
%TO.C,U8*%
X179569477Y-91302380D02*
X179569477Y-92111904D01*
X179617096Y-92207142D01*
X179664715Y-92254761D01*
X179759953Y-92302380D01*
X179950429Y-92302380D01*
X180045667Y-92254761D01*
X180093286Y-92207142D01*
X180140905Y-92111904D01*
X180140905Y-91302380D01*
X180759953Y-91730952D02*
X180664715Y-91683333D01*
X180617096Y-91635714D01*
X180569477Y-91540476D01*
X180569477Y-91492857D01*
X180617096Y-91397619D01*
X180664715Y-91350000D01*
X180759953Y-91302380D01*
X180950429Y-91302380D01*
X181045667Y-91350000D01*
X181093286Y-91397619D01*
X181140905Y-91492857D01*
X181140905Y-91540476D01*
X181093286Y-91635714D01*
X181045667Y-91683333D01*
X180950429Y-91730952D01*
X180759953Y-91730952D01*
X180664715Y-91778571D01*
X180617096Y-91826190D01*
X180569477Y-91921428D01*
X180569477Y-92111904D01*
X180617096Y-92207142D01*
X180664715Y-92254761D01*
X180759953Y-92302380D01*
X180950429Y-92302380D01*
X181045667Y-92254761D01*
X181093286Y-92207142D01*
X181140905Y-92111904D01*
X181140905Y-91921428D01*
X181093286Y-91826190D01*
X181045667Y-91778571D01*
X180950429Y-91730952D01*
%TO.C,R18*%
X209058524Y-86952380D02*
X208725191Y-86476190D01*
X208487096Y-86952380D02*
X208487096Y-85952380D01*
X208868048Y-85952380D01*
X208963286Y-86000000D01*
X209010905Y-86047619D01*
X209058524Y-86142857D01*
X209058524Y-86285714D01*
X209010905Y-86380952D01*
X208963286Y-86428571D01*
X208868048Y-86476190D01*
X208487096Y-86476190D01*
X210010905Y-86952380D02*
X209439477Y-86952380D01*
X209725191Y-86952380D02*
X209725191Y-85952380D01*
X209629953Y-86095238D01*
X209534715Y-86190476D01*
X209439477Y-86238095D01*
X210582334Y-86380952D02*
X210487096Y-86333333D01*
X210439477Y-86285714D01*
X210391858Y-86190476D01*
X210391858Y-86142857D01*
X210439477Y-86047619D01*
X210487096Y-86000000D01*
X210582334Y-85952380D01*
X210772810Y-85952380D01*
X210868048Y-86000000D01*
X210915667Y-86047619D01*
X210963286Y-86142857D01*
X210963286Y-86190476D01*
X210915667Y-86285714D01*
X210868048Y-86333333D01*
X210772810Y-86380952D01*
X210582334Y-86380952D01*
X210487096Y-86428571D01*
X210439477Y-86476190D01*
X210391858Y-86571428D01*
X210391858Y-86761904D01*
X210439477Y-86857142D01*
X210487096Y-86904761D01*
X210582334Y-86952380D01*
X210772810Y-86952380D01*
X210868048Y-86904761D01*
X210915667Y-86857142D01*
X210963286Y-86761904D01*
X210963286Y-86571428D01*
X210915667Y-86476190D01*
X210868048Y-86428571D01*
X210772810Y-86380952D01*
%TO.C,U4*%
X166799477Y-60187380D02*
X166799477Y-60996904D01*
X166847096Y-61092142D01*
X166894715Y-61139761D01*
X166989953Y-61187380D01*
X167180429Y-61187380D01*
X167275667Y-61139761D01*
X167323286Y-61092142D01*
X167370905Y-60996904D01*
X167370905Y-60187380D01*
X168275667Y-60520714D02*
X168275667Y-61187380D01*
X168037572Y-60139761D02*
X167799477Y-60854047D01*
X168418524Y-60854047D01*
%TO.C,R1*%
X110014715Y-57152380D02*
X109681382Y-56676190D01*
X109443286Y-57152380D02*
X109443286Y-56152380D01*
X109824239Y-56152380D01*
X109919477Y-56200000D01*
X109967096Y-56247619D01*
X110014715Y-56342857D01*
X110014715Y-56485714D01*
X109967096Y-56580952D01*
X109919477Y-56628571D01*
X109824239Y-56676190D01*
X109443286Y-56676190D01*
X110967096Y-57152380D02*
X110395667Y-57152380D01*
X110681382Y-57152380D02*
X110681382Y-56152380D01*
X110586143Y-56295238D01*
X110490905Y-56390476D01*
X110395667Y-56438095D01*
%TO.C,J18*%
X103506858Y-55882380D02*
X103506858Y-56596666D01*
X103459239Y-56739523D01*
X103364001Y-56834761D01*
X103221143Y-56882380D01*
X103125905Y-56882380D01*
X104506858Y-56882380D02*
X103935429Y-56882380D01*
X104221143Y-56882380D02*
X104221143Y-55882380D01*
X104125905Y-56025238D01*
X104030667Y-56120476D01*
X103935429Y-56168095D01*
X105078286Y-56310952D02*
X104983048Y-56263333D01*
X104935429Y-56215714D01*
X104887810Y-56120476D01*
X104887810Y-56072857D01*
X104935429Y-55977619D01*
X104983048Y-55930000D01*
X105078286Y-55882380D01*
X105268762Y-55882380D01*
X105364001Y-55930000D01*
X105411620Y-55977619D01*
X105459239Y-56072857D01*
X105459239Y-56120476D01*
X105411620Y-56215714D01*
X105364001Y-56263333D01*
X105268762Y-56310952D01*
X105078286Y-56310952D01*
X104983048Y-56358571D01*
X104935429Y-56406190D01*
X104887810Y-56501428D01*
X104887810Y-56691904D01*
X104935429Y-56787142D01*
X104983048Y-56834761D01*
X105078286Y-56882380D01*
X105268762Y-56882380D01*
X105364001Y-56834761D01*
X105411620Y-56787142D01*
X105459239Y-56691904D01*
X105459239Y-56501428D01*
X105411620Y-56406190D01*
X105364001Y-56358571D01*
X105268762Y-56310952D01*
%TO.C,R3*%
X165764715Y-69682380D02*
X165431382Y-69206190D01*
X165193286Y-69682380D02*
X165193286Y-68682380D01*
X165574239Y-68682380D01*
X165669477Y-68730000D01*
X165717096Y-68777619D01*
X165764715Y-68872857D01*
X165764715Y-69015714D01*
X165717096Y-69110952D01*
X165669477Y-69158571D01*
X165574239Y-69206190D01*
X165193286Y-69206190D01*
X166098048Y-68682380D02*
X166717096Y-68682380D01*
X166383762Y-69063333D01*
X166526620Y-69063333D01*
X166621858Y-69110952D01*
X166669477Y-69158571D01*
X166717096Y-69253809D01*
X166717096Y-69491904D01*
X166669477Y-69587142D01*
X166621858Y-69634761D01*
X166526620Y-69682380D01*
X166240905Y-69682380D01*
X166145667Y-69634761D01*
X166098048Y-69587142D01*
%TO.C,C1*%
X183014715Y-54907142D02*
X182967096Y-54954761D01*
X182824239Y-55002380D01*
X182729001Y-55002380D01*
X182586143Y-54954761D01*
X182490905Y-54859523D01*
X182443286Y-54764285D01*
X182395667Y-54573809D01*
X182395667Y-54430952D01*
X182443286Y-54240476D01*
X182490905Y-54145238D01*
X182586143Y-54050000D01*
X182729001Y-54002380D01*
X182824239Y-54002380D01*
X182967096Y-54050000D01*
X183014715Y-54097619D01*
X183967096Y-55002380D02*
X183395667Y-55002380D01*
X183681382Y-55002380D02*
X183681382Y-54002380D01*
X183586143Y-54145238D01*
X183490905Y-54240476D01*
X183395667Y-54288095D01*
%TO.C,J8*%
X213123048Y-62177380D02*
X213123048Y-62891666D01*
X213075429Y-63034523D01*
X212980191Y-63129761D01*
X212837334Y-63177380D01*
X212742096Y-63177380D01*
X213742096Y-62605952D02*
X213646858Y-62558333D01*
X213599239Y-62510714D01*
X213551620Y-62415476D01*
X213551620Y-62367857D01*
X213599239Y-62272619D01*
X213646858Y-62225000D01*
X213742096Y-62177380D01*
X213932572Y-62177380D01*
X214027810Y-62225000D01*
X214075429Y-62272619D01*
X214123048Y-62367857D01*
X214123048Y-62415476D01*
X214075429Y-62510714D01*
X214027810Y-62558333D01*
X213932572Y-62605952D01*
X213742096Y-62605952D01*
X213646858Y-62653571D01*
X213599239Y-62701190D01*
X213551620Y-62796428D01*
X213551620Y-62986904D01*
X213599239Y-63082142D01*
X213646858Y-63129761D01*
X213742096Y-63177380D01*
X213932572Y-63177380D01*
X214027810Y-63129761D01*
X214075429Y-63082142D01*
X214123048Y-62986904D01*
X214123048Y-62796428D01*
X214075429Y-62701190D01*
X214027810Y-62653571D01*
X213932572Y-62605952D01*
D12*
%TO.C,C7*%
X123892882Y-71311071D02*
X123874739Y-71329214D01*
X123820310Y-71347357D01*
X123784024Y-71347357D01*
X123729596Y-71329214D01*
X123693310Y-71292928D01*
X123675167Y-71256642D01*
X123657024Y-71184071D01*
X123657024Y-71129642D01*
X123675167Y-71057071D01*
X123693310Y-71020785D01*
X123729596Y-70984500D01*
X123784024Y-70966357D01*
X123820310Y-70966357D01*
X123874739Y-70984500D01*
X123892882Y-71002642D01*
X124019882Y-70966357D02*
X124273882Y-70966357D01*
X124110596Y-71347357D01*
D10*
%TO.C,J10*%
X138971858Y-55077380D02*
X138971858Y-55791666D01*
X138924239Y-55934523D01*
X138829001Y-56029761D01*
X138686143Y-56077380D01*
X138590905Y-56077380D01*
X139971858Y-56077380D02*
X139400429Y-56077380D01*
X139686143Y-56077380D02*
X139686143Y-55077380D01*
X139590905Y-55220238D01*
X139495667Y-55315476D01*
X139400429Y-55363095D01*
X140590905Y-55077380D02*
X140686143Y-55077380D01*
X140781382Y-55125000D01*
X140829001Y-55172619D01*
X140876620Y-55267857D01*
X140924239Y-55458333D01*
X140924239Y-55696428D01*
X140876620Y-55886904D01*
X140829001Y-55982142D01*
X140781382Y-56029761D01*
X140686143Y-56077380D01*
X140590905Y-56077380D01*
X140495667Y-56029761D01*
X140448048Y-55982142D01*
X140400429Y-55886904D01*
X140352810Y-55696428D01*
X140352810Y-55458333D01*
X140400429Y-55267857D01*
X140448048Y-55172619D01*
X140495667Y-55125000D01*
X140590905Y-55077380D01*
%TO.C,R5*%
X168014715Y-55797380D02*
X167681382Y-55321190D01*
X167443286Y-55797380D02*
X167443286Y-54797380D01*
X167824239Y-54797380D01*
X167919477Y-54845000D01*
X167967096Y-54892619D01*
X168014715Y-54987857D01*
X168014715Y-55130714D01*
X167967096Y-55225952D01*
X167919477Y-55273571D01*
X167824239Y-55321190D01*
X167443286Y-55321190D01*
X168919477Y-54797380D02*
X168443286Y-54797380D01*
X168395667Y-55273571D01*
X168443286Y-55225952D01*
X168538524Y-55178333D01*
X168776620Y-55178333D01*
X168871858Y-55225952D01*
X168919477Y-55273571D01*
X168967096Y-55368809D01*
X168967096Y-55606904D01*
X168919477Y-55702142D01*
X168871858Y-55749761D01*
X168776620Y-55797380D01*
X168538524Y-55797380D01*
X168443286Y-55749761D01*
X168395667Y-55702142D01*
D11*
%TO.C,R19*%
X204254810Y-95029809D02*
X204085477Y-94787904D01*
X203964524Y-95029809D02*
X203964524Y-94521809D01*
X204158048Y-94521809D01*
X204206429Y-94546000D01*
X204230620Y-94570190D01*
X204254810Y-94618571D01*
X204254810Y-94691142D01*
X204230620Y-94739523D01*
X204206429Y-94763714D01*
X204158048Y-94787904D01*
X203964524Y-94787904D01*
X204738620Y-95029809D02*
X204448334Y-95029809D01*
X204593477Y-95029809D02*
X204593477Y-94521809D01*
X204545096Y-94594380D01*
X204496715Y-94642761D01*
X204448334Y-94666952D01*
X204980524Y-95029809D02*
X205077286Y-95029809D01*
X205125667Y-95005619D01*
X205149858Y-94981428D01*
X205198239Y-94908857D01*
X205222429Y-94812095D01*
X205222429Y-94618571D01*
X205198239Y-94570190D01*
X205174048Y-94546000D01*
X205125667Y-94521809D01*
X205028905Y-94521809D01*
X204980524Y-94546000D01*
X204956334Y-94570190D01*
X204932143Y-94618571D01*
X204932143Y-94739523D01*
X204956334Y-94787904D01*
X204980524Y-94812095D01*
X205028905Y-94836285D01*
X205125667Y-94836285D01*
X205174048Y-94812095D01*
X205198239Y-94787904D01*
X205222429Y-94739523D01*
D10*
%TO.C,R2*%
X84689715Y-64852380D02*
X84356382Y-64376190D01*
X84118286Y-64852380D02*
X84118286Y-63852380D01*
X84499239Y-63852380D01*
X84594477Y-63900000D01*
X84642096Y-63947619D01*
X84689715Y-64042857D01*
X84689715Y-64185714D01*
X84642096Y-64280952D01*
X84594477Y-64328571D01*
X84499239Y-64376190D01*
X84118286Y-64376190D01*
X85070667Y-63947619D02*
X85118286Y-63900000D01*
X85213524Y-63852380D01*
X85451620Y-63852380D01*
X85546858Y-63900000D01*
X85594477Y-63947619D01*
X85642096Y-64042857D01*
X85642096Y-64138095D01*
X85594477Y-64280952D01*
X85023048Y-64852380D01*
X85642096Y-64852380D01*
D12*
%TO.C,C9*%
X130221715Y-63481428D02*
X130197524Y-63505619D01*
X130124953Y-63529809D01*
X130076572Y-63529809D01*
X130004001Y-63505619D01*
X129955620Y-63457238D01*
X129931429Y-63408857D01*
X129907239Y-63312095D01*
X129907239Y-63239523D01*
X129931429Y-63142761D01*
X129955620Y-63094380D01*
X130004001Y-63046000D01*
X130076572Y-63021809D01*
X130124953Y-63021809D01*
X130197524Y-63046000D01*
X130221715Y-63070190D01*
X130463620Y-63529809D02*
X130560382Y-63529809D01*
X130608762Y-63505619D01*
X130632953Y-63481428D01*
X130681334Y-63408857D01*
X130705524Y-63312095D01*
X130705524Y-63118571D01*
X130681334Y-63070190D01*
X130657143Y-63046000D01*
X130608762Y-63021809D01*
X130512001Y-63021809D01*
X130463620Y-63046000D01*
X130439429Y-63070190D01*
X130415239Y-63118571D01*
X130415239Y-63239523D01*
X130439429Y-63287904D01*
X130463620Y-63312095D01*
X130512001Y-63336285D01*
X130608762Y-63336285D01*
X130657143Y-63312095D01*
X130681334Y-63287904D01*
X130705524Y-63239523D01*
D10*
%TO.C,R9*%
X168514715Y-80152380D02*
X168181382Y-79676190D01*
X167943286Y-80152380D02*
X167943286Y-79152380D01*
X168324239Y-79152380D01*
X168419477Y-79200000D01*
X168467096Y-79247619D01*
X168514715Y-79342857D01*
X168514715Y-79485714D01*
X168467096Y-79580952D01*
X168419477Y-79628571D01*
X168324239Y-79676190D01*
X167943286Y-79676190D01*
X168990905Y-80152380D02*
X169181382Y-80152380D01*
X169276620Y-80104761D01*
X169324239Y-80057142D01*
X169419477Y-79914285D01*
X169467096Y-79723809D01*
X169467096Y-79342857D01*
X169419477Y-79247619D01*
X169371858Y-79200000D01*
X169276620Y-79152380D01*
X169086143Y-79152380D01*
X168990905Y-79200000D01*
X168943286Y-79247619D01*
X168895667Y-79342857D01*
X168895667Y-79580952D01*
X168943286Y-79676190D01*
X168990905Y-79723809D01*
X169086143Y-79771428D01*
X169276620Y-79771428D01*
X169371858Y-79723809D01*
X169419477Y-79676190D01*
X169467096Y-79580952D01*
%TO.C,C12*%
X194188524Y-84277142D02*
X194140905Y-84324761D01*
X193998048Y-84372380D01*
X193902810Y-84372380D01*
X193759953Y-84324761D01*
X193664715Y-84229523D01*
X193617096Y-84134285D01*
X193569477Y-83943809D01*
X193569477Y-83800952D01*
X193617096Y-83610476D01*
X193664715Y-83515238D01*
X193759953Y-83420000D01*
X193902810Y-83372380D01*
X193998048Y-83372380D01*
X194140905Y-83420000D01*
X194188524Y-83467619D01*
X195140905Y-84372380D02*
X194569477Y-84372380D01*
X194855191Y-84372380D02*
X194855191Y-83372380D01*
X194759953Y-83515238D01*
X194664715Y-83610476D01*
X194569477Y-83658095D01*
X195521858Y-83467619D02*
X195569477Y-83420000D01*
X195664715Y-83372380D01*
X195902810Y-83372380D01*
X195998048Y-83420000D01*
X196045667Y-83467619D01*
X196093286Y-83562857D01*
X196093286Y-83658095D01*
X196045667Y-83800952D01*
X195474239Y-84372380D01*
X196093286Y-84372380D01*
%TO.C,R15*%
X207408524Y-85677380D02*
X207075191Y-85201190D01*
X206837096Y-85677380D02*
X206837096Y-84677380D01*
X207218048Y-84677380D01*
X207313286Y-84725000D01*
X207360905Y-84772619D01*
X207408524Y-84867857D01*
X207408524Y-85010714D01*
X207360905Y-85105952D01*
X207313286Y-85153571D01*
X207218048Y-85201190D01*
X206837096Y-85201190D01*
X208360905Y-85677380D02*
X207789477Y-85677380D01*
X208075191Y-85677380D02*
X208075191Y-84677380D01*
X207979953Y-84820238D01*
X207884715Y-84915476D01*
X207789477Y-84963095D01*
X209265667Y-84677380D02*
X208789477Y-84677380D01*
X208741858Y-85153571D01*
X208789477Y-85105952D01*
X208884715Y-85058333D01*
X209122810Y-85058333D01*
X209218048Y-85105952D01*
X209265667Y-85153571D01*
X209313286Y-85248809D01*
X209313286Y-85486904D01*
X209265667Y-85582142D01*
X209218048Y-85629761D01*
X209122810Y-85677380D01*
X208884715Y-85677380D01*
X208789477Y-85629761D01*
X208741858Y-85582142D01*
%TO.C,R7*%
X93689715Y-64047380D02*
X93356382Y-63571190D01*
X93118286Y-64047380D02*
X93118286Y-63047380D01*
X93499239Y-63047380D01*
X93594477Y-63095000D01*
X93642096Y-63142619D01*
X93689715Y-63237857D01*
X93689715Y-63380714D01*
X93642096Y-63475952D01*
X93594477Y-63523571D01*
X93499239Y-63571190D01*
X93118286Y-63571190D01*
X94023048Y-63047380D02*
X94689715Y-63047380D01*
X94261143Y-64047380D01*
%TO.C,J6*%
X117073048Y-109802380D02*
X117073048Y-110516666D01*
X117025429Y-110659523D01*
X116930191Y-110754761D01*
X116787334Y-110802380D01*
X116692096Y-110802380D01*
X117977810Y-109802380D02*
X117787334Y-109802380D01*
X117692096Y-109850000D01*
X117644477Y-109897619D01*
X117549239Y-110040476D01*
X117501620Y-110230952D01*
X117501620Y-110611904D01*
X117549239Y-110707142D01*
X117596858Y-110754761D01*
X117692096Y-110802380D01*
X117882572Y-110802380D01*
X117977810Y-110754761D01*
X118025429Y-110707142D01*
X118073048Y-110611904D01*
X118073048Y-110373809D01*
X118025429Y-110278571D01*
X117977810Y-110230952D01*
X117882572Y-110183333D01*
X117692096Y-110183333D01*
X117596858Y-110230952D01*
X117549239Y-110278571D01*
X117501620Y-110373809D01*
%TO.C,U5*%
X157274477Y-59862380D02*
X157274477Y-60671904D01*
X157322096Y-60767142D01*
X157369715Y-60814761D01*
X157464953Y-60862380D01*
X157655429Y-60862380D01*
X157750667Y-60814761D01*
X157798286Y-60767142D01*
X157845905Y-60671904D01*
X157845905Y-59862380D01*
X158798286Y-59862380D02*
X158322096Y-59862380D01*
X158274477Y-60338571D01*
X158322096Y-60290952D01*
X158417334Y-60243333D01*
X158655429Y-60243333D01*
X158750667Y-60290952D01*
X158798286Y-60338571D01*
X158845905Y-60433809D01*
X158845905Y-60671904D01*
X158798286Y-60767142D01*
X158750667Y-60814761D01*
X158655429Y-60862380D01*
X158417334Y-60862380D01*
X158322096Y-60814761D01*
X158274477Y-60767142D01*
%TO.C,C2*%
X124664715Y-67407142D02*
X124617096Y-67454761D01*
X124474239Y-67502380D01*
X124379001Y-67502380D01*
X124236143Y-67454761D01*
X124140905Y-67359523D01*
X124093286Y-67264285D01*
X124045667Y-67073809D01*
X124045667Y-66930952D01*
X124093286Y-66740476D01*
X124140905Y-66645238D01*
X124236143Y-66550000D01*
X124379001Y-66502380D01*
X124474239Y-66502380D01*
X124617096Y-66550000D01*
X124664715Y-66597619D01*
X125045667Y-66597619D02*
X125093286Y-66550000D01*
X125188524Y-66502380D01*
X125426620Y-66502380D01*
X125521858Y-66550000D01*
X125569477Y-66597619D01*
X125617096Y-66692857D01*
X125617096Y-66788095D01*
X125569477Y-66930952D01*
X124998048Y-67502380D01*
X125617096Y-67502380D01*
%TO.C,R17*%
X199688524Y-96227380D02*
X199355191Y-95751190D01*
X199117096Y-96227380D02*
X199117096Y-95227380D01*
X199498048Y-95227380D01*
X199593286Y-95275000D01*
X199640905Y-95322619D01*
X199688524Y-95417857D01*
X199688524Y-95560714D01*
X199640905Y-95655952D01*
X199593286Y-95703571D01*
X199498048Y-95751190D01*
X199117096Y-95751190D01*
X200640905Y-96227380D02*
X200069477Y-96227380D01*
X200355191Y-96227380D02*
X200355191Y-95227380D01*
X200259953Y-95370238D01*
X200164715Y-95465476D01*
X200069477Y-95513095D01*
X200974239Y-95227380D02*
X201640905Y-95227380D01*
X201212334Y-96227380D01*
%TO.C,J12*%
X180671858Y-104847380D02*
X180671858Y-105561666D01*
X180624239Y-105704523D01*
X180529001Y-105799761D01*
X180386143Y-105847380D01*
X180290905Y-105847380D01*
X181671858Y-105847380D02*
X181100429Y-105847380D01*
X181386143Y-105847380D02*
X181386143Y-104847380D01*
X181290905Y-104990238D01*
X181195667Y-105085476D01*
X181100429Y-105133095D01*
X182052810Y-104942619D02*
X182100429Y-104895000D01*
X182195667Y-104847380D01*
X182433762Y-104847380D01*
X182529001Y-104895000D01*
X182576620Y-104942619D01*
X182624239Y-105037857D01*
X182624239Y-105133095D01*
X182576620Y-105275952D01*
X182005191Y-105847380D01*
X182624239Y-105847380D01*
%TO.C,U2*%
X193994477Y-85927380D02*
X193994477Y-86736904D01*
X194042096Y-86832142D01*
X194089715Y-86879761D01*
X194184953Y-86927380D01*
X194375429Y-86927380D01*
X194470667Y-86879761D01*
X194518286Y-86832142D01*
X194565905Y-86736904D01*
X194565905Y-85927380D01*
X194994477Y-86022619D02*
X195042096Y-85975000D01*
X195137334Y-85927380D01*
X195375429Y-85927380D01*
X195470667Y-85975000D01*
X195518286Y-86022619D01*
X195565905Y-86117857D01*
X195565905Y-86213095D01*
X195518286Y-86355952D01*
X194946858Y-86927380D01*
X195565905Y-86927380D01*
D12*
%TO.C,C14*%
X137261453Y-74811071D02*
X137243310Y-74829214D01*
X137188882Y-74847357D01*
X137152596Y-74847357D01*
X137098167Y-74829214D01*
X137061882Y-74792928D01*
X137043739Y-74756642D01*
X137025596Y-74684071D01*
X137025596Y-74629642D01*
X137043739Y-74557071D01*
X137061882Y-74520785D01*
X137098167Y-74484500D01*
X137152596Y-74466357D01*
X137188882Y-74466357D01*
X137243310Y-74484500D01*
X137261453Y-74502642D01*
X137624310Y-74847357D02*
X137406596Y-74847357D01*
X137515453Y-74847357D02*
X137515453Y-74466357D01*
X137479167Y-74520785D01*
X137442882Y-74557071D01*
X137406596Y-74575214D01*
X137950882Y-74593357D02*
X137950882Y-74847357D01*
X137860167Y-74448214D02*
X137769453Y-74720357D01*
X138005310Y-74720357D01*
D13*
%TO.C,J3*%
X214476382Y-114285000D02*
X214476382Y-106665000D01*
X199236382Y-113015000D02*
X214476382Y-113015000D01*
X199236382Y-114285000D02*
X214476382Y-114285000D01*
X199236382Y-114285000D02*
X199236382Y-106665000D01*
X199236382Y-106665000D02*
X214476382Y-106665000D01*
%TO.C,Q1*%
X206736382Y-101220000D02*
X206736382Y-96579000D01*
X206736382Y-101220000D02*
X196496382Y-101220000D01*
X206736382Y-99710000D02*
X196496382Y-99710000D01*
X196496382Y-101220000D02*
X196496382Y-96579000D01*
X206736382Y-96579000D02*
X196496382Y-96579000D01*
X203466382Y-101220000D02*
X203466382Y-99710000D01*
X199765382Y-101220000D02*
X199765382Y-99710000D01*
%TO.C,J4*%
X136336382Y-114235000D02*
X136336382Y-106615000D01*
X136336382Y-114235000D02*
X151576382Y-114235000D01*
X136336382Y-112965000D02*
X151576382Y-112965000D01*
X151576382Y-114235000D02*
X151576382Y-106615000D01*
X136336382Y-106615000D02*
X151576382Y-106615000D01*
%TO.C,J13*%
X79476382Y-77155000D02*
X79476382Y-74495000D01*
X87156382Y-77155000D02*
X87156382Y-74495000D01*
X78206382Y-77155000D02*
X76876382Y-77155000D01*
X79476382Y-74495000D02*
X87156382Y-74495000D01*
X79476382Y-77155000D02*
X87156382Y-77155000D01*
X76876382Y-77155000D02*
X76876382Y-75825000D01*
%TO.C,U7*%
X90531382Y-62685000D02*
X93981382Y-62685000D01*
X90531382Y-57565000D02*
X88581382Y-57565000D01*
X90531382Y-57565000D02*
X92481382Y-57565000D01*
X90531382Y-62685000D02*
X88581382Y-62685000D01*
%TO.C,U1*%
X112016382Y-79875000D02*
X112016382Y-76425000D01*
X101896382Y-79875000D02*
X101896382Y-77925000D01*
X112016382Y-79875000D02*
X112016382Y-81825000D01*
X101896382Y-79875000D02*
X101896382Y-81825000D01*
%TO.C,SW1*%
X163456382Y-94785000D02*
X163456382Y-93431667D01*
X159716382Y-90725000D02*
X159716382Y-94785000D01*
X162496382Y-94785000D02*
X162496382Y-93431667D01*
X160316382Y-94785000D02*
X160316382Y-93431667D01*
X159716382Y-94785000D02*
X160986382Y-94785000D01*
X158611382Y-87805000D02*
X159551382Y-87805000D01*
X155596382Y-94785000D02*
X155596382Y-93431667D01*
X160076382Y-94785000D02*
X160076382Y-93431667D01*
X155236382Y-94785000D02*
X155236382Y-93431667D01*
X161151382Y-97705000D02*
X162091382Y-97705000D01*
X162376382Y-94785000D02*
X162376382Y-93431667D01*
X154756382Y-94785000D02*
X154756382Y-93431667D01*
X155356382Y-94785000D02*
X155356382Y-93431667D01*
X152851382Y-97705000D02*
X154471382Y-97705000D01*
X163691382Y-97705000D02*
X165311382Y-97705000D01*
X162256382Y-94785000D02*
X163526382Y-94785000D01*
X163691382Y-87805000D02*
X165311382Y-87805000D01*
X157416382Y-94785000D02*
X157416382Y-93431667D01*
X154996382Y-94785000D02*
X154996382Y-93431667D01*
X157296382Y-94785000D02*
X157296382Y-93431667D01*
X159836382Y-94785000D02*
X159836382Y-93431667D01*
X159716382Y-93431667D02*
X160986382Y-93431667D01*
X158136382Y-94785000D02*
X158136382Y-93431667D01*
X152851382Y-97705000D02*
X152851382Y-87805000D01*
X160796382Y-94785000D02*
X160796382Y-93431667D01*
X157656382Y-94785000D02*
X157656382Y-93431667D01*
X154876382Y-94785000D02*
X154876382Y-93431667D01*
X154636382Y-90725000D02*
X154636382Y-94785000D01*
X160556382Y-94785000D02*
X160556382Y-93431667D01*
X155906382Y-90725000D02*
X154636382Y-90725000D01*
X160986382Y-90725000D02*
X159716382Y-90725000D01*
X155716382Y-94785000D02*
X155716382Y-93431667D01*
X157176382Y-94785000D02*
X158446382Y-94785000D01*
X163096382Y-94785000D02*
X163096382Y-93431667D01*
X154636382Y-94785000D02*
X155906382Y-94785000D01*
X158446382Y-90725000D02*
X157176382Y-90725000D01*
X158376382Y-94785000D02*
X158376382Y-93431667D01*
X152611382Y-97945000D02*
X153994382Y-97945000D01*
X159956382Y-94785000D02*
X159956382Y-93431667D01*
X155476382Y-94785000D02*
X155476382Y-93431667D01*
X157776382Y-94785000D02*
X157776382Y-93431667D01*
X156071382Y-87805000D02*
X157011382Y-87805000D01*
X157176382Y-93431667D02*
X158446382Y-93431667D01*
X154636382Y-93431667D02*
X155906382Y-93431667D01*
X152611382Y-97945000D02*
X152611382Y-96561000D01*
X158446382Y-94785000D02*
X158446382Y-90725000D01*
X158016382Y-94785000D02*
X158016382Y-93431667D01*
X156071382Y-97705000D02*
X157011382Y-97705000D01*
X160436382Y-94785000D02*
X160436382Y-93431667D01*
X165311382Y-97705000D02*
X165311382Y-87805000D01*
X163336382Y-94785000D02*
X163336382Y-93431667D01*
X161151382Y-87805000D02*
X162091382Y-87805000D01*
X158256382Y-94785000D02*
X158256382Y-93431667D01*
X163526382Y-90725000D02*
X162256382Y-90725000D01*
X162976382Y-94785000D02*
X162976382Y-93431667D01*
X155836382Y-94785000D02*
X155836382Y-93431667D01*
X162256382Y-93431667D02*
X163526382Y-93431667D01*
X157896382Y-94785000D02*
X157896382Y-93431667D01*
X162256382Y-90725000D02*
X162256382Y-94785000D01*
X160916382Y-94785000D02*
X160916382Y-93431667D01*
X162616382Y-94785000D02*
X162616382Y-93431667D01*
X158611382Y-97705000D02*
X159551382Y-97705000D01*
X155116382Y-94785000D02*
X155116382Y-93431667D01*
X163526382Y-94785000D02*
X163526382Y-90725000D01*
X160676382Y-94785000D02*
X160676382Y-93431667D01*
X152851382Y-87805000D02*
X154471382Y-87805000D01*
X157536382Y-94785000D02*
X157536382Y-93431667D01*
X160986382Y-94785000D02*
X160986382Y-90725000D01*
X157176382Y-90725000D02*
X157176382Y-94785000D01*
X162856382Y-94785000D02*
X162856382Y-93431667D01*
X160196382Y-94785000D02*
X160196382Y-93431667D01*
X162736382Y-94785000D02*
X162736382Y-93431667D01*
X155906382Y-94785000D02*
X155906382Y-90725000D01*
X163216382Y-94785000D02*
X163216382Y-93431667D01*
%TO.C,J5*%
X125621382Y-47440000D02*
X125621382Y-55060000D01*
X110381382Y-47440000D02*
X110381382Y-55060000D01*
X125621382Y-55060000D02*
X110381382Y-55060000D01*
X125621382Y-48710000D02*
X110381382Y-48710000D01*
X125621382Y-47440000D02*
X110381382Y-47440000D01*
%TO.C,C6*%
X121591382Y-68115580D02*
X121591382Y-67834420D01*
X120571382Y-68115580D02*
X120571382Y-67834420D01*
%TO.C,U3*%
X191306382Y-56925000D02*
X191306382Y-57725000D01*
X194426382Y-56925000D02*
X194426382Y-55125000D01*
X194426382Y-56925000D02*
X194426382Y-57725000D01*
X191306382Y-56925000D02*
X191306382Y-56125000D01*
%TO.C,J15*%
X153626382Y-106615000D02*
X153626382Y-114235000D01*
X153626382Y-114235000D02*
X163786382Y-114235000D01*
X163786382Y-106615000D02*
X153626382Y-106615000D01*
X163786382Y-114235000D02*
X163786382Y-106615000D01*
X163786382Y-112965000D02*
X153626382Y-112965000D01*
%TO.C,J2*%
X83011382Y-106665000D02*
X98251382Y-106665000D01*
X83011382Y-113015000D02*
X98251382Y-113015000D01*
X98251382Y-114285000D02*
X98251382Y-106665000D01*
X83011382Y-114285000D02*
X83011382Y-106665000D01*
X83011382Y-114285000D02*
X98251382Y-114285000D01*
%TO.C,J9*%
X97696382Y-47615000D02*
X97696382Y-55235000D01*
X97696382Y-48885000D02*
X82456382Y-48885000D01*
X82456382Y-47615000D02*
X82456382Y-55235000D01*
X97696382Y-47615000D02*
X82456382Y-47615000D01*
X97696382Y-55235000D02*
X82456382Y-55235000D01*
%TO.C,R6*%
X158794124Y-58702500D02*
X159268640Y-58702500D01*
X158794124Y-59747500D02*
X159268640Y-59747500D01*
%TO.C,L2*%
X138196004Y-71645000D02*
X137396760Y-71645000D01*
X138196004Y-70525000D02*
X137396760Y-70525000D01*
%TO.C,J7*%
X116101382Y-114235000D02*
X116101382Y-106615000D01*
X100861382Y-114235000D02*
X116101382Y-114235000D01*
X100861382Y-112965000D02*
X116101382Y-112965000D01*
X100861382Y-114235000D02*
X100861382Y-106615000D01*
X100861382Y-106615000D02*
X116101382Y-106615000D01*
%TO.C,Q2*%
X212026382Y-93375000D02*
X212026382Y-88734000D01*
X212026382Y-93375000D02*
X201786382Y-93375000D01*
X201786382Y-93375000D02*
X201786382Y-88734000D01*
X205055382Y-93375000D02*
X205055382Y-91865000D01*
X208756382Y-93375000D02*
X208756382Y-91865000D01*
X212026382Y-91865000D02*
X201786382Y-91865000D01*
X212026382Y-88734000D02*
X201786382Y-88734000D01*
%TO.C,K2*%
X145561382Y-96880000D02*
X142561382Y-96880000D01*
X144061382Y-99380000D02*
X146761382Y-103880000D01*
X136361382Y-106080000D02*
X136361382Y-86880000D01*
X151761382Y-106080000D02*
X136361382Y-106080000D01*
X142561382Y-96880000D02*
X145561382Y-91880000D01*
X145561382Y-91880000D02*
X145561382Y-96880000D01*
X150061382Y-94380000D02*
X145561382Y-94380000D01*
X144061382Y-97880000D02*
X140361382Y-97880000D01*
X138061382Y-92080000D02*
X138061382Y-94380000D01*
X142561382Y-91880000D02*
X145561382Y-91880000D01*
X144061382Y-90980000D02*
X140361382Y-90980000D01*
X142861382Y-86880000D02*
X136361382Y-86880000D01*
X150061382Y-94380000D02*
X150061382Y-92080000D01*
X139761382Y-102580000D02*
X142061382Y-102580000D01*
X151761382Y-86880000D02*
X151761382Y-106080000D01*
X142561382Y-96880000D02*
X142561382Y-91880000D01*
X144061382Y-90980000D02*
X144061382Y-90080000D01*
X142561382Y-94380000D02*
X138061382Y-94380000D01*
X151761382Y-86880000D02*
X145261382Y-86880000D01*
X148361382Y-102580000D02*
X146061382Y-102580000D01*
X140361382Y-97880000D02*
X140361382Y-90980000D01*
X144061382Y-97880000D02*
X144061382Y-99380000D01*
%TO.C,L1*%
X187316382Y-66510000D02*
X187316382Y-66060000D01*
X193516382Y-66510000D02*
X193516382Y-66060000D01*
X187316382Y-60310000D02*
X187316382Y-60760000D01*
X193516382Y-60310000D02*
X193516382Y-60760000D01*
X187316382Y-60310000D02*
X193516382Y-60310000D01*
X193516382Y-66510000D02*
X187316382Y-66510000D01*
%TO.C,K3*%
X118581382Y-106080000D02*
X118581382Y-86880000D01*
X126281382Y-99380000D02*
X128981382Y-103880000D01*
X127781382Y-91880000D02*
X127781382Y-96880000D01*
X133981382Y-106080000D02*
X118581382Y-106080000D01*
X133981382Y-86880000D02*
X133981382Y-106080000D01*
X122581382Y-97880000D02*
X122581382Y-90980000D01*
X126281382Y-90980000D02*
X126281382Y-90080000D01*
X126281382Y-97880000D02*
X126281382Y-99380000D01*
X124781382Y-91880000D02*
X127781382Y-91880000D01*
X120281382Y-92080000D02*
X120281382Y-94380000D01*
X124781382Y-96880000D02*
X124781382Y-91880000D01*
X125081382Y-86880000D02*
X118581382Y-86880000D01*
X130581382Y-102580000D02*
X128281382Y-102580000D01*
X127781382Y-96880000D02*
X124781382Y-96880000D01*
X132281382Y-94380000D02*
X127781382Y-94380000D01*
X133981382Y-86880000D02*
X127481382Y-86880000D01*
X132281382Y-94380000D02*
X132281382Y-92080000D01*
X124781382Y-96880000D02*
X127781382Y-91880000D01*
X126281382Y-97880000D02*
X122581382Y-97880000D01*
X124781382Y-94380000D02*
X120281382Y-94380000D01*
X126281382Y-90980000D02*
X122581382Y-90980000D01*
X121981382Y-102580000D02*
X124281382Y-102580000D01*
%TO.C,J16*%
X160426382Y-47090000D02*
X160426382Y-54710000D01*
X160426382Y-54710000D02*
X170586382Y-54710000D01*
X170586382Y-47090000D02*
X160426382Y-47090000D01*
X160426382Y-48360000D02*
X170586382Y-48360000D01*
X170586382Y-54710000D02*
X170586382Y-47090000D01*
%TO.C,K4*%
X102501382Y-92080000D02*
X102501382Y-94380000D01*
X110001382Y-96880000D02*
X107001382Y-96880000D01*
X108501382Y-90980000D02*
X104801382Y-90980000D01*
X100801382Y-106080000D02*
X100801382Y-86880000D01*
X110001382Y-91880000D02*
X110001382Y-96880000D01*
X108501382Y-97880000D02*
X104801382Y-97880000D01*
X104801382Y-97880000D02*
X104801382Y-90980000D01*
X107001382Y-91880000D02*
X110001382Y-91880000D01*
X107001382Y-94380000D02*
X102501382Y-94380000D01*
X107001382Y-96880000D02*
X110001382Y-91880000D01*
X108501382Y-99380000D02*
X111201382Y-103880000D01*
X116201382Y-86880000D02*
X116201382Y-106080000D01*
X116201382Y-86880000D02*
X109701382Y-86880000D01*
X107001382Y-96880000D02*
X107001382Y-91880000D01*
X116201382Y-106080000D02*
X100801382Y-106080000D01*
X114501382Y-94380000D02*
X110001382Y-94380000D01*
X112801382Y-102580000D02*
X110501382Y-102580000D01*
X107301382Y-86880000D02*
X100801382Y-86880000D01*
X104201382Y-102580000D02*
X106501382Y-102580000D01*
X108501382Y-97880000D02*
X108501382Y-99380000D01*
X108501382Y-90980000D02*
X108501382Y-90080000D01*
X114501382Y-94380000D02*
X114501382Y-92080000D01*
%TO.C,J17*%
X148436382Y-47040000D02*
X148436382Y-54660000D01*
X158596382Y-47040000D02*
X148436382Y-47040000D01*
X148436382Y-48310000D02*
X158596382Y-48310000D01*
X148436382Y-54660000D02*
X158596382Y-54660000D01*
X158596382Y-54660000D02*
X158596382Y-47040000D01*
%TO.C,C5*%
X181491382Y-65163748D02*
X181491382Y-65686252D01*
X180021382Y-65163748D02*
X180021382Y-65686252D01*
%TO.C,C4*%
X182621382Y-65153748D02*
X182621382Y-65676252D01*
X184091382Y-65153748D02*
X184091382Y-65676252D01*
%TO.C,J14*%
X164926382Y-114285000D02*
X175086382Y-114285000D01*
X175086382Y-113015000D02*
X164926382Y-113015000D01*
X164926382Y-106665000D02*
X164926382Y-114285000D01*
X175086382Y-106665000D02*
X164926382Y-106665000D01*
X175086382Y-114285000D02*
X175086382Y-106665000D01*
%TO.C,U6*%
X103696382Y-60425000D02*
X103696382Y-62375000D01*
X108816382Y-60425000D02*
X108816382Y-62375000D01*
X103696382Y-60425000D02*
X103696382Y-58475000D01*
X108816382Y-60425000D02*
X108816382Y-56975000D01*
%TO.C,R4*%
X156768640Y-66727500D02*
X156294124Y-66727500D01*
X156768640Y-67772500D02*
X156294124Y-67772500D01*
%TO.C,J11*%
X187751382Y-114235000D02*
X197911382Y-114235000D01*
X187751382Y-106615000D02*
X187751382Y-114235000D01*
X197911382Y-106615000D02*
X187751382Y-106615000D01*
X197911382Y-114235000D02*
X197911382Y-106615000D01*
X197911382Y-112965000D02*
X187751382Y-112965000D01*
%TO.C,IC1*%
X132841382Y-67715000D02*
X133141382Y-67715000D01*
X126221382Y-67715000D02*
X125921382Y-67715000D01*
X125921382Y-67715000D02*
X125921382Y-68015000D01*
X125921382Y-68015000D02*
X124606382Y-68015000D01*
X133141382Y-74935000D02*
X133141382Y-74635000D01*
X132841382Y-74935000D02*
X133141382Y-74935000D01*
X126221382Y-74935000D02*
X125921382Y-74935000D01*
X125921382Y-74935000D02*
X125921382Y-74635000D01*
X133141382Y-67715000D02*
X133141382Y-68015000D01*
%TO.C,J1*%
X78206382Y-80830000D02*
X76876382Y-80830000D01*
X79476382Y-80830000D02*
X99856382Y-80830000D01*
X79476382Y-78170000D02*
X99856382Y-78170000D01*
X76876382Y-80830000D02*
X76876382Y-79500000D01*
X99856382Y-80830000D02*
X99856382Y-78170000D01*
X79476382Y-80830000D02*
X79476382Y-78170000D01*
%TO.C,Y1*%
X127021382Y-62625000D02*
X133421382Y-62625000D01*
X127021382Y-57575000D02*
X133421382Y-57575000D01*
X127021382Y-57575000D02*
G75*
G03*
X127021382Y-62625000I0J-2525000D01*
G01*
X133421382Y-62625000D02*
G75*
G03*
X133421382Y-57575000I0J2525000D01*
G01*
%TO.C,K1*%
X90721382Y-90980000D02*
X87021382Y-90980000D01*
X98421382Y-86880000D02*
X91921382Y-86880000D01*
X83021382Y-106080000D02*
X83021382Y-86880000D01*
X98421382Y-106080000D02*
X83021382Y-106080000D01*
X90721382Y-99380000D02*
X93421382Y-103880000D01*
X90721382Y-97880000D02*
X90721382Y-99380000D01*
X89221382Y-94380000D02*
X84721382Y-94380000D01*
X86421382Y-102580000D02*
X88721382Y-102580000D01*
X98421382Y-86880000D02*
X98421382Y-106080000D01*
X90721382Y-90980000D02*
X90721382Y-90080000D01*
X96721382Y-94380000D02*
X92221382Y-94380000D01*
X92221382Y-91880000D02*
X92221382Y-96880000D01*
X89221382Y-91880000D02*
X92221382Y-91880000D01*
X89521382Y-86880000D02*
X83021382Y-86880000D01*
X90721382Y-97880000D02*
X87021382Y-97880000D01*
X89221382Y-96880000D02*
X92221382Y-91880000D01*
X92221382Y-96880000D02*
X89221382Y-96880000D01*
X96721382Y-94380000D02*
X96721382Y-92080000D01*
X95021382Y-102580000D02*
X92721382Y-102580000D01*
X87021382Y-97880000D02*
X87021382Y-90980000D01*
X89221382Y-96880000D02*
X89221382Y-91880000D01*
X84721382Y-92080000D02*
X84721382Y-94380000D01*
%TO.C,RV2*%
X141806382Y-69596252D02*
X141806382Y-69073748D01*
X140336382Y-69596252D02*
X140336382Y-69073748D01*
%TO.C,U8*%
X168796382Y-91925000D02*
X168796382Y-89975000D01*
X178916382Y-91925000D02*
X178916382Y-93875000D01*
X168796382Y-91925000D02*
X168796382Y-93875000D01*
X178916382Y-91925000D02*
X178916382Y-88475000D01*
%TO.C,U4*%
X166561382Y-59735000D02*
X166561382Y-58085000D01*
X166561382Y-58085000D02*
X161361382Y-58085000D01*
X161361382Y-63385000D02*
X166561382Y-63385000D01*
X161361382Y-58085000D02*
X161361382Y-63385000D01*
X166561382Y-63385000D02*
X166561382Y-61735000D01*
X166561382Y-59735000D02*
G75*
G03*
X166561382Y-61735000I0J-1000000D01*
G01*
%TO.C,R1*%
X109683882Y-58587742D02*
X109683882Y-59062258D01*
X110728882Y-58587742D02*
X110728882Y-59062258D01*
%TO.C,J18*%
X99236382Y-55160000D02*
X109396382Y-55160000D01*
X109396382Y-47540000D02*
X99236382Y-47540000D01*
X99236382Y-47540000D02*
X99236382Y-55160000D01*
X99236382Y-48810000D02*
X109396382Y-48810000D01*
X109396382Y-55160000D02*
X109396382Y-47540000D01*
%TO.C,R3*%
X166168640Y-68322500D02*
X165694124Y-68322500D01*
X166168640Y-67277500D02*
X165694124Y-67277500D01*
%TO.C,C1*%
X184347382Y-54319748D02*
X184347382Y-54842252D01*
X185817382Y-54319748D02*
X185817382Y-54842252D01*
%TO.C,J8*%
X217086382Y-61505000D02*
X217086382Y-51345000D01*
X209466382Y-51345000D02*
X209466382Y-61505000D01*
X217086382Y-51345000D02*
X209466382Y-51345000D01*
X215816382Y-51345000D02*
X215816382Y-61505000D01*
X209466382Y-61505000D02*
X217086382Y-61505000D01*
%TO.C,C7*%
X122396382Y-71059420D02*
X122396382Y-71340580D01*
X123416382Y-71059420D02*
X123416382Y-71340580D01*
%TO.C,J10*%
X147371382Y-47165000D02*
X147371382Y-54785000D01*
X147371382Y-48435000D02*
X132131382Y-48435000D01*
X147371382Y-47165000D02*
X132131382Y-47165000D01*
X147371382Y-54785000D02*
X132131382Y-54785000D01*
X132131382Y-47165000D02*
X132131382Y-54785000D01*
%TO.C,R5*%
X167944124Y-56252500D02*
X168418640Y-56252500D01*
X167944124Y-57297500D02*
X168418640Y-57297500D01*
%TO.C,R2*%
X84819124Y-63322500D02*
X85293640Y-63322500D01*
X84819124Y-62277500D02*
X85293640Y-62277500D01*
%TO.C,C12*%
X194570130Y-84865000D02*
X195092634Y-84865000D01*
X194570130Y-86335000D02*
X195092634Y-86335000D01*
%TO.C,R7*%
X93619124Y-65547500D02*
X94093640Y-65547500D01*
X93619124Y-64502500D02*
X94093640Y-64502500D01*
%TO.C,J6*%
X118561382Y-114285000D02*
X118561382Y-106665000D01*
X118561382Y-106665000D02*
X133801382Y-106665000D01*
X133801382Y-114285000D02*
X133801382Y-106665000D01*
X118561382Y-114285000D02*
X133801382Y-114285000D01*
X118561382Y-113015000D02*
X133801382Y-113015000D01*
%TO.C,U5*%
X151836382Y-63060000D02*
X157036382Y-63060000D01*
X157036382Y-63060000D02*
X157036382Y-61410000D01*
X151836382Y-57760000D02*
X151836382Y-63060000D01*
X157036382Y-57760000D02*
X151836382Y-57760000D01*
X157036382Y-59410000D02*
X157036382Y-57760000D01*
X157036382Y-59410000D02*
G75*
G03*
X157036382Y-61410000I0J-1000000D01*
G01*
%TO.C,C2*%
X123541382Y-67365580D02*
X123541382Y-67084420D01*
X122521382Y-67365580D02*
X122521382Y-67084420D01*
%TO.C,J12*%
X186561382Y-113015000D02*
X176401382Y-113015000D01*
X186561382Y-106665000D02*
X176401382Y-106665000D01*
X186561382Y-114285000D02*
X186561382Y-106665000D01*
X176401382Y-106665000D02*
X176401382Y-114285000D01*
X176401382Y-114285000D02*
X186561382Y-114285000D01*
%TO.C,U2*%
X194756382Y-87315000D02*
X196706382Y-87315000D01*
X194756382Y-92435000D02*
X196706382Y-92435000D01*
X194756382Y-87315000D02*
X191306382Y-87315000D01*
X194756382Y-92435000D02*
X192806382Y-92435000D01*
%TD*%
M02*
