%FSLAX45Y45*%
G04 Gerber Fmt 4.5, Leading zero omitted, Abs format (unit mm)*
G04 Created by KiCad (PCBNEW (6.0.6)) date 2022-07-22 23:01:00*
%MOMM*%
%LPD*%
G01*
G04 APERTURE LIST*
%ADD10C,0.200000*%
%ADD11C,0.040000*%
%ADD12C,0.080000*%
%ADD13C,0.100000*%
%ADD14C,0.110000*%
%ADD15C,0.130000*%
%ADD16C,0.152000*%
G04 APERTURE END LIST*
D10*
D11*
X8065638Y-7340000D02*
X8105638Y-7380000D01*
X8105638Y-7340000D02*
X8065638Y-7380000D01*
X8188138Y-7180000D02*
X8228138Y-7220000D01*
X8228138Y-7180000D02*
X8188138Y-7220000D01*
X8543138Y-6825000D02*
X8583138Y-6865000D01*
X8583138Y-6825000D02*
X8543138Y-6865000D01*
X8778138Y-6385000D02*
X8818138Y-6425000D01*
X8818138Y-6385000D02*
X8778138Y-6425000D01*
X9283138Y-5597500D02*
X9323138Y-5637500D01*
X9323138Y-5597500D02*
X9283138Y-5637500D01*
X9300638Y-7192500D02*
X9340638Y-7232500D01*
X9340638Y-7192500D02*
X9300638Y-7232500D01*
X9453138Y-7040000D02*
X9493138Y-7080000D01*
X9493138Y-7040000D02*
X9453138Y-7080000D01*
X9668138Y-8445000D02*
X9708138Y-8485000D01*
X9708138Y-8445000D02*
X9668138Y-8485000D01*
X9808138Y-8230000D02*
X9848138Y-8270000D01*
X9848138Y-8230000D02*
X9808138Y-8270000D01*
X10068138Y-7405000D02*
X10108138Y-7445000D01*
X10108138Y-7405000D02*
X10068138Y-7445000D01*
X10145638Y-5480000D02*
X10185638Y-5520000D01*
X10185638Y-5480000D02*
X10145638Y-5520000D01*
X10145638Y-5910000D02*
X10185638Y-5950000D01*
X10185638Y-5910000D02*
X10145638Y-5950000D01*
X10235638Y-7510000D02*
X10275638Y-7550000D01*
X10275638Y-7510000D02*
X10235638Y-7550000D01*
X10478138Y-7147500D02*
X10518138Y-7187500D01*
X10518138Y-7147500D02*
X10478138Y-7187500D01*
X10488138Y-6785000D02*
X10528138Y-6825000D01*
X10528138Y-6785000D02*
X10488138Y-6825000D01*
X10738138Y-8437500D02*
X10778138Y-8477500D01*
X10778138Y-8437500D02*
X10738138Y-8477500D01*
X10753138Y-7147500D02*
X10793138Y-7187500D01*
X10793138Y-7147500D02*
X10753138Y-7187500D01*
X10793138Y-6572500D02*
X10833138Y-6612500D01*
X10833138Y-6572500D02*
X10793138Y-6612500D01*
X10853138Y-7280000D02*
X10893138Y-7320000D01*
X10893138Y-7280000D02*
X10853138Y-7320000D01*
X10863138Y-8432500D02*
X10903138Y-8472500D01*
X10903138Y-8432500D02*
X10863138Y-8472500D01*
X10993138Y-8504950D02*
X11033138Y-8544950D01*
X11033138Y-8504950D02*
X10993138Y-8544950D01*
X11003138Y-7375000D02*
X11043138Y-7415000D01*
X11043138Y-7375000D02*
X11003138Y-7415000D01*
X11355638Y-7510050D02*
X11395638Y-7550050D01*
X11395638Y-7510050D02*
X11355638Y-7550050D01*
X11433138Y-8430000D02*
X11473138Y-8470000D01*
X11473138Y-8430000D02*
X11433138Y-8470000D01*
X11558138Y-8350000D02*
X11598138Y-8390000D01*
X11598138Y-8350000D02*
X11558138Y-8390000D01*
X11653138Y-7040000D02*
X11693138Y-7080000D01*
X11693138Y-7040000D02*
X11653138Y-7080000D01*
X11705638Y-6857850D02*
X11745638Y-6897850D01*
X11745638Y-6857850D02*
X11705638Y-6897850D01*
X11710638Y-7992500D02*
X11750638Y-8032500D01*
X11750638Y-7992500D02*
X11710638Y-8032500D01*
X11858138Y-7137500D02*
X11898138Y-7177500D01*
X11898138Y-7137500D02*
X11858138Y-7177500D01*
X11865638Y-8430000D02*
X11905638Y-8470000D01*
X11905638Y-8430000D02*
X11865638Y-8470000D01*
X11880638Y-6700000D02*
X11920638Y-6740000D01*
X11920638Y-6700000D02*
X11880638Y-6740000D01*
X11888138Y-5530000D02*
X11928138Y-5570000D01*
X11928138Y-5530000D02*
X11888138Y-5570000D01*
X11993138Y-8237500D02*
X12033138Y-8277500D01*
X12033138Y-8237500D02*
X11993138Y-8277500D01*
X12000638Y-7290000D02*
X12040638Y-7330000D01*
X12040638Y-7290000D02*
X12000638Y-7330000D01*
X12108138Y-7127500D02*
X12148138Y-7167500D01*
X12148138Y-7127500D02*
X12108138Y-7167500D01*
X12143138Y-8195000D02*
X12183138Y-8235000D01*
X12183138Y-8195000D02*
X12143138Y-8235000D01*
X12145638Y-7377500D02*
X12185638Y-7417500D01*
X12185638Y-7377500D02*
X12145638Y-7417500D01*
X12255638Y-8090000D02*
X12295638Y-8130000D01*
X12295638Y-8090000D02*
X12255638Y-8130000D01*
X12263138Y-6430000D02*
X12303138Y-6470000D01*
X12303138Y-6430000D02*
X12263138Y-6470000D01*
X12275638Y-6255000D02*
X12315638Y-6295000D01*
X12315638Y-6255000D02*
X12275638Y-6295000D01*
X12285638Y-7485000D02*
X12325638Y-7525000D01*
X12325638Y-7485000D02*
X12285638Y-7525000D01*
X12350638Y-5720000D02*
X12390638Y-5760000D01*
X12390638Y-5720000D02*
X12350638Y-5760000D01*
X12453138Y-7756800D02*
X12493138Y-7796800D01*
X12493138Y-7756800D02*
X12453138Y-7796800D01*
X12532788Y-6555000D02*
X12572788Y-6595000D01*
X12572788Y-6555000D02*
X12532788Y-6595000D01*
X12548115Y-7638613D02*
X12588115Y-7678613D01*
X12588115Y-7638613D02*
X12548115Y-7678613D01*
X12590638Y-7735000D02*
X12630638Y-7775000D01*
X12630638Y-7735000D02*
X12590638Y-7775000D01*
X12693138Y-7212500D02*
X12733138Y-7252500D01*
X12733138Y-7212500D02*
X12693138Y-7252500D01*
X12705638Y-7067500D02*
X12745638Y-7107500D01*
X12745638Y-7067500D02*
X12705638Y-7107500D01*
X12705638Y-7067500D02*
X12745638Y-7107500D01*
X12745638Y-7067500D02*
X12705638Y-7107500D01*
X12725638Y-6400000D02*
X12765638Y-6440000D01*
X12765638Y-6400000D02*
X12725638Y-6440000D01*
X12765638Y-7834650D02*
X12805638Y-7874650D01*
X12805638Y-7834650D02*
X12765638Y-7874650D01*
X12803138Y-6857500D02*
X12843138Y-6897500D01*
X12843138Y-6857500D02*
X12803138Y-6897500D01*
X12823138Y-7945000D02*
X12863138Y-7985000D01*
X12863138Y-7945000D02*
X12823138Y-7985000D01*
X12928138Y-6195000D02*
X12968138Y-6235000D01*
X12968138Y-6195000D02*
X12928138Y-6235000D01*
X12955533Y-7108601D02*
X12995533Y-7148601D01*
X12995533Y-7108601D02*
X12955533Y-7148601D01*
X13008138Y-7307500D02*
X13048138Y-7347500D01*
X13048138Y-7307500D02*
X13008138Y-7347500D01*
X13008138Y-8272850D02*
X13048138Y-8312850D01*
X13048138Y-8272850D02*
X13008138Y-8312850D01*
X13108138Y-8195000D02*
X13148138Y-8235000D01*
X13148138Y-8195000D02*
X13108138Y-8235000D01*
X13120638Y-7187500D02*
X13160638Y-7227500D01*
X13160638Y-7187500D02*
X13120638Y-7227500D01*
X13150638Y-6857500D02*
X13190638Y-6897500D01*
X13190638Y-6857500D02*
X13150638Y-6897500D01*
X13200638Y-8067500D02*
X13240638Y-8107500D01*
X13240638Y-8067500D02*
X13200638Y-8107500D01*
X13218138Y-8510000D02*
X13258138Y-8550000D01*
X13258138Y-8510000D02*
X13218138Y-8550000D01*
X13253138Y-6470000D02*
X13293138Y-6510000D01*
X13293138Y-6470000D02*
X13253138Y-6510000D01*
X13330638Y-8222500D02*
X13370638Y-8262500D01*
X13370638Y-8222500D02*
X13330638Y-8262500D01*
X13350638Y-7657500D02*
X13390638Y-7697500D01*
X13390638Y-7657500D02*
X13350638Y-7697500D01*
X13415638Y-8427850D02*
X13455638Y-8467850D01*
X13455638Y-8427850D02*
X13415638Y-8467850D01*
X13423138Y-7915000D02*
X13463138Y-7955000D01*
X13463138Y-7915000D02*
X13423138Y-7955000D01*
X13433138Y-5530000D02*
X13473138Y-5570000D01*
X13473138Y-5530000D02*
X13433138Y-5570000D01*
X13538138Y-6360000D02*
X13578138Y-6400000D01*
X13578138Y-6360000D02*
X13538138Y-6400000D01*
X13543138Y-7777500D02*
X13583138Y-7817500D01*
X13583138Y-7777500D02*
X13543138Y-7817500D01*
X13553138Y-7579650D02*
X13593138Y-7619650D01*
X13593138Y-7579650D02*
X13553138Y-7619650D01*
X13596936Y-6717850D02*
X13636936Y-6757850D01*
X13636936Y-6717850D02*
X13596936Y-6757850D01*
X13730638Y-7560000D02*
X13770638Y-7600000D01*
X13770638Y-7560000D02*
X13730638Y-7600000D01*
X13760638Y-6745000D02*
X13800638Y-6785000D01*
X13800638Y-6745000D02*
X13760638Y-6785000D01*
X14094638Y-7131000D02*
X14134638Y-7171000D01*
X14134638Y-7131000D02*
X14094638Y-7171000D01*
X14260638Y-6952450D02*
X14300638Y-6992450D01*
X14300638Y-6952450D02*
X14260638Y-6992450D01*
X14308138Y-8017500D02*
X14348138Y-8057500D01*
X14348138Y-8017500D02*
X14308138Y-8057500D01*
X14373138Y-7132500D02*
X14413138Y-7172500D01*
X14413138Y-7132500D02*
X14373138Y-7172500D01*
X14905638Y-6630250D02*
X14945638Y-6670250D01*
X14945638Y-6630250D02*
X14905638Y-6670250D01*
X14945638Y-7935000D02*
X14985638Y-7975000D01*
X14985638Y-7935000D02*
X14945638Y-7975000D01*
X14986138Y-8349500D02*
X15026138Y-8389500D01*
X15026138Y-8349500D02*
X14986138Y-8389500D01*
X15060638Y-5680000D02*
X15100638Y-5720000D01*
X15100638Y-5680000D02*
X15060638Y-5720000D01*
X15078138Y-7850000D02*
X15118138Y-7890000D01*
X15118138Y-7850000D02*
X15078138Y-7890000D01*
X15308138Y-6642500D02*
X15348138Y-6682500D01*
X15348138Y-6642500D02*
X15308138Y-6682500D01*
X15510638Y-10047500D02*
X15550638Y-10087500D01*
X15550638Y-10047500D02*
X15510638Y-10087500D01*
X15528138Y-7642500D02*
X15568138Y-7682500D01*
X15568138Y-7642500D02*
X15528138Y-7682500D01*
X15723138Y-6952500D02*
X15763138Y-6992500D01*
X15763138Y-6952500D02*
X15723138Y-6992500D01*
X15863138Y-8355000D02*
X15903138Y-8395000D01*
X15903138Y-8355000D02*
X15863138Y-8395000D01*
X15870638Y-5647500D02*
X15910638Y-5687500D01*
X15910638Y-5647500D02*
X15870638Y-5687500D01*
X15925638Y-8575000D02*
X15965638Y-8615000D01*
X15965638Y-8575000D02*
X15925638Y-8615000D01*
X15968138Y-5482500D02*
X16008138Y-5522500D01*
X16008138Y-5482500D02*
X15968138Y-5522500D01*
X15973138Y-5777500D02*
X16013138Y-5817500D01*
X16013138Y-5777500D02*
X15973138Y-5817500D01*
X16179436Y-8086202D02*
X16219436Y-8126202D01*
X16219436Y-8086202D02*
X16179436Y-8126202D01*
X16400638Y-8417500D02*
X16440638Y-8457500D01*
X16440638Y-8417500D02*
X16400638Y-8457500D01*
X16483138Y-7762500D02*
X16523138Y-7802500D01*
X16523138Y-7762500D02*
X16483138Y-7802500D01*
X16488138Y-8115000D02*
X16528138Y-8155000D01*
X16528138Y-8115000D02*
X16488138Y-8155000D01*
X16568138Y-8415000D02*
X16608138Y-8455000D01*
X16608138Y-8415000D02*
X16568138Y-8455000D01*
X16915638Y-9647500D02*
X16955638Y-9687500D01*
X16955638Y-9647500D02*
X16915638Y-9687500D01*
X16923138Y-8702500D02*
X16963138Y-8742500D01*
X16963138Y-8702500D02*
X16923138Y-8742500D01*
X16943138Y-6762500D02*
X16983138Y-6802500D01*
X16983138Y-6762500D02*
X16943138Y-6802500D01*
X17185638Y-6915000D02*
X17225638Y-6955000D01*
X17225638Y-6915000D02*
X17185638Y-6955000D01*
X17298138Y-7222500D02*
X17338138Y-7262500D01*
X17338138Y-7222500D02*
X17298138Y-7262500D01*
X17429138Y-7509000D02*
X17469138Y-7549000D01*
X17469138Y-7509000D02*
X17429138Y-7549000D01*
X17628088Y-8022452D02*
X17668088Y-8062452D01*
X17668088Y-8022452D02*
X17628088Y-8062452D01*
X17633138Y-7752500D02*
X17673138Y-7792500D01*
X17673138Y-7752500D02*
X17633138Y-7792500D01*
X17685638Y-6562500D02*
X17725638Y-6602500D01*
X17725638Y-6562500D02*
X17685638Y-6602500D01*
X17935638Y-6747500D02*
X17975638Y-6787500D01*
X17975638Y-6747500D02*
X17935638Y-6787500D01*
X17995638Y-6827500D02*
X18035638Y-6867500D01*
X18035638Y-6827500D02*
X17995638Y-6867500D01*
X18035638Y-6007500D02*
X18075638Y-6047500D01*
X18075638Y-6007500D02*
X18035638Y-6047500D01*
X18035638Y-6107500D02*
X18075638Y-6147500D01*
X18075638Y-6107500D02*
X18035638Y-6147500D01*
X18035638Y-6207500D02*
X18075638Y-6247500D01*
X18075638Y-6207500D02*
X18035638Y-6247500D01*
X18035638Y-6747500D02*
X18075638Y-6787500D01*
X18075638Y-6747500D02*
X18035638Y-6787500D01*
X18095638Y-6827500D02*
X18135638Y-6867500D01*
X18135638Y-6827500D02*
X18095638Y-6867500D01*
X18135638Y-6007500D02*
X18175638Y-6047500D01*
X18175638Y-6007500D02*
X18135638Y-6047500D01*
X18135638Y-6107500D02*
X18175638Y-6147500D01*
X18175638Y-6107500D02*
X18135638Y-6147500D01*
X18135638Y-6207500D02*
X18175638Y-6247500D01*
X18175638Y-6207500D02*
X18135638Y-6247500D01*
X18135638Y-6747500D02*
X18175638Y-6787500D01*
X18175638Y-6747500D02*
X18135638Y-6787500D01*
X18195638Y-6827500D02*
X18235638Y-6867500D01*
X18235638Y-6827500D02*
X18195638Y-6867500D01*
X18235638Y-6007500D02*
X18275638Y-6047500D01*
X18275638Y-6007500D02*
X18235638Y-6047500D01*
X18235638Y-6107500D02*
X18275638Y-6147500D01*
X18275638Y-6107500D02*
X18235638Y-6147500D01*
X18235638Y-6207500D02*
X18275638Y-6247500D01*
X18275638Y-6207500D02*
X18235638Y-6247500D01*
X18235638Y-6747500D02*
X18275638Y-6787500D01*
X18275638Y-6747500D02*
X18235638Y-6787500D01*
X18275838Y-5778700D02*
X18315838Y-5818700D01*
X18315838Y-5778700D02*
X18275838Y-5818700D01*
X18295638Y-6827500D02*
X18335638Y-6867500D01*
X18335638Y-6827500D02*
X18295638Y-6867500D01*
X18335638Y-6007500D02*
X18375638Y-6047500D01*
X18375638Y-6007500D02*
X18335638Y-6047500D01*
X18335638Y-6107500D02*
X18375638Y-6147500D01*
X18375638Y-6107500D02*
X18335638Y-6147500D01*
X18335638Y-6207500D02*
X18375638Y-6247500D01*
X18375638Y-6207500D02*
X18335638Y-6247500D01*
X18335638Y-6747500D02*
X18375638Y-6787500D01*
X18375638Y-6747500D02*
X18335638Y-6787500D01*
X18335838Y-5698700D02*
X18375838Y-5738700D01*
X18375838Y-5698700D02*
X18335838Y-5738700D01*
X18395838Y-5778700D02*
X18435838Y-5818700D01*
X18435838Y-5778700D02*
X18395838Y-5818700D01*
X18435638Y-6007500D02*
X18475638Y-6047500D01*
X18475638Y-6007500D02*
X18435638Y-6047500D01*
X18435638Y-6107500D02*
X18475638Y-6147500D01*
X18475638Y-6107500D02*
X18435638Y-6147500D01*
X18435638Y-6207500D02*
X18475638Y-6247500D01*
X18475638Y-6207500D02*
X18435638Y-6247500D01*
X18435838Y-5698700D02*
X18475838Y-5738700D01*
X18475838Y-5698700D02*
X18435838Y-5738700D01*
X18495838Y-5778700D02*
X18535838Y-5818700D01*
X18535838Y-5778700D02*
X18495838Y-5818700D01*
X18535638Y-6007500D02*
X18575638Y-6047500D01*
X18575638Y-6007500D02*
X18535638Y-6047500D01*
X18535638Y-6107500D02*
X18575638Y-6147500D01*
X18575638Y-6107500D02*
X18535638Y-6147500D01*
X18535638Y-6207500D02*
X18575638Y-6247500D01*
X18575638Y-6207500D02*
X18535638Y-6247500D01*
X18535838Y-5698700D02*
X18575838Y-5738700D01*
X18575838Y-5698700D02*
X18535838Y-5738700D01*
X18595838Y-5778700D02*
X18635838Y-5818700D01*
X18635838Y-5778700D02*
X18595838Y-5818700D01*
X18848637Y-5319301D02*
X18888637Y-5359301D01*
X18888637Y-5319301D02*
X18848637Y-5359301D01*
X18851837Y-5419301D02*
X18891837Y-5459301D01*
X18891837Y-5419301D02*
X18851837Y-5459301D01*
X18948637Y-5319301D02*
X18988637Y-5359301D01*
X18988637Y-5319301D02*
X18948637Y-5359301D01*
X18948637Y-5419301D02*
X18988637Y-5459301D01*
X18988637Y-5419301D02*
X18948637Y-5459301D01*
X19048637Y-5319301D02*
X19088637Y-5359301D01*
X19088637Y-5319301D02*
X19048637Y-5359301D01*
X19048637Y-5419301D02*
X19088637Y-5459301D01*
X19088637Y-5419301D02*
X19048637Y-5459301D01*
X19148637Y-5319301D02*
X19188637Y-5359301D01*
X19188637Y-5319301D02*
X19148637Y-5359301D01*
X19148638Y-5419300D02*
X19188638Y-5459300D01*
X19188638Y-5419300D02*
X19148638Y-5459300D01*
X19163138Y-8562500D02*
X19203138Y-8602500D01*
X19203138Y-8562500D02*
X19163138Y-8602500D01*
X19935638Y-9157500D02*
X19975638Y-9197500D01*
X19975638Y-9157500D02*
X19935638Y-9197500D01*
X20055638Y-9027500D02*
X20095638Y-9067500D01*
X20095638Y-9027500D02*
X20055638Y-9067500D01*
X20503138Y-8725000D02*
X20543138Y-8765000D01*
X20543138Y-8725000D02*
X20503138Y-8765000D01*
X21158138Y-8732500D02*
X21198138Y-8772500D01*
X21198138Y-8732500D02*
X21158138Y-8772500D01*
D12*
X12818138Y-6010000D02*
G75*
G03*
X12818138Y-6010000I-40000J0D01*
G01*
X13306138Y-6010000D02*
G75*
G03*
X13306138Y-6010000I-40000J0D01*
G01*
X15356638Y-5660000D02*
G75*
G03*
X15356638Y-5660000I-40000J0D01*
G01*
X15356638Y-6422000D02*
G75*
G03*
X15356638Y-6422000I-40000J0D01*
G01*
X15610638Y-5660000D02*
G75*
G03*
X15610638Y-5660000I-40000J0D01*
G01*
X15610638Y-6422000D02*
G75*
G03*
X15610638Y-6422000I-40000J0D01*
G01*
X16309138Y-5692500D02*
G75*
G03*
X16309138Y-5692500I-40000J0D01*
G01*
X16309138Y-6454500D02*
G75*
G03*
X16309138Y-6454500I-40000J0D01*
G01*
X16563138Y-5692500D02*
G75*
G03*
X16563138Y-5692500I-40000J0D01*
G01*
X16563138Y-6454500D02*
G75*
G03*
X16563138Y-6454500I-40000J0D01*
G01*
D13*
X7820638Y-7532500D02*
X7820638Y-7632500D01*
X7770638Y-7582500D02*
X7870638Y-7582500D01*
X7820638Y-7900000D02*
X7820638Y-8000000D01*
X7770638Y-7950000D02*
X7870638Y-7950000D01*
X8074638Y-7532500D02*
X8074638Y-7632500D01*
X8024638Y-7582500D02*
X8124638Y-7582500D01*
X8074638Y-7900000D02*
X8074638Y-8000000D01*
X8024638Y-7950000D02*
X8124638Y-7950000D01*
X8328638Y-7532500D02*
X8328638Y-7632500D01*
X8278638Y-7582500D02*
X8378638Y-7582500D01*
X8328638Y-7900000D02*
X8328638Y-8000000D01*
X8278638Y-7950000D02*
X8378638Y-7950000D01*
X8582638Y-7532500D02*
X8582638Y-7632500D01*
X8532638Y-7582500D02*
X8632638Y-7582500D01*
X8582638Y-7900000D02*
X8582638Y-8000000D01*
X8532638Y-7950000D02*
X8632638Y-7950000D01*
X8836638Y-7900000D02*
X8836638Y-8000000D01*
X8786638Y-7950000D02*
X8886638Y-7950000D01*
X9090638Y-7900000D02*
X9090638Y-8000000D01*
X9040638Y-7950000D02*
X9140638Y-7950000D01*
X9344638Y-7900000D02*
X9344638Y-8000000D01*
X9294638Y-7950000D02*
X9394638Y-7950000D01*
X9598638Y-7900000D02*
X9598638Y-8000000D01*
X9548638Y-7950000D02*
X9648638Y-7950000D01*
X9852638Y-7900000D02*
X9852638Y-8000000D01*
X9802638Y-7950000D02*
X9902638Y-7950000D01*
D14*
X19946529Y-9833891D02*
X19946529Y-9756109D01*
X19868747Y-9756109D01*
X19868747Y-9833891D01*
X19946529Y-9833891D01*
X20200529Y-9833891D02*
X20200529Y-9756109D01*
X20122747Y-9756109D01*
X20122747Y-9833891D01*
X20200529Y-9833891D01*
X20454529Y-9833891D02*
X20454529Y-9756109D01*
X20376747Y-9756109D01*
X20376747Y-9833891D01*
X20454529Y-9833891D01*
X20475529Y-9049391D02*
X20475529Y-8971609D01*
X20397747Y-8971609D01*
X20397747Y-9049391D01*
X20475529Y-9049391D01*
X20729529Y-9049391D02*
X20729529Y-8971609D01*
X20651747Y-8971609D01*
X20651747Y-9049391D01*
X20729529Y-9049391D01*
X20983529Y-9049391D02*
X20983529Y-8971609D01*
X20905747Y-8971609D01*
X20905747Y-9049391D01*
X20983529Y-9049391D01*
D15*
X8472138Y-9103000D02*
X8537138Y-9038000D01*
X8472138Y-8973000D01*
X8407138Y-9038000D01*
X8472138Y-9103000D01*
X8472138Y-10323000D02*
X8537138Y-10258000D01*
X8472138Y-10193000D01*
X8407138Y-10258000D01*
X8472138Y-10323000D01*
X9072138Y-8903000D02*
X9137138Y-8838000D01*
X9072138Y-8773000D01*
X9007138Y-8838000D01*
X9072138Y-8903000D01*
X9672138Y-9103000D02*
X9737138Y-9038000D01*
X9672138Y-8973000D01*
X9607138Y-9038000D01*
X9672138Y-9103000D01*
X9672138Y-10323000D02*
X9737138Y-10258000D01*
X9672138Y-10193000D01*
X9607138Y-10258000D01*
X9672138Y-10323000D01*
X10250138Y-9103000D02*
X10315138Y-9038000D01*
X10250138Y-8973000D01*
X10185138Y-9038000D01*
X10250138Y-9103000D01*
X10250138Y-10323000D02*
X10315138Y-10258000D01*
X10250138Y-10193000D01*
X10185138Y-10258000D01*
X10250138Y-10323000D01*
X10850138Y-8903000D02*
X10915138Y-8838000D01*
X10850138Y-8773000D01*
X10785138Y-8838000D01*
X10850138Y-8903000D01*
X11450138Y-9103000D02*
X11515138Y-9038000D01*
X11450138Y-8973000D01*
X11385138Y-9038000D01*
X11450138Y-9103000D01*
X11450138Y-10323000D02*
X11515138Y-10258000D01*
X11450138Y-10193000D01*
X11385138Y-10258000D01*
X11450138Y-10323000D01*
X12028138Y-9103000D02*
X12093138Y-9038000D01*
X12028138Y-8973000D01*
X11963138Y-9038000D01*
X12028138Y-9103000D01*
X12028138Y-10323000D02*
X12093138Y-10258000D01*
X12028138Y-10193000D01*
X11963138Y-10258000D01*
X12028138Y-10323000D01*
X12628138Y-8903000D02*
X12693138Y-8838000D01*
X12628138Y-8773000D01*
X12563138Y-8838000D01*
X12628138Y-8903000D01*
X13228138Y-9103000D02*
X13293138Y-9038000D01*
X13228138Y-8973000D01*
X13163138Y-9038000D01*
X13228138Y-9103000D01*
X13228138Y-10323000D02*
X13293138Y-10258000D01*
X13228138Y-10193000D01*
X13163138Y-10258000D01*
X13228138Y-10323000D01*
X13806138Y-9103000D02*
X13871138Y-9038000D01*
X13806138Y-8973000D01*
X13741138Y-9038000D01*
X13806138Y-9103000D01*
X13806138Y-10323000D02*
X13871138Y-10258000D01*
X13806138Y-10193000D01*
X13741138Y-10258000D01*
X13806138Y-10323000D01*
X14406138Y-8903000D02*
X14471138Y-8838000D01*
X14406138Y-8773000D01*
X14341138Y-8838000D01*
X14406138Y-8903000D01*
X15006138Y-9103000D02*
X15071138Y-9038000D01*
X15006138Y-8973000D01*
X14941138Y-9038000D01*
X15006138Y-9103000D01*
X15006138Y-10323000D02*
X15071138Y-10258000D01*
X15006138Y-10193000D01*
X14941138Y-10258000D01*
X15006138Y-10323000D01*
D16*
X8423638Y-5066500D02*
X8575638Y-5218500D01*
X8575638Y-5066500D02*
X8423638Y-5218500D01*
X8575638Y-5142500D02*
G75*
G03*
X8575638Y-5142500I-76000J0D01*
G01*
X8479138Y-10971500D02*
X8631138Y-11123500D01*
X8631138Y-10971500D02*
X8479138Y-11123500D01*
X8631138Y-11047500D02*
G75*
G03*
X8631138Y-11047500I-76000J0D01*
G01*
X8931638Y-5066500D02*
X9083638Y-5218500D01*
X9083638Y-5066500D02*
X8931638Y-5218500D01*
X9083638Y-5142500D02*
G75*
G03*
X9083638Y-5142500I-76000J0D01*
G01*
X8987138Y-10971500D02*
X9139138Y-11123500D01*
X9139138Y-10971500D02*
X8987138Y-11123500D01*
X9139138Y-11047500D02*
G75*
G03*
X9139138Y-11047500I-76000J0D01*
G01*
X9439638Y-5066500D02*
X9591638Y-5218500D01*
X9591638Y-5066500D02*
X9439638Y-5218500D01*
X9591638Y-5142500D02*
G75*
G03*
X9591638Y-5142500I-76000J0D01*
G01*
X9495138Y-10971500D02*
X9647138Y-11123500D01*
X9647138Y-10971500D02*
X9495138Y-11123500D01*
X9647138Y-11047500D02*
G75*
G03*
X9647138Y-11047500I-76000J0D01*
G01*
X10101638Y-5059000D02*
X10253638Y-5211000D01*
X10253638Y-5059000D02*
X10101638Y-5211000D01*
X10253638Y-5135000D02*
G75*
G03*
X10253638Y-5135000I-76000J0D01*
G01*
X10264138Y-10966500D02*
X10416138Y-11118500D01*
X10416138Y-10966500D02*
X10264138Y-11118500D01*
X10416138Y-11042500D02*
G75*
G03*
X10416138Y-11042500I-76000J0D01*
G01*
X10609638Y-5059000D02*
X10761638Y-5211000D01*
X10761638Y-5059000D02*
X10609638Y-5211000D01*
X10761638Y-5135000D02*
G75*
G03*
X10761638Y-5135000I-76000J0D01*
G01*
X10772138Y-10966500D02*
X10924138Y-11118500D01*
X10924138Y-10966500D02*
X10772138Y-11118500D01*
X10924138Y-11042500D02*
G75*
G03*
X10924138Y-11042500I-76000J0D01*
G01*
X11216138Y-5049000D02*
X11368138Y-5201000D01*
X11368138Y-5049000D02*
X11216138Y-5201000D01*
X11368138Y-5125000D02*
G75*
G03*
X11368138Y-5125000I-76000J0D01*
G01*
X11280138Y-10966500D02*
X11432138Y-11118500D01*
X11432138Y-10966500D02*
X11280138Y-11118500D01*
X11432138Y-11042500D02*
G75*
G03*
X11432138Y-11042500I-76000J0D01*
G01*
X11724138Y-5049000D02*
X11876138Y-5201000D01*
X11876138Y-5049000D02*
X11724138Y-5201000D01*
X11876138Y-5125000D02*
G75*
G03*
X11876138Y-5125000I-76000J0D01*
G01*
X12034138Y-10971500D02*
X12186138Y-11123500D01*
X12186138Y-10971500D02*
X12034138Y-11123500D01*
X12186138Y-11047500D02*
G75*
G03*
X12186138Y-11047500I-76000J0D01*
G01*
X12232138Y-5049000D02*
X12384138Y-5201000D01*
X12384138Y-5049000D02*
X12232138Y-5201000D01*
X12384138Y-5125000D02*
G75*
G03*
X12384138Y-5125000I-76000J0D01*
G01*
X12542138Y-10971500D02*
X12694138Y-11123500D01*
X12694138Y-10971500D02*
X12542138Y-11123500D01*
X12694138Y-11047500D02*
G75*
G03*
X12694138Y-11047500I-76000J0D01*
G01*
X13050138Y-10971500D02*
X13202138Y-11123500D01*
X13202138Y-10971500D02*
X13050138Y-11123500D01*
X13202138Y-11047500D02*
G75*
G03*
X13202138Y-11047500I-76000J0D01*
G01*
X13391138Y-5021500D02*
X13543138Y-5173500D01*
X13543138Y-5021500D02*
X13391138Y-5173500D01*
X13543138Y-5097500D02*
G75*
G03*
X13543138Y-5097500I-76000J0D01*
G01*
X13811638Y-10966500D02*
X13963638Y-11118500D01*
X13963638Y-10966500D02*
X13811638Y-11118500D01*
X13963638Y-11042500D02*
G75*
G03*
X13963638Y-11042500I-76000J0D01*
G01*
X13899138Y-5021500D02*
X14051138Y-5173500D01*
X14051138Y-5021500D02*
X13899138Y-5173500D01*
X14051138Y-5097500D02*
G75*
G03*
X14051138Y-5097500I-76000J0D01*
G01*
X14319638Y-10966500D02*
X14471638Y-11118500D01*
X14471638Y-10966500D02*
X14319638Y-11118500D01*
X14471638Y-11042500D02*
G75*
G03*
X14471638Y-11042500I-76000J0D01*
G01*
X14407138Y-5021500D02*
X14559138Y-5173500D01*
X14559138Y-5021500D02*
X14407138Y-5173500D01*
X14559138Y-5097500D02*
G75*
G03*
X14559138Y-5097500I-76000J0D01*
G01*
X14827638Y-10966500D02*
X14979638Y-11118500D01*
X14979638Y-10966500D02*
X14827638Y-11118500D01*
X14979638Y-11042500D02*
G75*
G03*
X14979638Y-11042500I-76000J0D01*
G01*
X15021638Y-5009000D02*
X15173638Y-5161000D01*
X15173638Y-5009000D02*
X15021638Y-5161000D01*
X15173638Y-5085000D02*
G75*
G03*
X15173638Y-5085000I-76000J0D01*
G01*
X15529638Y-5009000D02*
X15681638Y-5161000D01*
X15681638Y-5009000D02*
X15529638Y-5161000D01*
X15681638Y-5085000D02*
G75*
G03*
X15681638Y-5085000I-76000J0D01*
G01*
X15540638Y-10966500D02*
X15692638Y-11118500D01*
X15692638Y-10966500D02*
X15540638Y-11118500D01*
X15692638Y-11042500D02*
G75*
G03*
X15692638Y-11042500I-76000J0D01*
G01*
X16048638Y-10966500D02*
X16200638Y-11118500D01*
X16200638Y-10966500D02*
X16048638Y-11118500D01*
X16200638Y-11042500D02*
G75*
G03*
X16200638Y-11042500I-76000J0D01*
G01*
X16220638Y-5014000D02*
X16372638Y-5166000D01*
X16372638Y-5014000D02*
X16220638Y-5166000D01*
X16372638Y-5090000D02*
G75*
G03*
X16372638Y-5090000I-76000J0D01*
G01*
X16670638Y-10971500D02*
X16822638Y-11123500D01*
X16822638Y-10971500D02*
X16670638Y-11123500D01*
X16822638Y-11047500D02*
G75*
G03*
X16822638Y-11047500I-76000J0D01*
G01*
X16728638Y-5014000D02*
X16880638Y-5166000D01*
X16880638Y-5014000D02*
X16728638Y-5166000D01*
X16880638Y-5090000D02*
G75*
G03*
X16880638Y-5090000I-76000J0D01*
G01*
X17178638Y-10971500D02*
X17330638Y-11123500D01*
X17330638Y-10971500D02*
X17178638Y-11123500D01*
X17330638Y-11047500D02*
G75*
G03*
X17330638Y-11047500I-76000J0D01*
G01*
X17818138Y-10971500D02*
X17970138Y-11123500D01*
X17970138Y-10971500D02*
X17818138Y-11123500D01*
X17970138Y-11047500D02*
G75*
G03*
X17970138Y-11047500I-76000J0D01*
G01*
X18326138Y-10971500D02*
X18478138Y-11123500D01*
X18478138Y-10971500D02*
X18326138Y-11123500D01*
X18478138Y-11047500D02*
G75*
G03*
X18478138Y-11047500I-76000J0D01*
G01*
X18953138Y-10966500D02*
X19105138Y-11118500D01*
X19105138Y-10966500D02*
X18953138Y-11118500D01*
X19105138Y-11042500D02*
G75*
G03*
X19105138Y-11042500I-76000J0D01*
G01*
X19461138Y-10966500D02*
X19613138Y-11118500D01*
X19613138Y-10966500D02*
X19461138Y-11118500D01*
X19613138Y-11042500D02*
G75*
G03*
X19613138Y-11042500I-76000J0D01*
G01*
X20101638Y-10971500D02*
X20253638Y-11123500D01*
X20253638Y-10971500D02*
X20101638Y-11123500D01*
X20253638Y-11047500D02*
G75*
G03*
X20253638Y-11047500I-76000J0D01*
G01*
X20609638Y-10971500D02*
X20761638Y-11123500D01*
X20761638Y-10971500D02*
X20609638Y-11123500D01*
X20761638Y-11047500D02*
G75*
G03*
X20761638Y-11047500I-76000J0D01*
G01*
X21117638Y-10971500D02*
X21269638Y-11123500D01*
X21269638Y-10971500D02*
X21117638Y-11123500D01*
X21269638Y-11047500D02*
G75*
G03*
X21269638Y-11047500I-76000J0D01*
G01*
X21251638Y-5312500D02*
X21403638Y-5464500D01*
X21403638Y-5312500D02*
X21251638Y-5464500D01*
X21403638Y-5388500D02*
G75*
G03*
X21403638Y-5388500I-76000J0D01*
G01*
X21251638Y-5820500D02*
X21403638Y-5972500D01*
X21403638Y-5820500D02*
X21251638Y-5972500D01*
X21403638Y-5896500D02*
G75*
G03*
X21403638Y-5896500I-76000J0D01*
G01*
D10*
X257619Y-310476D02*
X257619Y-110476D01*
X305238Y-110476D01*
X333810Y-120000D01*
X352857Y-139048D01*
X362381Y-158095D01*
X371905Y-196190D01*
X371905Y-224762D01*
X362381Y-262857D01*
X352857Y-281905D01*
X333810Y-300952D01*
X305238Y-310476D01*
X257619Y-310476D01*
X457619Y-310476D02*
X457619Y-177143D01*
X457619Y-215238D02*
X467143Y-196190D01*
X476667Y-186667D01*
X495714Y-177143D01*
X514762Y-177143D01*
X581429Y-310476D02*
X581429Y-177143D01*
X581429Y-110476D02*
X571905Y-120000D01*
X581429Y-129524D01*
X590952Y-120000D01*
X581429Y-110476D01*
X581429Y-129524D01*
X705238Y-310476D02*
X686190Y-300952D01*
X676667Y-281905D01*
X676667Y-110476D01*
X810000Y-310476D02*
X790952Y-300952D01*
X781428Y-281905D01*
X781428Y-110476D01*
X1038571Y-310476D02*
X1038571Y-110476D01*
X1105238Y-253333D01*
X1171905Y-110476D01*
X1171905Y-310476D01*
X1352857Y-310476D02*
X1352857Y-205714D01*
X1343333Y-186667D01*
X1324286Y-177143D01*
X1286190Y-177143D01*
X1267143Y-186667D01*
X1352857Y-300952D02*
X1333810Y-310476D01*
X1286190Y-310476D01*
X1267143Y-300952D01*
X1257619Y-281905D01*
X1257619Y-262857D01*
X1267143Y-243809D01*
X1286190Y-234286D01*
X1333810Y-234286D01*
X1352857Y-224762D01*
X1448095Y-177143D02*
X1448095Y-377143D01*
X1448095Y-186667D02*
X1467143Y-177143D01*
X1505238Y-177143D01*
X1524286Y-186667D01*
X1533809Y-196190D01*
X1543333Y-215238D01*
X1543333Y-272381D01*
X1533809Y-291429D01*
X1524286Y-300952D01*
X1505238Y-310476D01*
X1467143Y-310476D01*
X1448095Y-300952D01*
X1629048Y-291429D02*
X1638571Y-300952D01*
X1629048Y-310476D01*
X1619524Y-300952D01*
X1629048Y-291429D01*
X1629048Y-310476D01*
X1629048Y-186667D02*
X1638571Y-196190D01*
X1629048Y-205714D01*
X1619524Y-196190D01*
X1629048Y-186667D01*
X1629048Y-205714D01*
D11*
X-40000Y-620000D02*
X0Y-660000D01*
X0Y-620000D02*
X-40000Y-660000D01*
D10*
X295714Y-530476D02*
X314762Y-530476D01*
X333810Y-540000D01*
X343333Y-549524D01*
X352857Y-568571D01*
X362381Y-606667D01*
X362381Y-654286D01*
X352857Y-692381D01*
X343333Y-711428D01*
X333810Y-720952D01*
X314762Y-730476D01*
X295714Y-730476D01*
X276667Y-720952D01*
X267143Y-711428D01*
X257619Y-692381D01*
X248095Y-654286D01*
X248095Y-606667D01*
X257619Y-568571D01*
X267143Y-549524D01*
X276667Y-540000D01*
X295714Y-530476D01*
X448095Y-711428D02*
X457619Y-720952D01*
X448095Y-730476D01*
X438571Y-720952D01*
X448095Y-711428D01*
X448095Y-730476D01*
X629048Y-597143D02*
X629048Y-730476D01*
X581429Y-520952D02*
X533810Y-663810D01*
X657619Y-663810D01*
X771905Y-530476D02*
X790952Y-530476D01*
X810000Y-540000D01*
X819524Y-549524D01*
X829048Y-568571D01*
X838571Y-606667D01*
X838571Y-654286D01*
X829048Y-692381D01*
X819524Y-711428D01*
X810000Y-720952D01*
X790952Y-730476D01*
X771905Y-730476D01*
X752857Y-720952D01*
X743333Y-711428D01*
X733809Y-692381D01*
X724286Y-654286D01*
X724286Y-606667D01*
X733809Y-568571D01*
X743333Y-549524D01*
X752857Y-540000D01*
X771905Y-530476D01*
X962381Y-530476D02*
X981428Y-530476D01*
X1000476Y-540000D01*
X1010000Y-549524D01*
X1019524Y-568571D01*
X1029048Y-606667D01*
X1029048Y-654286D01*
X1019524Y-692381D01*
X1010000Y-711428D01*
X1000476Y-720952D01*
X981428Y-730476D01*
X962381Y-730476D01*
X943333Y-720952D01*
X933809Y-711428D01*
X924286Y-692381D01*
X914762Y-654286D01*
X914762Y-606667D01*
X924286Y-568571D01*
X933809Y-549524D01*
X943333Y-540000D01*
X962381Y-530476D01*
X1114762Y-730476D02*
X1114762Y-597143D01*
X1114762Y-616190D02*
X1124286Y-606667D01*
X1143333Y-597143D01*
X1171905Y-597143D01*
X1190952Y-606667D01*
X1200476Y-625714D01*
X1200476Y-730476D01*
X1200476Y-625714D02*
X1210000Y-606667D01*
X1229048Y-597143D01*
X1257619Y-597143D01*
X1276667Y-606667D01*
X1286190Y-625714D01*
X1286190Y-730476D01*
X1381429Y-730476D02*
X1381429Y-597143D01*
X1381429Y-616190D02*
X1390952Y-606667D01*
X1410000Y-597143D01*
X1438571Y-597143D01*
X1457619Y-606667D01*
X1467143Y-625714D01*
X1467143Y-730476D01*
X1467143Y-625714D02*
X1476667Y-606667D01*
X1495714Y-597143D01*
X1524286Y-597143D01*
X1543333Y-606667D01*
X1552857Y-625714D01*
X1552857Y-730476D01*
X1943333Y-520952D02*
X1771905Y-778095D01*
X2200476Y-530476D02*
X2219524Y-530476D01*
X2238571Y-540000D01*
X2248095Y-549524D01*
X2257619Y-568571D01*
X2267143Y-606667D01*
X2267143Y-654286D01*
X2257619Y-692381D01*
X2248095Y-711428D01*
X2238571Y-720952D01*
X2219524Y-730476D01*
X2200476Y-730476D01*
X2181429Y-720952D01*
X2171905Y-711428D01*
X2162381Y-692381D01*
X2152857Y-654286D01*
X2152857Y-606667D01*
X2162381Y-568571D01*
X2171905Y-549524D01*
X2181429Y-540000D01*
X2200476Y-530476D01*
X2352857Y-711428D02*
X2362381Y-720952D01*
X2352857Y-730476D01*
X2343333Y-720952D01*
X2352857Y-711428D01*
X2352857Y-730476D01*
X2486190Y-530476D02*
X2505238Y-530476D01*
X2524286Y-540000D01*
X2533810Y-549524D01*
X2543333Y-568571D01*
X2552857Y-606667D01*
X2552857Y-654286D01*
X2543333Y-692381D01*
X2533810Y-711428D01*
X2524286Y-720952D01*
X2505238Y-730476D01*
X2486190Y-730476D01*
X2467143Y-720952D01*
X2457619Y-711428D01*
X2448095Y-692381D01*
X2438571Y-654286D01*
X2438571Y-606667D01*
X2448095Y-568571D01*
X2457619Y-549524D01*
X2467143Y-540000D01*
X2486190Y-530476D01*
X2743333Y-730476D02*
X2629048Y-730476D01*
X2686190Y-730476D02*
X2686190Y-530476D01*
X2667143Y-559048D01*
X2648095Y-578095D01*
X2629048Y-587619D01*
X2924286Y-530476D02*
X2829048Y-530476D01*
X2819524Y-625714D01*
X2829048Y-616190D01*
X2848095Y-606667D01*
X2895714Y-606667D01*
X2914762Y-616190D01*
X2924286Y-625714D01*
X2933809Y-644762D01*
X2933809Y-692381D01*
X2924286Y-711428D01*
X2914762Y-720952D01*
X2895714Y-730476D01*
X2848095Y-730476D01*
X2829048Y-720952D01*
X2819524Y-711428D01*
X3000476Y-530476D02*
X3133809Y-530476D01*
X3048095Y-730476D01*
X3200476Y-530476D02*
X3200476Y-568571D01*
X3276667Y-530476D02*
X3276667Y-568571D01*
X3571905Y-806667D02*
X3562381Y-797143D01*
X3543333Y-768571D01*
X3533809Y-749524D01*
X3524286Y-720952D01*
X3514762Y-673333D01*
X3514762Y-635238D01*
X3524286Y-587619D01*
X3533809Y-559048D01*
X3543333Y-540000D01*
X3562381Y-511428D01*
X3571905Y-501905D01*
X3752857Y-730476D02*
X3638571Y-730476D01*
X3695714Y-730476D02*
X3695714Y-530476D01*
X3676667Y-559048D01*
X3657619Y-578095D01*
X3638571Y-587619D01*
X3933809Y-530476D02*
X3838571Y-530476D01*
X3829048Y-625714D01*
X3838571Y-616190D01*
X3857619Y-606667D01*
X3905238Y-606667D01*
X3924286Y-616190D01*
X3933809Y-625714D01*
X3943333Y-644762D01*
X3943333Y-692381D01*
X3933809Y-711428D01*
X3924286Y-720952D01*
X3905238Y-730476D01*
X3857619Y-730476D01*
X3838571Y-720952D01*
X3829048Y-711428D01*
X4010000Y-530476D02*
X4133809Y-530476D01*
X4067143Y-606667D01*
X4095714Y-606667D01*
X4114762Y-616190D01*
X4124286Y-625714D01*
X4133809Y-644762D01*
X4133809Y-692381D01*
X4124286Y-711428D01*
X4114762Y-720952D01*
X4095714Y-730476D01*
X4038571Y-730476D01*
X4019524Y-720952D01*
X4010000Y-711428D01*
X4371905Y-730476D02*
X4371905Y-530476D01*
X4457619Y-730476D02*
X4457619Y-625714D01*
X4448095Y-606667D01*
X4429048Y-597143D01*
X4400476Y-597143D01*
X4381429Y-606667D01*
X4371905Y-616190D01*
X4581429Y-730476D02*
X4562381Y-720952D01*
X4552857Y-711428D01*
X4543333Y-692381D01*
X4543333Y-635238D01*
X4552857Y-616190D01*
X4562381Y-606667D01*
X4581429Y-597143D01*
X4610000Y-597143D01*
X4629048Y-606667D01*
X4638571Y-616190D01*
X4648095Y-635238D01*
X4648095Y-692381D01*
X4638571Y-711428D01*
X4629048Y-720952D01*
X4610000Y-730476D01*
X4581429Y-730476D01*
X4762381Y-730476D02*
X4743333Y-720952D01*
X4733810Y-701905D01*
X4733810Y-530476D01*
X4914762Y-720952D02*
X4895714Y-730476D01*
X4857619Y-730476D01*
X4838571Y-720952D01*
X4829048Y-701905D01*
X4829048Y-625714D01*
X4838571Y-606667D01*
X4857619Y-597143D01*
X4895714Y-597143D01*
X4914762Y-606667D01*
X4924286Y-625714D01*
X4924286Y-644762D01*
X4829048Y-663810D01*
X5000476Y-720952D02*
X5019524Y-730476D01*
X5057619Y-730476D01*
X5076667Y-720952D01*
X5086190Y-701905D01*
X5086190Y-692381D01*
X5076667Y-673333D01*
X5057619Y-663810D01*
X5029048Y-663810D01*
X5010000Y-654286D01*
X5000476Y-635238D01*
X5000476Y-625714D01*
X5010000Y-606667D01*
X5029048Y-597143D01*
X5057619Y-597143D01*
X5076667Y-606667D01*
X5152857Y-806667D02*
X5162381Y-797143D01*
X5181429Y-768571D01*
X5190952Y-749524D01*
X5200476Y-720952D01*
X5210000Y-673333D01*
X5210000Y-635238D01*
X5200476Y-587619D01*
X5190952Y-559048D01*
X5181429Y-540000D01*
X5162381Y-511428D01*
X5152857Y-501905D01*
D12*
X0Y-904000D02*
G75*
G03*
X0Y-904000I-40000J0D01*
G01*
D10*
X295714Y-794476D02*
X314762Y-794476D01*
X333810Y-804000D01*
X343333Y-813524D01*
X352857Y-832571D01*
X362381Y-870667D01*
X362381Y-918286D01*
X352857Y-956381D01*
X343333Y-975428D01*
X333810Y-984952D01*
X314762Y-994476D01*
X295714Y-994476D01*
X276667Y-984952D01*
X267143Y-975428D01*
X257619Y-956381D01*
X248095Y-918286D01*
X248095Y-870667D01*
X257619Y-832571D01*
X267143Y-813524D01*
X276667Y-804000D01*
X295714Y-794476D01*
X448095Y-975428D02*
X457619Y-984952D01*
X448095Y-994476D01*
X438571Y-984952D01*
X448095Y-975428D01*
X448095Y-994476D01*
X571905Y-880190D02*
X552857Y-870667D01*
X543333Y-861143D01*
X533810Y-842095D01*
X533810Y-832571D01*
X543333Y-813524D01*
X552857Y-804000D01*
X571905Y-794476D01*
X610000Y-794476D01*
X629048Y-804000D01*
X638571Y-813524D01*
X648095Y-832571D01*
X648095Y-842095D01*
X638571Y-861143D01*
X629048Y-870667D01*
X610000Y-880190D01*
X571905Y-880190D01*
X552857Y-889714D01*
X543333Y-899238D01*
X533810Y-918286D01*
X533810Y-956381D01*
X543333Y-975428D01*
X552857Y-984952D01*
X571905Y-994476D01*
X610000Y-994476D01*
X629048Y-984952D01*
X638571Y-975428D01*
X648095Y-956381D01*
X648095Y-918286D01*
X638571Y-899238D01*
X629048Y-889714D01*
X610000Y-880190D01*
X771905Y-794476D02*
X790952Y-794476D01*
X810000Y-804000D01*
X819524Y-813524D01*
X829048Y-832571D01*
X838571Y-870667D01*
X838571Y-918286D01*
X829048Y-956381D01*
X819524Y-975428D01*
X810000Y-984952D01*
X790952Y-994476D01*
X771905Y-994476D01*
X752857Y-984952D01*
X743333Y-975428D01*
X733809Y-956381D01*
X724286Y-918286D01*
X724286Y-870667D01*
X733809Y-832571D01*
X743333Y-813524D01*
X752857Y-804000D01*
X771905Y-794476D01*
X962381Y-794476D02*
X981428Y-794476D01*
X1000476Y-804000D01*
X1010000Y-813524D01*
X1019524Y-832571D01*
X1029048Y-870667D01*
X1029048Y-918286D01*
X1019524Y-956381D01*
X1010000Y-975428D01*
X1000476Y-984952D01*
X981428Y-994476D01*
X962381Y-994476D01*
X943333Y-984952D01*
X933809Y-975428D01*
X924286Y-956381D01*
X914762Y-918286D01*
X914762Y-870667D01*
X924286Y-832571D01*
X933809Y-813524D01*
X943333Y-804000D01*
X962381Y-794476D01*
X1114762Y-994476D02*
X1114762Y-861143D01*
X1114762Y-880190D02*
X1124286Y-870667D01*
X1143333Y-861143D01*
X1171905Y-861143D01*
X1190952Y-870667D01*
X1200476Y-889714D01*
X1200476Y-994476D01*
X1200476Y-889714D02*
X1210000Y-870667D01*
X1229048Y-861143D01*
X1257619Y-861143D01*
X1276667Y-870667D01*
X1286190Y-889714D01*
X1286190Y-994476D01*
X1381429Y-994476D02*
X1381429Y-861143D01*
X1381429Y-880190D02*
X1390952Y-870667D01*
X1410000Y-861143D01*
X1438571Y-861143D01*
X1457619Y-870667D01*
X1467143Y-889714D01*
X1467143Y-994476D01*
X1467143Y-889714D02*
X1476667Y-870667D01*
X1495714Y-861143D01*
X1524286Y-861143D01*
X1543333Y-870667D01*
X1552857Y-889714D01*
X1552857Y-994476D01*
X1943333Y-784952D02*
X1771905Y-1042095D01*
X2200476Y-794476D02*
X2219524Y-794476D01*
X2238571Y-804000D01*
X2248095Y-813524D01*
X2257619Y-832571D01*
X2267143Y-870667D01*
X2267143Y-918286D01*
X2257619Y-956381D01*
X2248095Y-975428D01*
X2238571Y-984952D01*
X2219524Y-994476D01*
X2200476Y-994476D01*
X2181429Y-984952D01*
X2171905Y-975428D01*
X2162381Y-956381D01*
X2152857Y-918286D01*
X2152857Y-870667D01*
X2162381Y-832571D01*
X2171905Y-813524D01*
X2181429Y-804000D01*
X2200476Y-794476D01*
X2352857Y-975428D02*
X2362381Y-984952D01*
X2352857Y-994476D01*
X2343333Y-984952D01*
X2352857Y-975428D01*
X2352857Y-994476D01*
X2486190Y-794476D02*
X2505238Y-794476D01*
X2524286Y-804000D01*
X2533810Y-813524D01*
X2543333Y-832571D01*
X2552857Y-870667D01*
X2552857Y-918286D01*
X2543333Y-956381D01*
X2533810Y-975428D01*
X2524286Y-984952D01*
X2505238Y-994476D01*
X2486190Y-994476D01*
X2467143Y-984952D01*
X2457619Y-975428D01*
X2448095Y-956381D01*
X2438571Y-918286D01*
X2438571Y-870667D01*
X2448095Y-832571D01*
X2457619Y-813524D01*
X2467143Y-804000D01*
X2486190Y-794476D01*
X2619524Y-794476D02*
X2743333Y-794476D01*
X2676667Y-870667D01*
X2705238Y-870667D01*
X2724286Y-880190D01*
X2733810Y-889714D01*
X2743333Y-908762D01*
X2743333Y-956381D01*
X2733810Y-975428D01*
X2724286Y-984952D01*
X2705238Y-994476D01*
X2648095Y-994476D01*
X2629048Y-984952D01*
X2619524Y-975428D01*
X2933809Y-994476D02*
X2819524Y-994476D01*
X2876667Y-994476D02*
X2876667Y-794476D01*
X2857619Y-823048D01*
X2838571Y-842095D01*
X2819524Y-851619D01*
X3114762Y-794476D02*
X3019524Y-794476D01*
X3010000Y-889714D01*
X3019524Y-880190D01*
X3038571Y-870667D01*
X3086190Y-870667D01*
X3105238Y-880190D01*
X3114762Y-889714D01*
X3124286Y-908762D01*
X3124286Y-956381D01*
X3114762Y-975428D01*
X3105238Y-984952D01*
X3086190Y-994476D01*
X3038571Y-994476D01*
X3019524Y-984952D01*
X3010000Y-975428D01*
X3200476Y-794476D02*
X3200476Y-832571D01*
X3276667Y-794476D02*
X3276667Y-832571D01*
X3571905Y-1070667D02*
X3562381Y-1061143D01*
X3543333Y-1032571D01*
X3533809Y-1013524D01*
X3524286Y-984952D01*
X3514762Y-937333D01*
X3514762Y-899238D01*
X3524286Y-851619D01*
X3533809Y-823048D01*
X3543333Y-804000D01*
X3562381Y-775428D01*
X3571905Y-765905D01*
X3752857Y-994476D02*
X3638571Y-994476D01*
X3695714Y-994476D02*
X3695714Y-794476D01*
X3676667Y-823048D01*
X3657619Y-842095D01*
X3638571Y-851619D01*
X3876667Y-794476D02*
X3895714Y-794476D01*
X3914762Y-804000D01*
X3924286Y-813524D01*
X3933809Y-832571D01*
X3943333Y-870667D01*
X3943333Y-918286D01*
X3933809Y-956381D01*
X3924286Y-975428D01*
X3914762Y-984952D01*
X3895714Y-994476D01*
X3876667Y-994476D01*
X3857619Y-984952D01*
X3848095Y-975428D01*
X3838571Y-956381D01*
X3829048Y-918286D01*
X3829048Y-870667D01*
X3838571Y-832571D01*
X3848095Y-813524D01*
X3857619Y-804000D01*
X3876667Y-794476D01*
X4181428Y-994476D02*
X4181428Y-794476D01*
X4267143Y-994476D02*
X4267143Y-889714D01*
X4257619Y-870667D01*
X4238571Y-861143D01*
X4210000Y-861143D01*
X4190952Y-870667D01*
X4181428Y-880190D01*
X4390952Y-994476D02*
X4371905Y-984952D01*
X4362381Y-975428D01*
X4352857Y-956381D01*
X4352857Y-899238D01*
X4362381Y-880190D01*
X4371905Y-870667D01*
X4390952Y-861143D01*
X4419524Y-861143D01*
X4438571Y-870667D01*
X4448095Y-880190D01*
X4457619Y-899238D01*
X4457619Y-956381D01*
X4448095Y-975428D01*
X4438571Y-984952D01*
X4419524Y-994476D01*
X4390952Y-994476D01*
X4571905Y-994476D02*
X4552857Y-984952D01*
X4543333Y-965905D01*
X4543333Y-794476D01*
X4724286Y-984952D02*
X4705238Y-994476D01*
X4667143Y-994476D01*
X4648095Y-984952D01*
X4638571Y-965905D01*
X4638571Y-889714D01*
X4648095Y-870667D01*
X4667143Y-861143D01*
X4705238Y-861143D01*
X4724286Y-870667D01*
X4733810Y-889714D01*
X4733810Y-908762D01*
X4638571Y-927809D01*
X4810000Y-984952D02*
X4829048Y-994476D01*
X4867143Y-994476D01*
X4886190Y-984952D01*
X4895714Y-965905D01*
X4895714Y-956381D01*
X4886190Y-937333D01*
X4867143Y-927809D01*
X4838571Y-927809D01*
X4819524Y-918286D01*
X4810000Y-899238D01*
X4810000Y-889714D01*
X4819524Y-870667D01*
X4838571Y-861143D01*
X4867143Y-861143D01*
X4886190Y-870667D01*
X4962381Y-1070667D02*
X4971905Y-1061143D01*
X4990952Y-1032571D01*
X5000476Y-1013524D01*
X5010000Y-984952D01*
X5019524Y-937333D01*
X5019524Y-899238D01*
X5010000Y-851619D01*
X5000476Y-823048D01*
X4990952Y-804000D01*
X4971905Y-775428D01*
X4962381Y-765905D01*
D13*
X-50000Y-1118000D02*
X-50000Y-1218000D01*
X-100000Y-1168000D02*
X0Y-1168000D01*
D10*
X362381Y-1258476D02*
X248095Y-1258476D01*
X305238Y-1258476D02*
X305238Y-1058476D01*
X286190Y-1087048D01*
X267143Y-1106095D01*
X248095Y-1115619D01*
X448095Y-1239429D02*
X457619Y-1248952D01*
X448095Y-1258476D01*
X438571Y-1248952D01*
X448095Y-1239429D01*
X448095Y-1258476D01*
X581429Y-1058476D02*
X600476Y-1058476D01*
X619524Y-1068000D01*
X629048Y-1077524D01*
X638571Y-1096571D01*
X648095Y-1134667D01*
X648095Y-1182286D01*
X638571Y-1220381D01*
X629048Y-1239429D01*
X619524Y-1248952D01*
X600476Y-1258476D01*
X581429Y-1258476D01*
X562381Y-1248952D01*
X552857Y-1239429D01*
X543333Y-1220381D01*
X533810Y-1182286D01*
X533810Y-1134667D01*
X543333Y-1096571D01*
X552857Y-1077524D01*
X562381Y-1068000D01*
X581429Y-1058476D01*
X771905Y-1058476D02*
X790952Y-1058476D01*
X810000Y-1068000D01*
X819524Y-1077524D01*
X829048Y-1096571D01*
X838571Y-1134667D01*
X838571Y-1182286D01*
X829048Y-1220381D01*
X819524Y-1239429D01*
X810000Y-1248952D01*
X790952Y-1258476D01*
X771905Y-1258476D01*
X752857Y-1248952D01*
X743333Y-1239429D01*
X733809Y-1220381D01*
X724286Y-1182286D01*
X724286Y-1134667D01*
X733809Y-1096571D01*
X743333Y-1077524D01*
X752857Y-1068000D01*
X771905Y-1058476D01*
X962381Y-1058476D02*
X981428Y-1058476D01*
X1000476Y-1068000D01*
X1010000Y-1077524D01*
X1019524Y-1096571D01*
X1029048Y-1134667D01*
X1029048Y-1182286D01*
X1019524Y-1220381D01*
X1010000Y-1239429D01*
X1000476Y-1248952D01*
X981428Y-1258476D01*
X962381Y-1258476D01*
X943333Y-1248952D01*
X933809Y-1239429D01*
X924286Y-1220381D01*
X914762Y-1182286D01*
X914762Y-1134667D01*
X924286Y-1096571D01*
X933809Y-1077524D01*
X943333Y-1068000D01*
X962381Y-1058476D01*
X1114762Y-1258476D02*
X1114762Y-1125143D01*
X1114762Y-1144190D02*
X1124286Y-1134667D01*
X1143333Y-1125143D01*
X1171905Y-1125143D01*
X1190952Y-1134667D01*
X1200476Y-1153714D01*
X1200476Y-1258476D01*
X1200476Y-1153714D02*
X1210000Y-1134667D01*
X1229048Y-1125143D01*
X1257619Y-1125143D01*
X1276667Y-1134667D01*
X1286190Y-1153714D01*
X1286190Y-1258476D01*
X1381429Y-1258476D02*
X1381429Y-1125143D01*
X1381429Y-1144190D02*
X1390952Y-1134667D01*
X1410000Y-1125143D01*
X1438571Y-1125143D01*
X1457619Y-1134667D01*
X1467143Y-1153714D01*
X1467143Y-1258476D01*
X1467143Y-1153714D02*
X1476667Y-1134667D01*
X1495714Y-1125143D01*
X1524286Y-1125143D01*
X1543333Y-1134667D01*
X1552857Y-1153714D01*
X1552857Y-1258476D01*
X1943333Y-1048952D02*
X1771905Y-1306095D01*
X2200476Y-1058476D02*
X2219524Y-1058476D01*
X2238571Y-1068000D01*
X2248095Y-1077524D01*
X2257619Y-1096571D01*
X2267143Y-1134667D01*
X2267143Y-1182286D01*
X2257619Y-1220381D01*
X2248095Y-1239429D01*
X2238571Y-1248952D01*
X2219524Y-1258476D01*
X2200476Y-1258476D01*
X2181429Y-1248952D01*
X2171905Y-1239429D01*
X2162381Y-1220381D01*
X2152857Y-1182286D01*
X2152857Y-1134667D01*
X2162381Y-1096571D01*
X2171905Y-1077524D01*
X2181429Y-1068000D01*
X2200476Y-1058476D01*
X2352857Y-1239429D02*
X2362381Y-1248952D01*
X2352857Y-1258476D01*
X2343333Y-1248952D01*
X2352857Y-1239429D01*
X2352857Y-1258476D01*
X2486190Y-1058476D02*
X2505238Y-1058476D01*
X2524286Y-1068000D01*
X2533810Y-1077524D01*
X2543333Y-1096571D01*
X2552857Y-1134667D01*
X2552857Y-1182286D01*
X2543333Y-1220381D01*
X2533810Y-1239429D01*
X2524286Y-1248952D01*
X2505238Y-1258476D01*
X2486190Y-1258476D01*
X2467143Y-1248952D01*
X2457619Y-1239429D01*
X2448095Y-1220381D01*
X2438571Y-1182286D01*
X2438571Y-1134667D01*
X2448095Y-1096571D01*
X2457619Y-1077524D01*
X2467143Y-1068000D01*
X2486190Y-1058476D01*
X2619524Y-1058476D02*
X2743333Y-1058476D01*
X2676667Y-1134667D01*
X2705238Y-1134667D01*
X2724286Y-1144190D01*
X2733810Y-1153714D01*
X2743333Y-1172762D01*
X2743333Y-1220381D01*
X2733810Y-1239429D01*
X2724286Y-1248952D01*
X2705238Y-1258476D01*
X2648095Y-1258476D01*
X2629048Y-1248952D01*
X2619524Y-1239429D01*
X2838571Y-1258476D02*
X2876667Y-1258476D01*
X2895714Y-1248952D01*
X2905238Y-1239429D01*
X2924286Y-1210857D01*
X2933809Y-1172762D01*
X2933809Y-1096571D01*
X2924286Y-1077524D01*
X2914762Y-1068000D01*
X2895714Y-1058476D01*
X2857619Y-1058476D01*
X2838571Y-1068000D01*
X2829048Y-1077524D01*
X2819524Y-1096571D01*
X2819524Y-1144190D01*
X2829048Y-1163238D01*
X2838571Y-1172762D01*
X2857619Y-1182286D01*
X2895714Y-1182286D01*
X2914762Y-1172762D01*
X2924286Y-1163238D01*
X2933809Y-1144190D01*
X3105238Y-1125143D02*
X3105238Y-1258476D01*
X3057619Y-1048952D02*
X3010000Y-1191810D01*
X3133809Y-1191810D01*
X3200476Y-1058476D02*
X3200476Y-1096571D01*
X3276667Y-1058476D02*
X3276667Y-1096571D01*
X3571905Y-1334667D02*
X3562381Y-1325143D01*
X3543333Y-1296571D01*
X3533809Y-1277524D01*
X3524286Y-1248952D01*
X3514762Y-1201333D01*
X3514762Y-1163238D01*
X3524286Y-1115619D01*
X3533809Y-1087048D01*
X3543333Y-1068000D01*
X3562381Y-1039428D01*
X3571905Y-1029905D01*
X3752857Y-1258476D02*
X3638571Y-1258476D01*
X3695714Y-1258476D02*
X3695714Y-1058476D01*
X3676667Y-1087048D01*
X3657619Y-1106095D01*
X3638571Y-1115619D01*
X3819524Y-1058476D02*
X3943333Y-1058476D01*
X3876667Y-1134667D01*
X3905238Y-1134667D01*
X3924286Y-1144190D01*
X3933809Y-1153714D01*
X3943333Y-1172762D01*
X3943333Y-1220381D01*
X3933809Y-1239429D01*
X3924286Y-1248952D01*
X3905238Y-1258476D01*
X3848095Y-1258476D01*
X3829048Y-1248952D01*
X3819524Y-1239429D01*
X4181428Y-1258476D02*
X4181428Y-1058476D01*
X4267143Y-1258476D02*
X4267143Y-1153714D01*
X4257619Y-1134667D01*
X4238571Y-1125143D01*
X4210000Y-1125143D01*
X4190952Y-1134667D01*
X4181428Y-1144190D01*
X4390952Y-1258476D02*
X4371905Y-1248952D01*
X4362381Y-1239429D01*
X4352857Y-1220381D01*
X4352857Y-1163238D01*
X4362381Y-1144190D01*
X4371905Y-1134667D01*
X4390952Y-1125143D01*
X4419524Y-1125143D01*
X4438571Y-1134667D01*
X4448095Y-1144190D01*
X4457619Y-1163238D01*
X4457619Y-1220381D01*
X4448095Y-1239429D01*
X4438571Y-1248952D01*
X4419524Y-1258476D01*
X4390952Y-1258476D01*
X4571905Y-1258476D02*
X4552857Y-1248952D01*
X4543333Y-1229905D01*
X4543333Y-1058476D01*
X4724286Y-1248952D02*
X4705238Y-1258476D01*
X4667143Y-1258476D01*
X4648095Y-1248952D01*
X4638571Y-1229905D01*
X4638571Y-1153714D01*
X4648095Y-1134667D01*
X4667143Y-1125143D01*
X4705238Y-1125143D01*
X4724286Y-1134667D01*
X4733810Y-1153714D01*
X4733810Y-1172762D01*
X4638571Y-1191810D01*
X4810000Y-1248952D02*
X4829048Y-1258476D01*
X4867143Y-1258476D01*
X4886190Y-1248952D01*
X4895714Y-1229905D01*
X4895714Y-1220381D01*
X4886190Y-1201333D01*
X4867143Y-1191810D01*
X4838571Y-1191810D01*
X4819524Y-1182286D01*
X4810000Y-1163238D01*
X4810000Y-1153714D01*
X4819524Y-1134667D01*
X4838571Y-1125143D01*
X4867143Y-1125143D01*
X4886190Y-1134667D01*
X4962381Y-1334667D02*
X4971905Y-1325143D01*
X4990952Y-1296571D01*
X5000476Y-1277524D01*
X5010000Y-1248952D01*
X5019524Y-1201333D01*
X5019524Y-1163238D01*
X5010000Y-1115619D01*
X5000476Y-1087048D01*
X4990952Y-1068000D01*
X4971905Y-1039428D01*
X4962381Y-1029905D01*
D14*
X-16109Y-1470891D02*
X-16109Y-1393109D01*
X-93891Y-1393109D01*
X-93891Y-1470891D01*
X-16109Y-1470891D01*
D10*
X362381Y-1522476D02*
X248095Y-1522476D01*
X305238Y-1522476D02*
X305238Y-1322476D01*
X286190Y-1351048D01*
X267143Y-1370095D01*
X248095Y-1379619D01*
X448095Y-1503428D02*
X457619Y-1512952D01*
X448095Y-1522476D01*
X438571Y-1512952D01*
X448095Y-1503428D01*
X448095Y-1522476D01*
X648095Y-1522476D02*
X533810Y-1522476D01*
X590952Y-1522476D02*
X590952Y-1322476D01*
X571905Y-1351048D01*
X552857Y-1370095D01*
X533810Y-1379619D01*
X771905Y-1322476D02*
X790952Y-1322476D01*
X810000Y-1332000D01*
X819524Y-1341524D01*
X829048Y-1360571D01*
X838571Y-1398667D01*
X838571Y-1446286D01*
X829048Y-1484381D01*
X819524Y-1503428D01*
X810000Y-1512952D01*
X790952Y-1522476D01*
X771905Y-1522476D01*
X752857Y-1512952D01*
X743333Y-1503428D01*
X733809Y-1484381D01*
X724286Y-1446286D01*
X724286Y-1398667D01*
X733809Y-1360571D01*
X743333Y-1341524D01*
X752857Y-1332000D01*
X771905Y-1322476D01*
X962381Y-1322476D02*
X981428Y-1322476D01*
X1000476Y-1332000D01*
X1010000Y-1341524D01*
X1019524Y-1360571D01*
X1029048Y-1398667D01*
X1029048Y-1446286D01*
X1019524Y-1484381D01*
X1010000Y-1503428D01*
X1000476Y-1512952D01*
X981428Y-1522476D01*
X962381Y-1522476D01*
X943333Y-1512952D01*
X933809Y-1503428D01*
X924286Y-1484381D01*
X914762Y-1446286D01*
X914762Y-1398667D01*
X924286Y-1360571D01*
X933809Y-1341524D01*
X943333Y-1332000D01*
X962381Y-1322476D01*
X1114762Y-1522476D02*
X1114762Y-1389143D01*
X1114762Y-1408190D02*
X1124286Y-1398667D01*
X1143333Y-1389143D01*
X1171905Y-1389143D01*
X1190952Y-1398667D01*
X1200476Y-1417714D01*
X1200476Y-1522476D01*
X1200476Y-1417714D02*
X1210000Y-1398667D01*
X1229048Y-1389143D01*
X1257619Y-1389143D01*
X1276667Y-1398667D01*
X1286190Y-1417714D01*
X1286190Y-1522476D01*
X1381429Y-1522476D02*
X1381429Y-1389143D01*
X1381429Y-1408190D02*
X1390952Y-1398667D01*
X1410000Y-1389143D01*
X1438571Y-1389143D01*
X1457619Y-1398667D01*
X1467143Y-1417714D01*
X1467143Y-1522476D01*
X1467143Y-1417714D02*
X1476667Y-1398667D01*
X1495714Y-1389143D01*
X1524286Y-1389143D01*
X1543333Y-1398667D01*
X1552857Y-1417714D01*
X1552857Y-1522476D01*
X1943333Y-1312952D02*
X1771905Y-1570095D01*
X2200476Y-1322476D02*
X2219524Y-1322476D01*
X2238571Y-1332000D01*
X2248095Y-1341524D01*
X2257619Y-1360571D01*
X2267143Y-1398667D01*
X2267143Y-1446286D01*
X2257619Y-1484381D01*
X2248095Y-1503428D01*
X2238571Y-1512952D01*
X2219524Y-1522476D01*
X2200476Y-1522476D01*
X2181429Y-1512952D01*
X2171905Y-1503428D01*
X2162381Y-1484381D01*
X2152857Y-1446286D01*
X2152857Y-1398667D01*
X2162381Y-1360571D01*
X2171905Y-1341524D01*
X2181429Y-1332000D01*
X2200476Y-1322476D01*
X2352857Y-1503428D02*
X2362381Y-1512952D01*
X2352857Y-1522476D01*
X2343333Y-1512952D01*
X2352857Y-1503428D01*
X2352857Y-1522476D01*
X2486190Y-1322476D02*
X2505238Y-1322476D01*
X2524286Y-1332000D01*
X2533810Y-1341524D01*
X2543333Y-1360571D01*
X2552857Y-1398667D01*
X2552857Y-1446286D01*
X2543333Y-1484381D01*
X2533810Y-1503428D01*
X2524286Y-1512952D01*
X2505238Y-1522476D01*
X2486190Y-1522476D01*
X2467143Y-1512952D01*
X2457619Y-1503428D01*
X2448095Y-1484381D01*
X2438571Y-1446286D01*
X2438571Y-1398667D01*
X2448095Y-1360571D01*
X2457619Y-1341524D01*
X2467143Y-1332000D01*
X2486190Y-1322476D01*
X2724286Y-1389143D02*
X2724286Y-1522476D01*
X2676667Y-1312952D02*
X2629048Y-1455809D01*
X2752857Y-1455809D01*
X2810000Y-1322476D02*
X2933809Y-1322476D01*
X2867143Y-1398667D01*
X2895714Y-1398667D01*
X2914762Y-1408190D01*
X2924286Y-1417714D01*
X2933809Y-1436762D01*
X2933809Y-1484381D01*
X2924286Y-1503428D01*
X2914762Y-1512952D01*
X2895714Y-1522476D01*
X2838571Y-1522476D01*
X2819524Y-1512952D01*
X2810000Y-1503428D01*
X3000476Y-1322476D02*
X3124286Y-1322476D01*
X3057619Y-1398667D01*
X3086190Y-1398667D01*
X3105238Y-1408190D01*
X3114762Y-1417714D01*
X3124286Y-1436762D01*
X3124286Y-1484381D01*
X3114762Y-1503428D01*
X3105238Y-1512952D01*
X3086190Y-1522476D01*
X3029048Y-1522476D01*
X3010000Y-1512952D01*
X3000476Y-1503428D01*
X3200476Y-1322476D02*
X3200476Y-1360571D01*
X3276667Y-1322476D02*
X3276667Y-1360571D01*
X3571905Y-1598667D02*
X3562381Y-1589143D01*
X3543333Y-1560571D01*
X3533809Y-1541524D01*
X3524286Y-1512952D01*
X3514762Y-1465333D01*
X3514762Y-1427238D01*
X3524286Y-1379619D01*
X3533809Y-1351048D01*
X3543333Y-1332000D01*
X3562381Y-1303429D01*
X3571905Y-1293905D01*
X3733809Y-1322476D02*
X3695714Y-1322476D01*
X3676667Y-1332000D01*
X3667143Y-1341524D01*
X3648095Y-1370095D01*
X3638571Y-1408190D01*
X3638571Y-1484381D01*
X3648095Y-1503428D01*
X3657619Y-1512952D01*
X3676667Y-1522476D01*
X3714762Y-1522476D01*
X3733809Y-1512952D01*
X3743333Y-1503428D01*
X3752857Y-1484381D01*
X3752857Y-1436762D01*
X3743333Y-1417714D01*
X3733809Y-1408190D01*
X3714762Y-1398667D01*
X3676667Y-1398667D01*
X3657619Y-1408190D01*
X3648095Y-1417714D01*
X3638571Y-1436762D01*
X3990952Y-1522476D02*
X3990952Y-1322476D01*
X4076667Y-1522476D02*
X4076667Y-1417714D01*
X4067143Y-1398667D01*
X4048095Y-1389143D01*
X4019524Y-1389143D01*
X4000476Y-1398667D01*
X3990952Y-1408190D01*
X4200476Y-1522476D02*
X4181428Y-1512952D01*
X4171905Y-1503428D01*
X4162381Y-1484381D01*
X4162381Y-1427238D01*
X4171905Y-1408190D01*
X4181428Y-1398667D01*
X4200476Y-1389143D01*
X4229048Y-1389143D01*
X4248095Y-1398667D01*
X4257619Y-1408190D01*
X4267143Y-1427238D01*
X4267143Y-1484381D01*
X4257619Y-1503428D01*
X4248095Y-1512952D01*
X4229048Y-1522476D01*
X4200476Y-1522476D01*
X4381429Y-1522476D02*
X4362381Y-1512952D01*
X4352857Y-1493905D01*
X4352857Y-1322476D01*
X4533810Y-1512952D02*
X4514762Y-1522476D01*
X4476667Y-1522476D01*
X4457619Y-1512952D01*
X4448095Y-1493905D01*
X4448095Y-1417714D01*
X4457619Y-1398667D01*
X4476667Y-1389143D01*
X4514762Y-1389143D01*
X4533810Y-1398667D01*
X4543333Y-1417714D01*
X4543333Y-1436762D01*
X4448095Y-1455809D01*
X4619524Y-1512952D02*
X4638571Y-1522476D01*
X4676667Y-1522476D01*
X4695714Y-1512952D01*
X4705238Y-1493905D01*
X4705238Y-1484381D01*
X4695714Y-1465333D01*
X4676667Y-1455809D01*
X4648095Y-1455809D01*
X4629048Y-1446286D01*
X4619524Y-1427238D01*
X4619524Y-1417714D01*
X4629048Y-1398667D01*
X4648095Y-1389143D01*
X4676667Y-1389143D01*
X4695714Y-1398667D01*
X4771905Y-1598667D02*
X4781429Y-1589143D01*
X4800476Y-1560571D01*
X4810000Y-1541524D01*
X4819524Y-1512952D01*
X4829048Y-1465333D01*
X4829048Y-1427238D01*
X4819524Y-1379619D01*
X4810000Y-1351048D01*
X4800476Y-1332000D01*
X4781429Y-1303429D01*
X4771905Y-1293905D01*
D15*
X-65000Y-1761000D02*
X0Y-1696000D01*
X-65000Y-1631000D01*
X-130000Y-1696000D01*
X-65000Y-1761000D01*
D10*
X362381Y-1786476D02*
X248095Y-1786476D01*
X305238Y-1786476D02*
X305238Y-1586476D01*
X286190Y-1615048D01*
X267143Y-1634095D01*
X248095Y-1643619D01*
X448095Y-1767428D02*
X457619Y-1776952D01*
X448095Y-1786476D01*
X438571Y-1776952D01*
X448095Y-1767428D01*
X448095Y-1786476D01*
X524286Y-1586476D02*
X648095Y-1586476D01*
X581429Y-1662667D01*
X610000Y-1662667D01*
X629048Y-1672190D01*
X638571Y-1681714D01*
X648095Y-1700762D01*
X648095Y-1748381D01*
X638571Y-1767428D01*
X629048Y-1776952D01*
X610000Y-1786476D01*
X552857Y-1786476D01*
X533810Y-1776952D01*
X524286Y-1767428D01*
X771905Y-1586476D02*
X790952Y-1586476D01*
X810000Y-1596000D01*
X819524Y-1605524D01*
X829048Y-1624571D01*
X838571Y-1662667D01*
X838571Y-1710286D01*
X829048Y-1748381D01*
X819524Y-1767428D01*
X810000Y-1776952D01*
X790952Y-1786476D01*
X771905Y-1786476D01*
X752857Y-1776952D01*
X743333Y-1767428D01*
X733809Y-1748381D01*
X724286Y-1710286D01*
X724286Y-1662667D01*
X733809Y-1624571D01*
X743333Y-1605524D01*
X752857Y-1596000D01*
X771905Y-1586476D01*
X962381Y-1586476D02*
X981428Y-1586476D01*
X1000476Y-1596000D01*
X1010000Y-1605524D01*
X1019524Y-1624571D01*
X1029048Y-1662667D01*
X1029048Y-1710286D01*
X1019524Y-1748381D01*
X1010000Y-1767428D01*
X1000476Y-1776952D01*
X981428Y-1786476D01*
X962381Y-1786476D01*
X943333Y-1776952D01*
X933809Y-1767428D01*
X924286Y-1748381D01*
X914762Y-1710286D01*
X914762Y-1662667D01*
X924286Y-1624571D01*
X933809Y-1605524D01*
X943333Y-1596000D01*
X962381Y-1586476D01*
X1114762Y-1786476D02*
X1114762Y-1653143D01*
X1114762Y-1672190D02*
X1124286Y-1662667D01*
X1143333Y-1653143D01*
X1171905Y-1653143D01*
X1190952Y-1662667D01*
X1200476Y-1681714D01*
X1200476Y-1786476D01*
X1200476Y-1681714D02*
X1210000Y-1662667D01*
X1229048Y-1653143D01*
X1257619Y-1653143D01*
X1276667Y-1662667D01*
X1286190Y-1681714D01*
X1286190Y-1786476D01*
X1381429Y-1786476D02*
X1381429Y-1653143D01*
X1381429Y-1672190D02*
X1390952Y-1662667D01*
X1410000Y-1653143D01*
X1438571Y-1653143D01*
X1457619Y-1662667D01*
X1467143Y-1681714D01*
X1467143Y-1786476D01*
X1467143Y-1681714D02*
X1476667Y-1662667D01*
X1495714Y-1653143D01*
X1524286Y-1653143D01*
X1543333Y-1662667D01*
X1552857Y-1681714D01*
X1552857Y-1786476D01*
X1943333Y-1576952D02*
X1771905Y-1834095D01*
X2200476Y-1586476D02*
X2219524Y-1586476D01*
X2238571Y-1596000D01*
X2248095Y-1605524D01*
X2257619Y-1624571D01*
X2267143Y-1662667D01*
X2267143Y-1710286D01*
X2257619Y-1748381D01*
X2248095Y-1767428D01*
X2238571Y-1776952D01*
X2219524Y-1786476D01*
X2200476Y-1786476D01*
X2181429Y-1776952D01*
X2171905Y-1767428D01*
X2162381Y-1748381D01*
X2152857Y-1710286D01*
X2152857Y-1662667D01*
X2162381Y-1624571D01*
X2171905Y-1605524D01*
X2181429Y-1596000D01*
X2200476Y-1586476D01*
X2352857Y-1767428D02*
X2362381Y-1776952D01*
X2352857Y-1786476D01*
X2343333Y-1776952D01*
X2352857Y-1767428D01*
X2352857Y-1786476D01*
X2486190Y-1586476D02*
X2505238Y-1586476D01*
X2524286Y-1596000D01*
X2533810Y-1605524D01*
X2543333Y-1624571D01*
X2552857Y-1662667D01*
X2552857Y-1710286D01*
X2543333Y-1748381D01*
X2533810Y-1767428D01*
X2524286Y-1776952D01*
X2505238Y-1786476D01*
X2486190Y-1786476D01*
X2467143Y-1776952D01*
X2457619Y-1767428D01*
X2448095Y-1748381D01*
X2438571Y-1710286D01*
X2438571Y-1662667D01*
X2448095Y-1624571D01*
X2457619Y-1605524D01*
X2467143Y-1596000D01*
X2486190Y-1586476D01*
X2733810Y-1586476D02*
X2638571Y-1586476D01*
X2629048Y-1681714D01*
X2638571Y-1672190D01*
X2657619Y-1662667D01*
X2705238Y-1662667D01*
X2724286Y-1672190D01*
X2733810Y-1681714D01*
X2743333Y-1700762D01*
X2743333Y-1748381D01*
X2733810Y-1767428D01*
X2724286Y-1776952D01*
X2705238Y-1786476D01*
X2657619Y-1786476D01*
X2638571Y-1776952D01*
X2629048Y-1767428D01*
X2933809Y-1786476D02*
X2819524Y-1786476D01*
X2876667Y-1786476D02*
X2876667Y-1586476D01*
X2857619Y-1615048D01*
X2838571Y-1634095D01*
X2819524Y-1643619D01*
X3010000Y-1605524D02*
X3019524Y-1596000D01*
X3038571Y-1586476D01*
X3086190Y-1586476D01*
X3105238Y-1596000D01*
X3114762Y-1605524D01*
X3124286Y-1624571D01*
X3124286Y-1643619D01*
X3114762Y-1672190D01*
X3000476Y-1786476D01*
X3124286Y-1786476D01*
X3200476Y-1586476D02*
X3200476Y-1624571D01*
X3276667Y-1586476D02*
X3276667Y-1624571D01*
X3571905Y-1862667D02*
X3562381Y-1853143D01*
X3543333Y-1824571D01*
X3533809Y-1805524D01*
X3524286Y-1776952D01*
X3514762Y-1729333D01*
X3514762Y-1691238D01*
X3524286Y-1643619D01*
X3533809Y-1615048D01*
X3543333Y-1596000D01*
X3562381Y-1567428D01*
X3571905Y-1557905D01*
X3638571Y-1605524D02*
X3648095Y-1596000D01*
X3667143Y-1586476D01*
X3714762Y-1586476D01*
X3733809Y-1596000D01*
X3743333Y-1605524D01*
X3752857Y-1624571D01*
X3752857Y-1643619D01*
X3743333Y-1672190D01*
X3629048Y-1786476D01*
X3752857Y-1786476D01*
X3876667Y-1586476D02*
X3895714Y-1586476D01*
X3914762Y-1596000D01*
X3924286Y-1605524D01*
X3933809Y-1624571D01*
X3943333Y-1662667D01*
X3943333Y-1710286D01*
X3933809Y-1748381D01*
X3924286Y-1767428D01*
X3914762Y-1776952D01*
X3895714Y-1786476D01*
X3876667Y-1786476D01*
X3857619Y-1776952D01*
X3848095Y-1767428D01*
X3838571Y-1748381D01*
X3829048Y-1710286D01*
X3829048Y-1662667D01*
X3838571Y-1624571D01*
X3848095Y-1605524D01*
X3857619Y-1596000D01*
X3876667Y-1586476D01*
X4181428Y-1786476D02*
X4181428Y-1586476D01*
X4267143Y-1786476D02*
X4267143Y-1681714D01*
X4257619Y-1662667D01*
X4238571Y-1653143D01*
X4210000Y-1653143D01*
X4190952Y-1662667D01*
X4181428Y-1672190D01*
X4390952Y-1786476D02*
X4371905Y-1776952D01*
X4362381Y-1767428D01*
X4352857Y-1748381D01*
X4352857Y-1691238D01*
X4362381Y-1672190D01*
X4371905Y-1662667D01*
X4390952Y-1653143D01*
X4419524Y-1653143D01*
X4438571Y-1662667D01*
X4448095Y-1672190D01*
X4457619Y-1691238D01*
X4457619Y-1748381D01*
X4448095Y-1767428D01*
X4438571Y-1776952D01*
X4419524Y-1786476D01*
X4390952Y-1786476D01*
X4571905Y-1786476D02*
X4552857Y-1776952D01*
X4543333Y-1757905D01*
X4543333Y-1586476D01*
X4724286Y-1776952D02*
X4705238Y-1786476D01*
X4667143Y-1786476D01*
X4648095Y-1776952D01*
X4638571Y-1757905D01*
X4638571Y-1681714D01*
X4648095Y-1662667D01*
X4667143Y-1653143D01*
X4705238Y-1653143D01*
X4724286Y-1662667D01*
X4733810Y-1681714D01*
X4733810Y-1700762D01*
X4638571Y-1719809D01*
X4810000Y-1776952D02*
X4829048Y-1786476D01*
X4867143Y-1786476D01*
X4886190Y-1776952D01*
X4895714Y-1757905D01*
X4895714Y-1748381D01*
X4886190Y-1729333D01*
X4867143Y-1719809D01*
X4838571Y-1719809D01*
X4819524Y-1710286D01*
X4810000Y-1691238D01*
X4810000Y-1681714D01*
X4819524Y-1662667D01*
X4838571Y-1653143D01*
X4867143Y-1653143D01*
X4886190Y-1662667D01*
X4962381Y-1862667D02*
X4971905Y-1853143D01*
X4990952Y-1824571D01*
X5000476Y-1805524D01*
X5010000Y-1776952D01*
X5019524Y-1729333D01*
X5019524Y-1691238D01*
X5010000Y-1643619D01*
X5000476Y-1615048D01*
X4990952Y-1596000D01*
X4971905Y-1567428D01*
X4962381Y-1557905D01*
D16*
X-152000Y-1884000D02*
X0Y-2036000D01*
X0Y-1884000D02*
X-152000Y-2036000D01*
X0Y-1960000D02*
G75*
G03*
X0Y-1960000I-76000J0D01*
G01*
D10*
X362381Y-2050476D02*
X248095Y-2050476D01*
X305238Y-2050476D02*
X305238Y-1850476D01*
X286190Y-1879048D01*
X267143Y-1898095D01*
X248095Y-1907619D01*
X448095Y-2031428D02*
X457619Y-2040952D01*
X448095Y-2050476D01*
X438571Y-2040952D01*
X448095Y-2031428D01*
X448095Y-2050476D01*
X638571Y-1850476D02*
X543333Y-1850476D01*
X533810Y-1945714D01*
X543333Y-1936190D01*
X562381Y-1926667D01*
X610000Y-1926667D01*
X629048Y-1936190D01*
X638571Y-1945714D01*
X648095Y-1964762D01*
X648095Y-2012381D01*
X638571Y-2031428D01*
X629048Y-2040952D01*
X610000Y-2050476D01*
X562381Y-2050476D01*
X543333Y-2040952D01*
X533810Y-2031428D01*
X724286Y-1869524D02*
X733809Y-1860000D01*
X752857Y-1850476D01*
X800476Y-1850476D01*
X819524Y-1860000D01*
X829048Y-1869524D01*
X838571Y-1888571D01*
X838571Y-1907619D01*
X829048Y-1936190D01*
X714762Y-2050476D01*
X838571Y-2050476D01*
X962381Y-1850476D02*
X981428Y-1850476D01*
X1000476Y-1860000D01*
X1010000Y-1869524D01*
X1019524Y-1888571D01*
X1029048Y-1926667D01*
X1029048Y-1974286D01*
X1019524Y-2012381D01*
X1010000Y-2031428D01*
X1000476Y-2040952D01*
X981428Y-2050476D01*
X962381Y-2050476D01*
X943333Y-2040952D01*
X933809Y-2031428D01*
X924286Y-2012381D01*
X914762Y-1974286D01*
X914762Y-1926667D01*
X924286Y-1888571D01*
X933809Y-1869524D01*
X943333Y-1860000D01*
X962381Y-1850476D01*
X1114762Y-2050476D02*
X1114762Y-1917143D01*
X1114762Y-1936190D02*
X1124286Y-1926667D01*
X1143333Y-1917143D01*
X1171905Y-1917143D01*
X1190952Y-1926667D01*
X1200476Y-1945714D01*
X1200476Y-2050476D01*
X1200476Y-1945714D02*
X1210000Y-1926667D01*
X1229048Y-1917143D01*
X1257619Y-1917143D01*
X1276667Y-1926667D01*
X1286190Y-1945714D01*
X1286190Y-2050476D01*
X1381429Y-2050476D02*
X1381429Y-1917143D01*
X1381429Y-1936190D02*
X1390952Y-1926667D01*
X1410000Y-1917143D01*
X1438571Y-1917143D01*
X1457619Y-1926667D01*
X1467143Y-1945714D01*
X1467143Y-2050476D01*
X1467143Y-1945714D02*
X1476667Y-1926667D01*
X1495714Y-1917143D01*
X1524286Y-1917143D01*
X1543333Y-1926667D01*
X1552857Y-1945714D01*
X1552857Y-2050476D01*
X1943333Y-1840952D02*
X1771905Y-2098095D01*
X2200476Y-1850476D02*
X2219524Y-1850476D01*
X2238571Y-1860000D01*
X2248095Y-1869524D01*
X2257619Y-1888571D01*
X2267143Y-1926667D01*
X2267143Y-1974286D01*
X2257619Y-2012381D01*
X2248095Y-2031428D01*
X2238571Y-2040952D01*
X2219524Y-2050476D01*
X2200476Y-2050476D01*
X2181429Y-2040952D01*
X2171905Y-2031428D01*
X2162381Y-2012381D01*
X2152857Y-1974286D01*
X2152857Y-1926667D01*
X2162381Y-1888571D01*
X2171905Y-1869524D01*
X2181429Y-1860000D01*
X2200476Y-1850476D01*
X2352857Y-2031428D02*
X2362381Y-2040952D01*
X2352857Y-2050476D01*
X2343333Y-2040952D01*
X2352857Y-2031428D01*
X2352857Y-2050476D01*
X2486190Y-1850476D02*
X2505238Y-1850476D01*
X2524286Y-1860000D01*
X2533810Y-1869524D01*
X2543333Y-1888571D01*
X2552857Y-1926667D01*
X2552857Y-1974286D01*
X2543333Y-2012381D01*
X2533810Y-2031428D01*
X2524286Y-2040952D01*
X2505238Y-2050476D01*
X2486190Y-2050476D01*
X2467143Y-2040952D01*
X2457619Y-2031428D01*
X2448095Y-2012381D01*
X2438571Y-1974286D01*
X2438571Y-1926667D01*
X2448095Y-1888571D01*
X2457619Y-1869524D01*
X2467143Y-1860000D01*
X2486190Y-1850476D01*
X2733810Y-1850476D02*
X2638571Y-1850476D01*
X2629048Y-1945714D01*
X2638571Y-1936190D01*
X2657619Y-1926667D01*
X2705238Y-1926667D01*
X2724286Y-1936190D01*
X2733810Y-1945714D01*
X2743333Y-1964762D01*
X2743333Y-2012381D01*
X2733810Y-2031428D01*
X2724286Y-2040952D01*
X2705238Y-2050476D01*
X2657619Y-2050476D01*
X2638571Y-2040952D01*
X2629048Y-2031428D01*
X2838571Y-2050476D02*
X2876667Y-2050476D01*
X2895714Y-2040952D01*
X2905238Y-2031428D01*
X2924286Y-2002857D01*
X2933809Y-1964762D01*
X2933809Y-1888571D01*
X2924286Y-1869524D01*
X2914762Y-1860000D01*
X2895714Y-1850476D01*
X2857619Y-1850476D01*
X2838571Y-1860000D01*
X2829048Y-1869524D01*
X2819524Y-1888571D01*
X2819524Y-1936190D01*
X2829048Y-1955238D01*
X2838571Y-1964762D01*
X2857619Y-1974286D01*
X2895714Y-1974286D01*
X2914762Y-1964762D01*
X2924286Y-1955238D01*
X2933809Y-1936190D01*
X3048095Y-1936190D02*
X3029048Y-1926667D01*
X3019524Y-1917143D01*
X3010000Y-1898095D01*
X3010000Y-1888571D01*
X3019524Y-1869524D01*
X3029048Y-1860000D01*
X3048095Y-1850476D01*
X3086190Y-1850476D01*
X3105238Y-1860000D01*
X3114762Y-1869524D01*
X3124286Y-1888571D01*
X3124286Y-1898095D01*
X3114762Y-1917143D01*
X3105238Y-1926667D01*
X3086190Y-1936190D01*
X3048095Y-1936190D01*
X3029048Y-1945714D01*
X3019524Y-1955238D01*
X3010000Y-1974286D01*
X3010000Y-2012381D01*
X3019524Y-2031428D01*
X3029048Y-2040952D01*
X3048095Y-2050476D01*
X3086190Y-2050476D01*
X3105238Y-2040952D01*
X3114762Y-2031428D01*
X3124286Y-2012381D01*
X3124286Y-1974286D01*
X3114762Y-1955238D01*
X3105238Y-1945714D01*
X3086190Y-1936190D01*
X3200476Y-1850476D02*
X3200476Y-1888571D01*
X3276667Y-1850476D02*
X3276667Y-1888571D01*
X3571905Y-2126667D02*
X3562381Y-2117143D01*
X3543333Y-2088571D01*
X3533809Y-2069524D01*
X3524286Y-2040952D01*
X3514762Y-1993333D01*
X3514762Y-1955238D01*
X3524286Y-1907619D01*
X3533809Y-1879048D01*
X3543333Y-1860000D01*
X3562381Y-1831428D01*
X3571905Y-1821905D01*
X3733809Y-1917143D02*
X3733809Y-2050476D01*
X3686190Y-1840952D02*
X3638571Y-1983809D01*
X3762381Y-1983809D01*
X3876667Y-1850476D02*
X3895714Y-1850476D01*
X3914762Y-1860000D01*
X3924286Y-1869524D01*
X3933809Y-1888571D01*
X3943333Y-1926667D01*
X3943333Y-1974286D01*
X3933809Y-2012381D01*
X3924286Y-2031428D01*
X3914762Y-2040952D01*
X3895714Y-2050476D01*
X3876667Y-2050476D01*
X3857619Y-2040952D01*
X3848095Y-2031428D01*
X3838571Y-2012381D01*
X3829048Y-1974286D01*
X3829048Y-1926667D01*
X3838571Y-1888571D01*
X3848095Y-1869524D01*
X3857619Y-1860000D01*
X3876667Y-1850476D01*
X4181428Y-2050476D02*
X4181428Y-1850476D01*
X4267143Y-2050476D02*
X4267143Y-1945714D01*
X4257619Y-1926667D01*
X4238571Y-1917143D01*
X4210000Y-1917143D01*
X4190952Y-1926667D01*
X4181428Y-1936190D01*
X4390952Y-2050476D02*
X4371905Y-2040952D01*
X4362381Y-2031428D01*
X4352857Y-2012381D01*
X4352857Y-1955238D01*
X4362381Y-1936190D01*
X4371905Y-1926667D01*
X4390952Y-1917143D01*
X4419524Y-1917143D01*
X4438571Y-1926667D01*
X4448095Y-1936190D01*
X4457619Y-1955238D01*
X4457619Y-2012381D01*
X4448095Y-2031428D01*
X4438571Y-2040952D01*
X4419524Y-2050476D01*
X4390952Y-2050476D01*
X4571905Y-2050476D02*
X4552857Y-2040952D01*
X4543333Y-2021905D01*
X4543333Y-1850476D01*
X4724286Y-2040952D02*
X4705238Y-2050476D01*
X4667143Y-2050476D01*
X4648095Y-2040952D01*
X4638571Y-2021905D01*
X4638571Y-1945714D01*
X4648095Y-1926667D01*
X4667143Y-1917143D01*
X4705238Y-1917143D01*
X4724286Y-1926667D01*
X4733810Y-1945714D01*
X4733810Y-1964762D01*
X4638571Y-1983809D01*
X4810000Y-2040952D02*
X4829048Y-2050476D01*
X4867143Y-2050476D01*
X4886190Y-2040952D01*
X4895714Y-2021905D01*
X4895714Y-2012381D01*
X4886190Y-1993333D01*
X4867143Y-1983809D01*
X4838571Y-1983809D01*
X4819524Y-1974286D01*
X4810000Y-1955238D01*
X4810000Y-1945714D01*
X4819524Y-1926667D01*
X4838571Y-1917143D01*
X4867143Y-1917143D01*
X4886190Y-1926667D01*
X4962381Y-2126667D02*
X4971905Y-2117143D01*
X4990952Y-2088571D01*
X5000476Y-2069524D01*
X5010000Y-2040952D01*
X5019524Y-1993333D01*
X5019524Y-1955238D01*
X5010000Y-1907619D01*
X5000476Y-1879048D01*
X4990952Y-1860000D01*
X4971905Y-1831428D01*
X4962381Y-1821905D01*
M02*
